<?xml version="1.0" encoding="utf-8"?><svg xmlns="http://www.w3.org/2000/svg" xmlns:xlink="http://www.w3.org/1999/xlink"><symbol viewBox="0 0 49.68032 55.73601" id="left-opt-1" xmlns="http://www.w3.org/2000/svg"><title>left-opt-1</title><g fill="#92a1cd"><path d="M35.452 11.989h2.879v16.267h-2.879zM31.491 18.004h2.877v10.252h-2.877z"/><path d="M13.572 7.539a20.314 20.314 0 1 1 5.512 30.292 3.731 3.731 0 0 1-.827 2.18L6.664 54.345a3.749 3.749 0 0 1-5.83-4.714l11.593-14.337a3.75 3.75 0 0 1 1.959-1.261 20.32 20.32 0 0 1-.814-26.494zM29.42 35.032a14.91 14.91 0 1 0-14.91-14.91 14.91 14.91 0 0 0 14.91 14.91z"/><path d="M27.541 20.123h2.879v8.134h-2.879zM23.681 18.004h2.876v10.252h-2.876zM19.733 24.192h2.877v4.064h-2.877z"/></g></symbol><symbol viewBox="0 0 53.4043 53.4053" id="left-opt-2" xmlns="http://www.w3.org/2000/svg"><title>left-opt-2</title><g fill="#92a1cd"><path d="M50.858 21.587h-1.51a23.233 23.233 0 0 0-17.59-17.588V2.487a24.702 24.702 0 0 1 19.1 19.1zM49.349 31.701h1.51a24.707 24.707 0 0 1-19.101 19.1v-1.513a23.234 23.234 0 0 0 17.59-17.587zM47.687 23.785h5.718v5.717h-5.718zM43.067 27.517h-8.301l-7.569 15.41-5.002-24.322-5.43 10.573h-6.43a1.613 1.613 0 0 1 0-3.21h4.47L23.505 9.03l4.948 24.058 4.313-8.781h10.302a1.614 1.614 0 0 1 0 3.21zM23.842 47.688h5.719v5.717h-5.719zM23.842 0h5.719v5.717h-5.719zM2.545 31.701h1.513a23.224 23.224 0 0 0 17.588 17.587v1.514a24.707 24.707 0 0 1-19.101-19.1zM4.058 21.587H2.545a24.704 24.704 0 0 1 19.1-19.1V4A23.227 23.227 0 0 0 4.059 21.587zM0 23.785h5.715v5.717H0z"/></g></symbol><symbol viewBox="0 0 59.9414 45.7475" id="left-opt-3" xmlns="http://www.w3.org/2000/svg"><title>left-opt-3</title><g fill="#92a1cd"><path d="M38.897 30.759a7.014 7.014 0 0 1-2.585-.97v15.958h2.585zM40.966 45.748h3.192V30.285a6.295 6.295 0 0 0-2.424.236 7.507 7.507 0 0 1-.768.183zM26.547 45.748h2.584V23.294q-.542-.527-1.12-1.07c-.528-.493-1.014-.942-1.464-1.346zM31.2 45.748h3.041V28.253c-.956-.827-1.95-1.815-3.04-2.907zM53.923 39.308a24.723 24.723 0 0 0-3.04-4.76v11.2h3.04zM55.994 45.748h3.947a8.57 8.57 0 0 1-3.947-3.052zM14.96 32.162a31.839 31.839 0 0 1-3.04 4.071v9.515h3.04zM5.196 42.382A42.717 42.717 0 0 1 0 45.748h5.196zM48.813 32.44a10.275 10.275 0 0 0-2.585-1.618v14.926h2.585zM7.266 45.748H9.85v-7.331a44.106 44.106 0 0 1-2.585 2.331zM17.031 45.748h2.585V21.983c-.716 1.445-1.513 3.393-2.496 5.92-.028.073-.06.143-.089.215zM21.686 45.748h2.79v-26.5c-1.099-.688-1.96-.803-2.79-.206zM58.291 0l-12.62 6.961 3.897 3.006-5.267 7.698-6.167-10.448-8.635 12.533 2.655 2.084 5.77-8.376L44.1 23.92l8.139-11.893 3.819 2.947L58.291 0z"/></g></symbol><symbol viewBox="0 0 56.22371 55.1015" id="left-opt-4" xmlns="http://www.w3.org/2000/svg"><title>left-opt-4</title><g fill="#92a1cd"><path d="M51.389 41.37a27.487 27.487 0 0 1-6.41 7.514 5.024 5.024 0 1 1 6.41-7.515z"/><path d="M44.978 48.884a4.968 4.968 0 0 0 2.505.672 5.023 5.023 0 0 0 3.906-8.187 26.863 26.863 0 0 0 1.721-3.524 8.74 8.74 0 1 1-11.335 13.304 26.554 26.554 0 0 0 3.203-2.265zM53.11 37.845a8.726 8.726 0 0 0-13.385 2.68l-6.633-2.256a7.376 7.376 0 1 0-14.666-1.114 7.298 7.298 0 0 0 .522 2.702l-5.995 3.691a5.764 5.764 0 0 0-7.994-.23A27.396 27.396 0 0 1 0 27.55h27.55V0a27.56 27.56 0 0 1 25.56 37.845z"/><path d="M25.804 32.908a4.243 4.243 0 1 1-4.24 4.247 4.248 4.248 0 0 1 4.24-4.247zM24.026 1.781v22.254H1.781A22.248 22.248 0 0 1 24.026 1.781z"/><path d="M32.27 40.714l6.62 2.26a8.827 8.827 0 0 0-.146 1.56 8.697 8.697 0 0 0 3.031 6.615 27.575 27.575 0 0 1-28.415.021 5.718 5.718 0 0 0 1.25-3.58 5.526 5.526 0 0 0-.308-1.85l6.004-3.686a7.363 7.363 0 0 0 11.964-1.34zM11.309 49.805q.99.732 2.051 1.365a5.77 5.77 0 1 1-8.401-7.853c.467.677.972 1.332 1.503 1.961a3.317 3.317 0 1 0 4.847 4.527z"/><path d="M12.161 47.59a3.284 3.284 0 0 1-.852 2.215 27.452 27.452 0 0 1-4.847-4.527 3.291 3.291 0 0 1 2.372-1.006 3.326 3.326 0 0 1 3.327 3.319z"/></g></symbol><symbol viewBox="0 0 54.2139 53.1006" id="left-opt-5" xmlns="http://www.w3.org/2000/svg"><title>left-opt-5</title><g fill="#92a1cd"><path d="M47.327 30.515a.55.55 0 0 0 .566-.53v-5.91a.55.55 0 0 0-.566-.535h-8.265a.551.551 0 0 0-.57.534v5.91a.55.55 0 0 0 .57.53zm-32.256 0a.55.55 0 0 0 .567-.53v-5.91a.55.55 0 0 0-.567-.535H6.8a.55.55 0 0 0-.563.534v5.91a.549.549 0 0 0 .563.53zm16.02-23.081h-8.269a.55.55 0 0 0-.566.533v5.91a.548.548 0 0 0 .566.534h8.269a.55.55 0 0 0 .562-.534v-5.91a.551.551 0 0 0-.562-.533zm.042 16.106H22.86a.545.545 0 0 0-.563.534v5.91a.545.545 0 0 0 .563.53h8.272a.549.549 0 0 0 .562-.53v-5.91a.55.55 0 0 0-.562-.534zm-4.83-7.935H21.8a.712.712 0 0 1-.712-.715V6.958a.708.708 0 0 1 .712-.712h10.394a.71.71 0 0 1 .708.712v7.932a.714.714 0 0 1-.708.715h-4.51v6.742h4.552a.71.71 0 0 1 .711.715v3.276h4.377v-3.276a.71.71 0 0 1 .709-.715h10.4a.71.71 0 0 1 .712.715v7.931a.71.71 0 0 1-.712.715h-10.4a.71.71 0 0 1-.709-.715v-3.277h-4.377v3.277a.71.71 0 0 1-.711.715H21.839a.712.712 0 0 1-.712-.715v-3.277h-4.238v3.277a.712.712 0 0 1-.711.715h-10.4a.712.712 0 0 1-.712-.715v-7.931a.712.712 0 0 1 .711-.715h10.4a.712.712 0 0 1 .712.715v3.276h4.238v-3.276a.712.712 0 0 1 .712-.715h4.464zM18.963 44.845h16.288v2.679H18.963zM35.827 53.1H18.384c-2.145 0-3.885-1.125-3.885-2.519v-1.964H39.71v1.964c0 1.394-1.74 2.52-3.884 2.52z"/><path d="M29.447 41.946a1.228 1.228 0 1 0 0-2.455h-4.684a1.228 1.228 0 1 0 0 2.455zM0 0h54.214v43.73H0zm52.212 1.788H1.998V37.48h50.212z"/></g></symbol><symbol viewBox="0 0 63.1973 49.188" id="left-opt-7" xmlns="http://www.w3.org/2000/svg"><title>left-opt-7</title><g fill="#92a1cd"><path d="M53.844 42.14H37.009v-6.087a3.181 3.181 0 0 1 1.076-2.23l7.385-1.93 1.485-4.154c-1.485-.595-2.077-3.27-2.077-3.27a63.435 63.435 0 0 1-1.04-9.648c0-4.157 6.237-4.457 6.237-4.457h.06s6.233.3 6.233 4.457a63.458 63.458 0 0 1-1.04 9.648s-.592 2.675-2.077 3.27l1.485 4.154 7.385 1.93a3.181 3.181 0 0 1 1.076 2.23v6.087zM31.791 17.469h-5.146v-3.345a1.75 1.75 0 0 1 .592-1.227l4.064-1.064.815-2.284c-.815-.324-1.142-1.794-1.142-1.794a34.908 34.908 0 0 1-.572-5.305c0-2.288 3.43-2.45 3.43-2.45h.03s3.43.162 3.43 2.45a34.908 34.908 0 0 1-.572 5.305s-.327 1.47-1.142 1.794l.815 2.285 4.064 1.064a1.75 1.75 0 0 1 .591 1.226v3.345h-9.257z"/><path d="M41.502 46.227c0-.784-2.01-1.415-4.493-1.415-2.483 0-4.493.63-4.493 1.415 0 .776 2.01 1.413 4.493 1.413 2.483 0 4.493-.638 4.493-1.413zm-19.86-14.25c1.613 0 2.923-.412 2.923-.92 0-.51-1.31-.922-2.924-.922-1.614 0-2.925.411-2.925.923 0 .508 1.31.92 2.925.92zm14.23-12.004c0-.352-.907-.64-2.025-.64-1.118 0-2.026.288-2.026.64s.908.637 2.026.637c1.118 0 2.026-.286 2.026-.637zm-1.959 1.24a.703.703 0 0 1-.087.103l-8.966 8.13c1.172.37 1.927.948 1.927 1.594 0 .673-.824 1.265-2.09 1.64l10.776 10.65a18.23 18.23 0 0 1 1.536-.063c4.112 0 7.448 1.325 7.448 2.96s-3.336 2.961-7.448 2.961-7.445-1.326-7.445-2.96c0-1.062 1.4-1.99 3.507-2.514L22.296 33.066c-.214.008-.433.017-.655.017-2.84 0-5.146-.913-5.146-2.043s2.306-2.047 5.146-2.047q.392 0 .766.027l9.077-8.23c-.48-.22-.772-.505-.772-.817 0-.689 1.404-1.248 3.135-1.248 1.731 0 3.135.56 3.135 1.248 0 .679-1.368 1.232-3.069 1.24z"/><path d="M21.641 27.757H0v-5.03a2.63 2.63 0 0 1 .89-1.84l6.104-1.596 1.227-3.436c-1.227-.49-1.72-2.7-1.72-2.7a52.535 52.535 0 0 1-.856-7.976c0-3.43 5.151-3.676 5.151-3.676h.049s5.151.247 5.151 3.676a52.564 52.564 0 0 1-.856 7.977s-.49 2.21-1.72 2.699l1.23 3.436 6.102 1.595a2.63 2.63 0 0 1 .89 1.84z"/></g></symbol><symbol viewBox="0 0 66.8242 44.8184" id="left-opt-6" xmlns="http://www.w3.org/2000/svg"><title>left-otp-6</title><path d="M49.82 10.607a16.97 16.97 0 0 0-5.674.974 15.476 15.476 0 0 0-30.353 2.135 15.604 15.604 0 0 0-6.65 28.609v-1.276a2.408 2.408 0 0 1 .817-1.687l5.602-1.464 1.125-3.152c-1.125-.452-1.577-2.478-1.577-2.478a48.096 48.096 0 0 1-.789-7.32c0-3.153 4.73-3.378 4.73-3.378h.046s4.728.225 4.728 3.379a48.149 48.149 0 0 1-.788 7.32s-.45 2.025-1.575 2.477l1.125 3.152 3.152.823-4.488 1.172a3.073 3.073 0 0 0-1.04 2.15v2.775l1.28-.007V42.83a2.91 2.91 0 0 1 .985-2.037l6.757-1.766 1.359-3.803c-1.359-.543-1.9-2.989-1.9-2.989a57.99 57.99 0 0 1-.953-8.83c0-3.804 5.707-4.075 5.707-4.075h.055s5.704.271 5.704 4.075a58.049 58.049 0 0 1-.951 8.83s-.542 2.446-1.901 2.989l1.359 3.803 6.757 1.766a2.91 2.91 0 0 1 .985 2.037v1.809l1.203-.008v-2.617a3.07 3.07 0 0 0-1.04-2.15l-4.487-1.172 3.152-.824 1.126-3.154c-1.126-.45-1.577-2.475-1.577-2.475a48.21 48.21 0 0 1-.787-7.321c0-3.152 4.728-3.377 4.728-3.377h.046s4.729.225 4.729 3.377a48.158 48.158 0 0 1-.788 7.32s-.45 2.027-1.577 2.476l1.127 3.154 5.6 1.463a2.416 2.416 0 0 1 .817 1.69v2.538a17.005 17.005 0 0 0-5.906-32.951z" fill="#92a1cd"/></symbol><symbol viewBox="0 0 50.34811 44.18652" id="middle-opt-1" xmlns="http://www.w3.org/2000/svg"><title>middle-opt-1</title><g fill="#3e4a68"><path d="M50.348 35.335H31.911h18.437zM9.007 29.676H3.761V1.955h42.004v27.721H21.572l.41 1.146 3.098.81h22.482V0H1.97v31.632H5.5l3.097-.81.41-1.146zM30.106 32.945l.286.237a5.742 5.742 0 0 1 1.52 2.153h18.436l-2.786-2.587H29.353zM32.258 37.08v.136H48.39c1.084 0 1.958-.508 1.958-1.134v-.254H32.072a4.596 4.596 0 0 1 .186 1.251z"/><path d="M30.3 35.828a3.776 3.776 0 0 0-.26-.493 4.126 4.126 0 0 0-.717-.86l-6.609-1.727-2.014-.526-.211-.59-.7-1.956-.823-2.304c1.734-.695 2.425-3.819 2.425-3.819a74.096 74.096 0 0 0 1.214-11.266c0-4.853-7.278-5.204-7.278-5.204h-.07s-7.283.35-7.283 5.204a74.07 74.07 0 0 0 1.214 11.266s.691 3.124 2.425 3.819l-.824 2.304-.699 1.956-.21.59-2.015.526-6.608 1.727a4.127 4.127 0 0 0-.717.86 3.775 3.775 0 0 0-.26.493 3.102 3.102 0 0 0-.273 1.179c0 .025-.007.047-.007.073v7.107h30.58V37.08a3.075 3.075 0 0 0-.28-1.252z"/></g></symbol><symbol viewBox="0 0 40.98165 38.40395" id="middle-opt-2" xmlns="http://www.w3.org/2000/svg"><title>middle-opt-2</title><g fill="#3e4a68"><path d="M12.548 22.824H5.907V11.242a3.066 3.066 0 0 0-2.958-2.88A3.194 3.194 0 0 0 0 11.15v16.158c0 1.18.485 1.92 1.487 1.92h7.27v6.904c0 1.327 1.242 2.27 2.945 2.27 1.704.001 2.539-.977 2.539-2.2V24.754a1.701 1.701 0 0 0-1.693-1.93zM7.855 3.997A3.896 3.896 0 0 1 4.07 7.994 3.896 3.896 0 0 1 .283 3.997 3.896 3.896 0 0 1 4.07 0a3.896 3.896 0 0 1 3.786 3.997zM28.433 22.824h6.642V11.242a3.066 3.066 0 0 1 2.958-2.88 3.194 3.194 0 0 1 2.949 2.789v16.158c0 1.18-.485 1.92-1.487 1.92h-7.27v6.904c0 1.327-1.242 2.27-2.945 2.27-1.704.001-2.539-.977-2.539-2.2V24.754a1.701 1.701 0 0 1 1.692-1.93zM33.127 3.997a3.791 3.791 0 1 0 7.571 0 3.791 3.791 0 1 0-7.57 0z"/><path d="M19.55 11.802a1.202 1.202 0 0 0-1.504.81l-2.389 6.456H8.542a1.3 1.3 0 0 0 0 2.598h7.642a1.262 1.262 0 0 0 .994-.487 1.436 1.436 0 0 0 .28-.464l2.697-7.292a1.24 1.24 0 0 0-.605-1.621zM21.642 11.802a1.202 1.202 0 0 1 1.504.81l2.39 6.456h7.114a1.3 1.3 0 0 1 0 2.598h-7.642a1.261 1.261 0 0 1-.993-.487 1.438 1.438 0 0 1-.28-.464l-2.698-7.292a1.24 1.24 0 0 1 .605-1.621z"/></g></symbol><symbol viewBox="0 0 59.4248 47.3379" id="middle-opt-3" xmlns="http://www.w3.org/2000/svg"><title>middle-opt-3</title><g fill="#3e4a68"><path d="M33.323 0h8.356v4.672a17.71 17.71 0 0 1 5.07 2.103l3.302-3.306 5.906 5.906-3.302 3.3a17.873 17.873 0 0 1 2.099 5.071h4.67v8.355h-4.67a17.942 17.942 0 0 1-2.099 5.07l3.302 3.302-5.906 5.907-3.302-3.307a17.796 17.796 0 0 1-2.06 1.068 20.287 20.287 0 0 0 .221-3c0-.205-.01-.415-.021-.624a14.602 14.602 0 1 0-20.115-19.753c-.08 0-.167-.006-.258-.006a20.918 20.918 0 0 0-3.371.281 17.938 17.938 0 0 1 1.208-2.363L19.04 9.375l5.912-5.906 3.301 3.306a17.791 17.791 0 0 1 5.07-2.103zM16.403 17.88a2.991 2.991 0 1 0-2.994 2.995 2.99 2.99 0 0 0 2.994-2.994zm-6.112-5.107a5.905 5.905 0 0 1 1.71-.707v-1.575h2.816v1.575a5.962 5.962 0 0 1 1.71.707l1.117-1.11 1.99 1.99-1.116 1.11a6.135 6.135 0 0 1 .706 1.71h1.575v2.816h-1.575a6.013 6.013 0 0 1-.706 1.704l1.116 1.117-1.99 1.995-1.117-1.12a6.03 6.03 0 0 1-1.71.711v1.575h-2.816v-1.575a5.972 5.972 0 0 1-1.71-.712l-1.11 1.121-1.99-1.99 1.11-1.122a5.846 5.846 0 0 1-.706-1.704H6.02v-2.815h1.575a5.962 5.962 0 0 1 .706-1.71l-1.11-1.112 1.99-1.99z"/><path d="M29.451 35.142a4.933 4.933 0 1 0-4.935 4.941 4.929 4.929 0 0 0 4.935-4.941zm-14.52 2.33h-2.6v-4.644h2.6a9.8 9.8 0 0 1 1.165-2.827l-1.84-1.833 3.285-3.28 1.839 1.834a9.845 9.845 0 0 1 2.816-1.165v-2.6h4.639v2.6a9.904 9.904 0 0 1 2.826 1.165l1.834-1.834 3.28 3.28L32.94 30a9.952 9.952 0 0 1 1.17 2.827h2.6v4.644h-2.6a9.958 9.958 0 0 1-1.17 2.816l1.833 1.839-3.279 3.28-1.834-1.835a10.043 10.043 0 0 1-2.826 1.165v2.6h-4.639v-2.6a9.983 9.983 0 0 1-2.816-1.165l-1.839 1.834-3.285-3.28 1.84-1.838a9.68 9.68 0 0 1-1.165-2.816zM8.458 30.757a2.438 2.438 0 1 0-2.438 2.437 2.44 2.44 0 0 0 2.438-2.437zm-1.29 6.013H4.865v-1.278a5.01 5.01 0 0 1-1.386-.577l-.907.906L.95 34.203l.911-.917a4.402 4.402 0 0 1-.577-1.386H0v-2.293h1.283a4.602 4.602 0 0 1 .577-1.391l-.91-.907 1.622-1.623.906.907a5.01 5.01 0 0 1 1.387-.577v-1.29h2.303v1.29a5.014 5.014 0 0 1 1.392.577l.906-.906 1.624 1.623-.911.906a4.893 4.893 0 0 1 .577 1.391h1.283V31.9h-1.283a4.669 4.669 0 0 1-.577 1.386l.91.917-1.623 1.618-.906-.906a5.014 5.014 0 0 1-1.392.577z"/></g></symbol><symbol viewBox="0 0 40.55245 51.26296" id="middle-opt-4" xmlns="http://www.w3.org/2000/svg"><title>middle-opt-4</title><g fill="#3e4a68"><path d="M31.024 33.862a8.515 8.515 0 0 1 1.655-3.402 27.431 27.431 0 0 0 4.124-6.637A14.25 14.25 0 0 1 14.95 6.544c-2.964.992-5.942 2.232-9.256 3.211C.3 11.35 3.406 15.098 3.406 15.098s-1.442 7.76-.06 11.084l.407 1.48-3.695 5.893a1.477 1.477 0 0 0 1.51 1.953l2.019.071s-.514 3.22-.124 3.638c.39.418.448 1.067.65 2.209.204 1.14.78.834.799 2.697.015 1.861.71 5.123 4.997 2.924 4.284-2.199 5.423-2.402 5.423-2.402.025 0 .57.022 2.443 1.946 1.916 1.969 4.047 4.672 4.047 4.672l11.63-9.836c-1.351-2.103-2.953-5-2.428-7.565z"/><path d="M27.756 16.702a3.908 3.908 0 1 0-3.907-3.907 3.913 3.913 0 0 0 3.907 3.907z"/><path d="M32.987 12.796a5.229 5.229 0 1 0-5.23 5.228 5.23 5.23 0 0 0 5.23-5.228zm.325-8.857l1.842-1.842L38.457 5.4l-1.84 1.844a10.38 10.38 0 0 1 1.334 3.22h2.601v4.669h-2.6a10.581 10.581 0 0 1-1.331 3.22l1.836 1.839-3.303 3.305-1.842-1.841a10.336 10.336 0 0 1-3.217 1.335v2.604H25.42V22.99a10.336 10.336 0 0 1-3.218-1.335l-1.841 1.841-3.304-3.305 1.842-1.84a10.422 10.422 0 0 1-1.336-3.22h-2.601v-4.668h2.601A10.4 10.4 0 0 1 18.9 7.238l-1.842-1.84 3.304-3.3 1.841 1.84a10.394 10.394 0 0 1 3.218-1.335V0h4.674v2.603a10.394 10.394 0 0 1 3.217 1.336z"/></g></symbol><symbol viewBox="0 0 62.1944 45.2315" id="right-opt-1" xmlns="http://www.w3.org/2000/svg"><title>right-opt-1</title><g fill="#7987c1"><path d="M58.8 38.448H3.394V0H58.8zM56.629 2.376H5.57v33.692h51.058zM18.319 42.946H0l3.393-3.141h55.408l3.393 3.141H18.319zM0 43.549h62.194v.305c0 .76-1.065 1.378-2.38 1.378H2.38c-1.315 0-2.38-.618-2.38-1.378z"/><g><path d="M37.31 22.997s2.503-.76 2.503 2.196v5.76a3.359 3.359 0 0 1-3.562 3.259 23.92 23.92 0 0 1-7.657-1.743h-2.88V26.48s2.048-.075 2.428-1.288c.378-1.211 1.669-7.958 1.669-7.958s2.95-.226 2.879 1.82a13.946 13.946 0 0 1-.91 4.093s-.079 1.439 1.59 1.06a39.839 39.839 0 0 0 3.94-1.21zM23.89 33.531h-2.056v-8.105a.318.318 0 0 1 .043-.002h2.014a1.32 1.32 0 0 1 1.322 1.317v5.473a1.32 1.32 0 0 1-1.322 1.317z"/></g><g><path d="M43.317 14.376a1.482 1.482 0 1 0-.505 2.033 1.48 1.48 0 0 0 .505-2.033zm-.024 2.826a2.408 2.408 0 0 1-3.03-.442l-5.306 3.204a.464.464 0 0 1-.639-.158.47.47 0 0 1 .159-.635l5.31-3.204a2.408 2.408 0 1 1 3.506 1.235zM32.317 7.828a1.481 1.481 0 1 0-1.48 1.48 1.48 1.48 0 0 0 1.48-1.48zm-1.48-2.409a2.408 2.408 0 0 1 .46 4.772v6.2a.463.463 0 1 1-.926 0v-6.2a2.408 2.408 0 0 1 .467-4.772zM19.382 16.483a1.48 1.48 0 1 0-.502-2.033 1.478 1.478 0 0 0 .502 2.033zm-1.297-2.51a2.409 2.409 0 0 1 4.325 2.068l5.308 3.204a.463.463 0 1 1-.48.793l-5.308-3.204a2.407 2.407 0 0 1-3.845-2.861z"/></g></g></symbol></svg>
