<svg xmlns="http://www.w3.org/2000/svg" viewBox="0 0 43.11 54.41"><defs><style>.cls-1{fill:#3e4a68;}</style></defs><title>3</title><g id="Слой_2" data-name="Слой 2"><g id="Слой_1-2" data-name="Слой 1"><path id="_3" data-name="3" class="cls-1" d="M39.17,26.23v-18A8.22,8.22,0,0,0,31,0H12.16A8.22,8.22,0,0,0,3.94,8.22v18H0V54.41H43.11V26.23ZM18.41,47a2.4,2.4,0,0,1-.66-.65,5,5,0,0,1,1.84-7.54V33.32a2,2,0,0,1,3.94,0v5.46a4.83,4.83,0,0,1,2.84,4.39C26.37,46.84,22.28,49.55,18.41,47ZM33.34,26.23H9.78v-18a2.38,2.38,0,0,1,2.38-2.38H31.88A1.46,1.46,0,0,1,33.34,7.3Z"/></g></g></svg>