<svg xmlns="http://www.w3.org/2000/svg" viewBox="0 0 52.48 47.34"><defs><style>.cls-1{fill:#3e4a68;}.cls-2{fill:#fff;}</style></defs><title>7</title><g id="Слой_2" data-name="Слой 2"><g id="Слой_1-2" data-name="Слой 1"><g id="_7" data-name="7"><path class="cls-1" d="M50.27,0H2.21A2.34,2.34,0,0,0,0,2.27V34.86a2.29,2.29,0,0,0,2.21,2.27H50.27a2.44,2.44,0,0,0,2.21-2.27V2.27A2.2,2.2,0,0,0,50.27,0Z"/><path class="cls-1" d="M42.28,45.72c0,1.68-.71,1.62-1.59,1.62H11.8c-.88,0-1.6-.05-1.6-1.62v-.65c0-1.57.72-1.63,1.6-1.63H40.69c.88,0,1.59,0,1.59,1.63Z"/><rect class="cls-1" x="20.62" y="38.49" width="11.24" height="3.6"/><path class="cls-2" d="M29.76,24.06a2.76,2.76,0,1,0,2.76,2.76A2.76,2.76,0,0,0,29.76,24.06Zm0,3.78a1,1,0,1,1,1-1A1,1,0,0,1,29.76,27.84Z"/><path class="cls-2" d="M8.34,24.06a2.76,2.76,0,1,0,2.76,2.76A2.77,2.77,0,0,0,8.34,24.06Zm0,3.78a1,1,0,1,1,1-1A1,1,0,0,1,8.34,27.84Z"/><path class="cls-2" d="M19.78,11.55a2.76,2.76,0,1,0,2.75,2.76A2.76,2.76,0,0,0,19.78,11.55Zm0,3.78a1,1,0,1,1,1-1A1,1,0,0,1,19.78,15.33Z"/><path class="cls-2" d="M45.93,5.17a2.76,2.76,0,1,0,2.76,2.76A2.76,2.76,0,0,0,45.93,5.17Zm0,3.78a1,1,0,1,1,1-1A1,1,0,0,1,45.93,9Z"/><rect class="cls-2" x="7.18" y="19.83" width="13.56" height="1.85" transform="translate(-10.74 16.82) rotate(-47.01)"/><rect class="cls-2" x="24.01" y="14.57" width="1.85" height="12.08" transform="translate(-7.41 21.1) rotate(-40.44)"/><rect class="cls-2" x="26.87" y="16.7" width="21.66" height="1.85" transform="translate(-0.06 35.12) rotate(-49.91)"/></g></g></g></svg>