<svg xmlns="http://www.w3.org/2000/svg" viewBox="0 0 48.8 57.12"><defs><style>.cls-1{fill:#7988c2;}.cls-2{fill:#3e4a68;}</style></defs><title>5</title><g id="Слой_2" data-name="Слой 2"><g id="Слой_1-2" data-name="Слой 1"><g id="_5" data-name="5"><rect class="cls-1" x="8.41" y="8.4" width="18.75" height="1.36"/><rect class="cls-1" x="8.41" y="12.49" width="5.22" height="1.36"/><rect class="cls-1" x="8.41" y="16.57" width="5.22" height="1.36"/><rect class="cls-1" x="8.41" y="20.66" width="5.22" height="1.36"/><rect class="cls-1" x="8.41" y="24.75" width="5.22" height="1.36"/><rect class="cls-1" x="8.41" y="28.84" width="5.22" height="1.36"/><rect class="cls-1" x="8.41" y="32.92" width="5.22" height="1.36"/><rect class="cls-1" x="8.41" y="37.01" width="5.22" height="1.36"/><path class="cls-1" d="M2.54,45.91A.52.52,0,0,1,2,45.38V2.61a.51.51,0,0,1,.51-.52H32.86a.51.51,0,0,1,.5.52V9.52h2V2.61A2.58,2.58,0,0,0,32.86,0H2.54A2.58,2.58,0,0,0,0,2.61V45.38A2.58,2.58,0,0,0,2.54,48H14V45.91Z"/><path class="cls-2" d="M47.28,11.22H17a1.54,1.54,0,0,0-1.52,1.56V55.56A1.54,1.54,0,0,0,17,57.12H44.52l4.28-4.59V12.78A1.54,1.54,0,0,0,47.28,11.22ZM41.59,48.55H22.84V47.18H41.59Zm0-4.09H22.84V43.1H41.59Zm0-4.09H22.84V39H41.59Zm0-4.09H22.84V34.92H41.59Zm0-4.08H22.84V30.83H41.59Zm0-4.09H22.84V26.75H41.59Zm0-4.09H22.84V22.66H41.59Zm0-4.09H22.84V18.57H41.59Zm2.09,36.15V52.15a.62.62,0,0,1,.61-.63H48Z"/></g></g></g></svg>