<svg xmlns="http://www.w3.org/2000/svg" viewBox="0 0 48.41 56.96"><defs><style>.cls-1{fill:#3e4a68;}.cls-2{fill:#7988c2;}</style></defs><title>4</title><g id="Слой_2" data-name="Слой 2"><g id="Слой_1-2" data-name="Слой 1"><g id="_4" data-name="4"><polygon class="cls-1" points="33.89 37.78 33.2 37.78 32.24 38.79 33.57 43.51 34.79 38.79 33.89 37.78"/><path class="cls-1" d="M43.62,49.56c-.25-3.55-1-7-1.64-7.93a8.25,8.25,0,0,0-5.5-3.23l-2.89,9.33-3.18-9.29a9.24,9.24,0,0,0-4.14,1.87,7.18,7.18,0,0,0-1,.95c-.81,1-1.66,4.36-2,8.11a26.94,26.94,0,0,0,.23,5.75c.37,2.54,19.52,2.36,19.83,0A28.48,28.48,0,0,0,43.62,49.56Z"/><path class="cls-1" d="M38.88,31.26a5.44,5.44,0,1,1-5.44-5.44A5.45,5.45,0,0,1,38.88,31.26Z"/><polygon class="cls-1" points="14.38 11.96 13.68 11.96 12.73 12.96 14.06 17.69 15.28 12.96 14.38 11.96"/><path class="cls-1" d="M24.1,23.73c-.25-3.55-1-6.95-1.63-7.92A8.3,8.3,0,0,0,17,12.57l-2.89,9.34-3.19-9.3a9.37,9.37,0,0,0-4.13,1.88,7.76,7.76,0,0,0-1,.94c-.81.95-1.66,4.36-2,8.12A26.88,26.88,0,0,0,4,29.29c.37,2.55,19.52,2.36,19.83,0A28.41,28.41,0,0,0,24.1,23.73Z"/><path class="cls-1" d="M19.37,5.44A5.44,5.44,0,1,1,13.93,0,5.44,5.44,0,0,1,19.37,5.44Z"/><path class="cls-2" d="M46.48,32A19.15,19.15,0,0,0,28,14v3.83A15.34,15.34,0,0,1,42.64,32H40.75l3.83,4.26L48.41,32Z"/><path class="cls-2" d="M1.93,38.57a19.15,19.15,0,0,0,18.5,18V52.72A15.35,15.35,0,0,1,5.76,38.57h1.9L3.83,34.31,0,38.57Z"/></g></g></g></svg>