<svg xmlns="http://www.w3.org/2000/svg" viewBox="0 0 62.03 49.93"><defs><style>.cls-1{fill:#3e4a68;}.cls-2{fill:#7988c2;}</style></defs><title>2</title><g id="Слой_2" data-name="Слой 2"><g id="Слой_1-2" data-name="Слой 1"><g id="_2" data-name="2"><path class="cls-1" d="M51.27,13.34H1.68A1.74,1.74,0,0,0,0,15.13v33a1.74,1.74,0,0,0,1.68,1.8H51.27A1.74,1.74,0,0,0,53,48.13v-33A1.74,1.74,0,0,0,51.27,13.34ZM1.76,19.81H51V28.7H1.76ZM51.05,36.25H1.5v-1.2H51.05Zm0-2H1.5V33.07H51.05Zm0-2H1.5V31.09H51.05Z"/><path class="cls-2" d="M58.78,0H10.93A3.28,3.28,0,0,0,7.68,3.31v7.57h3.25V3.31H58.78v32H54.84v3.31h3.94A3.29,3.29,0,0,0,62,35.26V3.31A3.28,3.28,0,0,0,58.78,0Z"/></g></g></g></svg>