<svg xmlns="http://www.w3.org/2000/svg" viewBox="0 0 41.87 52.04"><defs><style>.cls-1{fill:#3e4a68;}</style></defs><title>9</title><g id="Слой_2" data-name="Слой 2"><g id="Слой_1-2" data-name="Слой 1"><g id="_9" data-name="9"><path class="cls-1" d="M29.11,10c0,5.12-5.29,9.28-8.17,9.28S12.76,15.09,12.76,10c0-8.12,3.66-10,8.18-10S29.11,1.85,29.11,10Z"/><path class="cls-1" d="M35.93,25.75c-2.91-3.56-6.56-5.2-11.52-5.64L21,29l-3.53-8.81A17.46,17.46,0,0,0,6.26,25.69C1.89,30.43-1.38,45.54.58,48.45s7.81-.35,9.51-1.93a55.06,55.06,0,0,0,0,5.52H31.91a51.87,51.87,0,0,0-.11-5.52c1.75,2,7.57,5.26,9.53,2C43.1,45.6,40.35,31.17,35.93,25.75Zm-5.11,9.13a2.83,2.83,0,0,0-3.15,1c-1.35,1.89-.45,5.59,2,8.28a10.51,10.51,0,0,0,1.1,1l-9.49,3.93-9.55-4v0a11.25,11.25,0,0,0,1.07-1c2.45-2.68,3.35-6.39,2-8.28a2.82,2.82,0,0,0-3.08-1V27.15l9.55,4,9.54-4Z"/><path class="cls-1" d="M22.91,20.39c-.55-.05-1.12-.07-1.73-.07a16.81,16.81,0,0,0-2.18.13l2,5Z"/></g></g></g></svg>