<svg xmlns="http://www.w3.org/2000/svg" viewBox="0 0 41.37 55.08"><defs><style>.cls-1{fill:#3e4a68;}.cls-2{fill:#7988c2;}</style></defs><title>8</title><g id="Слой_2" data-name="Слой 2"><g id="Слой_1-2" data-name="Слой 1"><g id="_8" data-name="8"><path class="cls-1" d="M35.47,10.84q-2.56,4.7-4.66,14.29-1.74,7.86-1.6,9.53a1.52,1.52,0,0,0,0,.66,1.62,1.62,0,0,1,.07.6c-.16,1-.46,1.6-.9,1.67a9.79,9.79,0,0,1-3.33-1.17c-1.93-.82-3-1.43-3.1-1.83,0,0-.06-.73-.1-2.06A42.71,42.71,0,0,1,20,23.6Q19,26,18.15,28.39a14.87,14.87,0,0,0-.8,5.17,2.12,2.12,0,0,0,0,.8,2,2,0,0,1,0,.83c-.2,1-.51,1.5-.93,1.63a1.54,1.54,0,0,1-.53.07,10.27,10.27,0,0,1-3.47-.7c-1.58-.56-2.47-1.22-2.7-2a14.13,14.13,0,0,0-.06-1.73,67.88,67.88,0,0,1-2.1-10.33,81.45,81.45,0,0,1-.44-10.76,5.47,5.47,0,0,1-.16-2c.29-1,.69-1.43,1.2-1.4A7.49,7.49,0,0,1,11,9c1.27.66,2,1.2,2,1.6,0,.13,0,.76-.11,1.9s-.13,2-.13,2.83a70.12,70.12,0,0,0,1,9.26L18.38,10a5.93,5.93,0,0,1,.4-1.21,1.56,1.56,0,0,1,1-.59,8.73,8.73,0,0,1,2.67,1c1.53.75,2.31,1.26,2.33,1.56,0,.15,0,.9-.07,2.23-.06,1.57-.1,3-.1,4.13a45.18,45.18,0,0,0,.53,7.43c.61-3.07,1.38-6.23,2.34-9.5a50.86,50.86,0,0,1,1.7-5.3c.24-1.1.83-1.59,1.76-1.46a9.38,9.38,0,0,1,2.47.77C34.58,9.64,35.27,10.22,35.47,10.84Z"/><path class="cls-2" d="M20.69,0a20.69,20.69,0,0,0-8.64,39.49l8.64,15.59L30.91,38.67A20.69,20.69,0,0,0,20.69,0Zm0,36.88a16.2,16.2,0,1,1,16.19-16.2A16.2,16.2,0,0,1,20.69,36.88Z"/></g></g></g></svg>