<svg version="1" xmlns="http://www.w3.org/2000/svg" width="933.333" height="933.333" viewBox="0 0 700.000000 700.000000"><path d="M186.6 23.7c-.1.1-2.8.4-6.1.7-14.1 1.4-17.7 2-30 5.2-37 9.5-66.4 26.1-92.5 52.4-31.4 31.5-50.4 70.1-56.4 115-1.3 9.3-1.3 42.4-.1 50 .3 1.9.7 4.8.9 6.5.7 6.1 2.8 16.3 5.7 28 10.4 41.3 31.8 86.2 63.3 132.9 7.9 11.7 32.8 45.6 35.7 48.6.8.8 3 3.5 4.8 6 1.9 2.5 3.9 4.9 4.5 5.5.6.5 4.5 5 8.6 10 15.3 18.4 35.2 39.8 63 67.5 15.7 15.7 31 30.7 34 33.3 3 2.7 8 7.2 11 10 3 2.9 9.1 8.3 13.5 12.2 4.4 3.8 8.7 7.6 9.6 8.5 14.6 14 90.9 75 93.9 75 1.2 0 9-5.7 33.5-24.9 21.1-16.5 42.1-34 72.9-61.1 20.7-18.2 64.2-60.7 87.1-85 32-34 65.8-76.3 88-110 39.7-60.3 61-112.7 67.2-165 1.2-10.2.9-41.6-.5-50.7-3.4-22-9.4-41.2-18.6-60-4.1-8.5-12.9-23.4-15.5-26.5-.6-.7-3.5-4.4-6.3-8.3-10.9-14.7-31.4-33.2-49.8-45-8.1-5.3-26.1-14.4-32.5-16.6-2.2-.7-4.4-1.6-5-2-3.5-2.3-29.1-8.8-41.5-10.5-14.9-2.1-41.2-2-53.5.1-21.8 3.9-33.4 7.1-48.7 13.4-12.4 5.2-21 9.8-33.1 17.8-13.5 8.9-20.4 14.7-32.9 27.5l-10.7 10.9-12.3-12.3c-13.5-13.4-19.7-18.5-33.2-27.3-20.3-13.3-49.4-25-69.2-28.1-2.1-.3-5.7-1-8-1.4-6.3-1.4-39.8-3.3-40.8-2.3zM226 72.5c34.9 7.2 65.3 25.2 87.8 52 5.5 6.6 14 19.5 19.4 29.5 5.9 10.8 8.9 16.2 12.4 22.3 1.9 3.2 3.4 6.3 3.4 6.8 0 2.5 2.5-1.4 11.9-18.6 10.6-19.2 19.5-33.3 25.2-39.9 26-30 57.1-47.4 95.9-53.4 6.1-.9 35.3-.9 41.4.1 17.2 2.8 31.6 7.2 45.4 14 53 26.2 85.5 79.1 84.7 137.8-.4 23-3.4 39.4-12 65.4-18.6 56.1-58.5 118.4-118.9 186-22.3 24.9-60.3 62.8-87.1 87-5.5 4.9-10.7 9.7-11.5 10.5-.8.8-4.9 4.4-9 8-4.1 3.6-8 6.9-8.6 7.5-.6.5-3.5 3-6.4 5.5-2.9 2.5-8.5 7.2-12.5 10.5-3.9 3.3-10.2 8.5-14 11.5-3.9 3-7.2 5.7-7.5 6-2.1 2.2-15.1 12-16 12-.9 0-33.4-25.5-37.6-29.5-.6-.5-3.5-3-6.4-5.5-11.3-9.5-27.2-23.4-35-30.5-3-2.7-6-5.5-6.6-6-10.6-9.1-52.1-49.7-69.5-68-31.2-32.9-63.1-72.1-83.4-102.5-3.8-5.8-7.2-10.7-7.5-11-.4-.3-4.4-6.8-9-14.5-33.4-55.8-49.1-103.1-48.5-146.3.4-23.4 4.4-41.1 14.5-62.7 3.4-7.3 11.4-21.3 12.9-22.5.3-.3 2.6-3.1 5-6.4C97.2 103 129.8 82.1 162 74.2c10.4-2.6 13.8-3.1 26.5-3.8 5.5-.4 10.1-.7 10.2-.8.4-.3 23.6 2.1 27.3 2.9z"/></svg>