<svg xmlns="http://www.w3.org/2000/svg" viewBox="0 0 34.28422 34.28825">
  <defs>
    <style>
      .a {
        fill: #7b9bd1;
      }

      .b {
        fill: #fff;
      }
    </style>
  </defs>
  <title>bt</title>
  <g>
    <path class="a" d="M33.77165,21.29161a14.13976,14.13976,0,1,0-.00053,0Z"/>
    <path class="b" d="M24.70139,14.70187c.34073-2.28123-1.39617-3.50756-3.77116-4.32566L21.70064,7.286l-1.88156-.46878L19.069,9.826c-.494-.12323-1.00185-.23948-1.50653-.35467l.75541-3.0286-1.88-.46879-.771,3.08915c-.40931-.09322-.81113-.18537-1.20115-.28234L14.468,8.7711l-2.59411-.64772-.50039,2.00907s1.39563.31984,1.36617.33966a1.0005,1.0005,0,0,1,.87648,1.094l-.87756,3.52042a1.55709,1.55709,0,0,1,.19555.06268l-.19823-.04929-1.23062,4.93159a.68468.68468,0,0,1-.862.44682c.01875.02732-1.36724-.34128-1.36724-.34128l-.93381,2.15372,2.44838.61022c.45539.11412.90167.23359,1.34045.3461l-.77844,3.12611,1.87887.46878.77149-3.09236c.51271.1393,1.011.26788,1.49849.389l-.76826,3.07789,1.881.46878.77845-3.11968c3.20754.607,5.62.36217,6.6342-2.53839.8181-2.33587-.04018-3.68329-1.72779-4.56245a3.00219,3.00219,0,0,0,2.40177-2.76287Zm-4.29834,6.02666c-.58182,2.33588-4.51423,1.07365-5.78986.75648l1.03293-4.14082c1.27509.31824,5.3634.94828,4.75747,3.38434Zm.58129-6.06041c-.53039,2.12478-3.80383,1.04525-4.86622.78058l.93649-3.75561C18.117,11.95775,21.53724,12.45171,20.98434,14.66812Z"/>
  </g>
</svg>
