<svg xmlns="http://www.w3.org/2000/svg" viewBox="0 0 34.28422 34.28483">
  <defs>
    <style>
      .a {
        fill: #fff;
      }

      .b {
        fill: #7b9bd1;
      }
    </style>
  </defs>
  <title>gh</title>
  <g>
    <path class="a" d="M17.14211,0A17.14242,17.14242,0,1,1,0,17.14211,17.14256,17.14256,0,0,1,17.14211,0Z"/>
    <g>
      <path class="b" d="M17.14218,0a17.14407,17.14407,0,0,0-5.41927,33.40846c.85667.15864,1.17127-.37187,1.17127-.82468,0-.4087-.016-1.75919-.02326-3.19154-4.76911,1.037-5.77541-2.02257-5.77541-2.02257A4.53842,4.53842,0,0,0,5.1922,24.8615c-1.55524-1.064.11723-1.0422.11723-1.0422a3.60342,3.60342,0,0,1,2.62783,1.76658,3.64933,3.64933,0,0,0,4.98838,1.4251A3.65042,3.65042,0,0,1,14.014,24.71872c-3.80743-.43358-7.81007-1.90345-7.81007-8.4718a6.63389,6.63389,0,0,1,1.76631-4.60118,6.15978,6.15978,0,0,1,.166-4.53652s1.43948-.46074,4.71533,1.75717a16.26171,16.26171,0,0,1,8.585,0c3.272-2.21791,4.70941-1.75717,4.70941-1.75717a6.1519,6.1519,0,0,1,.16806,4.53652,6.62116,6.62116,0,0,1,1.76416,4.60118c0,6.584-4.01017,8.03379-7.82728,8.45809a4.09792,4.09792,0,0,1,1.16266,3.17447c0,2.2936-.0199,4.13964-.0199,4.7043,0,.45617.30855.99071,1.17759.82239A17.14467,17.14467,0,0,0,17.14218,0"/>
      <path class="b" d="M6.42033,24.41945c-.03764.0851-.17181.11065-.29375.0523-.12436-.05593-.19427-.17209-.15394-.25759.037-.08766.17114-.11213.29524-.05324.12462.05579.19561.173.15245.25853m.84323.75235c-.08174.07582-.24159.0406-.35009-.07919a.262.262,0,0,1-.05015-.35628c.0843-.07569.23931-.04033.35171.07933.11212.12086.1339.27964.0484.35627m.57864.96248c-.10513.073-.27695.00457-.383-.14789-.105-.15232-.105-.33517.00229-.40844.10648-.07327.27561-.00739.38316.14386.10487.155.10487.33785-.00255.4126m.97834,1.11481c-.094.10352-.294.07582-.44057-.06561a.32966.32966,0,0,1-.09734-.438c.09505-.10379.29631-.07461.44393.06561.14883.13794.19427.33557.09411.438m1.26417.37644c-.04127.13417-.23406.19521-.4282.13821-.19387-.05876-.32078-.216-.28166-.35171.04034-.13511.23393-.1987.42955-.13767.1936.05848.32078.21457.28045.35117m1.43894.15958c.00484.14144-.15985.25867-.36367.26122-.205.00444-.37079-.11-.37294-.249,0-.14277.16093-.25893.36582-.2623.20381-.004.37079.10958.37079.25007m1.41354-.05418c.02447.13794-.11724.27964-.31957.31729-.199.0363-.38317-.04881-.40858-.18554-.02473-.14143.11966-.283.31823-.3197.20274-.03523.3841.04772.40992.188"/>
    </g>
  </g>
</svg>
