<svg xmlns="http://www.w3.org/2000/svg" viewBox="0 0 34.28422 34.28825">
  <defs>
    <style>
      .a {
        fill: #fff;
      }

      .b {
        fill: #7b9bd1;
      }
    </style>
  </defs>
  <title>me</title>
  <g>
    <path class="a" d="M33.77165,21.29161a14.13976,14.13976,0,1,0-.00053,0Z"/>
    <path class="b" d="M17.14211.002A17.14211,17.14211,0,1,0,34.28422,17.14413,17.1376,17.1376,0,0,0,17.14211.002ZM28.72977,24.16961h.99533v2.93607H20.70732V24.16961h1.88745V11.16716h-.09251L18.09468,27.10568H14.68232L10.33157,11.16716h-.11011V24.16961h1.88745v2.93607H4.55912V24.16961H5.526a1.05827,1.05827,0,0,0,.92062-.80739V10.99285a1.12725,1.12725,0,0,0-.92062-.87432H4.55912V7.18258H13.9997L17.09926,18.717h.08551L20.31272,7.18258H29.7251v2.93606h-.99533a1.12936,1.12936,0,0,0-.89212.87431V23.36222A1.05613,1.05613,0,0,0,28.72977,24.16961Z"/>
  </g>
</svg>
