<svg xmlns="http://www.w3.org/2000/svg" viewBox="0 0 34.28422 34.28422">
  <defs>
    <style>
      .a {
        fill: #7b9bd1;
      }

      .b {
        fill: #fff;
      }
    </style>
  </defs>
  <title>ms</title>
  <g>
    <path class="a" d="M34.28422,17.14211A17.14211,17.14211,0,1,1,17.14211,0,17.13684,17.13684,0,0,1,34.28422,17.14211Z"/>
    <path class="b" d="M5.423,8.53848a1.63229,1.63229,0,0,0-.60909.1133L8.652,12.60315l3.88067,4.02208.0707.08519.1133.1133.1133.1133.22659.24065,3.32824,3.413a3.25668,3.25668,0,0,0,.34171.24609,1.29363,1.29363,0,0,0,.51709.16179,1.22987,1.22987,0,0,0,.56921-.13415,2.1836,2.1836,0,0,0,.34216-.27329l3.85213-3.97948,3.89473-4.008,3.75288-3.86619a1.64758,1.64758,0,0,0-.79309-.19849H5.423Zm-1.17558.48129a2.23256,2.23256,0,0,0-.66573,1.62877V23.62115a2.28777,2.28777,0,0,0,.45319,1.38768l.53794-.50984,4.008-3.89472,3.55484-3.44154L12.065,17.078,8.17027,13.07,4.27554,9.04788Zm25.91713.1278L26.36909,13.0704l-3.88068,4.008-.07069.0707L26.114,20.73206l4.008,3.89472.24064.2266a2.33022,2.33022,0,0,0,.33989-1.23223V10.64854a2.2756,2.2756,0,0,0-.53793-1.501ZM12.58889,17.63042,9.04856,21.072,5.02648,24.96668l-.50984.49582a1.668,1.668,0,0,0,.90639.28324H28.86165a1.68541,1.68541,0,0,0,1.06228-.39654l-.25469-.2547-4.02208-3.89473-3.69623-3.56888-3.32824,3.427a3.85354,3.85354,0,0,1-.4763.33309,2.1351,2.1351,0,0,1-.905.237,2.17573,2.17573,0,0,1-.9-.26513,1.76576,1.76576,0,0,1-.38113-.27644l-3.37129-3.456Z"/>
  </g>
</svg>
