<svg xmlns="http://www.w3.org/2000/svg" viewBox="0 0 34.28422 34.28483">
  <defs>
    <style>
      .a, .b {
        fill: #7b9bd1;
      }

      .b, .c {
        stroke: #fff;
      }

      .b {
        stroke-width: 0.75118px;
      }

      .c {
        fill: none;
        stroke-width: 0.75px;
      }

      .d {
        fill: #fff;
      }
    </style>
  </defs>
  <title>rd</title>
  <g>
    <path class="a" d="M17.14211,0A17.14242,17.14242,0,1,1,0,17.14211,17.14256,17.14256,0,0,1,17.14211,0Z"/>
    <g>
      <path class="b" d="M9.69154,15.97326A2.61933,2.61933,0,0,1,7.1332,18.64939a2.67872,2.67872,0,0,1,0-5.35213A2.62007,2.62007,0,0,1,9.69154,15.97326Zm19.23344.06049A2.56119,2.56119,0,1,1,26.36665,13.357,2.61873,2.61873,0,0,1,28.925,16.03375Z"/>
      <path class="c" d="M23.71991,8.79892c-1.9329-.794-3.90351-1.735-5.3814-.70674-1.71177.788-1.63107,3.37026-1.50067,5.99961"/>
      <path class="b" d="M27.3675,19.87077c0,4.11753-4.7273,7.45608-10.55893,7.45608-5.83113,0-10.55782-3.33855-10.55782-7.45608,0-4.11693,4.72669-7.45474,10.55782-7.45474C22.6402,12.416,27.3675,15.75384,27.3675,19.87077Z"/>
      <path class="b" d="M27.16057,9.19527a2.25619,2.25619,0,1,1-4.49956,0,2.25619,2.25619,0,1,1,4.49956,0Z"/>
      <path class="d" d="M13.94168,18.37071A1.50795,1.50795,0,1,1,12.43391,16.827,1.52613,1.52613,0,0,1,13.94168,18.37071Zm7.84411-.13212A1.50735,1.50735,0,1,1,20.27912,16.695,1.526,1.526,0,0,1,21.78579,18.23859Z"/>
      <path class="c" d="M12.33889,22.47392c3.34749,2.36582,5.87166,1.43308,8.293.08791"/>
    </g>
  </g>
</svg>
