<svg xmlns="http://www.w3.org/2000/svg" viewBox="0 0 34.28422 34.28422">
  <defs>
    <style>
      .a {
        fill: #7b9bd1;
      }

      .b {
        fill: #b3bfdc;
      }

      .c {
        fill: #8899c3;
      }

      .d {
        fill: #fbfdff;
      }
    </style>
  </defs>
  <title>tg</title>
  <g>
    <path class="a" d="M34.28422,17.14211A17.14211,17.14211,0,1,1,17.14211,0,17.13684,17.13684,0,0,1,34.28422,17.14211Z"/>
    <g>
      <path class="b" d="M13.99972,24.99871c-.55724,0-.45684-.21407-.65777-.7425L11.71345,18.885l10.1147-6.31417,1.185.31456-.9853,2.68555Z"/>
      <path class="c" d="M13.99972,24.99871a1.11585,1.11585,0,0,0,.85722-.42868c.37076-.35631,5.14288-4.99937,5.14288-4.99937l-2.92946-.71385-2.71323,1.71348-.35741,4.28552Z"/>
      <path class="d" d="M14.2855,20.62768l6.91366,5.09993c.7856.42856,1.35716.214,1.55687-.7289l2.81473-13.25649c.28579-1.15684-.44361-1.67172-1.20043-1.32851L7.85721,16.78457c-1.12881.45745-1.11448,1.08632-.19971,1.35717l4.24243,1.32913,9.81349-6.18561c.45672-.28582.886-.12857.54279.186Z"/>
    </g>
  </g>
</svg>
