<svg xmlns="http://www.w3.org/2000/svg" viewBox="0 0 34.28422 34.28422">
  <defs>
    <style>
      .a {
        fill: #7b9bd1;
      }

      .b {
        fill: #fff;
      }
    </style>
  </defs>
  <title>tw</title>
  <g>
    <circle class="a" cx="17.14211" cy="17.14211" r="17.14211"/>
    <path class="b" d="M28.134,10.32283a9.00247,9.00247,0,0,1-2.59066.71093,4.528,4.528,0,0,0,1.98322-2.49494,9.00276,9.00276,0,0,1-2.86445,1.09407,4.51177,4.51177,0,0,0-7.8004,3.08616,4.56056,4.56056,0,0,0,.116,1.02843A12.80171,12.80171,0,0,1,7.68322,9.03561a4.51365,4.51365,0,0,0,1.39487,6.02055,4.48591,4.48591,0,0,1-2.043-.56373v.05681A4.5126,4.5126,0,0,0,10.65223,18.971a4.49669,4.49669,0,0,1-1.18795.15786,4.55376,4.55376,0,0,1-.84841-.07959,4.51659,4.51659,0,0,0,4.21206,3.13236,9.08922,9.08922,0,0,1-6.67648,1.86653A12.82393,12.82393,0,0,0,25.89438,13.244q0-.29313-.01322-.58344A9.19395,9.19395,0,0,0,28.134,10.32283Z"/>
  </g>
</svg>
