<svg xmlns="http://www.w3.org/2000/svg" viewBox="0 0 34.28422 34.28483">
  <defs>
    <style>
      .a {
        fill: #7b9bd1;
      }

      .b {
        fill: #fff;
      }
    </style>
  </defs>
  <title>yt</title>
  <g>
    <path class="a" d="M17.14211,0A17.14242,17.14242,0,1,1,0,17.14211,17.14256,17.14256,0,0,1,17.14211,0Z"/>
    <g>
      <path class="a" d="M20.9195,16.9102c-2.08473-1.11448-4.08166-2.1386-6.12157-3.20814v6.39829c2.14753-1.16763,4.41042-2.23656,6.1305-3.19015Z"/>
      <path class="b" d="M15.19011,25.10817a46.11054,46.11054,0,0,1-6.71885-.33966,2.95105,2.95105,0,0,1-1.54071-.801,3.24719,3.24719,0,0,1-.73123-1.4081,9.22354,9.22354,0,0,1-.3115-2.06734,49.02691,49.02691,0,0,1,0-6.701c.13935-1.23815.20693-2.7071,1.13126-3.56384a3.03728,3.03728,0,0,1,1.515-.7665,83.60131,83.60131,0,0,1,8.61648-.30317,83.76818,83.76818,0,0,1,8.61709.30317,2.9674,2.9674,0,0,1,1.77323,1.05106,8.83339,8.83339,0,0,1,.944,4.26875c.03526.61467.03526,4.10737,0,4.72265a10.80383,10.80383,0,0,1-.5434,3.51009,2.58359,2.58359,0,0,1-.62422.99841,2.98776,2.98776,0,0,1-1.58552.8107c-3.74751.28223-6.92933.34321-10.54167.28578Zm5.73894-8.198c-2.08473-1.11448-4.08166-2.14693-6.12157-3.21721v6.39839c2.14692-1.16759,4.411-2.23653,6.1305-3.19012l-.00893.00894Z"/>
    </g>
  </g>
</svg>
