<svg version="1.1" xmlns="http://www.w3.org/2000/svg" xmlns:xlink="http://www.w3.org/1999/xlink" viewBox="0 0 458 297.1">
<g id="cyborg-head">

	<g id="cyborg-line">
		<g>
			<polygon fill="#7786BE" points="241.8,204.3 241.8,185.7 232.4,176.3 232.7,175.9 242.3,185.5 242.3,204.3 		"/>
			<polygon fill="#7786BE" points="242.5,204.5 241.5,204.5 241.5,185.8 232,176.3 232.7,175.6 242.5,185.4 		"/>
		</g>

	</g>

	<g>
		<polygon fill="#7786BE" points="176.1,118.6 176.1,138.8 187.6,150.3 187.6,162.8 204.7,180 202.4,182.5 184.6,164.7 151.4,164.7
			151.4,164.2 184.8,164.2 202.3,181.8 204,180 187.1,163 187.1,150.5 175.6,139 175.6,118.8 144.1,87.5 144.5,87.2 		"/>
		<polygon fill="#7786BE" points="202.4,182.9 184.5,165 151.2,165 151.2,164 184.9,164 202.3,181.4 203.7,180 186.8,163.1
			186.8,150.6 175.3,139.1 175.3,118.9 143.8,87.5 144.5,86.8 176.3,118.5 176.3,138.7 187.8,150.2 187.8,162.7 205.1,180 		"/>
	</g>
	<g>
		<polygon fill="#7786BE" points="197.2,51.7 197.6,51.7 197.6,152 197.8,152.2 214,168.4 214,200.4 213.5,200.4 213.5,168.6
			213.4,168.4 197.2,152.2 		"/>
		<polygon fill="#7786BE" points="214.3,200.7 213.3,200.7 213.3,168.7 213.2,168.6 196.9,152.3 196.9,51.4 197.9,51.4 197.9,151.9
			198,152 214.3,168.3 		"/>
	</g>
	<g>
		<polygon fill="#7786BE" points="200.6,93.5 201.1,93.5 201.1,150.3 217.5,166.6 217.5,211.1 217,211.1 217,166.8 200.6,150.5
			"/>
		<polygon fill="#7786BE" points="217.7,211.3 216.7,211.3 216.7,166.9 200.4,150.6 200.4,93.3 201.4,93.3 201.4,150.2 217.7,166.5
					"/>
	</g>
	<g>
		<polygon fill="#7786BE" points="157.9,180.4 158.1,179.9 180.6,179.9 191.6,190.9 202.9,190.9 210,183.7 210,170.3 193.7,154
			193.7,86.4 194.2,86.4 194.2,153.8 210.5,170.1 210.5,183.9 203.1,191.3 191.4,191.3 180.4,180.4 		"/>
		<polygon fill="#7786BE" points="203.2,191.6 191.3,191.6 180.3,180.6 157.5,180.6 157.9,179.6 180.7,179.6 191.7,190.6
			202.8,190.6 209.8,183.6 209.8,170.4 193.4,154.1 193.4,86.1 194.4,86.1 194.4,153.7 210.8,170 210.8,184 		"/>
	</g>
	<g>
		<polygon fill="#7786BE" points="215.7,98.2 211.4,93.8 211.4,67.3 211.9,67.3 211.9,93.6 216,97.8 		"/>
		<polygon fill="#7786BE" points="215.7,98.5 211.1,94 211.1,67 212.1,67 212.1,93.5 216.4,97.8 		"/>
	</g>
	<g>
		<polygon fill="#7786BE" points="204.1,81.3 204.6,81.3 204.6,148.5 221,164.9 221,212.8 220.5,212.8 220.5,165.1 204.1,148.7
			"/>
		<polygon fill="#7786BE" points="221.2,213.1 220.2,213.1 220.2,165.2 203.9,148.9 203.9,81.1 204.9,81.1 204.9,148.4 221.2,164.8
					"/>
	</g>
	<g>
		<polygon fill="#7786BE" points="218.5,141 218.1,141.4 208.5,131.8 208.5,121 219.9,109.6 219.9,86.3 220.4,86.3 220.4,109.8
			209,121.2 209,131.6 		"/>
		<polygon fill="#7786BE" points="218.1,141.7 208.3,131.9 208.3,120.9 219.7,109.5 219.7,86 220.7,86 220.7,109.9 209.3,121.3
			209.3,131.5 218.8,141 		"/>
	</g>
	<g>
		<polygon fill="#7786BE" points="215.6,105.3 207.8,97.4 207.8,50.6 207.9,50.6 207.9,97.4 215.7,105.2 		"/>
		<polygon fill="#7786BE" points="215.6,105.6 207.5,97.5 207.5,50.3 208.1,50.3 208.1,97.2 216.1,105.2 		"/>
	</g>
	<g>
		<polygon fill="#7786BE" points="162.6,87.7 162.6,79.5 155,71.9 155.3,71.5 163.1,79.3 163.1,87.7 		"/>
		<polygon fill="#7786BE" points="163.4,88 162.4,88 162.4,79.6 154.6,71.9 155.3,71.2 163.4,79.2 		"/>
	</g>
	<g>
		<polygon fill="#7786BE" points="190.8,127.6 190.3,127.6 190.3,91.9 179.8,81.3 179.8,56.6 180.3,56.6 180.3,81.1 190.8,91.7
			"/>
		<polygon fill="#7786BE" points="191.1,127.9 190.1,127.9 190.1,92 179.5,81.4 179.5,56.4 180.5,56.4 180.5,81 191.1,91.6 		"/>
	</g>
	<g>
		<polygon fill="#7786BE" points="253.1,107.7 253.1,88.9 261.8,80.2 261.8,61.7 262.3,61.7 262.3,80.4 253.6,89.1 253.6,107.7
			"/>
		<polygon fill="#7786BE" points="253.8,107.9 252.8,107.9 252.8,88.8 261.6,80.1 261.6,61.4 262.6,61.4 262.6,80.5 253.8,89.2
			"/>
	</g>
	<g>
		<polygon fill="#7786BE" points="266.5,128.1 241.6,153 228.3,153 228.3,157.8 256.1,157.8 265.7,148.1 266,148.5 256.3,158.2
			227.8,158.2 227.8,152.6 241.4,152.6 266,127.9 266,115.1 281.4,99.7 281.7,100.1 266.5,115.3 		"/>
		<polygon fill="#7786BE" points="256.4,158.5 227.5,158.5 227.5,152.3 241.3,152.3 265.7,127.8 265.7,115 281.4,99.3 282.1,100.1
			266.7,115.4 266.7,128.2 241.7,153.3 228.5,153.3 228.5,157.5 255.9,157.5 265.7,147.8 266.4,148.5 		"/>
	</g>
	<g>
		<polygon fill="#7786BE" points="250.2,66.8 250.2,124.3 224.8,149.7 224.8,218.1 224.3,218.1 224.3,149.5 249.7,124.1 249.7,66.8
					"/>
		<polygon fill="#7786BE" points="225.1,218.3 224.1,218.3 224.1,149.4 249.5,124 249.5,66.5 250.5,66.5 250.5,124.4 225.1,149.8
			"/>
	</g>
	<g>
		<polygon fill="#7786BE" points="267.8,101.9 267.3,101.9 267.3,93.5 282.2,78.7 282.6,79 267.8,93.7 		"/>
		<polygon fill="#7786BE" points="268.1,102.2 267.1,102.2 267.1,93.4 282.2,78.3 282.9,79 268.1,93.8 		"/>
	</g>
	<g>
		<polygon fill="#7786BE" points="272.1,137.1 271.6,137.1 271.6,128.6 286.8,113.3 287.1,113.6 272.1,128.8 		"/>
		<polygon fill="#7786BE" points="272.4,137.3 271.4,137.3 271.4,128.5 286.8,112.9 287.5,113.6 272.4,129 		"/>
	</g>
	<g>
		<polygon fill="#7786BE" points="234.7,167.1 244.1,167.1 263.8,186.9 263.4,187.2 243.9,167.6 234.7,167.6 		"/>
		<polygon fill="#7786BE" points="263.4,187.6 243.8,167.9 234.4,167.9 234.4,166.9 244.3,166.9 244.3,166.9 264.1,186.9 		"/>
	</g>
	<g>
		<polygon fill="#7786BE" points="230.5,108.3 234.9,104 234.9,77.4 234.4,77.4 234.4,103.8 230.2,108 		"/>
		<polygon fill="#7786BE" points="230.5,108.7 229.8,108 234.1,103.7 234.1,77.2 235.1,77.2 235.1,104.1 		"/>
	</g>
	<g>
		<polygon fill="#7786BE" points="230.4,114.7 238.3,106.8 238.3,53.4 238.2,53.4 238.2,106.8 230.4,114.6 		"/>
		<polygon fill="#7786BE" points="230.4,115.1 230,114.6 237.9,106.7 237.9,53.2 238.5,53.2 238.5,106.9 		"/>
	</g>
	<g>
		<polygon fill="#7786BE" points="183.2,104.6 169.8,91.2 169.8,60.9 170.3,60.9 170.3,91 183.6,104.3 		"/>
		<polygon fill="#7786BE" points="183.2,105 169.6,91.3 169.6,60.7 170.6,60.7 170.6,90.9 183.9,104.3 		"/>
	</g>
	<g>
		<polygon fill="#7786BE" points="169.5,141.2 141.9,111.8 141.9,92.6 142.4,92.6 142.4,111.6 169.8,140.8 		"/>
		<polygon fill="#7786BE" points="169.5,141.5 169.3,141.3 141.7,111.9 141.7,92.3 142.7,92.3 142.7,111.5 170.2,140.8 		"/>
	</g>
	<g>
		<polygon fill="#7786BE" points="244.2,176.6 273.5,205.5 273.5,211.2 273,211.2 273,205.7 243.8,176.9 		"/>
		<polygon fill="#7786BE" points="273.8,211.4 272.8,211.4 272.8,205.8 243.5,176.9 244.2,176.2 244.3,176.4 273.8,205.3 		"/>
	</g>
	<g>
		<g>
			<polygon fill="#7786BE" points="231.2,99.2 231.2,83.6 231.1,83.6 231.1,99.2 			"/>
			<polygon fill="#7786BE" points="231.5,99.5 230.9,99.5 230.9,83.4 231.5,83.4 			"/>
		</g>
	</g>
	<g>
		<g>
			<polygon fill="#7786BE" points="183.5,77.7 183.5,62.1 183.4,62.1 183.4,77.7 			"/>
			<polygon fill="#7786BE" points="183.7,78 183.1,77.9 183.1,61.8 183.7,61.8 			"/>
		</g>
	</g>
	<g>
		<g>
			<polygon fill="#7786BE" points="254.5,80.8 254.5,65.2 254.4,65.2 254.4,80.8 			"/>
			<polygon fill="#7786BE" points="254.7,81.1 254.1,81 254.1,65 254.7,65 			"/>
		</g>
	</g>
	<g>
		<polygon fill="#7786BE" points="186.8,217.3 186.8,200 177.4,190.6 177.7,190.3 187.3,199.8 187.3,217.3 		"/>
		<polygon fill="#7786BE" points="187.5,217.6 186.5,217.6 186.5,200.1 177,190.6 177.7,189.9 187.5,199.7 		"/>
	</g>
	<g>
		<g>
			<polygon fill="#7786BE" points="215,121.6 220.8,127.4 234.1,127.4 234.1,127.9 220.6,127.9 214.6,122 			"/>
			<polygon fill="#7786BE" points="220.5,128.2 214.3,122 215,121.3 220.9,127.2 234.3,127.2 234.3,128.2 			"/>
		</g>
	</g>
	<g>
		<polygon fill="#7786BE" points="143.1,149.7 148.9,155.5 162.2,155.5 162.2,156 148.7,156 142.7,150.1 		"/>
		<polygon fill="#7786BE" points="148.6,156.3 142.4,150.1 143.1,149.4 149,155.3 162.4,155.3 162.4,156.3 		"/>
	</g>
	<g>
		<polygon fill="#7786BE" points="146.2,143.7 146.2,135.5 136.8,126.1 137.2,125.8 146.7,135.3 146.7,143.7 		"/>
		<polygon fill="#7786BE" points="147,144 146,144 146,135.6 136.5,126.1 137.2,125.4 147,135.2 		"/>
	</g>
	<g>
		<g>
			<polygon fill="#7786BE" points="260.1,212.3 260.1,204.1 250.7,194.7 251,194.4 260.6,203.9 260.6,212.3 			"/>
			<polygon fill="#7786BE" points="260.8,212.6 259.8,212.6 259.8,204.2 250.3,194.7 251,194 260.8,203.8 			"/>
		</g>
	</g>
	<g>
		<g>
			<polygon fill="#7786BE" points="230.5,68.9 230.5,60.7 221.1,51.3 221.4,50.9 231,60.5 231,68.9 			"/>
			<polygon fill="#7786BE" points="231.2,69.1 230.2,69.1 230.2,60.8 220.7,51.3 221.4,50.6 231.2,60.4 			"/>
		</g>
	</g>
	<polygon fill="#7786BE" points="249.5,55.9 249.5,124.1 249.7,124.1 249.9,124.2 249.9,124.3 250.5,124.3 250.5,55.9 	"/>
	<g>
		<g>
			<g>
				<polygon fill="#7786BE" points="273.9,69.1 273.9,78.6 263.5,88.9 263.2,88.6 273.4,78.4 273.4,69.1 				"/>
				<polygon fill="#7786BE" points="263.5,89.3 262.8,88.6 273.2,78.3 273.2,68.9 274.2,68.9 274.2,78.7 				"/>
			</g>
		</g>
	</g>
	<g>
		<g>
			<g>
				<polygon fill="#7786BE" points="259.3,115.2 259.3,124.6 237.2,146.8 236.8,146.4 258.9,124.4 258.9,115.2 				"/>
				<polygon fill="#7786BE" points="237.2,147.1 236.5,146.4 258.6,124.3 258.6,114.9 259.6,114.9 259.6,124.7 				"/>
			</g>
		</g>
	</g>
	<g>
		<g>
			<polygon fill="#7786BE" points="245.9,118.3 241.6,114 241.6,87.4 242.1,87.4 242.1,113.8 246.2,118 			"/>
			<polygon fill="#7786BE" points="245.9,118.7 241.3,114.1 241.3,87.2 242.3,87.2 242.3,113.7 246.6,118 			"/>
		</g>
	</g>
	<g>
		<g>
			<polygon fill="#7786BE" points="171.3,125.6 171.3,119.5 152.5,100.7 152.2,101.1 170.8,119.7 170.8,125.6 			"/>
			<polygon fill="#7786BE" points="170.6,125.9 170.6,119.8 151.8,101.1 152.5,100.4 171.6,119.4 171.6,125.9 			"/>
		</g>
	</g>
	<g>
		<g>
			<polygon fill="#7786BE" points="166.7,127.4 166.7,121.3 147.9,102.5 147.6,102.8 166.2,121.5 166.2,127.4 			"/>
			<polygon fill="#7786BE" points="166,127.6 166,121.6 147.2,102.8 147.9,102.1 167,121.2 167,127.6 			"/>
		</g>
	</g>
	<g>
		<g>
			<polygon fill="#7786BE" points="187.4,144.3 183.1,140 183.1,113.4 183.6,113.4 183.6,139.8 187.7,143.9 			"/>
			<polygon fill="#7786BE" points="187.4,144.6 182.8,140.1 182.8,113.1 183.8,113.1 183.8,139.7 188.1,143.9 			"/>
		</g>
	</g>
	<g>
		<g>
			<polygon fill="#7786BE" points="137.4,112.8 161.8,139.4 161.8,143.7 161.4,143.7 161.4,139.6 137,113.1 			"/>
			<polygon fill="#7786BE" points="162.1,143.9 161.1,143.9 161.1,139.7 136.7,113.1 137.4,112.4 137.6,112.6 162.1,139.3 			"/>
		</g>
	</g>
	<g>
		<g>

				<rect x="132" y="229.8" transform="matrix(0.4135 -0.9105 0.9105 0.4135 -115.8268 280.7804)" fill="#7786BE" width="56.1" height="1"/>
		</g>
	</g>
	<g>

			<rect x="203.5" y="229" transform="matrix(0.5536 -0.8328 0.8328 0.5536 -94.1337 283.4175)" fill="#7786BE" width="27.6" height="1"/>
	</g>
	<g>
		<polygon fill="#7786BE" points="302.1,164.5 285.5,135.9 290.9,130.4 291.6,131.1 286.8,136.1 302.9,164 		"/>
	</g>



	<g id="gears" opacity="0.7">
		<path fill="#7786BE" d="M169.4,138.4c0.1,0,0.1,0,0.2-0.1c0,0,0,0.1,0,0.1C169.5,138.5,169.4,138.5,169.4,138.4z M169.5,133.8
			c-0.1,0-0.1-0.1-0.2-0.1c0.1,0,0.1,0,0.2,0C169.5,133.7,169.5,133.7,169.5,133.8z M170.1,143.1c0.1,0,0.1-0.1,0.2-0.1
			c0,0,0,0.1,0,0.1C170.2,143.1,170.2,143.1,170.1,143.1z M170.2,129.1c0,0-0.1-0.1-0.2-0.1c0.1,0,0.1,0,0.2,0
			C170.3,129,170.3,129.1,170.2,129.1z M188,108.1C188,108.1,187.9,108.1,188,108.1C187.9,108.1,187.9,108.1,188,108.1
			C187.9,108.1,187.9,108.1,188,108.1z M183.8,110.3C183.7,110.3,183.7,110.3,183.8,110.3C183.7,110.3,183.7,110.3,183.8,110.3
			C183.7,110.3,183.7,110.3,183.8,110.3z M179.9,113.1C179.9,113.1,179.9,113.1,179.9,113.1C179.9,113.1,179.9,113.1,179.9,113.1
			C179.9,113.1,179.9,113.1,179.9,113.1z M176.6,116.5C176.6,116.5,176.6,116.5,176.6,116.5c-0.1,0-0.1,0-0.1-0.1
			C176.5,116.4,176.6,116.5,176.6,116.5z M173.9,120.3C173.8,120.3,173.8,120.3,173.9,120.3c-0.1,0-0.1,0-0.1,0
			C173.8,120.3,173.8,120.3,173.9,120.3z M171.7,124.5C171.7,124.5,171.7,124.6,171.7,124.5c-0.1,0.1-0.1,0-0.2,0
			C171.6,124.5,171.7,124.5,171.7,124.5z M171.6,147.7c0,0,0.1-0.1,0.1-0.1c0,0,0,0.1,0,0.1C171.7,147.6,171.6,147.6,171.6,147.7z
			 M173.7,151.9c0,0,0.1-0.1,0.1-0.1c0,0,0,0,0,0.1C173.8,151.9,173.8,151.9,173.7,151.9z M176.5,155.7c0,0,0.1-0.1,0.1-0.1
			c0,0,0,0,0,0.1C176.6,155.7,176.5,155.7,176.5,155.7z M179.9,159.1C179.9,159.1,179.9,159,179.9,159.1
			C179.9,159,179.9,159,179.9,159.1C179.9,159,179.9,159.1,179.9,159.1z M183.7,161.9C183.7,161.9,183.7,161.8,183.7,161.9
			C183.7,161.8,183.7,161.8,183.7,161.9C183.7,161.8,183.7,161.9,183.7,161.9z M187.9,164C187.9,164,187.9,164,187.9,164
			C187.9,164,187.9,164,187.9,164C187.9,164,187.9,164,187.9,164z"/>
		<g>
			<g>
				<path fill="#7786BE" d="M245.2,65.5c-0.5,0.4-1.3,0.6-1.6,0.5c-0.1-0.3-0.1-1,0-1.5c0.2-0.8-0.1-0.9-0.4-1
					c-0.3-0.1-0.6-0.3-1,0.4c-0.4,0.5-0.9,1.1-1.3,1.1c-0.3-0.2-0.5-0.9-0.6-1.4c-0.1-0.8-0.4-0.8-0.7-0.8c-0.3,0-0.7-0.1-0.8,0.7
					c-0.1,0.6-0.5,1.4-0.8,1.5c-0.3-0.1-0.8-0.6-1-1.1c-0.4-0.7-0.7-0.5-1-0.4c-0.3,0.1-0.6,0.2-0.4,1c0.1,0.6,0.1,1.4-0.1,1.6
					c-0.4,0-1-0.3-1.4-0.6c-0.6-0.5-0.8-0.2-1.1,0c-0.2,0.2-0.5,0.4,0,1.1c0.3,0.4,0.5,1,0.5,1.4c-0.3,0.1-1,0.1-1.5,0
					c-0.8-0.2-0.9,0.1-1,0.4c-0.1,0.3-0.3,0.6,0.4,1c0.5,0.3,0.9,0.8,1.1,1.1c-0.1,0.3-0.9,0.6-1.5,0.7c-0.8,0.1-0.7,0.5-0.7,0.8
					c0,0.3-0.1,0.7,0.7,0.8c0.6,0.1,1.2,0.3,1.4,0.6c0,0.3-0.6,0.9-1.1,1.2c-0.7,0.4-0.5,0.7-0.4,1c0.1,0.3,0.2,0.6,1,0.4
					c0.5-0.1,1.2-0.1,1.5,0c0.1,0.3-0.2,1-0.5,1.6c-0.5,0.6-0.2,0.8,0,1.1c0.2,0.2,0.4,0.5,1.1,0c0.5-0.3,1.1-0.6,1.4-0.6
					c0.2,0.2,0.2,1,0.1,1.6c-0.2,0.8,0.1,0.9,0.4,1c0.3,0.1,0.6,0.3,1-0.4c0.3-0.5,0.7-1,1.1-1.1c0.3,0.1,0.6,0.8,0.7,1.5
					c0.1,0.8,0.5,0.7,0.8,0.7c0.3,0,0.7,0,0.8-0.7c0.1-0.6,0.3-1.2,0.6-1.4c0.3,0,0.9,0.5,1.2,1.1c0.4,0.7,0.7,0.5,1,0.4
					c0.3-0.1,0.6-0.2,0.4-1c-0.1-0.5-0.2-1.2,0-1.5c0.3-0.1,1,0.2,1.6,0.5c0.6,0.5,0.9,0.2,1.1,0c0.2-0.2,0.5-0.4,0-1.1
					c-0.3-0.4-0.6-1-0.6-1.3c0.3-0.1,0.9,0,1.4,0.1c0.8,0.3,0.9-0.1,1-0.4c0.1-0.3,0.3-0.6-0.3-1c-0.5-0.4-1-0.9-1-1.3
					c0.2-0.3,0.9-0.5,1.4-0.5c0.8-0.1,0.8-0.4,0.8-0.7c0-0.3,0.1-0.7-0.7-0.8c-0.6-0.1-1.3-0.5-1.4-0.8c0.1-0.3,0.6-0.8,1.1-1
					c0.7-0.4,0.5-0.7,0.4-1c-0.1-0.3-0.2-0.6-1-0.5c-0.6,0.1-1.4,0.1-1.6-0.2c0-0.4,0.3-0.9,0.6-1.4c0.5-0.6,0.2-0.8,0-1.1
					C246,65.4,245.8,65.1,245.2,65.5z M243.6,76c-2.2,2.2-5.8,2.2-8.1,0c-2.2-2.2-2.2-5.9,0-8.1c2.2-2.2,5.8-2.2,8.1,0
					C245.8,70.1,245.8,73.7,243.6,76z"/>
				<path fill="#7786BE" d="M237.2,69.6c-1.3,1.3-1.3,3.4,0,4.7c1.3,1.3,3.4,1.3,4.7,0c1.3-1.3,1.3-3.4,0-4.7
					C240.6,68.3,238.5,68.3,237.2,69.6z M241,73.4c-0.8,0.8-2.1,0.8-2.9,0c-0.8-0.8-0.8-2.1,0-2.9c0.8-0.8,2.1-0.8,2.9,0
					C241.8,71.3,241.8,72.6,241,73.4z"/>
			</g>
		</g>
		<path fill="#7786BE" d="M211.6,129c-1.5,1.5-1.5,4,0,5.5c1.5,1.5,4,1.5,5.5,0c1.5-1.5,1.5-4,0-5.5
			C215.6,127.4,213.1,127.4,211.6,129z M215.5,132.9c-0.6,0.6-1.7,0.6-2.3,0c-0.6-0.6-0.6-1.7,0-2.3c0.6-0.6,1.7-0.6,2.3,0
			C216.2,131.2,216.2,132.2,215.5,132.9z"/>
		<g>
			<path fill="#7786BE" d="M164.7,95.5c-0.5,0.4-1.3,0.6-1.6,0.5c-0.1-0.3-0.1-1,0-1.5c0.2-0.8-0.1-0.9-0.4-1
				c-0.3-0.1-0.6-0.3-1,0.4c-0.4,0.5-0.9,1.1-1.3,1.1c-0.3-0.2-0.5-0.9-0.6-1.4c-0.1-0.8-0.4-0.8-0.7-0.8c-0.3,0-0.7-0.1-0.8,0.7
				c-0.1,0.6-0.4,1.4-0.8,1.5c-0.3-0.1-0.8-0.6-1-1.1c-0.4-0.7-0.7-0.5-1-0.4c-0.3,0.1-0.6,0.2-0.4,1c0.1,0.6,0.1,1.4-0.1,1.6
				c-0.4,0-1-0.3-1.4-0.6c-0.6-0.5-0.9-0.2-1.1,0c-0.2,0.2-0.5,0.4,0,1.1c0.3,0.4,0.5,1,0.5,1.4c-0.3,0.1-1,0.1-1.5,0
				c-0.8-0.2-0.9,0.1-1,0.4c-0.1,0.3-0.3,0.6,0.4,1c0.5,0.3,0.9,0.8,1.1,1.1c-0.1,0.3-0.9,0.6-1.5,0.7c-0.8,0.1-0.7,0.5-0.7,0.8
				c0,0.3-0.1,0.7,0.7,0.8c0.6,0.1,1.2,0.3,1.4,0.6c0,0.3-0.6,0.9-1.1,1.2c-0.7,0.4-0.5,0.7-0.4,1c0.1,0.3,0.2,0.6,1,0.4
				c0.5-0.1,1.2-0.1,1.5,0c0.1,0.3-0.2,1-0.5,1.6c-0.5,0.6-0.2,0.8,0,1.1c0.2,0.2,0.4,0.5,1.1,0c0.5-0.3,1.1-0.6,1.4-0.6
				c0.2,0.2,0.2,1,0.1,1.6c-0.2,0.8,0.1,0.9,0.4,1c0.3,0.1,0.6,0.3,1-0.4c0.3-0.5,0.7-1,1.1-1.1c0.3,0.1,0.6,0.8,0.7,1.5
				c0.1,0.8,0.5,0.7,0.8,0.7c0.3,0,0.7,0,0.8-0.7c0.1-0.6,0.3-1.2,0.6-1.4c0.3,0,0.9,0.5,1.2,1.1c0.4,0.7,0.7,0.5,1,0.4
				c0.3-0.1,0.6-0.2,0.4-1c-0.1-0.5-0.2-1.2,0-1.5c0.3-0.1,1,0.2,1.6,0.5c0.6,0.5,0.9,0.2,1.1,0c0.2-0.2,0.5-0.4,0-1.1
				c-0.3-0.4-0.6-0.9-0.6-1.3c0.3-0.1,0.9,0,1.4,0.1c0.8,0.2,0.9-0.1,1-0.4c0.1-0.3,0.3-0.6-0.3-1c-0.5-0.4-1-0.9-1-1.3
				c0.2-0.3,0.9-0.5,1.4-0.5c0.8-0.1,0.8-0.4,0.8-0.7c0-0.3,0.1-0.7-0.7-0.8c-0.6-0.1-1.3-0.5-1.4-0.8c0.1-0.3,0.6-0.8,1.1-1
				c0.7-0.4,0.5-0.7,0.4-1c-0.1-0.3-0.2-0.6-1-0.5c-0.6,0.1-1.4,0.1-1.6-0.2c0-0.4,0.3-0.9,0.6-1.4c0.5-0.6,0.2-0.8,0-1.1
				C165.6,95.3,165.4,95,164.7,95.5z M163.1,106c-2.2,2.2-5.9,2.2-8.1,0c-2.2-2.2-2.2-5.8,0-8.1c2.2-2.2,5.8-2.2,8.1,0
				C165.4,100.1,165.4,103.7,163.1,106z"/>
			<path fill="#7786BE" d="M156.7,99.5c-1.3,1.3-1.3,3.4,0,4.7c1.3,1.3,3.4,1.3,4.7,0c1.3-1.3,1.3-3.4,0-4.7
				C160.2,98.3,158.1,98.2,156.7,99.5z M160.6,103.4c-0.8,0.8-2.1,0.8-2.9,0c-0.8-0.8-0.8-2.1,0-2.9c0.8-0.8,2.1-0.8,2.9,0
				C161.4,101.3,161.4,102.6,160.6,103.4z"/>
		</g>
		<g>
			<g>
				<path fill="#7786BE" d="M177.7,118.9c-0.8,0.5-2,0.8-2.3,0.5c-0.1-0.5,0.1-1.4,0.5-2.2c0.5-1,0.1-1.3-0.3-1.5
					c-0.3-0.3-0.7-0.6-1.5,0.2c-0.7,0.7-1.7,1.3-2.1,1.1c-0.2-0.4-0.3-1.4-0.1-2.2c0.3-1.1-0.2-1.2-0.7-1.4
					c-0.4-0.2-0.9-0.4-1.4,0.6c-0.5,0.8-1.3,1.7-1.8,1.6c-0.4-0.3-0.6-1.3-0.7-2.1c0-1.1-0.6-1.1-1-1.2c-0.4,0-0.9-0.2-1.2,0.9
					c-0.3,0.9-0.8,2-1.3,2c-0.4-0.3-0.9-1.1-1.2-1.9c-0.3-1.1-0.8-0.9-1.3-0.9c-0.4,0.1-0.9,0.1-0.9,1.2c0,1-0.3,2.1-0.7,2.3
					c-0.5-0.1-1.2-0.8-1.6-1.5c-0.6-1-1-0.7-1.4-0.5c-0.4,0.2-0.9,0.3-0.6,1.4c0.2,0.9,0.3,2.1-0.1,2.4c-0.5,0-1.3-0.5-2-1
					c-0.8-0.8-1.2-0.4-1.5-0.1c-0.3,0.3-0.8,0.5-0.2,1.5c0.4,0.8,0.8,1.8,0.6,2.3c-0.4,0.2-1.5,0-2.3-0.3c-1-0.5-1.2,0-1.5,0.3
					c-0.2,0.4-0.6,0.8,0.3,1.5c0.6,0.6,1.2,1.4,1.2,1.9c-0.3,0.4-1.4,0.5-2.4,0.3c-1.1-0.2-1.2,0.3-1.3,0.7
					c-0.1,0.4-0.4,0.9,0.7,1.4c0.7,0.4,1.5,1,1.7,1.5c-0.1,0.5-1.2,0.9-2.2,1c-1.1,0.1-1.1,0.6-1.1,1c0,0.4-0.1,0.9,1,1.2
					c0.8,0.2,1.7,0.6,2,1c0,0.5-1,1.1-1.9,1.5c-1.1,0.4-0.9,0.9-0.8,1.3c0.1,0.4,0.1,0.9,1.3,0.9c0.8,0,1.8,0.1,2.2,0.5
					c0.1,0.5-0.7,1.4-1.4,1.9c-1,0.6-0.7,1.1-0.5,1.4c0.2,0.4,0.4,0.9,1.4,0.5c0.8-0.2,1.8-0.3,2.2-0.1c0.2,0.4-0.3,1.5-0.9,2.2
					c-0.8,0.9-0.4,1.2-0.1,1.5c0.3,0.3,0.6,0.8,1.5,0.1c0.7-0.4,1.6-0.8,2.1-0.7c0.3,0.3,0.1,1.5-0.3,2.4c-0.5,1,0,1.2,0.3,1.5
					c0.4,0.2,0.8,0.6,1.5-0.3c0.6-0.6,1.4-1.2,1.9-1.2c0.4,0.3,0.5,1.4,0.3,2.4c-0.2,1.1,0.3,1.2,0.7,1.3c0.4,0.1,0.9,0.4,1.4-0.7
					c0.4-0.7,1-1.5,1.5-1.6c0.5,0.1,0.9,1.2,1,2.2c0.1,1.1,0.6,1.1,1,1.1c0.4,0,0.9,0.1,1.2-1c0.2-0.8,0.6-1.7,1-2
					c0.5,0,1.1,1,1.5,1.9c0.4,1.1,0.9,0.9,1.3,0.8c0.4-0.1,0.9-0.1,0.9-1.3c0-0.8,0.1-1.8,0.4-2.2c0.5-0.1,1.4,0.7,1.9,1.4
					c0.6,0.9,1.1,0.7,1.4,0.5c0.4-0.2,0.9-0.4,0.5-1.4c-0.2-0.8-0.3-1.8-0.1-2.2c0.4-0.2,1.5,0.3,2.2,0.9c0.9,0.8,1.2,0.4,1.5,0.1
					c0.3-0.3,0.8-0.6,0.1-1.5c-0.5-0.7-0.8-1.7-0.7-2.2c0.4-0.2,1.5,0.1,2.3,0.5c1,0.5,1.3,0.1,1.5-0.3c0.3-0.3,0.6-0.7-0.2-1.5
					c-0.7-0.7-1.3-1.7-1.1-2.1c0.4-0.3,1.4-0.3,2.2-0.1c1.1,0.3,1.2-0.2,1.4-0.7c0.2-0.4,0.4-0.9-0.6-1.4c-0.8-0.5-1.7-1.3-1.6-1.8
					c0.3-0.4,1.3-0.6,2.1-0.7c1.1,0,1.1-0.6,1.2-1c0-0.4,0.2-0.9-0.9-1.2c-0.9-0.2-2-0.8-2-1.3c0.3-0.4,1.1-0.9,1.9-1.2
					c1.1-0.3,0.9-0.8,0.9-1.3c-0.1-0.4-0.1-0.9-1.2-0.9c-1,0-2.1-0.3-2.3-0.7c0.1-0.5,0.8-1.2,1.5-1.6c1-0.6,0.7-1,0.5-1.4
					c-0.2-0.4-0.3-0.9-1.4-0.6c-0.9,0.2-2.1,0.3-2.4-0.1c0-0.5,0.5-1.3,1-2c0.8-0.8,0.4-1.2,0.1-1.5
					C179,118.7,178.7,118.3,177.7,118.9z M173.2,141.1c-5.5,4.6-13.6,4-18.3-1.5c-4.6-5.5-4-13.6,1.5-18.3c5.5-4.6,13.6-4,18.3,1.5
					C179.3,128.3,178.7,136.4,173.2,141.1z"/>
				<path fill="#7786BE" d="M160.2,125.7c-3,2.6-3.4,7.1-0.8,10.1c2.6,3,7.1,3.4,10.1,0.8c3-2.6,3.4-7.1,0.8-10.1
					C167.7,123.5,163.2,123.2,160.2,125.7z M167.7,134.6c-1.9,1.6-4.7,1.4-6.3-0.5c-1.6-1.9-1.4-4.7,0.5-6.3
					c1.9-1.6,4.7-1.4,6.3,0.5C169.8,130.2,169.6,133,167.7,134.6z"/>
			</g>
		</g>
		<g>
			<g>
				<path fill="#7786BE" d="M269.5,82.6c-0.9,0.7-2.3,1.2-2.9,1c-0.2-0.6-0.1-1.9,0.2-2.9c0.5-1.4-0.1-1.7-0.6-1.9
					c-0.5-0.3-1.1-0.7-1.9,0.6c-0.7,0.9-1.8,1.9-2.4,1.9c-0.4-0.5-0.7-1.7-0.7-2.8c0.1-1.5-0.6-1.5-1.2-1.6
					c-0.6-0.1-1.2-0.3-1.6,1.1c-0.4,1.1-1.1,2.3-1.7,2.5c-0.6-0.4-1.2-1.5-1.5-2.5c-0.4-1.4-1.1-1.3-1.6-1.2
					c-0.6,0.1-1.2,0.1-1.2,1.6c0,1.2-0.4,2.5-0.9,2.9c-0.6-0.2-1.5-1-2.2-1.9c-0.8-1.3-1.4-0.9-1.9-0.6c-0.5,0.2-1.2,0.5-0.7,1.9
					c0.3,1.1,0.4,2.5,0.1,3.1c-0.7,0-1.8-0.5-2.6-1.1c-1.2-0.9-1.6-0.4-2,0c-0.4,0.4-1,0.8-0.1,2c0.7,1.1,1.3,2.5,0.9,3h0
					c0,0,0,0,0,0c0,0,0,0,0,0v0c-0.3,0.5-1.9,0.5-3.2,0.2c-1.4-0.4-1.6,0.2-1.9,0.7c-0.2,0.5-0.6,1.1,0.7,1.9c0.9,0.6,1.8,1.5,2,2.1
					c-0.4,0.5-1.7,0.9-2.9,1c-1.5,0-1.5,0.7-1.5,1.3c-0.1,0.6-0.2,1.2,1.2,1.6c1,0.3,2.1,0.9,2.5,1.4c-0.2,0.6-1.4,1.4-2.5,1.8
					c-1.4,0.5-1.2,1.1-1.1,1.7c0.1,0.6,0.2,1.3,1.7,1.1c1,0,2.3,0.2,2.8,0.6c0,0.6-0.9,1.8-1.8,2.5c-1.2,0.9-0.8,1.4-0.5,1.9
					c0.3,0.5,0.5,1.1,1.9,0.6c1-0.4,2.2-0.5,2.8-0.3c0.2,0.6-0.3,1.9-0.9,2.9c-0.9,1.2-0.3,1.6,0.1,2c0.4,0.4,0.9,0.9,2,0
					c0.8-0.6,1.9-1.2,2.6-1.2c0.4,0.5,0.3,1.9,0,3.1c-0.5,1.4,0.2,1.6,0.7,1.9c0.5,0.2,1.1,0.6,1.9-0.6c0.6-0.9,1.5-1.7,2.1-1.9
					c0.5,0.4,0.9,1.8,0.9,2.9c0,1.5,0.7,1.5,1.2,1.6c0.6,0.1,1.2,0.3,1.6-1.2c0.3-1,0.9-2.1,1.4-2.5c0.6,0.2,1.4,1.4,1.8,2.5
					c0.5,1.4,1.1,1.2,1.7,1.1c0.6-0.1,1.3-0.1,1.2-1.6c0-1,0.2-2.3,0.6-2.8c0.6,0,1.7,0.9,2.4,1.8c0.9,1.2,1.4,0.8,1.9,0.5
					c0.5-0.3,1.2-0.5,0.6-1.9c-0.3-1-0.5-2.2-0.3-2.9c0.6-0.2,1.9,0.3,2.9,1c1.2,0.9,1.6,0.3,2-0.1c0.4-0.4,0.9-0.8,0-2
					c-0.7-1-1.4-2.4-1.1-2.9c0.3-0.5,1.9-0.4,3.2-0.1c1.4,0.5,1.6-0.2,1.9-0.7c0.3-0.5,0.6-1.1-0.6-1.9c-0.9-0.7-1.9-1.7-1.9-2.4
					c0.5-0.4,1.7-0.7,2.8-0.7c1.5,0,1.5-0.7,1.6-1.2c0.1-0.6,0.3-1.2-1.2-1.6c-1.1-0.4-2.3-1.1-2.6-1.7c0.4-0.6,1.4-1.2,2.4-1.5
					c1.4-0.4,1.2-1.1,1.1-1.7c-0.1-0.6-0.1-1.2-1.6-1.2c-1.2,0-2.6-0.3-2.9-0.8c0.2-0.6,1-1.6,1.9-2.2c1.2-0.8,0.8-1.4,0.6-1.9
					c-0.3-0.5-0.5-1.2-1.9-0.6c-1.1,0.4-2.5,0.5-3.1,0.1c0-0.7,0.5-1.8,1.1-2.6c0.9-1.2,0.4-1.6,0-2
					C271.1,82.2,270.7,81.7,269.5,82.6z M266.5,107.2c-5.3,5.3-13.9,5.3-19.2,0c-5.3-5.3-5.3-13.9,0-19.2c5.3-5.3,13.9-5.3,19.2,0
					C271.8,93.3,271.8,101.9,266.5,107.2z"/>
				<path fill="#7786BE" d="M251.8,92.6c-2.8,2.8-2.8,7.3,0,10.1c2.8,2.8,7.3,2.8,10.1,0c2.8-2.8,2.8-7.3,0-10.1
					C259.1,89.8,254.6,89.8,251.8,92.6z M260,100.8c-1.7,1.7-4.6,1.7-6.3,0c-1.7-1.7-1.7-4.6,0-6.3c1.7-1.7,4.6-1.7,6.3,0
					C261.8,96.2,261.8,99,260,100.8z"/>
			</g>
		</g>
		<g>
			<path fill="#7786BE" d="M189.5,91.9c0,0,0.1,0,0.2-0.1c0.1-0.1,0.1-0.1,0.1-0.1c0,0-0.1,0-0.2,0.1
				C189.5,91.9,189.5,91.9,189.5,91.9z"/>
			<g>
				<path fill="#7786BE" d="M226.6,73.3c-0.6,0.4-1.4,0.7-1.9,0.7c-0.2-0.2-0.4-0.5-0.7-0.7c0-0.5,0.4-1.3,0.8-1.9
					c0.7-0.9,0.2-1.3-0.2-1.6c-0.3-0.3-0.7-0.8-1.6,0c-0.6,0.5-1.3,0.9-1.8,1c-0.3-0.2-0.5-0.4-0.8-0.6c0-0.5,0.2-1.3,0.5-2
					c0.5-1-0.1-1.3-0.4-1.5c-0.4-0.2-0.8-0.6-1.6,0.2c-0.5,0.5-1.1,1.1-1.6,1.2c-0.3-0.2-0.6-0.3-0.9-0.5c-0.1-0.5,0-1.3,0.2-2
					c0.3-1.1-0.3-1.3-0.7-1.4c-0.4-0.2-0.9-0.5-1.5,0.5c-0.4,0.6-1,1.2-1.4,1.5c-0.3-0.1-0.6-0.2-0.9-0.3c-0.2-0.5-0.2-1.3-0.2-2
					c0.2-1.1-0.5-1.2-0.9-1.3c-0.4-0.1-1-0.3-1.4,0.7c-0.3,0.7-0.7,1.4-1.2,1.7c-0.3-0.1-0.6-0.1-1-0.2c-0.3-0.4-0.4-1.3-0.5-2
					c0-1.1-0.6-1.1-1.1-1.2c-0.4,0-1-0.2-1.3,0.9c-0.2,0.7-0.5,1.5-0.9,1.8c-0.3,0-0.6,0-1,0c-0.3-0.4-0.6-1.2-0.8-1.9
					c-0.2-1.1-0.8-1-1.2-1c-0.4,0-1,0-1.1,1.1c-0.1,0.7-0.3,1.5-0.6,2c-0.3,0-0.6,0.1-1,0.1c-0.4-0.3-0.8-1.1-1.1-1.7
					c-0.4-1.1-1-0.9-1.4-0.8c-0.4,0.1-1,0.1-0.9,1.3c0,0.7,0,1.6-0.3,2c-0.3,0.1-0.6,0.2-0.9,0.3c-0.4-0.3-1-0.9-1.3-1.5
					c-0.5-1-1.1-0.7-1.5-0.6c-0.4,0.2-1,0.3-0.7,1.4c0.1,0.7,0.2,1.5,0.1,2c-0.3,0.1-0.6,0.3-0.9,0.4c-0.5-0.2-1.1-0.8-1.5-1.3
					c-0.7-0.9-1.2-0.5-1.6-0.3c-0.4,0.2-0.9,0.5-0.5,1.5c0.3,0.7,0.5,1.5,0.4,2c-0.3,0.2-0.5,0.4-0.8,0.6c-0.5-0.1-1.2-0.6-1.7-1.1
					c-0.8-0.8-1.3-0.4-1.6-0.1c-0.3,0.3-0.9,0.6-0.3,1.6c0.4,0.6,0.7,1.4,0.7,1.9c-0.2,0.2-0.5,0.4-0.7,0.7c-0.5,0-1.3-0.4-1.9-0.8
					c-0.9-0.6-1.3-0.1-1.6,0.2c-0.3,0.3-0.8,0.7,0,1.6c0.5,0.6,0.9,1.3,1,1.8c-0.2,0.3-0.4,0.5-0.6,0.8c-0.5,0-1.3-0.2-2-0.5
					c-1-0.5-1.3,0.1-1.5,0.4c-0.2,0.4-0.6,0.8,0.2,1.6c0.5,0.5,1.1,1.1,1.2,1.6c-0.2,0.3-0.3,0.6-0.5,0.9c-0.5,0.1-1.3,0-2-0.2
					c-1.1-0.3-1.3,0.3-1.4,0.7c-0.2,0.4-0.5,0.9,0.5,1.5c0.6,0.4,1.3,1,1.5,1.4c-0.1,0.3-0.2,0.6-0.3,0.9c-0.5,0.2-1.3,0.2-2,0.2
					c-1.1-0.2-1.2,0.5-1.3,0.9c-0.1,0.4-0.3,1,0.7,1.4c0.7,0.3,1.4,0.7,1.7,1.2c-0.1,0.3-0.1,0.6-0.2,1c-0.4,0.3-1.3,0.4-2,0.5
					c-1.1,0-1.1,0.6-1.2,1.1c0,0.4-0.2,1,0.9,1.3c0.7,0.2,1.5,0.5,1.8,0.9c0,0.3,0,0.6,0,1c-0.4,0.3-1.2,0.6-1.9,0.8
					c-1.1,0.2-1,0.8-1,1.2c0,0.4,0,1,1.1,1.1c0.7,0.1,1.5,0.3,2,0.6c0,0.3,0.1,0.6,0.1,1c-0.3,0.4-1.1,0.8-1.7,1.1
					c-1.1,0.4-0.9,1-0.8,1.4c0.1,0.4,0.1,1,1.3,0.9c0.7,0,1.6,0,2,0.3c0.1,0.3,0.2,0.6,0.3,0.9c-0.3,0.4-0.9,1-1.5,1.3
					c-1,0.5-0.7,1.1-0.6,1.5c0.2,0.4,0.3,1,1.4,0.7c0.7-0.1,1.5-0.2,2-0.1c0.1,0.3,0.3,0.6,0.4,0.9c-0.2,0.5-0.8,1.1-1.3,1.5
					c-0.9,0.7-0.5,1.2-0.3,1.6c0.2,0.4,0.5,0.9,1.5,0.5c0.7-0.3,1.5-0.5,2-0.4c0.2,0.3,0.4,0.5,0.6,0.8c-0.1,0.5-0.6,1.2-1.1,1.7
					c-0.8,0.8-0.3,1.3-0.1,1.6c0.3,0.3,0.6,0.9,1.6,0.3c0.6-0.4,1.4-0.7,1.9-0.7c0.2,0.2,0.4,0.5,0.7,0.7c0,0.5-0.4,1.3-0.8,1.9
					c-0.7,0.9-0.1,1.3,0.2,1.6c0.3,0.3,0.7,0.8,1.6,0c0.6-0.5,1.3-0.9,1.8-1c0.3,0.2,0.5,0.4,0.8,0.6c0,0.5-0.2,1.3-0.5,2
					c-0.5,1,0.1,1.3,0.4,1.5c0.4,0.2,0.8,0.6,1.6-0.2c0.5-0.5,1.1-1.1,1.6-1.2c0.3,0.2,0.6,0.3,0.9,0.5c0.1,0.5,0,1.3-0.2,2
					c-0.3,1.1,0.3,1.3,0.7,1.4c0.4,0.2,0.9,0.5,1.5-0.5c0.4-0.6,1-1.2,1.4-1.5c0.3,0.1,0.6,0.2,0.9,0.3c0.2,0.5,0.2,1.3,0.2,2
					c-0.2,1.1,0.5,1.2,0.9,1.3c0.4,0.1,1,0.3,1.4-0.7c0.3-0.7,0.8-1.4,1.2-1.7c0.3,0.1,0.6,0.1,1,0.2c0.3,0.4,0.4,1.3,0.5,2
					c0,1.1,0.6,1.1,1.1,1.2c0.4,0.1,1,0.2,1.3-0.9c0.2-0.7,0.5-1.5,0.9-1.8c0.3,0,0.6,0,1,0c0.3,0.4,0.6,1.2,0.8,1.9
					c0.2,1.1,0.8,1,1.2,1c0.4,0,1,0,1.1-1.1c0.1-0.7,0.3-1.5,0.6-2c0.3,0,0.6-0.1,1-0.1c0.4,0.3,0.8,1.1,1.1,1.7
					c0.4,1.1,1,0.9,1.4,0.8c0.4-0.1,1-0.1,0.9-1.3c0-0.7,0-1.6,0.3-2c0.3-0.1,0.6-0.2,0.9-0.3c0.4,0.3,1,0.9,1.3,1.5
					c0.5,1,1.1,0.7,1.5,0.6c0.4-0.2,1-0.3,0.7-1.4c-0.1-0.7-0.2-1.5-0.1-2c0.3-0.1,0.6-0.3,0.9-0.4c0.5,0.2,1.1,0.8,1.5,1.3
					c0.7,0.9,1.2,0.5,1.6,0.3c0.4-0.2,0.9-0.5,0.5-1.5c-0.3-0.7-0.4-1.5-0.4-2c0.3-0.2,0.5-0.4,0.8-0.6c0.5,0.1,1.2,0.6,1.7,1.1
					c0.8,0.8,1.3,0.3,1.6,0.1c0.3-0.3,0.9-0.6,0.3-1.6c-0.4-0.6-0.7-1.4-0.7-1.9c0.2-0.2,0.5-0.4,0.7-0.7c0.5,0,1.3,0.4,1.9,0.8
					c0.9,0.6,1.3,0.1,1.6-0.2c0.3-0.3,0.8-0.7,0-1.6c-0.5-0.6-0.9-1.3-1-1.8c0.2-0.3,0.4-0.5,0.6-0.8c0.5,0,1.3,0.2,2,0.5
					c1,0.5,1.3-0.1,1.5-0.4c0.2-0.4,0.6-0.8-0.2-1.6c-0.5-0.5-1.1-1.1-1.2-1.6c0.2-0.3,0.3-0.6,0.5-0.9c0.5-0.1,1.3,0,2,0.2
					c1.1,0.3,1.3-0.3,1.4-0.7c0.2-0.4,0.5-0.9-0.5-1.5c-0.6-0.4-1.2-1-1.5-1.4c0.1-0.3,0.2-0.6,0.3-0.9c0.5-0.2,1.3-0.2,2-0.2
					c1.1,0.2,1.2-0.5,1.3-0.9c0.1-0.4,0.3-1-0.7-1.4c-0.7-0.3-1.4-0.7-1.7-1.2c0.1-0.3,0.1-0.6,0.2-1c0.4-0.3,1.3-0.4,2-0.5
					c1.1,0,1.1-0.6,1.2-1.1c0-0.4,0.2-1-0.9-1.3c-0.7-0.2-1.5-0.5-1.8-0.9c0-0.3,0-0.6,0-1c0.4-0.3,1.2-0.6,1.9-0.8
					c1.1-0.2,1-0.8,1-1.2c0-0.4,0-1-1.1-1.1c-0.7-0.1-1.6-0.3-2-0.6c0-0.3-0.1-0.6-0.1-1c0.3-0.4,1.1-0.8,1.7-1.1
					c1.1-0.4,0.9-1,0.8-1.4c-0.1-0.4-0.1-1-1.3-0.9c-0.7,0-1.6,0-2-0.3c-0.1-0.3-0.2-0.6-0.3-0.9c0.3-0.4,0.9-1,1.5-1.3
					c1-0.5,0.7-1.1,0.6-1.5c-0.1-0.4-0.3-1-1.4-0.7c-0.7,0.1-1.5,0.2-2,0.1c-0.1-0.3-0.3-0.6-0.4-0.9c0.2-0.5,0.8-1.1,1.3-1.5
					c0.9-0.7,0.5-1.2,0.3-1.6c-0.2-0.4-0.5-0.9-1.5-0.5c-0.7,0.3-1.5,0.5-2,0.4c-0.2-0.3-0.4-0.5-0.6-0.8c0.1-0.5,0.6-1.2,1.1-1.7
					c0.8-0.8,0.3-1.3,0.1-1.6C227.9,73.2,227.6,72.7,226.6,73.3z M219.6,115.2c-11.6,9.4-28.6,7.6-37.9-4c-9.4-11.6-7.6-28.6,4-37.9
					c11.6-9.4,28.6-7.6,37.9,4C233,88.8,231.2,105.8,219.6,115.2z"/>
				<path fill="#7786BE" d="M197.1,87.4c-3.8,3.1-4.3,8.6-1.3,12.4c3.1,3.8,8.6,4.3,12.4,1.3c3.8-3.1,4.3-8.6,1.3-12.4
					C206.4,85,200.9,84.4,197.1,87.4z M206.1,98.5c-2.3,1.9-5.8,1.5-7.7-0.8c-1.9-2.3-1.5-5.8,0.8-7.7c2.3-1.9,5.8-1.5,7.7,0.8
					C208.8,93.2,208.4,96.6,206.1,98.5z"/>
			</g>
			<g>
				<path fill="#7786BE" d="M226.6,73.3c-0.6,0.4-1.4,0.7-1.9,0.7c-0.2-0.2-0.4-0.5-0.7-0.7c0-0.5,0.4-1.3,0.8-1.9
					c0.7-0.9,0.2-1.3-0.2-1.6c-0.3-0.3-0.7-0.8-1.6,0c-0.6,0.5-1.3,0.9-1.8,1c-0.3-0.2-0.5-0.4-0.8-0.6c0-0.5,0.2-1.3,0.5-2
					c0.5-1-0.1-1.3-0.4-1.5c-0.4-0.2-0.8-0.6-1.6,0.2c-0.5,0.5-1.1,1.1-1.6,1.2c-0.3-0.2-0.6-0.3-0.9-0.5c-0.1-0.5,0-1.3,0.2-2
					c0.3-1.1-0.3-1.3-0.7-1.4c-0.4-0.2-0.9-0.5-1.5,0.5c-0.4,0.6-1,1.2-1.4,1.5c-0.3-0.1-0.6-0.2-0.9-0.3c-0.2-0.5-0.2-1.3-0.2-2
					c0.2-1.1-0.5-1.2-0.9-1.3c-0.4-0.1-1-0.3-1.4,0.7c-0.3,0.7-0.7,1.4-1.2,1.7c-0.3-0.1-0.6-0.1-1-0.2c-0.3-0.4-0.4-1.3-0.5-2
					c0-1.1-0.6-1.1-1.1-1.2c-0.4,0-1-0.2-1.3,0.9c-0.2,0.7-0.5,1.5-0.9,1.8c-0.3,0-0.6,0-1,0c-0.3-0.4-0.6-1.2-0.8-1.9
					c-0.2-1.1-0.8-1-1.2-1c-0.4,0-1,0-1.1,1.1c-0.1,0.7-0.3,1.5-0.6,2c-0.3,0-0.6,0.1-1,0.1c-0.4-0.3-0.8-1.1-1.1-1.7
					c-0.4-1.1-1-0.9-1.4-0.8c-0.4,0.1-1,0.1-0.9,1.3c0,0.7,0,1.6-0.3,2c-0.3,0.1-0.6,0.2-0.9,0.3c-0.4-0.3-1-0.9-1.3-1.5
					c-0.5-1-1.1-0.7-1.5-0.6c-0.4,0.2-1,0.3-0.7,1.4c0.1,0.7,0.2,1.5,0.1,2c-0.3,0.1-0.6,0.3-0.9,0.4c-0.5-0.2-1.1-0.8-1.5-1.3
					c-0.7-0.9-1.2-0.5-1.6-0.3c-0.4,0.2-0.9,0.5-0.5,1.5c0.3,0.7,0.5,1.5,0.4,2c-0.3,0.2-0.5,0.4-0.8,0.6c-0.5-0.1-1.2-0.6-1.7-1.1
					c-0.8-0.8-1.3-0.4-1.6-0.1c-0.3,0.3-0.9,0.6-0.3,1.6c0.4,0.6,0.7,1.4,0.7,1.9c-0.2,0.2-0.5,0.4-0.7,0.7c-0.5,0-1.3-0.4-1.9-0.8
					c-0.9-0.6-1.3-0.1-1.6,0.2c-0.3,0.3-0.8,0.7,0,1.6c0.5,0.6,0.9,1.3,1,1.8c-0.2,0.3-0.4,0.5-0.6,0.8c-0.5,0-1.3-0.2-2-0.5
					c-1-0.5-1.3,0.1-1.5,0.4c-0.2,0.4-0.6,0.8,0.2,1.6c0.5,0.5,1.1,1.1,1.2,1.6c-0.2,0.3-0.3,0.6-0.5,0.9c-0.5,0.1-1.3,0-2-0.2
					c-1.1-0.3-1.3,0.3-1.4,0.7c-0.2,0.4-0.5,0.9,0.5,1.5c0.6,0.4,1.3,1,1.5,1.4c-0.1,0.3-0.2,0.6-0.3,0.9c-0.5,0.2-1.3,0.2-2,0.2
					c-1.1-0.2-1.2,0.5-1.3,0.9c-0.1,0.4-0.3,1,0.7,1.4c0.7,0.3,1.4,0.7,1.7,1.2c-0.1,0.3-0.1,0.6-0.2,1c-0.4,0.3-1.3,0.4-2,0.5
					c-1.1,0-1.1,0.6-1.2,1.1c0,0.4-0.2,1,0.9,1.3c0.7,0.2,1.5,0.5,1.8,0.9c0,0.3,0,0.6,0,1c-0.4,0.3-1.2,0.6-1.9,0.8
					c-1.1,0.2-1,0.8-1,1.2c0,0.4,0,1,1.1,1.1c0.7,0.1,1.5,0.3,2,0.6c0,0.3,0.1,0.6,0.1,1c-0.3,0.4-1.1,0.8-1.7,1.1
					c-1.1,0.4-0.9,1-0.8,1.4c0.1,0.4,0.1,1,1.3,0.9c0.7,0,1.6,0,2,0.3c0.1,0.3,0.2,0.6,0.3,0.9c-0.3,0.4-0.9,1-1.5,1.3
					c-1,0.5-0.7,1.1-0.6,1.5c0.2,0.4,0.3,1,1.4,0.7c0.7-0.1,1.5-0.2,2-0.1c0.1,0.3,0.3,0.6,0.4,0.9c-0.2,0.5-0.8,1.1-1.3,1.5
					c-0.9,0.7-0.5,1.2-0.3,1.6c0.2,0.4,0.5,0.9,1.5,0.5c0.7-0.3,1.5-0.5,2-0.4c0.2,0.3,0.4,0.5,0.6,0.8c-0.1,0.5-0.6,1.2-1.1,1.7
					c-0.8,0.8-0.3,1.3-0.1,1.6c0.3,0.3,0.6,0.9,1.6,0.3c0.6-0.4,1.4-0.7,1.9-0.7c0.2,0.2,0.4,0.5,0.7,0.7c0,0.5-0.4,1.3-0.8,1.9
					c-0.7,0.9-0.1,1.3,0.2,1.6c0.3,0.3,0.7,0.8,1.6,0c0.6-0.5,1.3-0.9,1.8-1c0.3,0.2,0.5,0.4,0.8,0.6c0,0.5-0.2,1.3-0.5,2
					c-0.5,1,0.1,1.3,0.4,1.5c0.4,0.2,0.8,0.6,1.6-0.2c0.5-0.5,1.1-1.1,1.6-1.2c0.3,0.2,0.6,0.3,0.9,0.5c0.1,0.5,0,1.3-0.2,2
					c-0.3,1.1,0.3,1.3,0.7,1.4c0.4,0.2,0.9,0.5,1.5-0.5c0.4-0.6,1-1.2,1.4-1.5c0.3,0.1,0.6,0.2,0.9,0.3c0.2,0.5,0.2,1.3,0.2,2
					c-0.2,1.1,0.5,1.2,0.9,1.3c0.4,0.1,1,0.3,1.4-0.7c0.3-0.7,0.8-1.4,1.2-1.7c0.3,0.1,0.6,0.1,1,0.2c0.3,0.4,0.4,1.3,0.5,2
					c0,1.1,0.6,1.1,1.1,1.2c0.4,0.1,1,0.2,1.3-0.9c0.2-0.7,0.5-1.5,0.9-1.8c0.3,0,0.6,0,1,0c0.3,0.4,0.6,1.2,0.8,1.9
					c0.2,1.1,0.8,1,1.2,1c0.4,0,1,0,1.1-1.1c0.1-0.7,0.3-1.5,0.6-2c0.3,0,0.6-0.1,1-0.1c0.4,0.3,0.8,1.1,1.1,1.7
					c0.4,1.1,1,0.9,1.4,0.8c0.4-0.1,1-0.1,0.9-1.3c0-0.7,0-1.6,0.3-2c0.3-0.1,0.6-0.2,0.9-0.3c0.4,0.3,1,0.9,1.3,1.5
					c0.5,1,1.1,0.7,1.5,0.6c0.4-0.2,1-0.3,0.7-1.4c-0.1-0.7-0.2-1.5-0.1-2c0.3-0.1,0.6-0.3,0.9-0.4c0.5,0.2,1.1,0.8,1.5,1.3
					c0.7,0.9,1.2,0.5,1.6,0.3c0.4-0.2,0.9-0.5,0.5-1.5c-0.3-0.7-0.4-1.5-0.4-2c0.3-0.2,0.5-0.4,0.8-0.6c0.5,0.1,1.2,0.6,1.7,1.1
					c0.8,0.8,1.3,0.3,1.6,0.1c0.3-0.3,0.9-0.6,0.3-1.6c-0.4-0.6-0.7-1.4-0.7-1.9c0.2-0.2,0.5-0.4,0.7-0.7c0.5,0,1.3,0.4,1.9,0.8
					c0.9,0.6,1.3,0.1,1.6-0.2c0.3-0.3,0.8-0.7,0-1.6c-0.5-0.6-0.9-1.3-1-1.8c0.2-0.3,0.4-0.5,0.6-0.8c0.5,0,1.3,0.2,2,0.5
					c1,0.5,1.3-0.1,1.5-0.4c0.2-0.4,0.6-0.8-0.2-1.6c-0.5-0.5-1.1-1.1-1.2-1.6c0.2-0.3,0.3-0.6,0.5-0.9c0.5-0.1,1.3,0,2,0.2
					c1.1,0.3,1.3-0.3,1.4-0.7c0.2-0.4,0.5-0.9-0.5-1.5c-0.6-0.4-1.2-1-1.5-1.4c0.1-0.3,0.2-0.6,0.3-0.9c0.5-0.2,1.3-0.2,2-0.2
					c1.1,0.2,1.2-0.5,1.3-0.9c0.1-0.4,0.3-1-0.7-1.4c-0.7-0.3-1.4-0.7-1.7-1.2c0.1-0.3,0.1-0.6,0.2-1c0.4-0.3,1.3-0.4,2-0.5
					c1.1,0,1.1-0.6,1.2-1.1c0-0.4,0.2-1-0.9-1.3c-0.7-0.2-1.5-0.5-1.8-0.9c0-0.3,0-0.6,0-1c0.4-0.3,1.2-0.6,1.9-0.8
					c1.1-0.2,1-0.8,1-1.2c0-0.4,0-1-1.1-1.1c-0.7-0.1-1.6-0.3-2-0.6c0-0.3-0.1-0.6-0.1-1c0.3-0.4,1.1-0.8,1.7-1.1
					c1.1-0.4,0.9-1,0.8-1.4c-0.1-0.4-0.1-1-1.3-0.9c-0.7,0-1.6,0-2-0.3c-0.1-0.3-0.2-0.6-0.3-0.9c0.3-0.4,0.9-1,1.5-1.3
					c1-0.5,0.7-1.1,0.6-1.5c-0.1-0.4-0.3-1-1.4-0.7c-0.7,0.1-1.5,0.2-2,0.1c-0.1-0.3-0.3-0.6-0.4-0.9c0.2-0.5,0.8-1.1,1.3-1.5
					c0.9-0.7,0.5-1.2,0.3-1.6c-0.2-0.4-0.5-0.9-1.5-0.5c-0.7,0.3-1.5,0.5-2,0.4c-0.2-0.3-0.4-0.5-0.6-0.8c0.1-0.5,0.6-1.2,1.1-1.7
					c0.8-0.8,0.3-1.3,0.1-1.6C227.9,73.2,227.6,72.7,226.6,73.3z M219.6,115.2c-11.6,9.4-28.6,7.6-37.9-4c-9.4-11.6-7.6-28.6,4-37.9
					c11.6-9.4,28.6-7.6,37.9,4C233,88.8,231.2,105.8,219.6,115.2z"/>
				<path fill="#7786BE" d="M197.1,87.4c-3.8,3.1-4.3,8.6-1.3,12.4c3.1,3.8,8.6,4.3,12.4,1.3c3.8-3.1,4.3-8.6,1.3-12.4
					C206.4,85,200.9,84.4,197.1,87.4z M206.1,98.5c-2.3,1.9-5.8,1.5-7.7-0.8c-1.9-2.3-1.5-5.8,0.8-7.7c2.3-1.9,5.8-1.5,7.7,0.8
					C208.8,93.2,208.4,96.6,206.1,98.5z"/>
			</g>
		</g>
		<g>
			<g>
				<path fill="#7786BE" d="M205.2,132.8c-0.6,0.4-1.5,0.6-1.9,0.5c-0.1-0.4,0.1-1.2,0.3-1.8c0.4-0.9,0-1-0.3-1.2
					c-0.3-0.2-0.6-0.5-1.2,0.2c-0.5,0.5-1.2,1.1-1.6,1c-0.2-0.4-0.3-1.1-0.2-1.8c0.1-0.9-0.3-1-0.6-1.1c-0.3-0.1-0.7-0.3-1.1,0.6
					c-0.3,0.7-0.9,1.4-1.2,1.5c-0.3-0.3-0.6-1-0.8-1.6c-0.2-0.9-0.6-0.9-0.9-0.8c-0.4,0-0.8,0-0.9,0.9c-0.1,0.7-0.4,1.6-0.7,1.8
					c-0.4-0.2-0.9-0.8-1.2-1.3c-0.4-0.8-0.8-0.6-1.2-0.5c-0.3,0.1-0.8,0.2-0.5,1.1c0.1,0.7,0.1,1.6-0.2,1.9c-0.4,0-1.1-0.4-1.6-0.9
					c-0.7-0.7-1-0.4-1.3-0.1c-0.3,0.2-0.7,0.4-0.2,1.2c0.4,0.7,0.6,1.7,0.4,2v0c0,0,0,0,0,0c0,0,0,0,0,0l0,0c-0.3,0.3-1.3,0.2-2-0.1
					c-0.9-0.4-1,0-1.2,0.3c-0.2,0.3-0.5,0.7,0.3,1.2c0.5,0.4,1,1,1.1,1.4c-0.3,0.3-1.1,0.5-1.9,0.4c-0.9-0.1-1,0.3-1,0.7
					c-0.1,0.3-0.2,0.8,0.7,1.1c0.6,0.2,1.3,0.7,1.5,1c-0.2,0.4-1,0.8-1.7,1c-0.9,0.2-0.8,0.6-0.8,1c0,0.4,0,0.8,1,0.8
					c0.7,0,1.4,0.3,1.7,0.5c0,0.4-0.7,1-1.3,1.4c-0.8,0.5-0.6,0.8-0.4,1.2c0.1,0.3,0.3,0.8,1.2,0.5c0.6-0.2,1.4-0.2,1.8,0
					c0.1,0.4-0.3,1.2-0.8,1.8c-0.6,0.7-0.3,1-0.1,1.3c0.2,0.3,0.5,0.6,1.3,0.1c0.6-0.3,1.3-0.6,1.7-0.6c0.2,0.3,0.1,1.2-0.2,1.9
					c-0.4,0.9,0,1,0.3,1.2c0.3,0.2,0.6,0.5,1.2-0.3c0.4-0.5,1-1,1.5-1.1c0.3,0.3,0.4,1.2,0.4,1.9c-0.1,0.9,0.3,1,0.7,1.1
					c0.3,0.1,0.8,0.2,1.1-0.6c0.3-0.6,0.7-1.3,1.1-1.5c0.4,0.2,0.8,1,0.9,1.7c0.2,0.9,0.6,0.8,1,0.8c0.4,0,0.8,0,0.8-0.9
					c0.1-0.7,0.3-1.4,0.6-1.7c0.4,0,1,0.7,1.4,1.3c0.5,0.8,0.8,0.6,1.2,0.5c0.3-0.1,0.8-0.2,0.5-1.2c-0.1-0.6-0.2-1.4,0-1.8
					c0.4-0.1,1.2,0.3,1.7,0.8c0.7,0.6,1,0.3,1.3,0.1c0.3-0.2,0.6-0.5,0.1-1.3c-0.4-0.7-0.7-1.6-0.5-1.9c0.2-0.3,1.2-0.1,2,0.2
					c0.9,0.4,1,0,1.2-0.3c0.2-0.3,0.5-0.6-0.3-1.2c-0.5-0.5-1.1-1.2-1-1.6c0.3-0.2,1.1-0.3,1.8-0.3c0.9,0.1,1-0.3,1.1-0.7
					c0.1-0.3,0.3-0.7-0.6-1.1c-0.7-0.3-1.4-0.8-1.5-1.2c0.3-0.3,1-0.6,1.6-0.8c0.9-0.2,0.8-0.6,0.8-1c0-0.4,0-0.8-0.9-0.9
					c-0.7-0.1-1.6-0.4-1.8-0.7c0.2-0.4,0.7-0.9,1.3-1.2c0.8-0.4,0.6-0.8,0.5-1.2c-0.1-0.3-0.2-0.8-1.1-0.5c-0.7,0.1-1.6,0.1-1.9-0.1
					c0-0.4,0.4-1.1,0.9-1.6c0.7-0.7,0.3-1,0.1-1.3C206.2,132.7,206,132.3,205.2,132.8z M201.7,148c-3.7,3-9.1,2.4-12.1-1.3
					c-3-3.7-2.4-9.1,1.3-12.1c3.7-3,9.1-2.4,12.1,1.3C206,139.6,205.4,145,201.7,148z"/>
				<path fill="#7786BE" d="M193.5,137.9c-1.9,1.6-2.2,4.4-0.7,6.3c1.6,1.9,4.4,2.2,6.3,0.7c1.9-1.6,2.2-4.4,0.7-6.3
					C198.3,136.6,195.4,136.3,193.5,137.9z M198.1,143.5c-1.2,1-3,0.8-3.9-0.4c-1-1.2-0.8-3,0.4-3.9c1.2-1,3-0.8,3.9,0.4
					C199.5,140.8,199.3,142.6,198.1,143.5z"/>
			</g>
		</g>
		<path fill="#7786BE" d="M242.7,123.3c-0.5-0.1-1-0.3-1.1-0.6c0.1-0.2,0.5-0.6,0.8-0.8c0.5-0.3,0.4-0.5,0.3-0.7
			c-0.1-0.2-0.1-0.5-0.7-0.3c-0.5,0.1-1.1,0.1-1.2-0.1c0-0.3,0.2-0.7,0.5-1c0.4-0.5,0.2-0.6,0-0.8c-0.2-0.2-0.3-0.4-0.8,0
			c-0.4,0.3-0.9,0.5-1.2,0.4c-0.1-0.2-0.1-0.7,0-1.1c0.2-0.6-0.1-0.6-0.3-0.7c-0.2-0.1-0.4-0.2-0.7,0.3c-0.3,0.4-0.7,0.8-0.9,0.8
			c-0.2-0.2-0.4-0.6-0.4-1.1c-0.1-0.6-0.3-0.6-0.6-0.6c-0.2,0-0.5,0-0.6,0.5c-0.1,0.4-0.2,0.8-0.4,1c-0.2-0.1-0.6-0.5-0.8-0.8
			c-0.3-0.5-0.5-0.4-0.7-0.3c-0.2,0.1-0.5,0.1-0.3,0.7c0.1,0.4,0.1,0.9,0,1.1c-0.2,0.1-0.8-0.1-1.2-0.4c-0.5-0.4-0.6-0.2-0.8,0
			c-0.2,0.2-0.4,0.3,0,0.8c0.2,0.3,0.4,0.8,0.4,1.1c-0.2,0.2-0.8,0.2-1.2,0.1c-0.6-0.2-0.6,0.1-0.7,0.3c-0.1,0.2-0.2,0.4,0.3,0.7
			c0.4,0.2,0.7,0.6,0.8,0.8c-0.1,0.2-0.6,0.5-1.1,0.5c-0.6,0.1-0.6,0.3-0.5,0.6c0,0.2,0,0.5,0.6,0.6c0.4,0.1,0.9,0.2,1,0.4
			c0,0.2-0.4,0.7-0.8,0.9c-0.5,0.3-0.4,0.5-0.3,0.7c0.1,0.2,0.2,0.5,0.7,0.3c0.4-0.1,0.9-0.1,1.1,0c0.1,0.2-0.1,0.8-0.4,1.2
			c-0.4,0.5-0.1,0.6,0,0.8c0.2,0.2,0.3,0.4,0.8,0c0.3-0.2,0.8-0.5,1-0.4c0.2,0.2,0.2,0.8,0.1,1.2c-0.1,0.6,0.1,0.6,0.3,0.7
			c0.2,0.1,0.4,0.2,0.7-0.3c0.2-0.4,0.5-0.7,0.8-0.8c0.2,0.1,0.5,0.6,0.6,1.1c0.1,0.6,0.4,0.5,0.6,0.5c0.2,0,0.5,0,0.6-0.6
			c0.1-0.4,0.2-0.8,0.4-1c0.2,0.1,0.5,0.5,0.7,0.8c0.3,0.5,0.5,0.4,0.7,0.3c0.2-0.1,0.5-0.1,0.3-0.7c-0.1-0.5-0.1-1.1,0.1-1.2
			c0.3,0,0.7,0.2,1,0.5c0.5,0.4,0.6,0.2,0.8,0c0.2-0.1,0.4-0.3,0-0.8c-0.3-0.4-0.5-1-0.3-1.2c0.2-0.1,0.7-0.1,1.1,0
			c0.6,0.2,0.7-0.1,0.7-0.3c0.1-0.2,0.2-0.4-0.3-0.7c-0.4-0.3-0.8-0.7-0.8-1c0.2-0.2,0.6-0.3,1.1-0.4c0.6-0.1,0.6-0.3,0.6-0.6
			C243.2,123.7,243.3,123.4,242.7,123.3z"/>
		<path fill="#7786BE" d="M252.2,122.1c-0.3-0.1-0.6-0.2-0.7-0.4c0.1-0.2,0.3-0.4,0.5-0.5c0.3-0.2,0.2-0.3,0.2-0.5
			c0-0.1-0.1-0.3-0.4-0.2c-0.3,0.1-0.7,0-0.8-0.1c0-0.2,0.1-0.4,0.3-0.6c0.2-0.3,0.1-0.4,0-0.5c-0.1-0.1-0.2-0.2-0.5,0
			c-0.2,0.2-0.6,0.3-0.7,0.2c-0.1-0.1-0.1-0.5,0-0.7c0.1-0.4-0.1-0.4-0.2-0.5c-0.1-0.1-0.3-0.1-0.5,0.2c-0.2,0.2-0.4,0.5-0.6,0.5
			c-0.1-0.1-0.2-0.4-0.3-0.7c0-0.4-0.2-0.3-0.3-0.4c-0.1,0-0.3,0-0.4,0.3c0,0.2-0.2,0.5-0.3,0.6c-0.2-0.1-0.3-0.3-0.5-0.5
			c-0.2-0.3-0.3-0.2-0.5-0.2c-0.1,0.1-0.3,0.1-0.2,0.5c0.1,0.3,0.1,0.6,0,0.7c-0.1,0.1-0.5-0.1-0.7-0.3c-0.3-0.2-0.4-0.1-0.5,0
			c-0.1,0.1-0.2,0.2,0,0.5c0.2,0.2,0.3,0.5,0.3,0.7c-0.1,0.1-0.5,0.1-0.8,0c-0.4-0.1-0.4,0.1-0.5,0.2c-0.1,0.1-0.1,0.3,0.2,0.5
			c0.2,0.1,0.4,0.3,0.5,0.5c-0.1,0.1-0.4,0.3-0.7,0.3c-0.4,0-0.3,0.2-0.3,0.4c0,0.1,0,0.3,0.3,0.4c0.3,0,0.5,0.2,0.7,0.3
			c0,0.2-0.3,0.4-0.5,0.6c-0.3,0.2-0.2,0.3-0.2,0.5c0.1,0.1,0.1,0.3,0.5,0.2c0.3-0.1,0.6-0.1,0.7,0c0.1,0.1-0.1,0.5-0.2,0.7
			c-0.2,0.3-0.1,0.4,0,0.5c0.1,0.1,0.2,0.2,0.5,0c0.2-0.2,0.5-0.3,0.7-0.3c0.1,0.1,0.1,0.5,0.1,0.8c-0.1,0.4,0.1,0.4,0.2,0.4
			c0.1,0.1,0.3,0.1,0.5-0.2c0.1-0.2,0.3-0.4,0.5-0.5c0.1,0.1,0.3,0.4,0.3,0.7c0.1,0.4,0.2,0.3,0.4,0.3c0.1,0,0.3,0,0.3-0.4
			c0-0.2,0.1-0.5,0.2-0.6c0.1,0.1,0.3,0.3,0.4,0.5c0.2,0.3,0.3,0.3,0.5,0.2c0.1,0,0.3-0.1,0.2-0.4c-0.1-0.3,0-0.7,0.1-0.8
			c0.2,0,0.4,0.1,0.6,0.3c0.3,0.2,0.4,0.1,0.5,0c0.1-0.1,0.2-0.2,0-0.5c-0.2-0.3-0.3-0.6-0.2-0.7c0.1-0.1,0.5,0,0.7,0
			c0.4,0.1,0.4-0.1,0.5-0.2c0.1-0.1,0.2-0.3-0.2-0.5c-0.2-0.2-0.5-0.4-0.5-0.6c0.1-0.1,0.4-0.2,0.7-0.2c0.4,0,0.4-0.2,0.4-0.3
			C252.5,122.3,252.5,122.2,252.2,122.1z"/>
		<g>
			<path fill="#7786BE" d="M225.3,129.6l-3.6-2.7c-0.5,0.9-0.3,2.2,0.5,2.9C223.1,130.6,224.4,130.5,225.3,129.6z"/>
			<path fill="#7786BE" d="M225,126.3c-0.9-0.8-2.3-0.7-3.1,0.2l3.6,2.7C226.1,128.3,225.9,127,225,126.3z"/>
		</g>
		<g>
			<path fill="#7786BE" d="M229.4,69.5l-3.6-2.7c-0.5,0.9-0.3,2.2,0.5,2.9C227.2,70.5,228.6,70.4,229.4,69.5z"/>
			<path fill="#7786BE" d="M229.2,66.2c-0.9-0.8-2.3-0.7-3.1,0.2l3.6,2.7C230.3,68.2,230.1,66.9,229.2,66.2z"/>
		</g>
		<g>
			<path fill="#7786BE" d="M167.3,92.4l-3.6-2.7c-0.5,0.9-0.3,2.2,0.5,2.9C165.2,93.3,166.5,93.2,167.3,92.4z"/>
			<path fill="#7786BE" d="M167.1,89.1c-0.9-0.8-2.3-0.7-3.1,0.2l3.6,2.7C168.2,91,168,89.8,167.1,89.1z"/>
		</g>
		<g>
			<path fill="#7786BE" d="M181.3,150.2l-3.6-2.7c-0.5,0.9-0.3,2.2,0.5,2.9C179.2,151.1,180.5,151,181.3,150.2z"/>
			<path fill="#7786BE" d="M181.1,146.9c-0.9-0.8-2.3-0.7-3.1,0.2l3.6,2.7C182.2,148.8,182,147.6,181.1,146.9z"/>
		</g>
		<g>
			<path fill="#7786BE" d="M216.2,142.8l-3.6-2.7c-0.5,0.9-0.3,2.2,0.5,2.9C214.1,143.8,215.4,143.7,216.2,142.8z"/>
			<path fill="#7786BE" d="M216,139.5c-0.9-0.8-2.3-0.7-3.1,0.2l3.6,2.7C217.1,141.4,216.9,140.2,216,139.5z"/>
		</g>
		<path fill="#7786BE" d="M165.6,77.5c-2.3,0-4.1,1.8-4.1,4c0,2.2,1.8,4,4.1,4s4.1-1.8,4.1-4C169.7,79.3,167.9,77.5,165.6,77.5z"/>
		<path fill="#7786BE" d="M236,109.5c-1.6,0-2.9,1.3-2.9,2.8c0,1.6,1.3,2.8,2.9,2.8c1.6,0,2.9-1.3,2.9-2.8
			C239,110.8,237.6,109.5,236,109.5z"/>
		<path fill="#7786BE" d="M169.7,107.6c-1.1,0-2,0.9-2,2c0,1.1,0.9,2,2,2c1.1,0,2-0.9,2-2C171.7,108.5,170.8,107.6,169.7,107.6z"/>
		<path fill="#7786BE" d="M187.1,125.5c-1.1,0-2,0.9-2,2c0,1.1,0.9,2,2,2c1.1,0,2-0.9,2-2C189.1,126.3,188.2,125.5,187.1,125.5z"/>
		<path fill="#7786BE" d="M220.6,135.2c-1.1,0-2,0.9-2,2c0,1.1,0.9,2,2,2c1.1,0,2-0.9,2-2C222.6,136.1,221.7,135.2,220.6,135.2z"/>
		<path fill="#7786BE" d="M237.5,82.2c-1.1,0-2,0.9-2,2c0,1.1,0.9,2,2,2c1.1,0,2-0.9,2-2C239.6,83.1,238.6,82.2,237.5,82.2z"/>
		<path fill="#7786BE" d="M223.8,133.3c-2.9,0-5.2-2.3-5.2-5.1c0-2.8,2.3-5.1,5.2-5.1c2.9,0,5.2,2.3,5.2,5.1
			C229,131,226.7,133.3,223.8,133.3z M223.8,124.2c-2.3,0-4.1,1.8-4.1,4c0,2.2,1.8,4,4.1,4s4.1-1.8,4.1-4
			C227.9,126,226.1,124.2,223.8,124.2z"/>
		<g>
			<path fill="#7786BE" d="M207.3,131.6c-1.1,0-1.9-0.8-1.9-1.9c0-1,0.9-1.9,1.9-1.9c1.1,0,1.9,0.8,1.9,1.9
				C209.2,130.7,208.4,131.6,207.3,131.6z M207.3,128.2c-0.8,0-1.5,0.7-1.5,1.5c0,0.8,0.7,1.5,1.5,1.5c0.8,0,1.5-0.7,1.5-1.5
				C208.8,128.9,208.2,128.2,207.3,128.2z"/>
			<path fill="#7786BE" d="M207.3,130.9c-0.7,0-1.2-0.5-1.2-1.2c0-0.7,0.6-1.2,1.2-1.2c0.7,0,1.2,0.5,1.2,1.2
				C208.6,130.4,208,130.9,207.3,130.9z M207.3,128.8c-0.5,0-1,0.4-1,0.9c0,0.5,0.4,0.9,1,0.9c0.5,0,1-0.4,1-0.9
				C208.3,129.2,207.9,128.8,207.3,128.8z"/>
			<path fill="#7786BE" d="M207.3,130.3c-0.4,0-0.7-0.3-0.7-0.6c0-0.4,0.3-0.6,0.7-0.6c0.4,0,0.7,0.3,0.7,0.6
				C208,130.1,207.7,130.3,207.3,130.3z M207.3,129.2c-0.3,0-0.5,0.2-0.5,0.5c0,0.3,0.2,0.5,0.5,0.5c0.3,0,0.5-0.2,0.5-0.5
				C207.8,129.4,207.6,129.2,207.3,129.2z"/>
		</g>
		<g>
			<path fill="#7786BE" d="M235.8,107.8c-1.1,0-1.9-0.8-1.9-1.9c0-1,0.9-1.9,1.9-1.9c1.1,0,1.9,0.8,1.9,1.9
				C237.7,107,236.8,107.8,235.8,107.8z M235.8,104.4c-0.8,0-1.5,0.7-1.5,1.5c0,0.8,0.7,1.5,1.5,1.5c0.8,0,1.5-0.7,1.5-1.5
				C237.3,105.1,236.6,104.4,235.8,104.4z"/>
			<path fill="#7786BE" d="M235.8,107.1c-0.7,0-1.2-0.5-1.2-1.2c0-0.7,0.6-1.2,1.2-1.2c0.7,0,1.2,0.5,1.2,1.2
				C237,106.6,236.5,107.1,235.8,107.1z M235.8,105c-0.5,0-1,0.4-1,0.9c0,0.5,0.4,1,1,1c0.5,0,1-0.4,1-1
				C236.7,105.4,236.3,105,235.8,105z"/>
			<path fill="#7786BE" d="M235.8,106.6c-0.4,0-0.7-0.3-0.7-0.6c0-0.4,0.3-0.6,0.7-0.6c0.4,0,0.7,0.3,0.7,0.6
				C236.4,106.3,236.1,106.6,235.8,106.6z M235.8,105.4c-0.3,0-0.5,0.2-0.5,0.5c0,0.3,0.2,0.5,0.5,0.5c0.3,0,0.5-0.2,0.5-0.5
				C236.3,105.6,236.1,105.4,235.8,105.4z"/>
		</g>
		<g>
			<path fill="#7786BE" d="M227.4,121.8c-1.1,0-1.9-0.8-1.9-1.9c0-1,0.9-1.9,1.9-1.9c1.1,0,1.9,0.8,1.9,1.9
				C229.3,121,228.4,121.8,227.4,121.8z M227.4,118.5c-0.8,0-1.5,0.7-1.5,1.5s0.7,1.5,1.5,1.5c0.8,0,1.5-0.7,1.5-1.5
				S228.2,118.5,227.4,118.5z"/>
			<path fill="#7786BE" d="M227.4,121.2c-0.7,0-1.2-0.5-1.2-1.2c0-0.7,0.6-1.2,1.2-1.2c0.7,0,1.2,0.5,1.2,1.2
				C228.6,120.6,228.1,121.2,227.4,121.2z M227.4,119c-0.5,0-1,0.4-1,0.9c0,0.5,0.4,1,1,1c0.5,0,1-0.4,1-1
				C228.4,119.4,227.9,119,227.4,119z"/>
			<path fill="#7786BE" d="M227.4,120.6c-0.4,0-0.7-0.3-0.7-0.6c0-0.4,0.3-0.6,0.7-0.6c0.4,0,0.7,0.3,0.7,0.6
				C228,120.3,227.7,120.6,227.4,120.6z M227.4,119.4c-0.3,0-0.5,0.2-0.5,0.5c0,0.3,0.2,0.5,0.5,0.5c0.3,0,0.5-0.2,0.5-0.5
				C227.9,119.7,227.7,119.4,227.4,119.4z"/>
		</g>
		<g>
			<path fill="#7786BE" d="M223.2,66c-1.1,0-1.9-0.8-1.9-1.9c0-1,0.9-1.9,1.9-1.9c1.1,0,1.9,0.8,1.9,1.9
				C225.1,65.2,224.3,66,223.2,66z M223.2,62.7c-0.8,0-1.5,0.7-1.5,1.5c0,0.8,0.7,1.5,1.5,1.5c0.8,0,1.5-0.7,1.5-1.5
				C224.7,63.3,224,62.7,223.2,62.7z"/>
			<path fill="#7786BE" d="M223.2,65.4c-0.7,0-1.2-0.5-1.2-1.2c0-0.7,0.6-1.2,1.2-1.2c0.7,0,1.2,0.5,1.2,1.2
				C224.4,64.8,223.9,65.4,223.2,65.4z M223.2,63.2c-0.5,0-1,0.4-1,0.9c0,0.5,0.4,0.9,1,0.9c0.5,0,1-0.4,1-0.9
				C224.2,63.6,223.7,63.2,223.2,63.2z"/>
			<path fill="#7786BE" d="M223.2,64.8c-0.4,0-0.7-0.3-0.7-0.6c0-0.4,0.3-0.6,0.7-0.6c0.4,0,0.7,0.3,0.7,0.6
				C223.9,64.5,223.6,64.8,223.2,64.8z M223.2,63.6c-0.3,0-0.5,0.2-0.5,0.5c0,0.3,0.2,0.5,0.5,0.5c0.3,0,0.5-0.2,0.5-0.5
				C223.7,63.9,223.5,63.6,223.2,63.6z"/>
		</g>
		<g>
			<path fill="#7786BE" d="M251.3,76.2c-1.1,0-1.9-0.8-1.9-1.9c0-1,0.9-1.9,1.9-1.9c1.1,0,1.9,0.8,1.9,1.9
				C253.2,75.4,252.4,76.2,251.3,76.2z M251.3,72.9c-0.8,0-1.5,0.7-1.5,1.5s0.7,1.5,1.5,1.5c0.8,0,1.5-0.7,1.5-1.5
				S252.1,72.9,251.3,72.9z"/>
			<path fill="#7786BE" d="M251.3,75.6c-0.7,0-1.2-0.5-1.2-1.2c0-0.7,0.6-1.2,1.2-1.2c0.7,0,1.2,0.5,1.2,1.2
				C252.5,75,252,75.6,251.3,75.6z M251.3,73.4c-0.5,0-1,0.4-1,0.9s0.4,0.9,1,0.9c0.5,0,1-0.4,1-0.9S251.8,73.4,251.3,73.4z"/>
			<path fill="#7786BE" d="M251.3,75c-0.4,0-0.7-0.3-0.7-0.6c0-0.4,0.3-0.6,0.7-0.6c0.4,0,0.7,0.3,0.7,0.6
				C252,74.7,251.7,75,251.3,75z M251.3,73.9c-0.3,0-0.5,0.2-0.5,0.5c0,0.3,0.2,0.5,0.5,0.5c0.3,0,0.5-0.2,0.5-0.5
				C251.8,74.1,251.6,73.9,251.3,73.9z"/>
		</g>
		<g>
			<path fill="#7786BE" d="M152.7,114.5c-1.1,0-1.9-0.8-1.9-1.9c0-1,0.9-1.9,1.9-1.9c1.1,0,1.9,0.8,1.9,1.9
				C154.7,113.7,153.8,114.5,152.7,114.5z M152.7,111.2c-0.8,0-1.5,0.7-1.5,1.5c0,0.8,0.7,1.5,1.5,1.5c0.8,0,1.5-0.7,1.5-1.5
				C154.3,111.8,153.6,111.2,152.7,111.2z"/>
			<path fill="#7786BE" d="M152.7,113.8c-0.7,0-1.2-0.5-1.2-1.2c0-0.7,0.6-1.2,1.2-1.2c0.7,0,1.2,0.5,1.2,1.2
				C154,113.3,153.4,113.8,152.7,113.8z M152.7,111.7c-0.5,0-1,0.4-1,0.9c0,0.5,0.4,1,1,1c0.5,0,1-0.4,1-1
				C153.7,112.1,153.3,111.7,152.7,111.7z"/>
			<path fill="#7786BE" d="M152.7,113.3c-0.4,0-0.7-0.3-0.7-0.6c0-0.4,0.3-0.6,0.7-0.6c0.4,0,0.7,0.3,0.7,0.6
				C153.4,113,153.1,113.3,152.7,113.3z M152.7,112.1c-0.3,0-0.5,0.2-0.5,0.5c0,0.3,0.2,0.5,0.5,0.5c0.3,0,0.5-0.2,0.5-0.5
				C153.3,112.3,153,112.1,152.7,112.1z"/>
		</g>
		<g>
			<path fill="#7786BE" d="M171.9,77.2c-1.1,0-1.9-0.8-1.9-1.9c0-1,0.9-1.9,1.9-1.9c1.1,0,1.9,0.8,1.9,1.9
				C173.8,76.3,172.9,77.2,171.9,77.2z M171.9,73.8c-0.8,0-1.5,0.7-1.5,1.5s0.7,1.5,1.5,1.5c0.8,0,1.5-0.7,1.5-1.5
				S172.7,73.8,171.9,73.8z"/>
			<path fill="#7786BE" d="M171.9,76.5c-0.7,0-1.2-0.5-1.2-1.2c0-0.7,0.6-1.2,1.2-1.2c0.7,0,1.2,0.5,1.2,1.2
				C173.1,76,172.6,76.5,171.9,76.5z M171.9,74.3c-0.5,0-1,0.4-1,0.9c0,0.5,0.4,1,1,1c0.5,0,1-0.4,1-1
				C172.9,74.8,172.4,74.3,171.9,74.3z"/>
			<path fill="#7786BE" d="M171.9,75.9c-0.4,0-0.7-0.3-0.7-0.6c0-0.4,0.3-0.6,0.7-0.6c0.4,0,0.7,0.3,0.7,0.6
				C172.6,75.6,172.3,75.9,171.9,75.9z M171.9,74.8c-0.3,0-0.5,0.2-0.5,0.5c0,0.3,0.2,0.5,0.5,0.5c0.3,0,0.5-0.2,0.5-0.5
				C172.4,75,172.2,74.8,171.9,74.8z"/>
		</g>
		<g>
			<path fill="#7786BE" d="M211.1,138.7c-0.7,0-1.2-0.5-1.2-1.2c0-0.7,0.5-1.2,1.2-1.2c0.7,0,1.2,0.5,1.2,1.2
				C212.3,138.1,211.7,138.7,211.1,138.7z M211.1,136.5c-0.5,0-1,0.4-1,0.9c0,0.5,0.4,0.9,1,0.9c0.5,0,1-0.4,1-0.9
				C212,136.9,211.6,136.5,211.1,136.5z"/>
			<path fill="#7786BE" d="M211.1,138.2c-0.4,0-0.8-0.3-0.8-0.8c0-0.4,0.4-0.8,0.8-0.8c0.4,0,0.8,0.3,0.8,0.8
				C211.9,137.9,211.5,138.2,211.1,138.2z M211.1,136.9c-0.3,0-0.6,0.3-0.6,0.6c0,0.3,0.3,0.6,0.6,0.6c0.3,0,0.6-0.3,0.6-0.6
				C211.7,137.1,211.4,136.9,211.1,136.9z"/>
			<path fill="#7786BE" d="M211.1,137.9c-0.2,0-0.4-0.2-0.4-0.4c0-0.2,0.2-0.4,0.4-0.4c0.2,0,0.4,0.2,0.4,0.4
				C211.5,137.7,211.3,137.9,211.1,137.9z M211.1,137.1c-0.2,0-0.3,0.1-0.3,0.3c0,0.2,0.1,0.3,0.3,0.3c0.2,0,0.3-0.1,0.3-0.3
				C211.4,137.3,211.3,137.1,211.1,137.1z"/>
		</g>
		<g>
			<path fill="#7786BE" d="M230.7,117.2c-0.7,0-1.2-0.5-1.2-1.2c0-0.7,0.5-1.2,1.2-1.2c0.7,0,1.2,0.5,1.2,1.2
				C231.9,116.6,231.4,117.2,230.7,117.2z M230.7,115c-0.5,0-1,0.4-1,0.9c0,0.5,0.4,0.9,1,0.9c0.5,0,1-0.4,1-0.9
				C231.7,115.5,231.2,115,230.7,115z"/>
			<path fill="#7786BE" d="M230.7,116.8c-0.4,0-0.8-0.3-0.8-0.8c0-0.4,0.4-0.8,0.8-0.8c0.4,0,0.8,0.3,0.8,0.8
				C231.5,116.4,231.1,116.8,230.7,116.8z M230.7,115.4c-0.3,0-0.6,0.3-0.6,0.6c0,0.3,0.3,0.6,0.6,0.6c0.3,0,0.6-0.3,0.6-0.6
				C231.3,115.6,231,115.4,230.7,115.4z"/>
			<path fill="#7786BE" d="M230.7,116.4c-0.2,0-0.4-0.2-0.4-0.4c0-0.2,0.2-0.4,0.4-0.4c0.2,0,0.4,0.2,0.4,0.4
				C231.1,116.2,230.9,116.4,230.7,116.4z M230.7,115.7c-0.2,0-0.3,0.1-0.3,0.3c0,0.2,0.1,0.3,0.3,0.3c0.2,0,0.3-0.1,0.3-0.3
				C231,115.8,230.9,115.7,230.7,115.7z"/>
		</g>
		<g>
			<path fill="#7786BE" d="M160.6,91.3c-0.7,0-1.2-0.5-1.2-1.2c0-0.7,0.5-1.2,1.2-1.2c0.7,0,1.2,0.5,1.2,1.2
				C161.8,90.7,161.2,91.3,160.6,91.3z M160.6,89.1c-0.5,0-1,0.4-1,0.9c0,0.5,0.4,0.9,1,0.9c0.5,0,1-0.4,1-0.9
				C161.5,89.5,161.1,89.1,160.6,89.1z"/>
			<path fill="#7786BE" d="M160.6,90.8c-0.4,0-0.8-0.3-0.8-0.8c0-0.4,0.4-0.8,0.8-0.8c0.4,0,0.8,0.3,0.8,0.8
				C161.4,90.5,161,90.8,160.6,90.8z M160.6,89.5c-0.3,0-0.6,0.3-0.6,0.6c0,0.3,0.3,0.6,0.6,0.6c0.3,0,0.6-0.3,0.6-0.6
				C161.2,89.7,160.9,89.5,160.6,89.5z"/>
			<path fill="#7786BE" d="M160.6,90.5c-0.2,0-0.4-0.2-0.4-0.4c0-0.2,0.2-0.4,0.4-0.4c0.2,0,0.4,0.2,0.4,0.4
				C161,90.3,160.8,90.5,160.6,90.5z M160.6,89.7c-0.2,0-0.3,0.1-0.3,0.3c0,0.2,0.1,0.3,0.3,0.3c0.2,0,0.3-0.1,0.3-0.3
				C160.9,89.9,160.7,89.7,160.6,89.7z"/>
		</g>
		<g>
			<path fill="#7786BE" d="M241.9,117.3c-0.7,0-1.2-0.5-1.2-1.2c0-0.7,0.5-1.2,1.2-1.2c0.7,0,1.2,0.5,1.2,1.2
				C243.1,116.8,242.6,117.3,241.9,117.3z M241.9,115.2c-0.5,0-1,0.4-1,0.9c0,0.5,0.4,0.9,1,0.9c0.5,0,1-0.4,1-0.9
				C242.9,115.6,242.4,115.2,241.9,115.2z"/>
			<path fill="#7786BE" d="M241.9,116.9c-0.4,0-0.8-0.3-0.8-0.8c0-0.4,0.4-0.8,0.8-0.8c0.4,0,0.8,0.3,0.8,0.8
				C242.7,116.6,242.3,116.9,241.9,116.9z M241.9,115.5c-0.3,0-0.6,0.3-0.6,0.6c0,0.3,0.3,0.6,0.6,0.6c0.3,0,0.6-0.3,0.6-0.6
				C242.5,115.8,242.2,115.5,241.9,115.5z"/>
			<path fill="#7786BE" d="M241.9,116.5c-0.2,0-0.4-0.2-0.4-0.4c0-0.2,0.2-0.4,0.4-0.4c0.2,0,0.4,0.2,0.4,0.4
				C242.3,116.4,242.1,116.5,241.9,116.5z M241.9,115.8c-0.2,0-0.3,0.1-0.3,0.3c0,0.2,0.1,0.3,0.3,0.3c0.2,0,0.3-0.1,0.3-0.3
				C242.2,116,242.1,115.8,241.9,115.8z"/>
		</g>
		<g>
			<path fill="#7786BE" d="M184.2,125.4c-0.7,0-1.2-0.5-1.2-1.2c0-0.7,0.5-1.2,1.2-1.2c0.7,0,1.2,0.5,1.2,1.2
				C185.5,124.8,184.9,125.4,184.2,125.4z M184.2,123.2c-0.5,0-1,0.4-1,0.9c0,0.5,0.4,0.9,1,0.9c0.5,0,1-0.4,1-0.9
				C185.2,123.7,184.8,123.2,184.2,123.2z"/>
			<path fill="#7786BE" d="M184.2,124.9c-0.4,0-0.8-0.3-0.8-0.8c0-0.4,0.4-0.8,0.8-0.8c0.4,0,0.8,0.3,0.8,0.8
				C185,124.6,184.7,124.9,184.2,124.9z M184.2,123.6c-0.3,0-0.6,0.3-0.6,0.6c0,0.3,0.3,0.6,0.6,0.6c0.3,0,0.6-0.3,0.6-0.6
				C184.9,123.8,184.6,123.6,184.2,123.6z"/>
			<path fill="#7786BE" d="M184.2,124.6c-0.2,0-0.4-0.2-0.4-0.4c0-0.2,0.2-0.4,0.4-0.4c0.2,0,0.4,0.2,0.4,0.4
				C184.7,124.4,184.5,124.6,184.2,124.6z M184.2,123.8c-0.2,0-0.3,0.1-0.3,0.3c0,0.2,0.1,0.3,0.3,0.3c0.2,0,0.3-0.1,0.3-0.3
				C184.6,124,184.4,123.8,184.2,123.8z"/>
		</g>
		<g>
			<path fill="#7786BE" d="M169.7,105.8c-0.7,0-1.2-0.5-1.2-1.2c0-0.7,0.5-1.2,1.2-1.2c0.7,0,1.2,0.5,1.2,1.2
				C170.9,105.2,170.3,105.8,169.7,105.8z M169.7,103.7c-0.5,0-1,0.4-1,0.9c0,0.5,0.4,0.9,1,0.9c0.5,0,1-0.4,1-0.9
				C170.6,104.1,170.2,103.7,169.7,103.7z"/>
			<path fill="#7786BE" d="M169.7,105.4c-0.4,0-0.8-0.3-0.8-0.8c0-0.4,0.4-0.8,0.8-0.8c0.4,0,0.8,0.3,0.8,0.8
				C170.4,105,170.1,105.4,169.7,105.4z M169.7,104c-0.3,0-0.6,0.3-0.6,0.6c0,0.3,0.3,0.6,0.6,0.6c0.3,0,0.6-0.3,0.6-0.6
				C170.3,104.3,170,104,169.7,104z"/>
			<path fill="#7786BE" d="M169.7,105c-0.2,0-0.4-0.2-0.4-0.4c0-0.2,0.2-0.4,0.4-0.4c0.2,0,0.4,0.2,0.4,0.4
				C170.1,104.8,169.9,105,169.7,105z M169.7,104.3c-0.2,0-0.3,0.1-0.3,0.3c0,0.2,0.1,0.3,0.3,0.3c0.2,0,0.3-0.1,0.3-0.3
				C170,104.4,169.8,104.3,169.7,104.3z"/>
		</g>
		<g>
			<path fill="#7786BE" d="M165.4,111.9c-0.7,0-1.2-0.5-1.2-1.2c0-0.7,0.5-1.2,1.2-1.2c0.7,0,1.2,0.5,1.2,1.2
				C166.6,111.4,166,111.9,165.4,111.9z M165.4,109.8c-0.5,0-1,0.4-1,0.9c0,0.5,0.4,0.9,1,0.9c0.5,0,1-0.4,1-0.9
				C166.3,110.2,165.9,109.8,165.4,109.8z"/>
			<path fill="#7786BE" d="M165.4,111.5c-0.4,0-0.8-0.3-0.8-0.8c0-0.4,0.4-0.8,0.8-0.8c0.4,0,0.8,0.3,0.8,0.8
				C166.2,111.1,165.8,111.5,165.4,111.5z M165.4,110.1c-0.3,0-0.6,0.3-0.6,0.6c0,0.3,0.3,0.6,0.6,0.6c0.3,0,0.6-0.3,0.6-0.6
				C166,110.4,165.7,110.1,165.4,110.1z"/>
			<path fill="#7786BE" d="M165.4,111.1c-0.2,0-0.4-0.2-0.4-0.4c0-0.2,0.2-0.4,0.4-0.4c0.2,0,0.4,0.2,0.4,0.4
				C165.8,110.9,165.6,111.1,165.4,111.1z M165.4,110.4c-0.2,0-0.3,0.1-0.3,0.3c0,0.2,0.1,0.3,0.3,0.3c0.2,0,0.3-0.1,0.3-0.3
				C165.7,110.5,165.6,110.4,165.4,110.4z"/>
		</g>
		<g>
			<path fill="#7786BE" d="M216.4,127.1c-0.7,0-1.2-0.5-1.2-1.2c0-0.7,0.5-1.2,1.2-1.2c0.7,0,1.2,0.5,1.2,1.2
				C217.6,126.6,217,127.1,216.4,127.1z M216.4,125c-0.5,0-1,0.4-1,0.9c0,0.5,0.4,0.9,1,0.9c0.5,0,1-0.4,1-0.9
				C217.3,125.4,216.9,125,216.4,125z"/>
			<path fill="#7786BE" d="M216.4,126.7c-0.4,0-0.8-0.3-0.8-0.8c0-0.4,0.4-0.8,0.8-0.8c0.4,0,0.8,0.3,0.8,0.8
				C217.2,126.3,216.8,126.7,216.4,126.7z M216.4,125.3c-0.3,0-0.6,0.3-0.6,0.6c0,0.3,0.3,0.6,0.6,0.6c0.3,0,0.6-0.3,0.6-0.6
				C217,125.6,216.7,125.3,216.4,125.3z"/>
			<path fill="#7786BE" d="M216.4,126.3c-0.2,0-0.4-0.2-0.4-0.4c0-0.2,0.2-0.4,0.4-0.4c0.2,0,0.4,0.2,0.4,0.4
				C216.8,126.1,216.6,126.3,216.4,126.3z M216.4,125.6c-0.2,0-0.3,0.1-0.3,0.3c0,0.2,0.1,0.3,0.3,0.3c0.2,0,0.3-0.1,0.3-0.3
				C216.7,125.7,216.5,125.6,216.4,125.6z"/>
		</g>
	</g>
	<g id="circle-group">
		<path fill="#293A64" d="M232.6,100.7c-0.4,0.4-0.9,0.6-1.4,0.6c-0.6,0-1.1-0.2-1.4-0.6c-0.4-0.4-0.6-0.9-0.6-1.4
			c0-0.6,0.2-1.1,0.6-1.4c0.4-0.4,0.9-0.6,1.4-0.6c0.6,0,1.1,0.2,1.4,0.6c0.4,0.4,0.6,0.9,0.6,1.4C233.2,99.8,233,100.4,232.6,100.7
			z"/>
		<path fill="#293A64" d="M184.9,63.5c-0.4,0.4-0.9,0.6-1.4,0.6c-0.6,0-1.1-0.2-1.4-0.6c-0.4-0.4-0.6-0.9-0.6-1.4
			c0-0.6,0.2-1.1,0.6-1.4c0.4-0.4,0.9-0.6,1.4-0.6c0.6,0,1.1,0.2,1.4,0.6c0.4,0.4,0.6,0.9,0.6,1.4C185.5,62.6,185.2,63.1,184.9,63.5
			z"/>
		<path fill="#293A64" d="M184.9,79.2c-0.4,0.4-0.9,0.6-1.4,0.6c-0.6,0-1.1-0.2-1.4-0.6c-0.4-0.4-0.6-0.9-0.6-1.4
			c0-0.6,0.2-1.1,0.6-1.4c0.4-0.4,0.9-0.6,1.4-0.6c0.6,0,1.1,0.2,1.4,0.6c0.4,0.4,0.6,0.9,0.6,1.4C185.5,78.3,185.2,78.8,184.9,79.2
			z"/>
		<path fill="#293A64" d="M255.9,66.6c-0.4,0.4-0.9,0.6-1.4,0.6c-0.6,0-1.1-0.2-1.4-0.6c-0.4-0.4-0.6-0.9-0.6-1.4
			c0-0.6,0.2-1.1,0.6-1.4c0.4-0.4,0.9-0.6,1.4-0.6c0.6,0,1.1,0.2,1.4,0.6c0.4,0.4,0.6,0.9,0.6,1.4C256.5,65.7,256.2,66.2,255.9,66.6
			z"/>
		<path fill="#293A64" d="M255.9,82.3c-0.4,0.4-0.9,0.6-1.4,0.6c-0.6,0-1.1-0.2-1.4-0.6c-0.4-0.4-0.6-0.9-0.6-1.4
			c0-0.6,0.2-1.1,0.6-1.4c0.4-0.4,0.9-0.6,1.4-0.6c0.6,0,1.1,0.2,1.4,0.6c0.4,0.4,0.6,0.9,0.6,1.4C256.5,81.4,256.2,81.9,255.9,82.3
			z"/>
		<path fill="#293A64" d="M229.8,127.6c0-1.2,0.5-2.4,1.4-3.3c0.9-0.9,2.1-1.4,3.3-1.4c1.2,0,2.4,0.5,3.3,1.4
			c0.9,0.9,1.4,2.1,1.4,3.3c0,1.2-0.5,2.4-1.4,3.3c-0.9,0.9-2.1,1.4-3.3,1.4c-1.2,0-2.4-0.5-3.3-1.4
			C230.3,130,229.8,128.8,229.8,127.6z"/>
		<path fill="#293A64" d="M212.6,121.6c0-0.5,0.2-1,0.6-1.4c0.4-0.4,0.9-0.6,1.4-0.6c0.5,0,1,0.2,1.4,0.6c0.4,0.4,0.6,0.9,0.6,1.4
			c0,0.5-0.2,1-0.6,1.4c-0.4,0.4-0.9,0.6-1.4,0.6c-0.5,0-1-0.2-1.4-0.6C212.8,122.6,212.6,122.1,212.6,121.6z"/>
		<path fill="#293A64" d="M253.8,197.6c-0.8,0.8-2,1.4-3.3,1.4c-1.3,0-2.5-0.5-3.3-1.4c-0.8-0.8-1.4-2-1.4-3.3
			c0-1.3,0.5-2.5,1.4-3.3c0.8-0.8,2-1.4,3.3-1.4c1.3,0,2.5,0.5,3.3,1.4c0.8,0.8,1.4,2,1.4,3.3C255.2,195.6,254.7,196.7,253.8,197.6z
			"/>
		<path fill="#293A64" d="M261.7,214.1c-0.4,0.4-0.9,0.6-1.4,0.6c-0.6,0-1-0.2-1.4-0.6c-0.4-0.4-0.6-0.9-0.6-1.4
			c0-0.5,0.2-1,0.6-1.4c0.4-0.4,0.9-0.6,1.4-0.6c0.5,0,1,0.2,1.4,0.6c0.4,0.4,0.6,0.9,0.6,1.4C262.3,213.2,262.1,213.7,261.7,214.1z
			"/>
		<path fill="#293A64" d="M224.3,54.1c-0.8,0.8-2,1.4-3.3,1.4c-1.3,0-2.5-0.5-3.3-1.4c-0.9-0.9-1.4-2-1.4-3.3c0-1.3,0.5-2.5,1.4-3.3
			c0.8-0.8,2-1.4,3.3-1.4c1.3,0,2.5,0.5,3.3,1.4c0.8,0.8,1.4,2,1.4,3.3C225.6,52.1,225.1,53.3,224.3,54.1z"/>
		<path fill="#293A64" d="M232.2,70.6c-0.4,0.4-0.9,0.6-1.4,0.6c-0.6,0-1-0.2-1.4-0.6c-0.4-0.4-0.6-0.9-0.6-1.4c0-0.5,0.2-1,0.6-1.4
			c0.4-0.4,0.9-0.6,1.4-0.6c0.5,0,1,0.2,1.4,0.6c0.4,0.4,0.6,0.9,0.6,1.4C232.7,69.7,232.5,70.2,232.2,70.6z"/>
		<path fill="#293A64" d="M276.9,72.2c-0.8,0.8-2,1.4-3.3,1.4c-1.3,0-2.5-0.5-3.3-1.4c-0.8-0.8-1.4-2-1.4-3.3c0-1.3,0.5-2.5,1.4-3.3
			c0.8-0.8,2-1.4,3.3-1.4c1.3,0,2.5,0.5,3.3,1.4c0.9,0.8,1.4,2,1.4,3.3C278.3,70.1,277.8,71.3,276.9,72.2z"/>
		<path fill="#293A64" d="M264.6,90.5c-0.4,0.4-0.9,0.6-1.4,0.6c-0.5,0-1-0.2-1.4-0.6c-0.4-0.4-0.6-0.9-0.6-1.4c0-0.5,0.2-1,0.6-1.4
			c0.4-0.4,0.9-0.6,1.4-0.6c0.6,0,1,0.2,1.4,0.6c0.4,0.4,0.6,0.9,0.6,1.4C265.2,89.7,265,90.2,264.6,90.5z"/>
		<path fill="#293A64" d="M262.3,118.2c-0.8,0.8-2,1.4-3.3,1.4c-1.3,0-2.5-0.5-3.3-1.4c-0.8-0.8-1.4-2-1.4-3.3
			c0-1.3,0.5-2.5,1.4-3.3c0.8-0.8,2-1.4,3.3-1.4c1.3,0,2.5,0.5,3.3,1.4c0.8,0.8,1.4,2,1.4,3.3C263.7,116.2,263.2,117.3,262.3,118.2z
			"/>
		<path fill="#293A64" d="M238.2,148.4c-0.4,0.4-0.9,0.6-1.4,0.6c-0.5,0-1-0.2-1.4-0.6c-0.4-0.4-0.6-0.9-0.6-1.4
			c0-0.5,0.2-1,0.6-1.4c0.4-0.4,0.9-0.6,1.4-0.6c0.6,0,1,0.2,1.4,0.6c0.4,0.4,0.6,0.9,0.6,1.4C238.8,147.5,238.6,148,238.2,148.4z"
			/>
		<path fill="#293A64" d="M247.7,119.8c-0.4,0.4-0.9,0.6-1.4,0.6c-0.6,0-1-0.2-1.4-0.6c-0.4-0.4-0.6-0.9-0.6-1.4
			c0-0.6,0.2-1,0.6-1.4c0.4-0.4,0.9-0.6,1.4-0.6c0.5,0,1,0.2,1.4,0.6c0.4,0.4,0.6,0.9,0.6,1.4C248.3,119,248.1,119.5,247.7,119.8z"
			/>
		<path fill="#293A64" d="M243.3,88.5c-0.4,0.4-0.9,0.6-1.4,0.6c-0.6,0-1-0.2-1.4-0.6c-0.4-0.4-0.6-0.9-0.6-1.4c0-0.6,0.2-1,0.6-1.4
			c0.4-0.4,0.9-0.6,1.4-0.6c0.5,0,1,0.2,1.4,0.6c0.4,0.4,0.6,0.9,0.6,1.4C243.8,87.6,243.6,88.1,243.3,88.5z"/>
		<path fill="#293A64" d="M171.1,128c0.5,0,1-0.2,1.4-0.6c0.4-0.4,0.6-0.9,0.6-1.4c0-0.5-0.2-1-0.6-1.4c-0.4-0.4-0.9-0.6-1.4-0.6
			c-0.5,0-1,0.2-1.4,0.6c-0.4,0.4-0.6,0.9-0.6,1.4c0,0.5,0.2,1,0.6,1.4C170.1,127.8,170.6,128,171.1,128z"/>
		<path fill="#293A64" d="M152.1,102.7c0.5,0,1-0.2,1.4-0.6c0.4-0.4,0.6-0.9,0.6-1.4c0-0.5-0.2-1-0.6-1.4c-0.4-0.4-0.9-0.6-1.4-0.6
			c-0.5,0-1,0.2-1.4,0.6c-0.4,0.4-0.6,0.9-0.6,1.4c0,0.5,0.2,1,0.6,1.4C151.1,102.5,151.6,102.7,152.1,102.7z"/>
		<path fill="#293A64" d="M166.5,129.7c0.5,0,1-0.2,1.4-0.6c0.4-0.4,0.6-0.9,0.6-1.4c0-0.5-0.2-1-0.6-1.4c-0.4-0.4-0.9-0.6-1.4-0.6
			c-0.5,0-1,0.2-1.4,0.6c-0.4,0.4-0.6,0.9-0.6,1.4c0,0.5,0.2,1,0.6,1.4C165.5,129.6,166,129.8,166.5,129.7z"/>
		<path fill="#293A64" d="M147.5,104.4c0.5,0,1-0.2,1.4-0.6c0.4-0.4,0.6-0.9,0.6-1.4c0-0.5-0.2-1-0.6-1.4c-0.4-0.4-0.9-0.6-1.4-0.6
			c-0.5,0-1,0.2-1.4,0.6c-0.4,0.4-0.6,0.9-0.6,1.4c0,0.5,0.2,1,0.6,1.4C146.5,104.2,147,104.4,147.5,104.4z"/>
		<path fill="#293A64" d="M189.2,145.8c-0.4,0.4-0.9,0.6-1.4,0.6c-0.6,0-1-0.2-1.4-0.6c-0.4-0.4-0.6-0.9-0.6-1.4
			c0-0.5,0.2-1,0.6-1.4c0.4-0.4,0.9-0.6,1.4-0.6c0.5,0,1,0.2,1.4,0.6c0.4,0.4,0.6,0.9,0.6,1.4C189.8,144.9,189.6,145.4,189.2,145.8z
			"/>
		<path fill="#293A64" d="M184.7,114.5c-0.4,0.4-0.9,0.6-1.4,0.6c-0.6,0-1-0.2-1.4-0.6c-0.4-0.4-0.6-0.9-0.6-1.4
			c0-0.5,0.2-1,0.6-1.4c0.4-0.4,0.9-0.6,1.4-0.6c0.5,0,1,0.2,1.4,0.6c0.4,0.4,0.6,0.9,0.6,1.4C185.3,113.6,185.1,114.1,184.7,114.5z
			"/>
		<path fill="#293A64" d="M160.2,142.6c0.4-0.4,0.9-0.6,1.4-0.6c0.6,0,1,0.2,1.4,0.6c0.4,0.4,0.6,0.9,0.6,1.4c0,0.6-0.2,1-0.6,1.4
			c-0.4,0.4-0.9,0.6-1.4,0.6c-0.5,0-1-0.2-1.4-0.6c-0.4-0.4-0.6-0.9-0.6-1.4C159.6,143.4,159.9,142.9,160.2,142.6z"/>
		<path fill="#293A64" d="M135.6,111.3c0.4-0.4,0.9-0.6,1.4-0.6c0.6,0,1,0.2,1.4,0.6c0.4,0.4,0.6,0.9,0.6,1.4c0,0.5-0.2,1-0.6,1.4
			c-0.4,0.4-0.9,0.6-1.4,0.6c-0.5,0-1-0.2-1.4-0.6c-0.4-0.4-0.6-0.9-0.6-1.4C135,112.2,135.3,111.7,135.6,111.3z"/>
		<path fill="#293A64" d="M293.4,132.8c-0.6,0.6-1.3,0.9-2.2,0.9c-0.9,0-1.6-0.3-2.2-0.9c-0.6-0.6-0.9-1.3-0.9-2.2
			c0-0.9,0.3-1.6,0.9-2.2c0.6-0.6,1.3-0.9,2.2-0.9c0.9,0,1.6,0.3,2.2,0.9c0.6,0.6,0.9,1.3,0.9,2.2
			C294.3,131.4,293.9,132.2,293.4,132.8z"/>
		<path fill="#293A64" d="M303.6,165.2c-0.3,0.3-0.8,0.5-1.3,0.5c-0.5,0-0.9-0.2-1.3-0.5c-0.3-0.3-0.5-0.8-0.5-1.3
			c0-0.5,0.2-0.9,0.5-1.3c0.3-0.3,0.8-0.5,1.3-0.5c0.5,0,0.9,0.2,1.3,0.5c0.3,0.3,0.5,0.8,0.5,1.3
			C304.2,164.4,304,164.9,303.6,165.2z"/>
		<path fill="#293A64" d="M157.9,155.7c0-1.2,0.5-2.4,1.4-3.3c0.9-0.9,2.1-1.4,3.3-1.4c1.2,0,2.4,0.5,3.3,1.4
			c0.9,0.9,1.4,2.1,1.4,3.3c0,1.2-0.5,2.4-1.4,3.3c-0.9,0.9-2.1,1.4-3.3,1.4c-1.2,0-2.4-0.5-3.3-1.4
			C158.4,158.1,157.9,156.9,157.9,155.7z"/>
		<path fill="#293A64" d="M140.7,149.7c0-0.5,0.2-1,0.6-1.4c0.4-0.4,0.9-0.6,1.4-0.6c0.5,0,1,0.2,1.4,0.6c0.4,0.4,0.6,0.9,0.6,1.4
			c0,0.5-0.2,1-0.6,1.4c-0.4,0.4-0.9,0.6-1.4,0.6c-0.5,0-1-0.2-1.4-0.6C140.9,150.7,140.7,150.2,140.7,149.7z"/>
		<path fill="#293A64" d="M140,129c-0.8,0.8-2,1.4-3.3,1.4c-1.3,0-2.5-0.5-3.3-1.4c-0.8-0.9-1.4-2-1.4-3.3c0-1.3,0.5-2.5,1.4-3.3
			c0.8-0.8,2-1.4,3.3-1.4c1.3,0,2.5,0.5,3.3,1.4c0.8,0.8,1.4,2,1.4,3.3C141.4,127,140.8,128.1,140,129z"/>
		<path fill="#293A64" d="M147.9,145.5c-0.4,0.4-0.9,0.6-1.4,0.6c-0.6,0-1-0.2-1.4-0.6c-0.4-0.4-0.6-0.9-0.6-1.4
			c0-0.5,0.2-1,0.6-1.4c0.4-0.4,0.9-0.6,1.4-0.6c0.5,0,1,0.2,1.4,0.6c0.4,0.4,0.6,0.9,0.6,1.4C148.5,144.6,148.3,145.1,147.9,145.5z
			"/>
		<path fill="#293A64" d="M160.3,182.9c-0.6,0.6-1.5,1-2.4,1c-1,0-1.8-0.4-2.5-1c-0.6-0.6-1-1.5-1-2.5c0-1,0.4-1.8,1-2.5
			c0.6-0.6,1.5-1,2.5-1c1,0,1.8,0.4,2.4,1c0.6,0.6,1,1.5,1,2.5C161.3,181.4,160.9,182.2,160.3,182.9z"/>
		<path fill="#293A64" d="M153.3,166.5c-0.5,0.5-1.2,0.8-2,0.8c-0.8,0-1.5-0.3-2-0.8c-0.5-0.5-0.8-1.2-0.8-2c0-0.8,0.3-1.5,0.8-2
			c0.5-0.5,1.2-0.8,2-0.8c0.8,0,1.5,0.3,2,0.8c0.5,0.5,0.8,1.2,0.8,2C154.1,165.3,153.8,166,153.3,166.5z"/>
		<path fill="#293A64" d="M146.6,89.7c-0.6,0.6-1.4,1-2.3,1c-0.9,0-1.7-0.4-2.3-1c-0.6-0.6-1-1.4-1-2.3c0-0.9,0.4-1.7,1-2.3
			c0.6-0.6,1.4-1,2.3-1c0.9,0,1.7,0.4,2.3,1c0.6,0.6,1,1.4,1,2.3C147.6,88.3,147.2,89.2,146.6,89.7z"/>
		<path fill="#293A64" d="M164.3,89.1c-0.4,0.4-0.9,0.6-1.4,0.6c-0.6,0-1.1-0.2-1.4-0.6c-0.4-0.4-0.6-0.9-0.6-1.4s0.2-1.1,0.6-1.4
			c0.4-0.4,0.9-0.6,1.4-0.6c0.6,0,1.1,0.2,1.4,0.6c0.4,0.4,0.6,0.9,0.6,1.4S164.7,88.7,164.3,89.1z"/>
		<path fill="#293A64" d="M183.4,59.5c-0.8,0.8-2,1.4-3.3,1.4c-1.3,0-2.5-0.5-3.3-1.4c-0.8-0.8-1.4-2-1.4-3.3c0-1.3,0.5-2.5,1.4-3.3
			c0.8-0.8,2-1.4,3.3-1.4c1.3,0,2.5,0.5,3.3,1.4c0.9,0.8,1.4,2,1.4,3.3C184.7,57.4,184.2,58.6,183.4,59.5z"/>
		<path fill="#293A64" d="M211.1,54c-0.8,0.8-2,1.4-3.3,1.4c-1.3,0-2.5-0.5-3.3-1.4c-0.8-0.8-1.4-2-1.4-3.3c0-1.3,0.5-2.5,1.4-3.3
			c0.8-0.8,2-1.4,3.3-1.4c1.3,0,2.5,0.5,3.3,1.4c0.8,0.8,1.4,2,1.4,3.3C212.5,52,211.9,53.2,211.1,54z"/>
		<path fill="#293A64" d="M199.7,53.9c-0.5,0.5-1.3,0.9-2.1,0.9c-0.8,0-1.6-0.3-2.1-0.9c-0.5-0.5-0.9-1.3-0.9-2.1
			c0-0.8,0.3-1.6,0.9-2.1c0.5-0.5,1.3-0.9,2.1-0.9c0.8,0,1.6,0.3,2.1,0.9c0.5,0.5,0.9,1.3,0.9,2.1C200.5,52.6,200.2,53.4,199.7,53.9
			z"/>
		<path fill="#293A64" d="M221.9,144.8c-0.8,0.8-2,1.4-3.3,1.4c-1.3,0-2.5-0.5-3.3-1.4c-0.9-0.8-1.4-2-1.4-3.3
			c0-1.3,0.5-2.5,1.4-3.3c0.8-0.8,2-1.4,3.3-1.4c1.3,0,2.5,0.5,3.3,1.4c0.8,0.8,1.4,2,1.4,3.3C223.2,142.8,222.7,143.9,221.9,144.8z
			"/>
		<path fill="#293A64" d="M223.5,89.2c-0.9,0.8-2,1.4-3.3,1.4c-1.3,0-2.5-0.5-3.3-1.4c-0.8-0.8-1.4-2-1.4-3.3s0.5-2.5,1.4-3.3
			c0.8-0.8,2-1.4,3.3-1.4c1.3,0,2.5,0.5,3.3,1.4c0.8,0.8,1.4,2,1.4,3.3S224.3,88.3,223.5,89.2z"/>
		<path fill="#293A64" d="M264.1,63.5c-0.5,0.5-1.3,0.9-2.1,0.9c-0.8,0-1.6-0.3-2.1-0.9c-0.5-0.5-0.9-1.3-0.9-2.1
			c0-0.8,0.3-1.6,0.9-2.1c0.5-0.5,1.3-0.9,2.1-0.9c0.8,0,1.6,0.3,2.1,0.9c0.5,0.5,0.9,1.3,0.9,2.1C265,62.2,264.6,63,264.1,63.5z"/>
		<path fill="#293A64" d="M285.7,82.3c-0.8,0.8-2,1.4-3.3,1.4c-1.3,0-2.5-0.5-3.3-1.4c-0.8-0.8-1.4-2-1.4-3.3c0-1.3,0.5-2.5,1.4-3.3
			c0.8-0.8,2-1.4,3.3-1.4c1.3,0,2.5,0.5,3.3,1.4c0.8,0.9,1.4,2,1.4,3.3C287.1,80.2,286.6,81.4,285.7,82.3z"/>
		<path fill="#293A64" d="M270.7,105.2c-0.8,0.8-2,1.4-3.3,1.4c-1.3,0-2.5-0.5-3.3-1.4c-0.9-0.8-1.4-2-1.4-3.3s0.5-2.5,1.4-3.3
			c0.8-0.8,2-1.4,3.3-1.4c1.3,0,2.5,0.5,3.3,1.4c0.8,0.8,1.4,2,1.4,3.3S271.5,104.3,270.7,105.2z"/>
		<path fill="#293A64" d="M284.8,102.9c-0.8,0.8-1.9,1.3-3.1,1.3c-1.2,0-2.3-0.5-3.1-1.3c-0.8-0.8-1.3-1.9-1.3-3.1
			c0-1.2,0.5-2.3,1.3-3.1c0.8-0.8,1.9-1.3,3.1-1.3c1.2,0,2.3,0.5,3.1,1.3c0.8,0.8,1.3,1.9,1.3,3.1C286,101,285.5,102.1,284.8,102.9z
			"/>
		<path fill="#293A64" d="M289.1,115.4c-0.5,0.5-1.3,0.8-2.1,0.8c-0.8,0-1.5-0.3-2.1-0.8c-0.5-0.5-0.9-1.3-0.9-2.1
			c0-0.8,0.3-1.5,0.9-2.1c0.5-0.5,1.3-0.9,2.1-0.9c0.8,0,1.5,0.3,2.1,0.9c0.5,0.5,0.9,1.3,0.9,2.1
			C289.9,114.1,289.6,114.8,289.1,115.4z"/>
		<path fill="#293A64" d="M275,140.7c-0.8,0.8-2,1.4-3.3,1.4c-1.3,0-2.5-0.5-3.3-1.4c-0.9-0.8-1.4-2-1.4-3.3c0-1.3,0.5-2.5,1.4-3.3
			c0.8-0.8,2-1.4,3.3-1.4c1.3,0,2.5,0.5,3.3,1.4c0.9,0.8,1.4,2,1.4,3.3C276.4,138.7,275.9,139.8,275,140.7z"/>
		<path fill="#293A64" d="M255.9,110.3c-0.6,0.6-1.5,1-2.4,1c-1,0-1.8-0.4-2.4-1c-0.6-0.6-1-1.5-1-2.4c0-1,0.4-1.8,1-2.4
			c0.6-0.6,1.5-1,2.4-1c1,0,1.8,0.4,2.4,1c0.6,0.6,1,1.5,1,2.4C256.9,108.8,256.5,109.7,255.9,110.3z"/>
		<path fill="#293A64" d="M268.2,150.7c-0.6,0.6-1.5,1-2.4,1c-1,0-1.8-0.4-2.4-1c-0.6-0.6-1-1.5-1-2.4c0-1,0.4-1.8,1-2.4
			c0.6-0.6,1.5-1,2.4-1c1,0,1.8,0.4,2.4,1c0.6,0.6,1,1.5,1,2.4C269.2,149.3,268.9,150.1,268.2,150.7z"/>
		<path fill="#293A64" d="M180.6,193.4c-0.8,0.8-2,1.4-3.3,1.4c-1.3,0-2.5-0.5-3.3-1.4c-0.8-0.8-1.4-2-1.4-3.3
			c0-1.3,0.5-2.5,1.4-3.3c0.8-0.8,2-1.4,3.3-1.4c1.3,0,2.5,0.5,3.3,1.4c0.8,0.8,1.4,2,1.4,3.3C181.9,191.4,181.4,192.6,180.6,193.4z
			"/>
		<path fill="#293A64" d="M188.5,219c-0.4,0.4-0.9,0.6-1.4,0.6c-0.6,0-1-0.2-1.4-0.6c-0.4-0.4-0.6-0.9-0.6-1.4c0-0.5,0.2-1,0.6-1.4
			c0.4-0.4,0.9-0.6,1.4-0.6c0.5,0,1,0.2,1.4,0.6c0.4,0.4,0.6,0.9,0.6,1.4C189,218.2,188.8,218.7,188.5,219z"/>
		<path fill="#293A64" d="M222.1,214.2c-0.4,0.4-0.9,0.6-1.4,0.6c-0.5,0-1-0.2-1.4-0.6c-0.4-0.4-0.6-0.9-0.6-1.4s0.2-1,0.6-1.4
			c0.4-0.4,0.9-0.6,1.4-0.6c0.5,0,1,0.2,1.4,0.6c0.4,0.4,0.6,0.9,0.6,1.4S222.4,213.9,222.1,214.2z"/>
		<path fill="#293A64" d="M218.6,212.7c-0.4,0.4-0.9,0.6-1.4,0.6c-0.5,0-1-0.2-1.4-0.6c-0.4-0.4-0.6-0.9-0.6-1.4
			c0-0.5,0.2-1,0.6-1.4c0.4-0.4,0.9-0.6,1.4-0.6c0.5,0,1,0.2,1.4,0.6c0.4,0.4,0.6,0.9,0.6,1.4C219.2,211.9,218.9,212.4,218.6,212.7z
			"/>
		<path fill="#293A64" d="M215.3,202c-0.4,0.4-0.9,0.6-1.4,0.6c-0.6,0-1-0.2-1.4-0.6c-0.4-0.4-0.6-0.9-0.6-1.4c0-0.5,0.2-1,0.6-1.4
			c0.4-0.4,0.9-0.6,1.4-0.6c0.5,0,1,0.2,1.4,0.6c0.4,0.4,0.6,0.9,0.6,1.4C215.9,201.1,215.6,201.6,215.3,202z"/>
		<path fill="#293A64" d="M245.3,207.6c-0.8,0.8-2,1.3-3.2,1.3c-1.3,0-2.4-0.5-3.2-1.3c-0.8-0.8-1.3-2-1.3-3.2
			c0-1.3,0.5-2.4,1.3-3.2c0.8-0.8,2-1.3,3.2-1.3c1.3,0,2.4,0.5,3.2,1.3c0.8,0.8,1.3,2,1.3,3.2C246.6,205.7,246.1,206.8,245.3,207.6z
			"/>
		<path fill="#293A64" d="M195.3,87.5c-0.4,0.4-0.9,0.6-1.4,0.6c-0.6,0-1-0.2-1.4-0.6c-0.4-0.4-0.6-0.9-0.6-1.4c0-0.5,0.2-1,0.6-1.4
			c0.4-0.4,0.9-0.6,1.4-0.6c0.5,0,1,0.2,1.4,0.6c0.4,0.4,0.6,0.9,0.6,1.4C195.9,86.6,195.7,87.1,195.3,87.5z"/>
		<path fill="#293A64" d="M205.8,82.4c-0.4,0.4-0.9,0.6-1.4,0.6c-0.5,0-1-0.2-1.4-0.6c-0.4-0.4-0.6-0.9-0.6-1.4c0-0.5,0.2-1,0.6-1.4
			c0.4-0.4,0.9-0.6,1.4-0.6c0.5,0,1,0.2,1.4,0.6c0.4,0.4,0.6,0.9,0.6,1.4C206.3,81.6,206.1,82.1,205.8,82.4z"/>
		<path fill="#293A64" d="M237.7,164.2c0.8,0.8,1.4,2,1.4,3.3c0,1.3-0.5,2.5-1.4,3.3c-0.8,0.8-2,1.4-3.3,1.4c-1.3,0-2.5-0.5-3.3-1.4
			c-0.8-0.8-1.4-2-1.4-3.3c0-1.3,0.5-2.5,1.4-3.3c0.8-0.9,2-1.4,3.3-1.4C235.7,162.8,236.9,163.3,237.7,164.2z"/>
		<path fill="#293A64" d="M265.2,185.9c0.4,0.4,0.6,0.9,0.6,1.4c0,0.6-0.2,1-0.6,1.4c-0.4,0.4-0.9,0.6-1.4,0.6c-0.6,0-1-0.2-1.4-0.6
			c-0.4-0.4-0.6-0.9-0.6-1.4c0-0.5,0.2-1,0.6-1.4c0.4-0.4,0.9-0.6,1.4-0.6C264.3,185.3,264.8,185.5,265.2,185.9z"/>
		<path fill="#293A64" d="M217.5,99.7c-0.4,0.4-0.9,0.6-1.4,0.6s-1-0.2-1.4-0.6c-0.4-0.4-0.6-0.9-0.6-1.4c0-0.6,0.2-1,0.6-1.4
			c0.4-0.4,0.9-0.6,1.4-0.6s1,0.2,1.4,0.6c0.4,0.4,0.6,0.9,0.6,1.4C218.1,98.8,217.9,99.3,217.5,99.7z"/>
		<path fill="#293A64" d="M217.5,106.2c-0.4,0.4-0.9,0.6-1.4,0.6c-0.5,0-1-0.2-1.4-0.6c-0.4-0.4-0.6-0.9-0.6-1.4
			c0-0.6,0.2-1,0.6-1.4c0.4-0.4,0.9-0.6,1.4-0.6c0.6,0,1.1,0.2,1.4,0.6c0.4,0.4,0.6,0.9,0.6,1.4
			C218.1,105.4,217.9,105.9,217.5,106.2z"/>
		<path fill="#293A64" d="M231.4,109.9c-0.4,0.4-0.9,0.6-1.4,0.6c-0.6,0-1-0.2-1.4-0.6c-0.4-0.4-0.6-0.9-0.6-1.4
			c0-0.5,0.2-1,0.6-1.4c0.4-0.4,0.9-0.6,1.4-0.6c0.5,0,1,0.2,1.4,0.6c0.4,0.4,0.6,0.9,0.6,1.4C232,109.1,231.8,109.6,231.4,109.9z"
			/>
		<path fill="#293A64" d="M231.2,116.7c-0.4,0.4-0.9,0.6-1.4,0.6c-0.5,0-1-0.2-1.4-0.6c-0.4-0.4-0.6-0.9-0.6-1.4
			c0-0.6,0.2-1,0.6-1.4c0.4-0.4,0.9-0.6,1.4-0.6c0.6,0,1,0.2,1.4,0.6c0.4,0.4,0.6,0.9,0.6,1.4C231.8,115.9,231.6,116.4,231.2,116.7z
			"/>
		<path fill="#293A64" d="M213.1,68.3c-0.4,0.4-0.9,0.6-1.4,0.6c-0.6,0-1-0.2-1.4-0.6c-0.4-0.4-0.6-0.9-0.6-1.4c0-0.6,0.2-1,0.6-1.4
			c0.4-0.4,0.9-0.6,1.4-0.6c0.5,0,1,0.2,1.4,0.6c0.4,0.4,0.6,0.9,0.6,1.4C213.6,67.5,213.4,68,213.1,68.3z"/>
		<path fill="#293A64" d="M235,56.4c0.8,0.8,2,1.4,3.3,1.4c1.3,0,2.5-0.5,3.3-1.4c0.9-0.8,1.4-2,1.4-3.3c0-1.3-0.5-2.5-1.4-3.3
			c-0.8-0.8-2-1.4-3.3-1.4c-1.3,0-2.5,0.5-3.3,1.4c-0.8,0.8-1.4,2-1.4,3.3C233.6,54.4,234.1,55.5,235,56.4z"/>
		<path fill="#293A64" d="M233.2,78.5c0.4,0.4,0.9,0.6,1.4,0.6s1-0.2,1.4-0.6c0.4-0.4,0.6-0.9,0.6-1.4c0-0.6-0.2-1-0.6-1.4
			c-0.4-0.4-0.9-0.6-1.4-0.6s-1,0.2-1.4,0.6c-0.4,0.4-0.6,0.9-0.6,1.4C232.6,77.6,232.8,78.1,233.2,78.5z"/>
		<path fill="#293A64" d="M202.3,94.6c-0.4,0.4-0.9,0.6-1.4,0.6c-0.5,0-1-0.2-1.4-0.6c-0.4-0.4-0.6-0.9-0.6-1.4c0-0.5,0.2-1,0.6-1.4
			c0.4-0.4,0.9-0.6,1.4-0.6c0.5,0,1,0.2,1.4,0.6c0.4,0.4,0.6,0.9,0.6,1.4C202.8,93.8,202.6,94.3,202.3,94.6z"/>
		<path fill="#293A64" d="M172.1,62.4c-0.5,0.5-1.2,0.8-2,0.8c-0.8,0-1.5-0.3-2-0.8c-0.5-0.5-0.8-1.2-0.8-2c0-0.8,0.3-1.5,0.8-2
			c0.5-0.5,1.2-0.8,2-0.8c0.8,0,1.5,0.3,2,0.8c0.5,0.5,0.8,1.2,0.8,2C173,61.2,172.7,61.9,172.1,62.4z"/>
		<path fill="#293A64" d="M185,106.1c-0.4,0.4-0.9,0.6-1.4,0.6c-0.6,0-1-0.2-1.4-0.6c-0.4-0.4-0.6-0.9-0.6-1.4c0-0.5,0.2-1,0.6-1.4
			c0.4-0.4,0.9-0.6,1.4-0.6c0.5,0,1,0.2,1.4,0.6c0.4,0.4,0.6,0.9,0.6,1.4C185.6,105.2,185.3,105.7,185,106.1z"/>
		<path fill="#293A64" d="M143.5,93.6c-0.4,0.4-0.9,0.6-1.4,0.6c-0.5,0-1-0.2-1.4-0.6c-0.4-0.4-0.6-0.9-0.6-1.4c0-0.5,0.2-1,0.6-1.4
			c0.4-0.4,0.9-0.6,1.4-0.6c0.6,0,1,0.2,1.4,0.6c0.4,0.4,0.6,0.9,0.6,1.4C144.1,92.7,143.8,93.2,143.5,93.6z"/>
		<path fill="#293A64" d="M171.3,142.6c-0.4,0.4-0.9,0.6-1.4,0.6c-0.6,0-1-0.2-1.4-0.6c-0.4-0.4-0.6-0.9-0.6-1.4
			c0-0.6,0.2-1,0.6-1.4c0.4-0.4,0.9-0.6,1.4-0.6c0.5,0,1,0.2,1.4,0.6c0.4,0.4,0.6,0.9,0.6,1.4C171.9,141.7,171.6,142.2,171.3,142.6z
			"/>
		<path fill="#293A64" d="M271.9,210c0.4-0.4,0.9-0.6,1.4-0.6c0.5,0,1,0.2,1.4,0.6c0.4,0.4,0.6,0.9,0.6,1.4c0,0.6-0.2,1-0.6,1.4
			c-0.4,0.4-0.9,0.6-1.4,0.6c-0.6,0-1-0.2-1.4-0.6c-0.4-0.4-0.6-0.9-0.6-1.4C271.3,210.9,271.5,210.4,271.9,210z"/>
		<path fill="#293A64" d="M245.1,177.9c-0.4,0.4-0.9,0.6-1.4,0.6s-1-0.2-1.4-0.6c-0.4-0.4-0.6-0.9-0.6-1.4c0-0.6,0.2-1,0.6-1.4
			c0.4-0.4,0.9-0.6,1.4-0.6s1,0.2,1.4,0.6c0.4,0.4,0.6,0.9,0.6,1.4C245.7,177,245.4,177.5,245.1,177.9z"/>
		<path fill="#293A64" d="M192,129.2c-0.4,0.4-0.9,0.6-1.4,0.6c-0.6,0-1-0.2-1.4-0.6c-0.4-0.4-0.6-0.9-0.6-1.4c0-0.5,0.2-1,0.6-1.4
			c0.4-0.4,0.9-0.6,1.4-0.6c0.5,0,1,0.2,1.4,0.6c0.4,0.4,0.6,0.9,0.6,1.4C192.6,128.4,192.4,128.9,192,129.2z"/>
		<path fill="#293A64" d="M226.1,219.2c-0.4,0.4-0.9,0.6-1.4,0.6c-0.6,0-1-0.2-1.4-0.6c-0.4-0.4-0.6-0.9-0.6-1.4
			c0-0.5,0.2-1,0.6-1.4c0.4-0.4,0.9-0.6,1.4-0.6c0.5,0,1,0.2,1.4,0.6c0.4,0.4,0.6,0.9,0.6,1.4C226.7,218.4,226.5,218.9,226.1,219.2z
			"/>
		<path fill="#293A64" d="M226.1,219.3c-0.4,0.4-0.9,0.6-1.4,0.6c-0.5,0-1-0.2-1.4-0.6c-0.4-0.4-0.6-0.9-0.6-1.4
			c0-0.5,0.2-1,0.6-1.4c0.4-0.4,0.9-0.6,1.4-0.6c0.5,0,1,0.2,1.4,0.6c0.4,0.4,0.6,0.9,0.6,1.4C226.7,218.4,226.5,218.9,226.1,219.3z
			"/>
		<path fill="#293A64" d="M211,242.3c-0.4,0.4-0.9,0.6-1.4,0.6c-0.6,0-1-0.2-1.4-0.6c-0.4-0.4-0.6-0.9-0.6-1.4c0-0.5,0.2-1,0.6-1.4
			c0.4-0.4,0.9-0.6,1.4-0.6c0.5,0,1,0.2,1.4,0.6c0.4,0.4,0.6,0.9,0.6,1.4C211.6,241.5,211.4,242,211,242.3z"/>
		<path fill="#293A64" d="M252.1,58.4c-0.5,0.5-1.3,0.9-2.1,0.9c-0.8,0-1.6-0.3-2.1-0.9c-0.5-0.5-0.9-1.3-0.9-2.1
			c0-0.8,0.3-1.6,0.9-2.1c0.5-0.5,1.3-0.9,2.1-0.9c0.8,0,1.6,0.3,2.1,0.9c0.5,0.5,0.9,1.3,0.9,2.1C253,57.1,252.7,57.9,252.1,58.4z"
			/>
		<path fill="#293A64" d="M174.4,208.1c-0.9,0.7-2.2,1-3.4,0.9c-1.3-0.2-2.3-0.8-3-1.7c-0.7-0.9-1.1-2-0.9-3.2
			c0.2-1.2,0.8-2.2,1.8-2.9c0.9-0.7,2.1-1,3.4-0.9c1.3,0.2,2.3,0.8,3.1,1.7c0.7,0.9,1.1,2,0.9,3.2
			C176,206.4,175.4,207.5,174.4,208.1z"/>
		<path fill="#293A64" d="M150.1,258.1c-0.6,0.4-1.3,0.6-2.1,0.5c-0.8-0.1-1.4-0.5-1.8-1c-0.4-0.5-0.7-1.2-0.5-2
			c0.1-0.7,0.5-1.3,1.1-1.7c0.6-0.4,1.3-0.6,2.1-0.5c0.8,0.1,1.4,0.5,1.8,1c0.4,0.5,0.7,1.2,0.5,2
			C151.1,257.1,150.7,257.7,150.1,258.1z"/>
		<path fill="#293A64" d="M158.6,75c-0.8,0.8-2,1.4-3.3,1.4c-1.3,0-2.5-0.5-3.3-1.4c-0.8-0.8-1.4-2-1.4-3.3c0-1.3,0.5-2.5,1.4-3.3
			c0.8-0.8,2-1.4,3.3-1.4c1.3,0,2.5,0.5,3.3,1.4c0.9,0.8,1.4,2,1.4,3.3C160,73,159.4,74.2,158.6,75z"/>
		<path fill="#293A64" d="M235.5,179.1c-0.8,0.8-2,1.4-3.3,1.4c-1.3,0-2.5-0.5-3.3-1.4c-0.9-0.8-1.4-2-1.4-3.3
			c0-1.3,0.5-2.5,1.4-3.3c0.8-0.8,2-1.4,3.3-1.4c1.3,0,2.5,0.5,3.3,1.4c0.9,0.8,1.4,2,1.4,3.3C236.9,177.1,236.4,178.3,235.5,179.1z
			"/>
		<path fill="#293A64" d="M232.6,85c-0.4,0.4-0.9,0.6-1.4,0.6c-0.6,0-1.1-0.2-1.4-0.6c-0.4-0.4-0.6-0.9-0.6-1.4
			c0-0.6,0.2-1.1,0.6-1.4c0.4-0.4,0.9-0.6,1.4-0.6c0.6,0,1.1,0.2,1.4,0.6c0.4,0.4,0.6,0.9,0.6,1.4C233.2,84.2,233,84.7,232.6,85z"/>
		<path id="my-contur" fill="#293A64" d="M235,56.4c0.8,0.8,2,1.4,3.3,1.4c1.3,0,2.5-0.5,3.3-1.4c0.9-0.8,1.4-2,1.4-3.3
			c0-1.3-0.5-2.5-1.4-3.3c-0.8-0.8-2-1.4-3.3-1.4c-1.3,0-2.5,0.5-3.3,1.4c-0.8,0.8-1.4,2-1.4,3.3C233.6,54.4,234.1,55.5,235,56.4z"
			/>
	</g>
</g>



<g class='cyborg-beard'>
			<path fill="#7786BE" d="M305.1,168.6L305.1,168.6c-0.7,0-1.5,0-2.3-0.1c-6.2-0.6-9.4,2.4-10.9,3.9c-3,2.8-6.4,0-5.7-5
				c0.4-2.5,0.9-5,0.6-8.1c-0.6-6-5.6-10.2-10.1-10.3c-8.8-0.3-20.5,23.5,1.5,55.9c1.4,2.1,3.8,5.5,2.3,8.5
				c-2.9,5.7-25.7,0.9-35.9-1.7c-5.9-1.5-17.8-6.4-18.6-4c-1,2.8,12.4,11.4,14.1,14.4c2.6,4.7-0.8,9.3-1.9,13.7
				c-4.4,18,3.3,24.8,3.3,24.7c0.5-3,1.4-6.4,2.5-9.8c9.2-28.7,33.2-25.9,41.6-27.4c5.7-1,7.6-6.1,7.9-7.7c0.5-2.7,0.5-6.7-2-11
				c-2.5-4.4,0.5-4.2,2-7.3c0.7-1.4-0.7-3.6-0.9-3.8c-0.7-0.7,0.7-0.5,2.3-2.4c1.6-2,0-3.9-1.2-5.8c-1.3-2.1-3.1-5.5-0.9-9.5
				C294.2,173,304.4,172.5,305.1,168.6z"/>
			<path fill="#7786BE" d="M305.1,168.6L305.1,168.6c-0.7,0-1.5,0-2.3,0c-6.2-0.6-9.3,2.4-10.9,3.9c-3,2.8-6.5,0-5.8-4.9
				c0.3-2.5,0.9-5,0.6-8.1c-0.6-6-5.5-10.1-10-10.3c-8.8-0.3-20.4,23.2,1.7,55.6c1.4,2.1,4,5.7,2.3,8.8c-2.9,5.7-25.8,1-36-1.6
				c-5.9-1.5-17.5-6.3-18.4-3.9c-1,2.7,12.1,11.1,13.8,14.1c2.6,4.7-0.8,9.3-1.9,13.7c-4.4,17.8,3.1,24.8,3.2,24.7
				c0.5-3,1.4-6.4,2.5-9.8c9.2-28.7,33.2-25.9,41.6-27.4c5.7-1,7.6-6.1,7.9-7.7c0.5-2.7,0.5-6.7-2-11c-2.5-4.4,0.5-4.2,2-7.3
				c0.7-1.4-0.7-3.6-0.9-3.8c-0.7-0.7,0.7-0.5,2.3-2.4c1.6-2,0-3.9-1.2-5.8c-1.3-2.1-3.1-5.5-0.9-9.5
				C294.2,173,304.4,172.5,305.1,168.6z"/>
			<path fill="#7786BE" d="M305.1,168.6L305.1,168.6c-0.7,0-1.5,0.1-2.4,0c-6.2-0.5-9.3,2.4-10.8,3.9c-3,2.9-6.5,0.1-5.9-4.8
				c0.3-2.5,0.9-5.1,0.6-8.2c-0.6-6-5.4-10-9.8-10.2c-8.8-0.3-20.2,22.9,1.9,55.3c1.4,2.1,4.1,5.9,2.4,9.1c-2.9,5.7-26,1.1-36.2-1.6
				c-5.9-1.5-17.2-6.3-18.1-3.9c-0.9,2.6,11.9,10.8,13.5,13.9c2.6,4.7-0.8,9.4-1.9,13.7c-4.3,17.7,3,24.7,3.1,24.7
				c0.5-3,1.4-6.4,2.5-9.8c9.2-28.7,33.2-25.9,41.6-27.4c5.7-1,7.6-6.1,7.9-7.7c0.5-2.7,0.5-6.7-2-11c-2.5-4.4,0.5-4.2,2-7.3
				c0.7-1.4-0.7-3.6-0.9-3.8c-0.7-0.7,0.7-0.5,2.3-2.4c1.6-2,0-3.9-1.2-5.8c-1.3-2.1-3.1-5.5-0.9-9.5
				C294.2,173,304.4,172.5,305.1,168.6z"/>
			<path fill="#7786BE" d="M305.1,168.6L305.1,168.6c-0.7,0-1.6,0.1-2.4,0.1c-6.2-0.4-9.2,2.4-10.7,3.9c-3,3-6.6,0.1-6-4.8
				c0.3-2.5,0.9-5.1,0.6-8.2c-0.6-6-5.3-10-9.7-10.1c-8.8-0.3-20,22.6,2,55c1.4,2.1,4.2,6.1,2.5,9.4c-2.9,5.7-26.1,1.1-36.3-1.5
				c-5.9-1.5-17-6.2-17.8-3.9c-0.9,2.6,11.6,10.6,13.3,13.6c2.6,4.7-0.8,9.4-1.8,13.8c-4.3,17.5,2.9,24.7,2.9,24.7
				c0.5-3,1.4-6.4,2.5-9.8c9.2-28.7,33.2-25.9,41.6-27.4c5.7-1,7.6-6.1,7.9-7.7c0.5-2.7,0.5-6.7-2-11c-2.5-4.4,0.5-4.2,2-7.3
				c0.7-1.4-0.7-3.6-0.9-3.8c-0.7-0.7,0.7-0.5,2.3-2.4c1.6-2,0-3.9-1.2-5.8c-1.3-2.1-3.1-5.5-0.9-9.5
				C294.2,173,304.4,172.5,305.1,168.6z"/>
			<path fill="#7786BE" d="M305.1,168.6L305.1,168.6c-0.7,0-1.6,0.2-2.4,0.1c-6.2-0.3-9.2,2.4-10.7,3.9c-3.1,3-6.7,0.2-6.2-4.7
				c0.2-2.5,0.9-5.1,0.6-8.2c-0.6-6-5.2-9.9-9.6-10c-8.8-0.3-19.9,22.3,2.2,54.7c1.4,2.1,4.3,6.3,2.6,9.6c-3,5.7-26.2,1.2-36.5-1.4
				c-5.9-1.5-16.7-6.1-17.5-3.8c-0.9,2.5,11.3,10.3,13,13.3c2.6,4.7-0.8,9.4-1.8,13.8c-4.2,17.3,2.7,24.7,2.8,24.7
				c0.5-2.9,1.4-6.4,2.5-9.8c9.2-28.7,33.2-25.9,41.6-27.4c5.7-1,7.6-6.1,7.9-7.7c0.5-2.7,0.5-6.7-2-11c-2.5-4.4,0.5-4.2,2-7.3
				c0.7-1.4-0.7-3.6-0.9-3.8c-0.7-0.7,0.7-0.5,2.3-2.4c1.6-2,0-3.9-1.2-5.8c-1.3-2.1-3.1-5.5-0.9-9.5
				C294.2,173,304.4,172.5,305.1,168.6z"/>
			<path fill="#7786BE" d="M305.1,168.6L305.1,168.6c-0.7,0-1.6,0.2-2.5,0.2c-6.2-0.3-9.1,2.4-10.6,3.9c-3.1,3.1-6.7,0.2-6.3-4.6
				c0.2-2.5,0.9-5.2,0.6-8.3c-0.6-6-5-9.8-9.5-10c-8.8-0.3-19.7,22,2.4,54.4c1.4,2.1,4.4,6.5,2.6,9.9c-3,5.7-26.4,1.2-36.6-1.4
				c-5.9-1.5-16.5-6-17.2-3.8c-0.9,2.4,11.1,10,12.7,13.1c2.6,4.7-0.7,9.5-1.8,13.8c-4.1,17.2,2.6,24.7,2.7,24.7
				c0.5-2.9,1.4-6.4,2.5-9.8c9.2-28.7,33.2-25.9,41.6-27.4c5.7-1,7.6-6.1,7.9-7.7c0.5-2.7,0.5-6.7-2-11c-2.5-4.4,0.5-4.2,2-7.3
				c0.7-1.4-0.7-3.6-0.9-3.8c-0.7-0.7,0.7-0.5,2.3-2.4c1.6-2,0-3.9-1.2-5.8c-1.3-2.1-3.1-5.5-0.9-9.5
				C294.2,173,304.4,172.5,305.1,168.6z"/>
			<path fill="#7786BE" d="M305.1,168.6L305.1,168.6c-0.7,0-1.7,0.3-2.5,0.3c-6.2-0.2-9,2.3-10.6,3.9c-3.1,3.2-6.8,0.3-6.4-4.5
				c0.2-2.5,0.9-5.2,0.5-8.3c-0.6-6-4.9-9.7-9.4-9.9c-8.8-0.3-19.5,21.7,2.5,54.1c1.4,2.1,4.5,6.7,2.7,10.2
				c-3,5.7-26.5,1.3-36.8-1.3c-5.9-1.5-16.2-5.9-17-3.8c-0.8,2.4,10.8,9.8,12.5,12.8c2.6,4.7-0.7,9.5-1.8,13.9
				c-4.1,17,2.5,24.7,2.5,24.7c0.5-2.9,1.4-6.4,2.5-9.8c9.2-28.7,33.2-25.9,41.6-27.4c5.7-1,7.6-6.1,7.9-7.7c0.5-2.7,0.5-6.7-2-11
				c-2.5-4.4,0.5-4.2,2-7.3c0.7-1.4-0.7-3.6-0.9-3.8c-0.7-0.7,0.7-0.5,2.3-2.4c1.6-2,0-3.9-1.2-5.8c-1.3-2.1-3.1-5.5-0.9-9.5
				C294.2,173,304.4,172.5,305.1,168.6z"/>
			<path fill="#7786BE" d="M305.1,168.6L305.1,168.6c-0.7,0-1.7,0.3-2.5,0.3c-6.2-0.1-9,2.3-10.5,3.9c-3.1,3.2-6.8,0.4-6.5-4.5
				c0.1-2.5,0.9-5.2,0.5-8.3c-0.6-6-4.8-9.6-9.2-9.8c-8.8-0.3-19.4,21.4,2.7,53.8c1.4,2.1,4.6,6.9,2.8,10.4
				c-3,5.7-26.7,1.4-36.9-1.2c-5.9-1.5-16-5.8-16.7-3.8c-0.8,2.3,10.5,9.5,12.2,12.5c2.6,4.7-0.7,9.5-1.7,13.9
				c-4,16.8,2.4,24.7,2.4,24.7c0.5-2.9,1.4-6.4,2.5-9.8c9.2-28.7,33.2-25.9,41.6-27.4c5.7-1,7.6-6.1,7.9-7.7c0.5-2.7,0.5-6.7-2-11
				c-2.5-4.4,0.5-4.2,2-7.3c0.7-1.4-0.7-3.6-0.9-3.8c-0.7-0.7,0.7-0.5,2.3-2.4c1.6-2,0-3.9-1.2-5.8c-1.3-2.1-3.1-5.5-0.9-9.5
				C294.2,173,304.4,172.5,305.1,168.6z"/>
			<path fill="#7786BE" d="M305.1,168.6L305.1,168.6c-0.7,0-1.7,0.4-2.6,0.4c-6.2-0.1-8.9,2.3-10.4,3.9c-3.2,3.3-6.9,0.4-6.7-4.4
				c0.1-2.5,0.8-5.3,0.5-8.4c-0.6-6-4.7-9.6-9.1-9.7c-8.8-0.3-19.2,21.1,2.9,53.5c1.4,2.1,4.7,7.2,2.8,10.7
				c-3,5.7-26.8,1.4-37.1-1.2c-5.9-1.5-15.7-5.7-16.4-3.7c-0.8,2.3,10.3,9.2,11.9,12.3c2.6,4.7-0.7,9.6-1.7,13.9
				c-4,16.7,2.2,24.7,2.3,24.7c0.5-2.9,1.4-6.4,2.5-9.8c9.2-28.7,33.2-25.9,41.6-27.4c5.7-1,7.6-6.1,7.9-7.7c0.5-2.7,0.5-6.7-2-11
				c-2.5-4.4,0.5-4.2,2-7.3c0.7-1.4-0.7-3.6-0.9-3.8c-0.7-0.7,0.7-0.5,2.3-2.4c1.6-2,0-3.9-1.2-5.8c-1.3-2.1-3.1-5.5-0.9-9.5
				C294.2,173,304.4,172.5,305.1,168.6z"/>
			<path fill="#7786BE" d="M305.1,168.6L305.1,168.6c-0.7,0-1.8,0.4-2.6,0.4c-6.2,0-8.9,2.3-10.4,3.9c-3.2,3.4-6.9,0.5-6.8-4.3
				c0.1-2.5,0.8-5.3,0.5-8.4c-0.6-6-4.6-9.5-9-9.7c-8.8-0.3-19,20.8,3,53.2c1.4,2.1,4.8,7.4,2.9,11c-3,5.6-27,1.5-37.2-1.1
				c-5.9-1.5-15.5-5.6-16.1-3.7c-0.8,2.2,10,9,11.7,12c2.6,4.7-0.7,9.6-1.7,14c-3.9,16.5,2.1,24.7,2.2,24.7c0.5-2.8,1.4-6.4,2.5-9.8
				c9.2-28.7,33.2-25.9,41.6-27.4c5.7-1,7.6-6.1,7.9-7.7c0.5-2.7,0.5-6.7-2-11c-2.5-4.4,0.5-4.2,2-7.3c0.7-1.4-0.7-3.6-0.9-3.8
				c-0.7-0.7,0.7-0.5,2.3-2.4c1.6-2,0-3.9-1.2-5.8c-1.3-2.1-3.1-5.5-0.9-9.5C294.2,173,304.4,172.5,305.1,168.6z"/>
			<path fill="#7786BE" d="M305.1,168.6L305.1,168.6c-0.7,0-1.8,0.5-2.6,0.5c-6.2,0.1-8.8,2.3-10.3,3.9c-3.2,3.4-7,0.5-6.9-4.3
				c0-2.5,0.8-5.3,0.5-8.4c-0.6-6-4.4-9.4-8.9-9.6c-8.8-0.3-18.9,20.5,3.2,52.9c1.4,2.1,4.9,7.6,3,11.2c-3,5.6-27.1,1.6-37.4-1
				c-5.9-1.5-15.2-5.6-15.9-3.7c-0.7,2.1,9.7,8.7,11.4,11.7c2.6,4.7-0.7,9.6-1.7,14c-3.9,16.4,2,24.7,2,24.7
				c0.5-2.8,1.4-6.4,2.5-9.8c9.2-28.7,33.2-25.9,41.6-27.4c5.7-1,7.6-6.1,7.9-7.7c0.5-2.7,0.5-6.7-2-11c-2.5-4.4,0.5-4.2,2-7.3
				c0.7-1.4-0.7-3.6-0.9-3.8c-0.7-0.7,0.7-0.5,2.3-2.4c1.6-2,0-3.9-1.2-5.8c-1.3-2.1-3.1-5.5-0.9-9.5
				C294.2,173,304.4,172.5,305.1,168.6z"/>
			<path fill="#7786BE" d="M305.1,168.6L305.1,168.6c-0.7,0-1.9,0.5-2.7,0.5c-6.2,0.1-8.8,2.3-10.2,3.9c-3.2,3.5-7.1,0.6-7.1-4.2
				c0-2.5,0.8-5.4,0.5-8.5c-0.6-6-4.3-9.3-8.8-9.5c-8.8-0.3-18.7,20.2,3.4,52.6c1.4,2.1,5,7.8,3,11.5c-3,5.6-27.3,1.6-37.5-1
				c-5.9-1.5-14.9-5.5-15.6-3.7c-0.7,2.1,9.5,8.4,11.1,11.5c2.6,4.7-0.6,9.7-1.7,14c-3.8,16.2,1.8,24.7,1.9,24.7
				c0.5-2.8,1.4-6.4,2.5-9.8c9.2-28.7,33.2-25.9,41.6-27.4c5.7-1,7.6-6.1,7.9-7.7c0.5-2.7,0.5-6.7-2-11c-2.5-4.4,0.5-4.2,2-7.3
				c0.7-1.4-0.7-3.6-0.9-3.8c-0.7-0.7,0.7-0.5,2.3-2.4c1.6-2,0-3.9-1.2-5.8c-1.3-2.1-3.1-5.5-0.9-9.5
				C294.2,173,304.4,172.5,305.1,168.6z"/>
			<path fill="#7786BE" d="M305.1,168.6L305.1,168.6c-0.7,0-1.9,0.6-2.7,0.6c-6.2,0.2-8.7,2.3-10.2,3.8c-3.3,3.6-7.1,0.6-7.2-4.1
				c0-2.5,0.8-5.4,0.5-8.5c-0.6-6-4.2-9.3-8.6-9.4c-8.8-0.3-18.5,20,3.5,52.3c1.4,2.1,5.2,8,3.1,11.8c-3,5.6-27.4,1.7-37.7-0.9
				c-5.9-1.5-14.7-5.4-15.3-3.6c-0.7,2,9.2,8.2,10.9,11.2c2.6,4.7-0.6,9.7-1.6,14.1c-3.8,16,1.7,24.7,1.8,24.7
				c0.5-2.8,1.4-6.4,2.5-9.8c9.2-28.7,33.2-25.9,41.6-27.4c5.7-1,7.6-6.1,7.9-7.7c0.5-2.7,0.5-6.7-2-11c-2.5-4.4,0.5-4.2,2-7.3
				c0.7-1.4-0.7-3.6-0.9-3.8c-0.7-0.7,0.7-0.5,2.3-2.4c1.6-2,0-3.9-1.2-5.8c-1.3-2.1-3.1-5.5-0.9-9.5
				C294.2,173,304.4,172.5,305.1,168.6z"/>
			<path fill="#7786BE" d="M305.1,168.6L305.1,168.6c-0.7,0-1.9,0.6-2.8,0.7c-6.2,0.3-8.7,2.2-10.1,3.8c-3.3,3.7-7.2,0.7-7.3-4
				c-0.1-2.5,0.8-5.4,0.5-8.5c-0.6-6-4.1-9.2-8.5-9.3c-8.8-0.3-18.4,19.7,3.7,52c1.4,2.1,5.3,8.2,3.2,12.1c-3,5.6-27.6,1.8-37.8-0.8
				c-5.9-1.5-14.4-5.3-15-3.6c-0.7,2,8.9,7.9,10.6,10.9c2.6,4.7-0.6,9.7-1.6,14.1c-3.7,15.9,1.6,24.7,1.6,24.7
				c0.5-2.7,1.4-6.4,2.5-9.8c9.2-28.7,33.2-25.9,41.6-27.4c5.7-1,7.6-6.1,7.9-7.7c0.5-2.7,0.5-6.7-2-11c-2.5-4.4,0.5-4.2,2-7.3
				c0.7-1.4-0.7-3.6-0.9-3.8c-0.7-0.7,0.7-0.5,2.3-2.4c1.6-2,0-3.9-1.2-5.8c-1.3-2.1-3.1-5.5-0.9-9.5
				C294.2,173,304.4,172.5,305.1,168.6z"/>
			<path fill="#7786BE" d="M305.1,168.6L305.1,168.6c-0.7,0-2,0.7-2.8,0.7c-6.2,0.4-8.6,2.2-10.1,3.8c-3.3,3.7-7.3,0.7-7.4-4
				c-0.1-2.5,0.8-5.5,0.5-8.6c-0.6-6-3.9-9.1-8.4-9.3c-8.8-0.3-18.2,19.4,3.9,51.8c1.4,2.1,5.4,8.4,3.2,12.3
				c-3.1,5.6-27.7,1.8-38-0.8c-5.9-1.5-14.2-5.2-14.7-3.6c-0.6,1.9,8.7,7.6,10.3,10.7c2.6,4.7-0.6,9.8-1.6,14.1
				c-3.7,15.7,1.5,24.7,1.5,24.7c0.5-2.7,1.4-6.4,2.5-9.8c9.2-28.7,33.2-25.9,41.6-27.4c5.7-1,7.6-6.1,7.9-7.7c0.5-2.7,0.5-6.7-2-11
				c-2.5-4.4,0.5-4.2,2-7.3c0.7-1.4-0.7-3.6-0.9-3.8c-0.7-0.7,0.7-0.5,2.3-2.4c1.6-2,0-3.9-1.2-5.8c-1.3-2.1-3.1-5.5-0.9-9.5
				C294.2,173,304.4,172.5,305.1,168.6z"/>
			<path fill="#7786BE" d="M305.1,168.6L305.1,168.6c-0.7,0-2,0.7-2.8,0.8c-6.2,0.4-8.6,2.2-10,3.8c-3.3,3.8-7.3,0.8-7.6-3.9
				c-0.1-2.5,0.8-5.5,0.5-8.6c-0.6-6-3.8-9-8.3-9.2c-8.8-0.3-18,19.1,4,51.5c1.4,2.1,5.5,8.6,3.3,12.6c-3.1,5.6-27.9,1.9-38.1-0.7
				c-5.9-1.5-13.9-5.1-14.5-3.5c-0.6,1.8,8.4,7.4,10.1,10.4c2.6,4.7-0.6,9.8-1.6,14.2c-3.6,15.5,1.3,24.7,1.4,24.7
				c0.5-2.7,1.4-6.4,2.5-9.8c9.2-28.7,33.2-25.9,41.6-27.4c5.7-1,7.6-6.1,7.9-7.7c0.5-2.7,0.5-6.7-2-11c-2.5-4.4,0.5-4.2,2-7.3
				c0.7-1.4-0.7-3.6-0.9-3.8c-0.7-0.7,0.7-0.5,2.3-2.4c1.6-2,0-3.9-1.2-5.8c-1.3-2.1-3.1-5.5-0.9-9.5
				C294.2,173,304.4,172.5,305.1,168.6z"/>
			<path fill="#7786BE" d="M305.1,168.6L305.1,168.6c-0.7,0-2,0.8-2.9,0.8c-6.2,0.5-8.5,2.2-9.9,3.8c-3.4,3.9-7.4,0.9-7.7-3.8
				c-0.2-2.5,0.8-5.5,0.4-8.6c-0.6-6-3.7-9-8.2-9.1c-8.8-0.3-17.8,18.8,4.2,51.2c1.4,2.1,5.6,8.8,3.4,12.9c-3.1,5.6-28,2-38.3-0.7
				c-5.9-1.5-13.7-5-14.2-3.5c-0.6,1.8,8.1,7.1,9.8,10.1c2.6,4.7-0.6,9.8-1.6,14.2c-3.6,15.4,1.2,24.7,1.3,24.7
				c0.5-2.7,1.4-6.4,2.5-9.8c9.2-28.7,33.2-25.9,41.6-27.4c5.7-1,7.6-6.1,7.9-7.7c0.5-2.7,0.5-6.7-2-11c-2.5-4.4,0.5-4.2,2-7.3
				c0.7-1.4-0.7-3.6-0.9-3.8c-0.7-0.7,0.7-0.5,2.3-2.4c1.6-2,0-3.9-1.2-5.8c-1.3-2.1-3.1-5.5-0.9-9.5
				C294.2,173,304.4,172.5,305.1,168.6z"/>
			<path fill="#7786BE" d="M305.1,168.6L305.1,168.6c-0.7,0-2.1,0.8-2.9,0.9c-6.2,0.6-8.5,2.2-9.9,3.8c-3.4,3.9-7.4,0.9-7.8-3.8
				c-0.2-2.5,0.8-5.6,0.4-8.7c-0.6-6-3.6-8.9-8-9c-8.8-0.3-17.7,18.5,4.4,50.9c1.4,2.1,5.7,9,3.4,13.1c-3.1,5.6-28.2,2-38.4-0.6
				c-5.9-1.5-13.4-5-13.9-3.5c-0.6,1.7,7.9,6.8,9.5,9.9c2.6,4.7-0.5,9.9-1.5,14.2c-3.5,15.2,1.1,24.7,1.1,24.6
				c0.5-2.7,1.4-6.4,2.5-9.8c9.2-28.7,33.2-25.9,41.6-27.4c5.7-1,7.6-6.1,7.9-7.7c0.5-2.7,0.5-6.7-2-11c-2.5-4.4,0.5-4.2,2-7.3
				c0.7-1.4-0.7-3.6-0.9-3.8c-0.7-0.7,0.7-0.5,2.3-2.4c1.6-2,0-3.9-1.2-5.8c-1.3-2.1-3.1-5.5-0.9-9.5
				C294.2,173,304.4,172.5,305.1,168.6z"/>
			<path fill="#7786BE" d="M305.1,168.6L305.1,168.6c-0.7,0-2.1,0.9-2.9,0.9c-6.2,0.6-8.4,2.2-9.8,3.8c-3.4,4-7.5,1-7.9-3.7
				c-0.2-2.5,0.7-5.6,0.4-8.7c-0.6-6-3.5-8.8-7.9-9c-8.8-0.3-17.5,18.2,4.5,50.6c1.4,2.1,5.8,9.2,3.5,13.4
				c-3.1,5.6-28.3,2.1-38.6-0.5c-5.9-1.5-13.2-4.9-13.6-3.5c-0.5,1.6,7.6,6.6,9.3,9.6c2.6,4.7-0.5,9.9-1.5,14.3
				c-3.5,15.1,0.9,24.7,1,24.6c0.5-2.6,1.4-6.4,2.5-9.8c9.2-28.7,33.2-25.9,41.6-27.4c5.7-1,7.6-6.1,7.9-7.7c0.5-2.7,0.5-6.7-2-11
				c-2.5-4.4,0.5-4.2,2-7.3c0.7-1.4-0.7-3.6-0.9-3.8c-0.7-0.7,0.7-0.5,2.3-2.4c1.6-2,0-3.9-1.2-5.8c-1.3-2.1-3.1-5.5-0.9-9.5
				C294.2,173,304.4,172.5,305.1,168.6z"/>
			<path fill="#7786BE" d="M305.1,168.6L305.1,168.6c-0.7,0-2.1,0.9-3,1c-6.2,0.7-8.4,2.2-9.7,3.8c-3.4,4.1-7.6,1-8.1-3.6
				c-0.3-2.5,0.7-5.6,0.4-8.7c-0.6-6-3.3-8.7-7.8-8.9c-8.8-0.3-17.3,17.9,4.7,50.3c1.4,2.1,5.9,9.4,3.6,13.7
				c-3.1,5.6-28.5,2.2-38.7-0.5c-5.9-1.5-12.9-4.8-13.3-3.4c-0.5,1.6,7.3,6.3,9,9.3c2.6,4.7-0.5,9.9-1.5,14.3
				c-3.4,14.9,0.8,24.7,0.9,24.6c0.5-2.6,1.4-6.4,2.5-9.8c9.2-28.7,33.2-25.9,41.6-27.4c5.7-1,7.6-6.1,7.9-7.7c0.5-2.7,0.5-6.7-2-11
				c-2.5-4.4,0.5-4.2,2-7.3c0.7-1.4-0.7-3.6-0.9-3.8c-0.7-0.7,0.7-0.5,2.3-2.4c1.6-2,0-3.9-1.2-5.8c-1.3-2.1-3.1-5.5-0.9-9.5
				C294.2,173,304.4,172.5,305.1,168.6z"/>
			<path fill="#7786BE" d="M305.1,168.6L305.1,168.6c-0.7,0-2.2,0.9-3,1.1c-6.2,0.8-8.3,2.2-9.7,3.8c-3.5,4.2-7.6,1.1-8.2-3.5
				c-0.3-2.5,0.7-5.7,0.4-8.8c-0.6-6-3.2-8.7-7.7-8.8c-8.8-0.3-17.2,17.6,4.9,50c1.4,2.1,6,9.6,3.6,14c-3.1,5.6-28.6,2.2-38.9-0.4
				c-5.9-1.5-12.7-4.7-13.1-3.4c-0.5,1.5,7.1,6,8.7,9.1c2.6,4.7-0.5,10-1.5,14.4c-3.4,14.7,0.7,24.7,0.7,24.6
				c0.5-2.6,1.4-6.4,2.5-9.8c9.2-28.7,33.2-25.9,41.6-27.4c5.7-1,7.6-6.1,7.9-7.7c0.5-2.7,0.5-6.7-2-11c-2.5-4.4,0.5-4.2,2-7.3
				c0.7-1.4-0.7-3.6-0.9-3.8c-0.7-0.7,0.7-0.5,2.3-2.4c1.6-2,0-3.9-1.2-5.8c-1.3-2.1-3.1-5.5-0.9-9.5
				C294.2,173,304.4,172.5,305.1,168.6z"/>
			<path fill="#7786BE" d="M305.1,168.6L305.1,168.6c-0.7,0-2.2,1-3,1.1c-6.2,0.9-8.3,2.1-9.6,3.8c-3.5,4.2-7.7,1.1-8.3-3.5
				c-0.3-2.5,0.7-5.7,0.4-8.8c-0.6-6-3.1-8.6-7.5-8.7c-8.8-0.3-17,17.3,5,49.7c1.4,2.1,6.1,9.9,3.7,14.2c-3.1,5.6-28.8,2.3-39-0.3
				c-5.9-1.5-12.4-4.6-12.8-3.4c-0.5,1.5,6.8,5.8,8.5,8.8c2.6,4.7-0.5,10-1.5,14.4c-3.3,14.6,0.5,24.7,0.6,24.6
				c0.5-2.6,1.4-6.4,2.5-9.8c9.2-28.7,33.2-25.9,41.6-27.4c5.7-1,7.6-6.1,7.9-7.7c0.5-2.7,0.5-6.7-2-11c-2.5-4.4,0.5-4.2,2-7.3
				c0.7-1.4-0.7-3.6-0.9-3.8c-0.7-0.7,0.7-0.5,2.3-2.4c1.6-2,0-3.9-1.2-5.8c-1.3-2.1-3.1-5.5-0.9-9.5
				C294.2,173,304.4,172.5,305.1,168.6z"/>
			<path fill="#7786BE" d="M305.1,168.6L305.1,168.6c-0.7,0-2.3,1-3.1,1.2c-6.2,0.9-8.2,2.1-9.6,3.8c-3.5,4.3-7.8,1.2-8.5-3.4
				c-0.4-2.5,0.7-5.7,0.4-8.8c-0.6-6-3-8.5-7.4-8.7c-8.8-0.3-16.8,17,5.2,49.4c1.4,2.1,6.3,10.1,3.8,14.5
				c-3.1,5.6-28.9,2.4-39.2-0.3c-5.9-1.5-12.1-4.5-12.5-3.3c-0.4,1.4,6.5,5.5,8.2,8.5c2.6,4.7-0.5,10-1.4,14.4
				c-3.2,14.4,0.4,24.6,0.5,24.6c0.5-2.6,1.4-6.4,2.5-9.8c9.2-28.7,33.2-25.9,41.6-27.4c5.7-1,7.6-6.1,7.9-7.7c0.5-2.7,0.5-6.7-2-11
				c-2.5-4.4,0.5-4.2,2-7.3c0.7-1.4-0.7-3.6-0.9-3.8c-0.7-0.7,0.7-0.5,2.3-2.4c1.6-2,0-3.9-1.2-5.8c-1.3-2.1-3.1-5.5-0.9-9.5
				C294.2,173,304.4,172.5,305.1,168.6z"/>
			<path fill="#7786BE" d="M305.1,168.6L305.1,168.6c-0.7,0-2.3,1.1-3.1,1.2c-6.1,1-8.1,2.1-9.5,3.8c-3.5,4.4-7.8,1.2-8.6-3.3
				c-0.4-2.5,0.7-5.8,0.4-8.9c-0.6-6-2.9-8.4-7.3-8.6c-8.8-0.3-16.7,16.7,5.4,49.1c1.4,2.1,6.4,10.3,3.8,14.8
				c-3.1,5.6-29.1,2.4-39.3-0.2c-5.9-1.5-11.9-4.4-12.2-3.3c-0.4,1.3,6.3,5.2,7.9,8.3c2.6,4.7-0.4,10.1-1.4,14.5
				c-3.2,14.2,0.3,24.6,0.4,24.6c0.5-2.5,1.4-6.4,2.5-9.8c9.2-28.7,33.2-25.9,41.6-27.4c5.7-1,7.6-6.1,7.9-7.7c0.5-2.7,0.5-6.7-2-11
				c-2.5-4.4,0.5-4.2,2-7.3c0.7-1.4-0.7-3.6-0.9-3.8c-0.7-0.7,0.7-0.5,2.3-2.4c1.6-2,0-3.9-1.2-5.8c-1.3-2.1-3.1-5.5-0.9-9.5
				C294.2,173,304.4,172.5,305.1,168.6z"/>
			<path fill="#7786BE" d="M305.1,168.6L305.1,168.6c-0.7,0-2.3,1.1-3.1,1.3c-6.1,1.1-8.1,2.1-9.4,3.8c-3.5,4.4-7.9,1.3-8.7-3.2
				c-0.5-2.5,0.7-5.8,0.4-8.9c-0.6-6-2.7-8.4-7.2-8.5c-8.8-0.3-16.5,16.4,5.5,48.8c1.4,2.1,6.5,10.5,3.9,15
				c-3.1,5.6-29.2,2.5-39.5-0.1c-5.9-1.5-11.6-4.3-12-3.3c-0.4,1.3,6,5,7.7,8c2.6,4.7-0.4,10.1-1.4,14.5
				c-3.1,14.1,0.2,24.6,0.2,24.6c0.5-2.5,1.4-6.4,2.5-9.8c9.2-28.7,33.2-25.9,41.6-27.4c5.7-1,7.6-6.1,7.9-7.7c0.5-2.7,0.5-6.7-2-11
				c-2.5-4.4,0.5-4.2,2-7.3c0.7-1.4-0.7-3.6-0.9-3.8c-0.7-0.7,0.7-0.5,2.3-2.4c1.6-2,0-3.9-1.2-5.8c-1.3-2.1-3.1-5.5-0.9-9.5
				C294.2,173,304.4,172.5,305.1,168.6z"/>
			<path fill="#7786BE" d="M305.1,168.6L305.1,168.6c-0.7,0-2.4,1.2-3.2,1.3c-6.1,1.1-8,2.1-9.4,3.8c-3.6,4.5-8,1.4-8.8-3.2
				c-0.5-2.5,0.7-5.8,0.3-8.9c-0.6-6-2.6-8.3-7.1-8.4c-8.8-0.3-16.3,16.1,5.7,48.5c1.4,2.1,6.6,10.7,4,15.3
				c-3.1,5.6-29.4,2.6-39.6-0.1c-5.9-1.5-11.4-4.3-11.7-3.3c-0.4,1.2,5.7,4.7,7.4,7.8c2.6,4.7-0.4,10.1-1.4,14.5
				c-3.1,13.9,0,24.6,0.1,24.6c0.5-2.5,1.4-6.4,2.5-9.8c9.2-28.7,33.2-25.9,41.6-27.4c5.7-1,7.6-6.1,7.9-7.7c0.5-2.7,0.5-6.7-2-11
				c-2.5-4.4,0.5-4.2,2-7.3c0.7-1.4-0.7-3.6-0.9-3.8c-0.7-0.7,0.7-0.5,2.3-2.4c1.6-2,0-3.9-1.2-5.8c-1.3-2.1-3.1-5.5-0.9-9.5
				C294.2,173,304.4,172.5,305.1,168.6z"/>
			<path fill="#7786BE" d="M305.1,168.6L305.1,168.6c-0.7,0-2.4,1.2-3.2,1.4c-6.1,1.2-8,2.1-9.3,3.8c-3.6,4.6-8,1.4-9-3.1
				c-0.5-2.5,0.7-5.9,0.3-9c-0.6-6-2.5-8.2-6.9-8.4c-8.8-0.3-16.2,15.8,5.9,48.2c1.4,2.1,6.7,10.9,4,15.6c-3.1,5.6-29.5,2.6-39.8,0
				c-5.9-1.5-11.1-4.2-11.4-3.2c-0.3,1.1,5.5,4.5,7.1,7.5c2.6,4.7-0.4,10.2-1.3,14.6c-3,13.8-0.1,24.6,0,24.6
				c0.5-2.5,1.4-6.4,2.5-9.8c9.2-28.7,33.2-25.9,41.6-27.4c5.7-1,7.6-6.1,7.9-7.7c0.5-2.7,0.5-6.7-2-11c-2.5-4.4,0.5-4.2,2-7.3
				c0.7-1.4-0.7-3.6-0.9-3.8c-0.7-0.7,0.7-0.5,2.3-2.4c1.6-2,0-3.9-1.2-5.8c-1.3-2.1-3.1-5.5-0.9-9.5
				C294.2,173,304.4,172.5,305.1,168.6z"/>
		</g>
</svg>
