<svg xmlns="http://www.w3.org/2000/svg" viewBox="0 0 458 297.1">

<style>

	.gear-left {
		animation: gear-rotate 5s infinite linear;

		transform-origin: 165px 132px 0;
	}

	.gear-right {
		animation: gear-rotate 5s infinite linear;

		transform-origin: 257px 98px 0px;
	}

	.gear-center {
		animation: gear-rotate 5s infinite linear reverse;

		transform-origin: 203px 94px 0;
	}


<!-- шаблон анимации -->
@keyframes gear-color {
	0% { fill: red; }
	50% { fill: blue; }
	100% { fill: green; }
}


<!-- кручение по горизонтали -->
@keyframes gear-rotate {
	100% { transform: rotate(360deg); }
}






		<!-- animation: gear-color 5s infinite  linear, gear-rotate 5s infinite; -->


</style>
	<g id="cyborg-line">
		<path fill="#7786BE" d="M241.8 204.3v-18.6l-9.4-9.4.3-.4 9.6 9.6v18.8z"/>
		<path fill="#7786BE" d="M242.5 204.5h-1v-18.7l-9.5-9.5.7-.7 9.8 9.8zm-66.4-85.9v20.2l11.5 11.5v12.5l17.1 17.2-2.3 2.5-17.8-17.8h-33.2v-.5h33.4l17.5 17.6 1.7-1.8-16.9-17v-12.5L175.6 139v-20.2l-31.5-31.3.4-.3z"/>
		<path fill="#7786BE" d="M202.4 182.9L184.5 165h-33.3v-1h33.7l17.4 17.4 1.4-1.4-16.9-16.9v-12.5l-11.5-11.5v-20.2l-31.5-31.4.7-.7 31.8 31.7v20.2l11.5 11.5v12.5l17.3 17.3zm-5.2-131.2h.4V152l.2.2 16.2 16.2v32h-.5v-31.8l-.1-.2-16.2-16.2z"/>
		<path fill="#7786BE" d="M214.3 200.7h-1v-32l-.1-.1-16.3-16.3V51.4h1v100.5l.1.1 16.3 16.3z"/>
		<path fill="#7786BE" d="M200.6 93.5h.5v56.8l16.4 16.3v44.5h-.5v-44.3l-16.4-16.3z"/>
		<path fill="#7786BE" d="M217.7 211.3h-1v-44.4l-16.3-16.3V93.3h1v56.9l16.3 16.3z"/>
		<path fill="#7786BE" d="M157.9 180.4l.2-.5h22.5l11 11h11.3l7.1-7.2v-13.4L193.7 154V86.4h.5v67.4l16.3 16.3v13.8l-7.4 7.4h-11.7l-11-10.9z"/>
		<path fill="#7786BE" d="M203.2 191.6h-11.9l-11-11h-22.8l.4-1h22.8l11 11h11.1l7-7v-13.2l-16.4-16.3v-68h1v67.6l16.4 16.3v14zm12.5-93.4l-4.3-4.4V67.3h.5v26.3l4.1 4.2z"/>
		<path fill="#7786BE" d="M215.7 98.5l-4.6-4.5V67h1v26.5l4.3 4.3zm-11.6-17.2h.5v67.2l16.4 16.4v47.9h-.5v-47.7l-16.4-16.4z"/>
		<path fill="#7786BE" d="M221.2 213.1h-1v-47.9l-16.3-16.3V81.1h1v67.3l16.3 16.4z"/>
		<path fill="#7786BE" d="M218.5 141l-.4.4-9.6-9.6V121l11.4-11.4V86.3h.5v23.5L209 121.2v10.4z"/>
		<path fill="#7786BE" d="M218.1 141.7l-9.8-9.8v-11l11.4-11.4V86h1v23.9l-11.4 11.4v10.2l9.5 9.5z"/>
		<path fill="#7786BE" d="M215.6 105.3l-7.8-7.9V50.6h.1v46.8l7.8 7.8z"/>
		<path fill="#7786BE" d="M215.6 105.6l-8.1-8.1V50.3h.6v46.9l8 8zm-53-17.9v-8.2l-7.6-7.6.3-.4 7.8 7.8v8.4z"/>
		<path fill="#7786BE" d="M163.4 88h-1v-8.4l-7.8-7.7.7-.7 8.1 8zm27.4 39.6h-.5V91.9l-10.5-10.6V56.6h.5v24.5l10.5 10.6z"/>
		<path fill="#7786BE" d="M191.1 127.9h-1V92l-10.6-10.6v-25h1V81l10.6 10.6zm62-20.2V88.9l8.7-8.7V61.7h.5v18.7l-8.7 8.7v18.6z"/>
		<path fill="#7786BE" d="M253.8 107.9h-1V88.8l8.8-8.7V61.4h1v19.1l-8.8 8.7zm12.7 20.2L241.6 153h-13.3v4.8h27.8l9.6-9.7.3.4-9.7 9.7h-28.5v-5.6h13.6l24.6-24.7v-12.8l15.4-15.4.3.4-15.2 15.2z"/>
		<path fill="#7786BE" d="M256.4 158.5h-28.9v-6.2h13.8l24.4-24.5V115l15.7-15.7.7.8-15.4 15.3v12.8l-25 25.1h-13.2v4.2h27.4l9.8-9.7.7.7z"/>
		<path fill="#7786BE" d="M250.2 66.8v57.5l-25.4 25.4v68.4h-.5v-68.6l25.4-25.4V66.8z"/>
		<path fill="#7786BE" d="M225.1 218.3h-1v-68.9l25.4-25.4V66.5h1v57.9l-25.4 25.4zm42.7-116.4h-.5v-8.4l14.9-14.8.4.3-14.8 14.7z"/>
		<path fill="#7786BE" d="M268.1 102.2h-1v-8.8l15.1-15.1.7.7-14.8 14.8zm4 34.9h-.5v-8.5l15.2-15.3.3.3-15 15.2z"/>
		<path fill="#7786BE" d="M272.4 137.3h-1v-8.8l15.4-15.6.7.7-15.1 15.4zm-37.7 29.8h9.4l19.7 19.8-.4.3-19.5-19.6h-9.2z"/>
		<path fill="#7786BE" d="M263.4 187.6l-19.6-19.7h-9.4v-1h9.9l19.8 20zm-32.9-79.3l4.4-4.3V77.4h-.5v26.4l-4.2 4.2z"/>
		<path fill="#7786BE" d="M230.5 108.7l-.7-.7 4.3-4.3V77.2h1v26.9z"/>
		<path fill="#7786BE" d="M230.4 114.7l7.9-7.9V53.4h-.1v53.4l-7.8 7.8z"/>
		<path fill="#7786BE" d="M230.4 115.1l-.4-.5 7.9-7.9V53.2h.6v53.7zm-47.2-10.5l-13.4-13.4V60.9h.5V91l13.3 13.3z"/>
		<path fill="#7786BE" d="M183.2 105l-13.6-13.7V60.7h1v30.2l13.3 13.4zm-13.7 36.2l-27.6-29.4V92.6h.5v19l27.4 29.2z"/>
		<path fill="#7786BE" d="M169.5 141.5l-.2-.2-27.6-29.4V92.3h1v19.2l27.5 29.3zm74.7 35.1l29.3 28.9v5.7h-.5v-5.5l-29.2-28.8z"/>
		<path fill="#7786BE" d="M273.8 211.4h-1v-5.6l-29.3-28.9.7-.7.1.2 29.5 28.9zM231.2 99.2V83.6h-.1v15.6z"/>
		<path fill="#7786BE" d="M231.5 99.5h-.6V83.4h.6zm-48-21.8V62.1h-.1v15.6z"/>
		<path fill="#7786BE" d="M183.7 78l-.6-.1V61.8h.6zm70.8 2.8V65.2h-.1v15.6z"/>
		<path fill="#7786BE" d="M254.7 81.1l-.6-.1V65h.6zm-67.9 136.2V200l-9.4-9.4.3-.3 9.6 9.5v17.5z"/>
		<path fill="#7786BE" d="M187.5 217.6h-1v-17.5l-9.5-9.5.7-.7 9.8 9.8zm27.5-96l5.8 5.8h13.3v.5h-13.5l-6-5.9z"/>
		<path fill="#7786BE" d="M220.5 128.2l-6.2-6.2.7-.7 5.9 5.9h13.4v1zm-77.4 21.5l5.8 5.8h13.3v.5h-13.5l-6-5.9z"/>
		<path fill="#7786BE" d="M148.6 156.3l-6.2-6.2.7-.7 5.9 5.9h13.4v1zm-2.4-12.6v-8.2l-9.4-9.4.4-.3 9.5 9.5v8.4z"/>
		<path fill="#7786BE" d="M147 144h-1v-8.4l-9.5-9.5.7-.7 9.8 9.8zm113.1 68.3v-8.2l-9.4-9.4.3-.3 9.6 9.5v8.4z"/>
		<path fill="#7786BE" d="M260.8 212.6h-1v-8.4l-9.5-9.5.7-.7 9.8 9.8zM230.5 68.9v-8.2l-9.4-9.4.3-.4 9.6 9.6v8.4z"/>
		<path fill="#7786BE" d="M231.2 69.1h-1v-8.3l-9.5-9.5.7-.7 9.8 9.8zm18.3-13.2v68.2h.2l.2.1v.1h.6V55.9zm24.4 13.2v9.5l-10.4 10.3-.3-.3 10.2-10.2v-9.3z"/>
		<path fill="#7786BE" d="M263.5 89.3l-.7-.7 10.4-10.3v-9.4h1v9.8zm-4.2 25.9v9.4l-22.1 22.2-.4-.4 22.1-22v-9.2z"/>
		<path fill="#7786BE" d="M237.2 147.1l-.7-.7 22.1-22.1v-9.4h1v9.8zm8.7-28.8l-4.3-4.3V87.4h.5v26.4l4.1 4.2z"/>
		<path fill="#7786BE" d="M245.9 118.7l-4.6-4.6V87.2h1v26.5l4.3 4.3zm-74.6 6.9v-6.1l-18.8-18.8-.3.4 18.6 18.6v5.9z"/>
		<path fill="#7786BE" d="M170.6 125.9v-6.1l-18.8-18.7.7-.7 19.1 19v6.5zm-3.9 1.5v-6.1l-18.8-18.8-.3.3 18.6 18.7v5.9z"/>
		<path fill="#7786BE" d="M166 127.6v-6l-18.8-18.8.7-.7 19.1 19.1v6.4zm21.4 16.7l-4.3-4.3v-26.6h.5v26.4l4.1 4.1z"/>
		<path fill="#7786BE" d="M187.4 144.6l-4.6-4.5v-27h1v26.6l4.3 4.2zm-50-31.8l24.4 26.6v4.3h-.4v-4.1L137 113.1z"/>
		<path fill="#7786BE" d="M162.1 143.9h-1v-4.2l-24.4-26.6.7-.7.2.2 24.5 26.7zm-14.112 111.717l23.197-51.08.91.414-23.196 51.08zm61.247-14.9l15.28-22.985.832.553-15.28 22.986zM302.1 164.5l-16.6-28.6 5.4-5.5.7.7-4.8 5 16.1 27.9z"/>
	</g>

	<g id='cyborg-gear' opacity=".7">
		<path fill="#7786BE" d="M169.4 138.4c.1 0 .1 0 .2-.1v.1c-.1.1-.2.1-.2 0zm.1-4.6c-.1 0-.1-.1-.2-.1h.2v.1zm.6 9.3c.1 0 .1-.1.2-.1v.1h-.2zm.1-14s-.1-.1-.2-.1h.2c.1 0 .1.1 0 .1zm17.8-21s-.1 0 0 0c-.1 0-.1 0 0 0-.1 0-.1 0 0 0zm-4.2 2.2c-.1 0-.1 0 0 0-.1 0-.1 0 0 0-.1 0-.1 0 0 0zm-3.9 2.8zm-3.3 3.4c-.1 0-.1 0-.1-.1l.1.1zm-2.7 3.8c-.1 0-.1 0 0 0h-.1.1zm-2.2 4.2s0 .1 0 0c-.1.1-.1 0-.2 0h.2zm-.1 23.2l.1-.1v.1c0-.1-.1-.1-.1 0zm2.1 4.2l.1-.1v.1h-.1zm2.8 3.8l.1-.1v.1h-.1zm3.4 3.4s0-.1 0 0c0-.1 0-.1 0 0 0-.1 0 0 0 0zm3.8 2.8s0-.1 0 0c0-.1 0-.1 0 0 0-.1 0 0 0 0zm4.2 2.1zm57.3-98.5c-.5.4-1.3.6-1.6.5-.1-.3-.1-1 0-1.5.2-.8-.1-.9-.4-1-.3-.1-.6-.3-1 .4-.4.5-.9 1.1-1.3 1.1-.3-.2-.5-.9-.6-1.4-.1-.8-.4-.8-.7-.8-.3 0-.7-.1-.8.7-.1.6-.5 1.4-.8 1.5-.3-.1-.8-.6-1-1.1-.4-.7-.7-.5-1-.4-.3.1-.6.2-.4 1 .1.6.1 1.4-.1 1.6-.4 0-1-.3-1.4-.6-.6-.5-.8-.2-1.1 0-.2.2-.5.4 0 1.1.3.4.5 1 .5 1.4-.3.1-1 .1-1.5 0-.8-.2-.9.1-1 .4-.1.3-.3.6.4 1 .5.3.9.8 1.1 1.1-.1.3-.9.6-1.5.7-.8.1-.7.5-.7.8 0 .3-.1.7.7.8.6.1 1.2.3 1.4.6 0 .3-.6.9-1.1 1.2-.7.4-.5.7-.4 1 .1.3.2.6 1 .4.5-.1 1.2-.1 1.5 0 .1.3-.2 1-.5 1.6-.5.6-.2.8 0 1.1.2.2.4.5 1.1 0 .5-.3 1.1-.6 1.4-.6.2.2.2 1 .1 1.6-.2.8.1.9.4 1 .3.1.6.3 1-.4.3-.5.7-1 1.1-1.1.3.1.6.8.7 1.5.1.8.5.7.8.7.3 0 .7 0 .8-.7.1-.6.3-1.2.6-1.4.3 0 .9.5 1.2 1.1.4.7.7.5 1 .4.3-.1.6-.2.4-1-.1-.5-.2-1.2 0-1.5.3-.1 1 .2 1.6.5.6.5.9.2 1.1 0 .2-.2.5-.4 0-1.1-.3-.4-.6-1-.6-1.3.3-.1.9 0 1.4.1.8.3.9-.1 1-.4.1-.3.3-.6-.3-1-.5-.4-1-.9-1-1.3.2-.3.9-.5 1.4-.5.8-.1.8-.4.8-.7 0-.3.1-.7-.7-.8-.6-.1-1.3-.5-1.4-.8.1-.3.6-.8 1.1-1 .7-.4.5-.7.4-1-.1-.3-.2-.6-1-.5-.6.1-1.4.1-1.6-.2 0-.4.3-.9.6-1.4.5-.6.2-.8 0-1.1-.3-.4-.5-.7-1.1-.3zM243.6 76c-2.2 2.2-5.8 2.2-8.1 0-2.2-2.2-2.2-5.9 0-8.1 2.2-2.2 5.8-2.2 8.1 0 2.2 2.2 2.2 5.8 0 8.1z"/>
		<path fill="#7786BE" d="M237.2 69.6a3.32 3.32 0 0 0 0 4.7c1.3 1.3 3.4 1.3 4.7 0 1.3-1.3 1.3-3.4 0-4.7a3.32 3.32 0 0 0-4.7 0zm3.8 3.8c-.8.8-2.1.8-2.9 0-.8-.8-.8-2.1 0-2.9.8-.8 2.1-.8 2.9 0 .8.8.8 2.1 0 2.9zM211.6 129c-1.5 1.5-1.5 4 0 5.5s4 1.5 5.5 0 1.5-4 0-5.5c-1.5-1.6-4-1.6-5.5 0zm3.9 3.9c-.6.6-1.7.6-2.3 0-.6-.6-.6-1.7 0-2.3.6-.6 1.7-.6 2.3 0 .7.6.7 1.6 0 2.3zm-50.8-37.4c-.5.4-1.3.6-1.6.5-.1-.3-.1-1 0-1.5.2-.8-.1-.9-.4-1-.3-.1-.6-.3-1 .4-.4.5-.9 1.1-1.3 1.1-.3-.2-.5-.9-.6-1.4-.1-.8-.4-.8-.7-.8-.3 0-.7-.1-.8.7-.1.6-.4 1.4-.8 1.5-.3-.1-.8-.6-1-1.1-.4-.7-.7-.5-1-.4-.3.1-.6.2-.4 1 .1.6.1 1.4-.1 1.6-.4 0-1-.3-1.4-.6-.6-.5-.9-.2-1.1 0-.2.2-.5.4 0 1.1.3.4.5 1 .5 1.4-.3.1-1 .1-1.5 0-.8-.2-.9.1-1 .4-.1.3-.3.6.4 1 .5.3.9.8 1.1 1.1-.1.3-.9.6-1.5.7-.8.1-.7.5-.7.8 0 .3-.1.7.7.8.6.1 1.2.3 1.4.6 0 .3-.6.9-1.1 1.2-.7.4-.5.7-.4 1 .1.3.2.6 1 .4.5-.1 1.2-.1 1.5 0 .1.3-.2 1-.5 1.6-.5.6-.2.8 0 1.1.2.2.4.5 1.1 0 .5-.3 1.1-.6 1.4-.6.2.2.2 1 .1 1.6-.2.8.1.9.4 1 .3.1.6.3 1-.4.3-.5.7-1 1.1-1.1.3.1.6.8.7 1.5.1.8.5.7.8.7.3 0 .7 0 .8-.7.1-.6.3-1.2.6-1.4.3 0 .9.5 1.2 1.1.4.7.7.5 1 .4.3-.1.6-.2.4-1-.1-.5-.2-1.2 0-1.5.3-.1 1 .2 1.6.5.6.5.9.2 1.1 0 .2-.2.5-.4 0-1.1-.3-.4-.6-.9-.6-1.3.3-.1.9 0 1.4.1.8.2.9-.1 1-.4.1-.3.3-.6-.3-1-.5-.4-1-.9-1-1.3.2-.3.9-.5 1.4-.5.8-.1.8-.4.8-.7 0-.3.1-.7-.7-.8-.6-.1-1.3-.5-1.4-.8.1-.3.6-.8 1.1-1 .7-.4.5-.7.4-1-.1-.3-.2-.6-1-.5-.6.1-1.4.1-1.6-.2 0-.4.3-.9.6-1.4.5-.6.2-.8 0-1.1-.2-.5-.4-.8-1.1-.3zm-1.6 10.5c-2.2 2.2-5.9 2.2-8.1 0-2.2-2.2-2.2-5.8 0-8.1 2.2-2.2 5.8-2.2 8.1 0s2.3 5.8 0 8.1z"/>

<path d="m156.7,104.2zm21,14.7c-0.8,0.5 -2,0.8 -2.3,0.5c-0.1,-0.5 0.1,-1.4 0.5,-2.2c0.5,-1 0.1,-1.3 -0.3,-1.5c-0.3,-0.3 -0.7,-0.6 -1.5,0.2c-0.7,0.7 -1.7,1.3 -2.1,1.1c-0.2,-0.4 -0.3,-1.4 -0.1,-2.2c0.3,-1.1 -0.2,-1.2 -0.7,-1.4c-0.4,-0.2 -0.9,-0.4 -1.4,0.6c-0.5,0.8 -1.3,1.7 -1.8,1.6c-0.4,-0.3 -0.6,-1.3 -0.7,-2.1c0,-1.1 -0.6,-1.1 -1,-1.2c-0.4,0 -0.9,-0.2 -1.2,0.9c-0.3,0.9 -0.8,2 -1.3,2c-0.4,-0.3 -0.9,-1.1 -1.2,-1.9c-0.3,-1.1 -0.8,-0.9 -1.3,-0.9c-0.4,0.1 -0.9,0.1 -0.9,1.2c0,1 -0.3,2.1 -0.7,2.3c-0.5,-0.1 -1.2,-0.8 -1.6,-1.5c-0.6,-1 -1,-0.7 -1.4,-0.5c-0.4,0.2 -0.9,0.3 -0.6,1.4c0.2,0.9 0.3,2.1 -0.1,2.4c-0.5,0 -1.3,-0.5 -2,-1c-0.8,-0.8 -1.2,-0.4 -1.5,-0.1c-0.3,0.3 -0.8,0.5 -0.2,1.5c0.4,0.8 0.8,1.8 0.6,2.3c-0.4,0.2 -1.5,0 -2.3,-0.3c-1,-0.5 -1.2,0 -1.5,0.3c-0.2,0.4 -0.6,0.8 0.3,1.5c0.6,0.6 1.2,1.4 1.2,1.9c-0.3,0.4 -1.4,0.5 -2.4,0.3c-1.1,-0.2 -1.2,0.3 -1.3,0.7c-0.1,0.4 -0.4,0.9 0.7,1.4c0.7,0.4 1.5,1 1.7,1.5c-0.1,0.5 -1.2,0.9 -2.2,1c-1.1,0.1 -1.1,0.6 -1.1,1s-0.1,0.9 1,1.2c0.8,0.2 1.7,0.6 2,1c0,0.5 -1,1.1 -1.9,1.5c-1.1,0.4 -0.9,0.9 -0.8,1.3c0.1,0.4 0.1,0.9 1.3,0.9c0.8,0 1.8,0.1 2.2,0.5c0.1,0.5 -0.7,1.4 -1.4,1.9c-1,0.6 -0.7,1.1 -0.5,1.4c0.2,0.4 0.4,0.9 1.4,0.5c0.8,-0.2 1.8,-0.3 2.2,-0.1c0.2,0.4 -0.3,1.5 -0.9,2.2c-0.8,0.9 -0.4,1.2 -0.1,1.5c0.3,0.3 0.6,0.8 1.5,0.1c0.7,-0.4 1.6,-0.8 2.1,-0.7c0.3,0.3 0.1,1.5 -0.3,2.4c-0.5,1 0,1.2 0.3,1.5c0.4,0.2 0.8,0.6 1.5,-0.3c0.6,-0.6 1.4,-1.2 1.9,-1.2c0.4,0.3 0.5,1.4 0.3,2.4c-0.2,1.1 0.3,1.2 0.7,1.3c0.4,0.1 0.9,0.4 1.4,-0.7c0.4,-0.7 1,-1.5 1.5,-1.6c0.5,0.1 0.9,1.2 1,2.2c0.1,1.1 0.6,1.1 1,1.1s0.9,0.1 1.2,-1c0.2,-0.8 0.6,-1.7 1,-2c0.5,0 1.1,1 1.5,1.9c0.4,1.1 0.9,0.9 1.3,0.8c0.4,-0.1 0.9,-0.1 0.9,-1.3c0,-0.8 0.1,-1.8 0.4,-2.2c0.5,-0.1 1.4,0.7 1.9,1.4c0.6,0.9 1.1,0.7 1.4,0.5c0.4,-0.2 0.9,-0.4 0.5,-1.4c-0.2,-0.8 -0.3,-1.8 -0.1,-2.2c0.4,-0.2 1.5,0.3 2.2,0.9c0.9,0.8 1.2,0.4 1.5,0.1c0.3,-0.3 0.8,-0.6 0.1,-1.5c-0.5,-0.7 -0.8,-1.7 -0.7,-2.2c0.4,-0.2 1.5,0.1 2.3,0.5c1,0.5 1.3,0.1 1.5,-0.3c0.3,-0.3 0.6,-0.7 -0.2,-1.5c-0.7,-0.7 -1.3,-1.7 -1.1,-2.1c0.4,-0.3 1.4,-0.3 2.2,-0.1c1.1,0.3 1.2,-0.2 1.4,-0.7c0.2,-0.4 0.4,-0.9 -0.6,-1.4c-0.8,-0.5 -1.7,-1.3 -1.6,-1.8c0.3,-0.4 1.3,-0.6 2.1,-0.7c1.1,0 1.1,-0.6 1.2,-1c0,-0.4 0.2,-0.9 -0.9,-1.2c-0.9,-0.2 -2,-0.8 -2,-1.3c0.3,-0.4 1.1,-0.9 1.9,-1.2c1.1,-0.3 0.9,-0.8 0.9,-1.3c-0.1,-0.4 -0.1,-0.9 -1.2,-0.9c-1,0 -2.1,-0.3 -2.3,-0.7c0.1,-0.5 0.8,-1.2 1.5,-1.6c1,-0.6 0.7,-1 0.5,-1.4c-0.2,-0.4 -0.3,-0.9 -1.4,-0.6c-0.9,0.2 -2.1,0.3 -2.4,-0.1c0,-0.5 0.5,-1.3 1,-2c0.8,-0.8 0.4,-1.2 0.1,-1.5c-0.4,-0.2 -0.7,-0.6 -1.7,0zm-4.5,22.2c-5.5,4.6 -13.6,4 -18.3,-1.5c-4.6,-5.5 -4,-13.6 1.5,-18.3c5.5,-4.6 13.6,-4 18.3,1.5c4.6,5.5 4,13.6 -1.5,18.3z" fill="#7786BE" class="gear-left"/>

		  <path d="m159.4,135.8zm110.1,-53.2c-0.9,0.7 -2.3,1.2 -2.9,1c-0.2,-0.6 -0.1,-1.9 0.2,-2.9c0.5,-1.4 -0.1,-1.7 -0.6,-1.9c-0.5,-0.3 -1.1,-0.7 -1.9,0.6c-0.7,0.9 -1.8,1.9 -2.4,1.9c-0.4,-0.5 -0.7,-1.7 -0.7,-2.8c0.1,-1.5 -0.6,-1.5 -1.2,-1.6c-0.6,-0.1 -1.2,-0.3 -1.6,1.1c-0.4,1.1 -1.1,2.3 -1.7,2.5c-0.6,-0.4 -1.2,-1.5 -1.5,-2.5c-0.4,-1.4 -1.1,-1.3 -1.6,-1.2c-0.6,0.1 -1.2,0.1 -1.2,1.6c0,1.2 -0.4,2.5 -0.9,2.9c-0.6,-0.2 -1.5,-1 -2.2,-1.9c-0.8,-1.3 -1.4,-0.9 -1.9,-0.6c-0.5,0.2 -1.2,0.5 -0.7,1.9c0.3,1.1 0.4,2.5 0.1,3.1c-0.7,0 -1.8,-0.5 -2.6,-1.1c-1.2,-0.9 -1.6,-0.4 -2,0c-0.4,0.4 -1,0.8 -0.1,2c0.7,1.1 1.3,2.5 0.9,3c-0.3,0.5 -1.9,0.5 -3.2,0.2c-1.4,-0.4 -1.6,0.2 -1.9,0.7c-0.2,0.5 -0.6,1.1 0.7,1.9c0.9,0.6 1.8,1.5 2,2.1c-0.4,0.5 -1.7,0.9 -2.9,1c-1.5,0 -1.5,0.7 -1.5,1.3c-0.1,0.6 -0.2,1.2 1.2,1.6c1,0.3 2.1,0.9 2.5,1.4c-0.2,0.6 -1.4,1.4 -2.5,1.8c-1.4,0.5 -1.2,1.1 -1.1,1.7c0.1,0.6 0.2,1.3 1.7,1.1c1,0 2.3,0.2 2.8,0.6c0,0.6 -0.9,1.8 -1.8,2.5c-1.2,0.9 -0.8,1.4 -0.5,1.9c0.3,0.5 0.5,1.1 1.9,0.6c1,-0.4 2.2,-0.5 2.8,-0.3c0.2,0.6 -0.3,1.9 -0.9,2.9c-0.9,1.2 -0.3,1.6 0.1,2c0.4,0.4 0.9,0.9 2,0c0.8,-0.6 1.9,-1.2 2.6,-1.2c0.4,0.5 0.3,1.9 0,3.1c-0.5,1.4 0.2,1.6 0.7,1.9c0.5,0.2 1.1,0.6 1.9,-0.6c0.6,-0.9 1.5,-1.7 2.1,-1.9c0.5,0.4 0.9,1.8 0.9,2.9c0,1.5 0.7,1.5 1.2,1.6c0.6,0.1 1.2,0.3 1.6,-1.2c0.3,-1 0.9,-2.1 1.4,-2.5c0.6,0.2 1.4,1.4 1.8,2.5c0.5,1.4 1.1,1.2 1.7,1.1c0.6,-0.1 1.3,-0.1 1.2,-1.6c0,-1 0.2,-2.3 0.6,-2.8c0.6,0 1.7,0.9 2.4,1.8c0.9,1.2 1.4,0.8 1.9,0.5c0.5,-0.3 1.2,-0.5 0.6,-1.9c-0.3,-1 -0.5,-2.2 -0.3,-2.9c0.6,-0.2 1.9,0.3 2.9,1c1.2,0.9 1.6,0.3 2,-0.1c0.4,-0.4 0.9,-0.8 0,-2c-0.7,-1 -1.4,-2.4 -1.1,-2.9c0.3,-0.5 1.9,-0.4 3.2,-0.1c1.4,0.5 1.6,-0.2 1.9,-0.7c0.3,-0.5 0.6,-1.1 -0.6,-1.9c-0.9,-0.7 -1.9,-1.7 -1.9,-2.4c0.5,-0.4 1.7,-0.7 2.8,-0.7c1.5,0 1.5,-0.7 1.6,-1.2c0.1,-0.6 0.3,-1.2 -1.2,-1.6c-1.1,-0.4 -2.3,-1.1 -2.6,-1.7c0.4,-0.6 1.4,-1.2 2.4,-1.5c1.4,-0.4 1.2,-1.1 1.1,-1.7c-0.1,-0.6 -0.1,-1.2 -1.6,-1.2c-1.2,0 -2.6,-0.3 -2.9,-0.8c0.2,-0.6 1,-1.6 1.9,-2.2c1.2,-0.8 0.8,-1.4 0.6,-1.9c-0.3,-0.5 -0.5,-1.2 -1.9,-0.6c-1.1,0.4 -2.5,0.5 -3.1,0.1c0,-0.7 0.5,-1.8 1.1,-2.6c0.9,-1.2 0.4,-1.6 0,-2c-0.2,-0.6 -0.6,-1.1 -1.8,-0.2zm-3,24.6c-5.3,5.3 -13.9,5.3 -19.2,0c-5.3,-5.3 -5.3,-13.9 0,-19.2c5.3,-5.3 13.9,-5.3 19.2,0c5.3,5.3 5.3,13.9 0,19.2z" fill="#7786BE" class="gear-right"/>
		<path fill="#7786BE" d="M251.8 92.6c-2.8 2.8-2.8 7.3 0 10.1s7.3 2.8 10.1 0 2.8-7.3 0-10.1-7.3-2.8-10.1 0zm8.2 8.2c-1.7 1.7-4.6 1.7-6.3 0-1.7-1.7-1.7-4.6 0-6.3 1.7-1.7 4.6-1.7 6.3 0 1.8 1.7 1.8 4.5 0 6.3zm-70.5-8.9s.1 0 .2-.1l.1-.1s-.1 0-.2.1l-.1.1z"/>

		<g class='gear-center'>
			<path fill="#7786BE" d="M226.6 73.3c-.6.4-1.4.7-1.9.7-.2-.2-.4-.5-.7-.7 0-.5.4-1.3.8-1.9.7-.9.2-1.3-.2-1.6-.3-.3-.7-.8-1.6 0-.6.5-1.3.9-1.8 1-.3-.2-.5-.4-.8-.6 0-.5.2-1.3.5-2 .5-1-.1-1.3-.4-1.5-.4-.2-.8-.6-1.6.2-.5.5-1.1 1.1-1.6 1.2-.3-.2-.6-.3-.9-.5-.1-.5 0-1.3.2-2 .3-1.1-.3-1.3-.7-1.4-.4-.2-.9-.5-1.5.5-.4.6-1 1.2-1.4 1.5l-.9-.3c-.2-.5-.2-1.3-.2-2 .2-1.1-.5-1.2-.9-1.3-.4-.1-1-.3-1.4.7-.3.7-.7 1.4-1.2 1.7-.3-.1-.6-.1-1-.2-.3-.4-.4-1.3-.5-2 0-1.1-.6-1.1-1.1-1.2-.4 0-1-.2-1.3.9-.2.7-.5 1.5-.9 1.8h-1c-.3-.4-.6-1.2-.8-1.9-.2-1.1-.8-1-1.2-1-.4 0-1 0-1.1 1.1-.1.7-.3 1.5-.6 2-.3 0-.6.1-1 .1-.4-.3-.8-1.1-1.1-1.7-.4-1.1-1-.9-1.4-.8-.4.1-1 .1-.9 1.3 0 .7 0 1.6-.3 2l-.9.3c-.4-.3-1-.9-1.3-1.5-.5-1-1.1-.7-1.5-.6-.4.2-1 .3-.7 1.4.1.7.2 1.5.1 2-.3.1-.6.3-.9.4-.5-.2-1.1-.8-1.5-1.3-.7-.9-1.2-.5-1.6-.3-.4.2-.9.5-.5 1.5.3.7.5 1.5.4 2-.3.2-.5.4-.8.6-.5-.1-1.2-.6-1.7-1.1-.8-.8-1.3-.4-1.6-.1-.3.3-.9.6-.3 1.6.4.6.7 1.4.7 1.9-.2.2-.5.4-.7.7-.5 0-1.3-.4-1.9-.8-.9-.6-1.3-.1-1.6.2-.3.3-.8.7 0 1.6.5.6.9 1.3 1 1.8-.2.3-.4.5-.6.8-.5 0-1.3-.2-2-.5-1-.5-1.3.1-1.5.4-.2.4-.6.8.2 1.6.5.5 1.1 1.1 1.2 1.6-.2.3-.3.6-.5.9-.5.1-1.3 0-2-.2-1.1-.3-1.3.3-1.4.7-.2.4-.5.9.5 1.5.6.4 1.3 1 1.5 1.4l-.3.9c-.5.2-1.3.2-2 .2-1.1-.2-1.2.5-1.3.9-.1.4-.3 1 .7 1.4.7.3 1.4.7 1.7 1.2-.1.3-.1.6-.2 1-.4.3-1.3.4-2 .5-1.1 0-1.1.6-1.2 1.1 0 .4-.2 1 .9 1.3.7.2 1.5.5 1.8.9v1c-.4.3-1.2.6-1.9.8-1.1.2-1 .8-1 1.2 0 .4 0 1 1.1 1.1.7.1 1.5.3 2 .6 0 .3.1.6.1 1-.3.4-1.1.8-1.7 1.1-1.1.4-.9 1-.8 1.4.1.4.1 1 1.3.9.7 0 1.6 0 2 .3l.3.9c-.3.4-.9 1-1.5 1.3-1 .5-.7 1.1-.6 1.5.2.4.3 1 1.4.7.7-.1 1.5-.2 2-.1.1.3.3.6.4.9-.2.5-.8 1.1-1.3 1.5-.9.7-.5 1.2-.3 1.6.2.4.5.9 1.5.5.7-.3 1.5-.5 2-.4.2.3.4.5.6.8-.1.5-.6 1.2-1.1 1.7-.8.8-.3 1.3-.1 1.6.3.3.6.9 1.6.3.6-.4 1.4-.7 1.9-.7.2.2.4.5.7.7 0 .5-.4 1.3-.8 1.9-.7.9-.1 1.3.2 1.6.3.3.7.8 1.6 0 .6-.5 1.3-.9 1.8-1 .3.2.5.4.8.6 0 .5-.2 1.3-.5 2-.5 1 .1 1.3.4 1.5.4.2.8.6 1.6-.2.5-.5 1.1-1.1 1.6-1.2.3.2.6.3.9.5.1.5 0 1.3-.2 2-.3 1.1.3 1.3.7 1.4.4.2.9.5 1.5-.5.4-.6 1-1.2 1.4-1.5l.9.3c.2.5.2 1.3.2 2-.2 1.1.5 1.2.9 1.3.4.1 1 .3 1.4-.7.3-.7.8-1.4 1.2-1.7.3.1.6.1 1 .2.3.4.4 1.3.5 2 0 1.1.6 1.1 1.1 1.2.4.1 1 .2 1.3-.9.2-.7.5-1.5.9-1.8h1c.3.4.6 1.2.8 1.9.2 1.1.8 1 1.2 1 .4 0 1 0 1.1-1.1.1-.7.3-1.5.6-2 .3 0 .6-.1 1-.1.4.3.8 1.1 1.1 1.7.4 1.1 1 .9 1.4.8.4-.1 1-.1.9-1.3 0-.7 0-1.6.3-2l.9-.3c.4.3 1 .9 1.3 1.5.5 1 1.1.7 1.5.6.4-.2 1-.3.7-1.4-.1-.7-.2-1.5-.1-2 .3-.1.6-.3.9-.4.5.2 1.1.8 1.5 1.3.7.9 1.2.5 1.6.3.4-.2.9-.5.5-1.5-.3-.7-.4-1.5-.4-2 .3-.2.5-.4.8-.6.5.1 1.2.6 1.7 1.1.8.8 1.3.3 1.6.1.3-.3.9-.6.3-1.6-.4-.6-.7-1.4-.7-1.9.2-.2.5-.4.7-.7.5 0 1.3.4 1.9.8.9.6 1.3.1 1.6-.2.3-.3.8-.7 0-1.6-.5-.6-.9-1.3-1-1.8.2-.3.4-.5.6-.8.5 0 1.3.2 2 .5 1 .5 1.3-.1 1.5-.4.2-.4.6-.8-.2-1.6-.5-.5-1.1-1.1-1.2-1.6.2-.3.3-.6.5-.9.5-.1 1.3 0 2 .2 1.1.3 1.3-.3 1.4-.7.2-.4.5-.9-.5-1.5-.6-.4-1.2-1-1.5-1.4l.3-.9c.5-.2 1.3-.2 2-.2 1.1.2 1.2-.5 1.3-.9.1-.4.3-1-.7-1.4-.7-.3-1.4-.7-1.7-1.2.1-.3.1-.6.2-1 .4-.3 1.3-.4 2-.5 1.1 0 1.1-.6 1.2-1.1 0-.4.2-1-.9-1.3-.7-.2-1.5-.5-1.8-.9v-1c.4-.3 1.2-.6 1.9-.8 1.1-.2 1-.8 1-1.2 0-.4 0-1-1.1-1.1-.7-.1-1.6-.3-2-.6 0-.3-.1-.6-.1-1 .3-.4 1.1-.8 1.7-1.1 1.1-.4.9-1 .8-1.4-.1-.4-.1-1-1.3-.9-.7 0-1.6 0-2-.3l-.3-.9c.3-.4.9-1 1.5-1.3 1-.5.7-1.1.6-1.5-.1-.4-.3-1-1.4-.7-.7.1-1.5.2-2 .1-.1-.3-.3-.6-.4-.9.2-.5.8-1.1 1.3-1.5.9-.7.5-1.2.3-1.6-.2-.4-.5-.9-1.5-.5-.7.3-1.5.5-2 .4-.2-.3-.4-.5-.6-.8.1-.5.6-1.2 1.1-1.7.8-.8.3-1.3.1-1.6-.3-.4-.6-.9-1.6-.3zm-7 41.9c-11.6 9.4-28.6 7.6-37.9-4-9.4-11.6-7.6-28.6 4-37.9 11.6-9.4 28.6-7.6 37.9 4 9.4 11.5 7.6 28.5-4 37.9z"/>
		</g>
		<path fill="#7786BE" d="M197.1 87.4c-3.8 3.1-4.3 8.6-1.3 12.4 3.1 3.8 8.6 4.3 12.4 1.3 3.8-3.1 4.3-8.6 1.3-12.4-3.1-3.7-8.6-4.3-12.4-1.3zm9 11.1c-2.3 1.9-5.8 1.5-7.7-.8-1.9-2.3-1.5-5.8.8-7.7 2.3-1.9 5.8-1.5 7.7.8 1.9 2.4 1.5 5.8-.8 7.7z"/>
		<path class='gear-bottom' fill="#7786BE" d="M197.1 87.4c-3.8 3.1-4.3 8.6-1.3 12.4 3.1 3.8 8.6 4.3 12.4 1.3 3.8-3.1 4.3-8.6 1.3-12.4-3.1-3.7-8.6-4.3-12.4-1.3zm9 11.1c-2.3 1.9-5.8 1.5-7.7-.8-1.9-2.3-1.5-5.8.8-7.7 2.3-1.9 5.8-1.5 7.7.8 1.9 2.4 1.5 5.8-.8 7.7zm-.9 34.3c-.6.4-1.5.6-1.9.5-.1-.4.1-1.2.3-1.8.4-.9 0-1-.3-1.2-.3-.2-.6-.5-1.2.2-.5.5-1.2 1.1-1.6 1-.2-.4-.3-1.1-.2-1.8.1-.9-.3-1-.6-1.1-.3-.1-.7-.3-1.1.6-.3.7-.9 1.4-1.2 1.5-.3-.3-.6-1-.8-1.6-.2-.9-.6-.9-.9-.8-.4 0-.8 0-.9.9-.1.7-.4 1.6-.7 1.8-.4-.2-.9-.8-1.2-1.3-.4-.8-.8-.6-1.2-.5-.3.1-.8.2-.5 1.1.1.7.1 1.6-.2 1.9-.4 0-1.1-.4-1.6-.9-.7-.7-1-.4-1.3-.1-.3.2-.7.4-.2 1.2.4.7.6 1.7.4 2-.3.3-1.3.2-2-.1-.9-.4-1 0-1.2.3-.2.3-.5.7.3 1.2.5.4 1 1 1.1 1.4-.3.3-1.1.5-1.9.4-.9-.1-1 .3-1 .7-.1.3-.2.8.7 1.1.6.2 1.3.7 1.5 1-.2.4-1 .8-1.7 1-.9.2-.8.6-.8 1s0 .8 1 .8c.7 0 1.4.3 1.7.5 0 .4-.7 1-1.3 1.4-.8.5-.6.8-.4 1.2.1.3.3.8 1.2.5.6-.2 1.4-.2 1.8 0 .1.4-.3 1.2-.8 1.8-.6.7-.3 1-.1 1.3.2.3.5.6 1.3.1.6-.3 1.3-.6 1.7-.6.2.3.1 1.2-.2 1.9-.4.9 0 1 .3 1.2.3.2.6.5 1.2-.3.4-.5 1-1 1.5-1.1.3.3.4 1.2.4 1.9-.1.9.3 1 .7 1.1.3.1.8.2 1.1-.6.3-.6.7-1.3 1.1-1.5.4.2.8 1 .9 1.7.2.9.6.8 1 .8s.8 0 .8-.9c.1-.7.3-1.4.6-1.7.4 0 1 .7 1.4 1.3.5.8.8.6 1.2.5.3-.1.8-.2.5-1.2-.1-.6-.2-1.4 0-1.8.4-.1 1.2.3 1.7.8.7.6 1 .3 1.3.1.3-.2.6-.5.1-1.3-.4-.7-.7-1.6-.5-1.9.2-.3 1.2-.1 2 .2.9.4 1 0 1.2-.3.2-.3.5-.6-.3-1.2-.5-.5-1.1-1.2-1-1.6.3-.2 1.1-.3 1.8-.3.9.1 1-.3 1.1-.7.1-.3.3-.7-.6-1.1-.7-.3-1.4-.8-1.5-1.2.3-.3 1-.6 1.6-.8.9-.2.8-.6.8-1s0-.8-.9-.9c-.7-.1-1.6-.4-1.8-.7.2-.4.7-.9 1.3-1.2.8-.4.6-.8.5-1.2-.1-.3-.2-.8-1.1-.5-.7.1-1.6.1-1.9-.1 0-.4.4-1.1.9-1.6.7-.7.3-1 .1-1.3-.5-.2-.7-.6-1.5-.1zm-3.5 15.2c-3.7 3-9.1 2.4-12.1-1.3s-2.4-9.1 1.3-12.1 9.1-2.4 12.1 1.3 2.4 9.1-1.3 12.1z"/>
		<path fill="#7786BE" d="M193.5 137.9c-1.9 1.6-2.2 4.4-.7 6.3 1.6 1.9 4.4 2.2 6.3.7 1.9-1.6 2.2-4.4.7-6.3-1.5-2-4.4-2.3-6.3-.7zm4.6 5.6c-1.2 1-3 .8-3.9-.4-1-1.2-.8-3 .4-3.9 1.2-1 3-.8 3.9.4 1 1.2.8 3-.4 3.9zm44.6-20.2c-.5-.1-1-.3-1.1-.6.1-.2.5-.6.8-.8.5-.3.4-.5.3-.7-.1-.2-.1-.5-.7-.3-.5.1-1.1.1-1.2-.1 0-.3.2-.7.5-1 .4-.5.2-.6 0-.8-.2-.2-.3-.4-.8 0-.4.3-.9.5-1.2.4-.1-.2-.1-.7 0-1.1.2-.6-.1-.6-.3-.7-.2-.1-.4-.2-.7.3-.3.4-.7.8-.9.8-.2-.2-.4-.6-.4-1.1-.1-.6-.3-.6-.6-.6-.2 0-.5 0-.6.5-.1.4-.2.8-.4 1-.2-.1-.6-.5-.8-.8-.3-.5-.5-.4-.7-.3-.2.1-.5.1-.3.7.1.4.1.9 0 1.1-.2.1-.8-.1-1.2-.4-.5-.4-.6-.2-.8 0-.2.2-.4.3 0 .8.2.3.4.8.4 1.1-.2.2-.8.2-1.2.1-.6-.2-.6.1-.7.3-.1.2-.2.4.3.7.4.2.7.6.8.8-.1.2-.6.5-1.1.5-.6.1-.6.3-.5.6 0 .2 0 .5.6.6.4.1.9.2 1 .4 0 .2-.4.7-.8.9-.5.3-.4.5-.3.7.1.2.2.5.7.3.4-.1.9-.1 1.1 0 .1.2-.1.8-.4 1.2-.4.5-.1.6 0 .8.2.2.3.4.8 0 .3-.2.8-.5 1-.4.2.2.2.8.1 1.2-.1.6.1.6.3.7.2.1.4.2.7-.3.2-.4.5-.7.8-.8.2.1.5.6.6 1.1.1.6.4.5.6.5.2 0 .5 0 .6-.6.1-.4.2-.8.4-1 .2.1.5.5.7.8.3.5.5.4.7.3.2-.1.5-.1.3-.7-.1-.5-.1-1.1.1-1.2.3 0 .7.2 1 .5.5.4.6.2.8 0 .2-.1.4-.3 0-.8-.3-.4-.5-1-.3-1.2.2-.1.7-.1 1.1 0 .6.2.7-.1.7-.3.1-.2.2-.4-.3-.7-.4-.3-.8-.7-.8-1 .2-.2.6-.3 1.1-.4.6-.1.6-.3.6-.6.1 0 .2-.3-.4-.4zm9.5-1.2c-.3-.1-.6-.2-.7-.4.1-.2.3-.4.5-.5.3-.2.2-.3.2-.5 0-.1-.1-.3-.4-.2-.3.1-.7 0-.8-.1 0-.2.1-.4.3-.6.2-.3.1-.4 0-.5-.1-.1-.2-.2-.5 0-.2.2-.6.3-.7.2-.1-.1-.1-.5 0-.7.1-.4-.1-.4-.2-.5-.1-.1-.3-.1-.5.2-.2.2-.4.5-.6.5-.1-.1-.2-.4-.3-.7 0-.4-.2-.3-.3-.4-.1 0-.3 0-.4.3 0 .2-.2.5-.3.6-.2-.1-.3-.3-.5-.5-.2-.3-.3-.2-.5-.2-.1.1-.3.1-.2.5.1.3.1.6 0 .7-.1.1-.5-.1-.7-.3-.3-.2-.4-.1-.5 0-.1.1-.2.2 0 .5.2.2.3.5.3.7-.1.1-.5.1-.8 0-.4-.1-.4.1-.5.2-.1.1-.1.3.2.5.2.1.4.3.5.5-.1.1-.4.3-.7.3-.4 0-.3.2-.3.4 0 .1 0 .3.3.4.3 0 .5.2.7.3 0 .2-.3.4-.5.6-.3.2-.2.3-.2.5.1.1.1.3.5.2.3-.1.6-.1.7 0 .1.1-.1.5-.2.7-.2.3-.1.4 0 .5.1.1.2.2.5 0 .2-.2.5-.3.7-.3.1.1.1.5.1.8-.1.4.1.4.2.4.1.1.3.1.5-.2.1-.2.3-.4.5-.5.1.1.3.4.3.7.1.4.2.3.4.3.1 0 .3 0 .3-.4 0-.2.1-.5.2-.6.1.1.3.3.4.5.2.3.3.3.5.2.1 0 .3-.1.2-.4-.1-.3 0-.7.1-.8.2 0 .4.1.6.3.3.2.4.1.5 0 .1-.1.2-.2 0-.5s-.3-.6-.2-.7c.1-.1.5 0 .7 0 .4.1.4-.1.5-.2.1-.1.2-.3-.2-.5-.2-.2-.5-.4-.5-.6.1-.1.4-.2.7-.2.4 0 .4-.2.4-.3 0 0 0-.1-.3-.2zm-26.9 7.5l-3.6-2.7c-.5.9-.3 2.2.5 2.9.9.8 2.2.7 3.1-.2zm-.3-3.3c-.9-.8-2.3-.7-3.1.2l3.6 2.7c.6-.9.4-2.2-.5-2.9zm4.4-56.8l-3.6-2.7c-.5.9-.3 2.2.5 2.9.9.8 2.3.7 3.1-.2zm-.2-3.3c-.9-.8-2.3-.7-3.1.2l3.6 2.7c.6-.9.4-2.2-.5-2.9zm-61.9 26.2l-3.6-2.7c-.5.9-.3 2.2.5 2.9 1 .7 2.3.6 3.1-.2zm-.2-3.3c-.9-.8-2.3-.7-3.1.2l3.6 2.7c.6-1 .4-2.2-.5-2.9zm14.2 61.1l-3.6-2.7c-.5.9-.3 2.2.5 2.9 1 .7 2.3.6 3.1-.2zm-.2-3.3c-.9-.8-2.3-.7-3.1.2l3.6 2.7c.6-1 .4-2.2-.5-2.9zm35.1-4.1l-3.6-2.7c-.5.9-.3 2.2.5 2.9 1 .8 2.3.7 3.1-.2zm-.2-3.3c-.9-.8-2.3-.7-3.1.2l3.6 2.7c.6-1 .4-2.2-.5-2.9zm-50.4-62c-2.3 0-4.1 1.8-4.1 4s1.8 4 4.1 4 4.1-1.8 4.1-4-1.8-4-4.1-4zm70.4 32c-1.6 0-2.9 1.3-2.9 2.8 0 1.6 1.3 2.8 2.9 2.8 1.6 0 2.9-1.3 2.9-2.8.1-1.5-1.3-2.8-2.9-2.8zm-66.3-1.9c-1.1 0-2 .9-2 2s.9 2 2 2 2-.9 2-2-.9-2-2-2zm17.4 17.9c-1.1 0-2 .9-2 2s.9 2 2 2 2-.9 2-2c0-1.2-.9-2-2-2zm33.5 9.7c-1.1 0-2 .9-2 2s.9 2 2 2 2-.9 2-2-.9-2-2-2zm16.9-53c-1.1 0-2 .9-2 2s.9 2 2 2 2-.9 2-2c.1-1.1-.9-2-2-2z"/>
		<path fill="#7786BE" d="M223.8 133.3c-2.9 0-5.2-2.3-5.2-5.1s2.3-5.1 5.2-5.1c2.9 0 5.2 2.3 5.2 5.1s-2.3 5.1-5.2 5.1zm0-9.1c-2.3 0-4.1 1.8-4.1 4s1.8 4 4.1 4 4.1-1.8 4.1-4-1.8-4-4.1-4zm-16.5 7.4c-1.1 0-1.9-.8-1.9-1.9 0-1 .9-1.9 1.9-1.9 1.1 0 1.9.8 1.9 1.9 0 1-.8 1.9-1.9 1.9zm0-3.4c-.8 0-1.5.7-1.5 1.5s.7 1.5 1.5 1.5 1.5-.7 1.5-1.5-.6-1.5-1.5-1.5z"/>
		<path fill="#7786BE" d="M207.3 130.9c-.7 0-1.2-.5-1.2-1.2s.6-1.2 1.2-1.2c.7 0 1.2.5 1.2 1.2.1.7-.5 1.2-1.2 1.2zm0-2.1c-.5 0-1 .4-1 .9s.4.9 1 .9c.5 0 1-.4 1-.9s-.4-.9-1-.9z"/>
		<path fill="#7786BE" d="M207.3 130.3c-.4 0-.7-.3-.7-.6 0-.4.3-.6.7-.6.4 0 .7.3.7.6 0 .4-.3.6-.7.6zm0-1.1c-.3 0-.5.2-.5.5s.2.5.5.5.5-.2.5-.5-.2-.5-.5-.5zm28.5-21.4c-1.1 0-1.9-.8-1.9-1.9 0-1 .9-1.9 1.9-1.9 1.1 0 1.9.8 1.9 1.9 0 1.1-.9 1.9-1.9 1.9zm0-3.4c-.8 0-1.5.7-1.5 1.5s.7 1.5 1.5 1.5 1.5-.7 1.5-1.5-.7-1.5-1.5-1.5z"/>
		<path fill="#7786BE" d="M235.8 107.1c-.7 0-1.2-.5-1.2-1.2s.6-1.2 1.2-1.2c.7 0 1.2.5 1.2 1.2s-.5 1.2-1.2 1.2zm0-2.1c-.5 0-1 .4-1 .9s.4 1 1 1c.5 0 1-.4 1-1-.1-.5-.5-.9-1-.9z"/>
		<path fill="#7786BE" d="M235.8 106.6c-.4 0-.7-.3-.7-.6 0-.4.3-.6.7-.6.4 0 .7.3.7.6-.1.3-.4.6-.7.6zm0-1.2c-.3 0-.5.2-.5.5s.2.5.5.5.5-.2.5-.5-.2-.5-.5-.5zm-8.4 16.4c-1.1 0-1.9-.8-1.9-1.9 0-1 .9-1.9 1.9-1.9 1.1 0 1.9.8 1.9 1.9 0 1.1-.9 1.9-1.9 1.9zm0-3.3c-.8 0-1.5.7-1.5 1.5s.7 1.5 1.5 1.5 1.5-.7 1.5-1.5-.7-1.5-1.5-1.5z"/>
		<path fill="#7786BE" d="M227.4 121.2c-.7 0-1.2-.5-1.2-1.2s.6-1.2 1.2-1.2c.7 0 1.2.5 1.2 1.2 0 .6-.5 1.2-1.2 1.2zm0-2.2c-.5 0-1 .4-1 .9s.4 1 1 1c.5 0 1-.4 1-1 0-.5-.5-.9-1-.9z"/>
		<path fill="#7786BE" d="M227.4 120.6c-.4 0-.7-.3-.7-.6 0-.4.3-.6.7-.6.4 0 .7.3.7.6-.1.3-.4.6-.7.6zm0-1.2c-.3 0-.5.2-.5.5s.2.5.5.5.5-.2.5-.5c0-.2-.2-.5-.5-.5zM223.2 66c-1.1 0-1.9-.8-1.9-1.9 0-1 .9-1.9 1.9-1.9 1.1 0 1.9.8 1.9 1.9 0 1.1-.8 1.9-1.9 1.9zm0-3.3c-.8 0-1.5.7-1.5 1.5s.7 1.5 1.5 1.5 1.5-.7 1.5-1.5c0-.9-.7-1.5-1.5-1.5z"/>
		<path fill="#7786BE" d="M223.2 65.4c-.7 0-1.2-.5-1.2-1.2s.6-1.2 1.2-1.2c.7 0 1.2.5 1.2 1.2 0 .6-.5 1.2-1.2 1.2zm0-2.2c-.5 0-1 .4-1 .9s.4.9 1 .9c.5 0 1-.4 1-.9s-.5-.9-1-.9z"/>
		<path fill="#7786BE" d="M223.2 64.8c-.4 0-.7-.3-.7-.6 0-.4.3-.6.7-.6.4 0 .7.3.7.6s-.3.6-.7.6zm0-1.2c-.3 0-.5.2-.5.5s.2.5.5.5.5-.2.5-.5c0-.2-.2-.5-.5-.5zm28.1 12.6c-1.1 0-1.9-.8-1.9-1.9 0-1 .9-1.9 1.9-1.9 1.1 0 1.9.8 1.9 1.9 0 1.1-.8 1.9-1.9 1.9zm0-3.3c-.8 0-1.5.7-1.5 1.5s.7 1.5 1.5 1.5 1.5-.7 1.5-1.5-.7-1.5-1.5-1.5z"/>
		<path fill="#7786BE" d="M251.3 75.6c-.7 0-1.2-.5-1.2-1.2s.6-1.2 1.2-1.2c.7 0 1.2.5 1.2 1.2 0 .6-.5 1.2-1.2 1.2zm0-2.2c-.5 0-1 .4-1 .9s.4.9 1 .9c.5 0 1-.4 1-.9s-.5-.9-1-.9z"/>
		<path fill="#7786BE" d="M251.3 75c-.4 0-.7-.3-.7-.6 0-.4.3-.6.7-.6.4 0 .7.3.7.6s-.3.6-.7.6zm0-1.1c-.3 0-.5.2-.5.5s.2.5.5.5.5-.2.5-.5-.2-.5-.5-.5zm-98.6 40.6c-1.1 0-1.9-.8-1.9-1.9 0-1 .9-1.9 1.9-1.9 1.1 0 1.9.8 1.9 1.9.1 1.1-.8 1.9-1.9 1.9zm0-3.3c-.8 0-1.5.7-1.5 1.5s.7 1.5 1.5 1.5 1.5-.7 1.5-1.5c.1-.9-.6-1.5-1.5-1.5z"/>
		<path fill="#7786BE" d="M152.7 113.8c-.7 0-1.2-.5-1.2-1.2s.6-1.2 1.2-1.2c.7 0 1.2.5 1.2 1.2.1.7-.5 1.2-1.2 1.2zm0-2.1c-.5 0-1 .4-1 .9s.4 1 1 1c.5 0 1-.4 1-1 0-.5-.4-.9-1-.9z"/>
		<path fill="#7786BE" d="M152.7 113.3c-.4 0-.7-.3-.7-.6 0-.4.3-.6.7-.6.4 0 .7.3.7.6s-.3.6-.7.6zm0-1.2c-.3 0-.5.2-.5.5s.2.5.5.5.5-.2.5-.5c.1-.3-.2-.5-.5-.5zm19.2-34.9c-1.1 0-1.9-.8-1.9-1.9 0-1 .9-1.9 1.9-1.9 1.1 0 1.9.8 1.9 1.9 0 1-.9 1.9-1.9 1.9zm0-3.4c-.8 0-1.5.7-1.5 1.5s.7 1.5 1.5 1.5 1.5-.7 1.5-1.5-.7-1.5-1.5-1.5z"/>
		<path fill="#7786BE" d="M171.9 76.5c-.7 0-1.2-.5-1.2-1.2s.6-1.2 1.2-1.2c.7 0 1.2.5 1.2 1.2s-.5 1.2-1.2 1.2zm0-2.2c-.5 0-1 .4-1 .9s.4 1 1 1c.5 0 1-.4 1-1 0-.4-.5-.9-1-.9z"/>
		<path fill="#7786BE" d="M171.9 75.9c-.4 0-.7-.3-.7-.6 0-.4.3-.6.7-.6.4 0 .7.3.7.6s-.3.6-.7.6zm0-1.1c-.3 0-.5.2-.5.5s.2.5.5.5.5-.2.5-.5-.2-.5-.5-.5zm39.2 63.9c-.7 0-1.2-.5-1.2-1.2s.5-1.2 1.2-1.2 1.2.5 1.2 1.2c0 .6-.6 1.2-1.2 1.2zm0-2.2c-.5 0-1 .4-1 .9s.4.9 1 .9c.5 0 1-.4 1-.9-.1-.5-.5-.9-1-.9z"/>
		<path fill="#7786BE" d="M211.1 138.2c-.4 0-.8-.3-.8-.8 0-.4.4-.8.8-.8s.8.3.8.8-.4.8-.8.8zm0-1.3c-.3 0-.6.3-.6.6s.3.6.6.6.6-.3.6-.6c0-.4-.3-.6-.6-.6z"/>
		<path fill="#7786BE" d="M211.1 137.9c-.2 0-.4-.2-.4-.4s.2-.4.4-.4.4.2.4.4-.2.4-.4.4zm0-.8c-.2 0-.3.1-.3.3 0 .2.1.3.3.3.2 0 .3-.1.3-.3 0-.1-.1-.3-.3-.3zm19.6-19.9c-.7 0-1.2-.5-1.2-1.2s.5-1.2 1.2-1.2 1.2.5 1.2 1.2c0 .6-.5 1.2-1.2 1.2zm0-2.2c-.5 0-1 .4-1 .9s.4.9 1 .9c.5 0 1-.4 1-.9 0-.4-.5-.9-1-.9z"/>
		<path fill="#7786BE" d="M230.7 116.8c-.4 0-.8-.3-.8-.8 0-.4.4-.8.8-.8s.8.3.8.8c0 .4-.4.8-.8.8zm0-1.4c-.3 0-.6.3-.6.6s.3.6.6.6.6-.3.6-.6c0-.4-.3-.6-.6-.6z"/>
		<path fill="#7786BE" d="M230.7 116.4c-.2 0-.4-.2-.4-.4s.2-.4.4-.4.4.2.4.4-.2.4-.4.4zm0-.7c-.2 0-.3.1-.3.3 0 .2.1.3.3.3.2 0 .3-.1.3-.3 0-.2-.1-.3-.3-.3zm-70.1-24.4c-.7 0-1.2-.5-1.2-1.2s.5-1.2 1.2-1.2 1.2.5 1.2 1.2c0 .6-.6 1.2-1.2 1.2zm0-2.2c-.5 0-1 .4-1 .9s.4.9 1 .9c.5 0 1-.4 1-.9-.1-.5-.5-.9-1-.9z"/>
		<path fill="#7786BE" d="M160.6 90.8c-.4 0-.8-.3-.8-.8 0-.4.4-.8.8-.8s.8.3.8.8-.4.8-.8.8zm0-1.3c-.3 0-.6.3-.6.6s.3.6.6.6.6-.3.6-.6c0-.4-.3-.6-.6-.6z"/>
		<path fill="#7786BE" d="M160.6 90.5c-.2 0-.4-.2-.4-.4s.2-.4.4-.4.4.2.4.4-.2.4-.4.4zm0-.8c-.2 0-.3.1-.3.3 0 .2.1.3.3.3.2 0 .3-.1.3-.3 0-.1-.2-.3-.3-.3zm81.3 27.6c-.7 0-1.2-.5-1.2-1.2s.5-1.2 1.2-1.2 1.2.5 1.2 1.2-.5 1.2-1.2 1.2zm0-2.1c-.5 0-1 .4-1 .9s.4.9 1 .9c.5 0 1-.4 1-.9s-.5-.9-1-.9z"/>
		<path fill="#7786BE" d="M241.9 116.9c-.4 0-.8-.3-.8-.8 0-.4.4-.8.8-.8s.8.3.8.8-.4.8-.8.8zm0-1.4c-.3 0-.6.3-.6.6s.3.6.6.6.6-.3.6-.6-.3-.6-.6-.6z"/>
		<path fill="#7786BE" d="M241.9 116.5c-.2 0-.4-.2-.4-.4s.2-.4.4-.4.4.2.4.4c0 .3-.2.4-.4.4zm0-.7c-.2 0-.3.1-.3.3 0 .2.1.3.3.3.2 0 .3-.1.3-.3 0-.1-.1-.3-.3-.3zm-57.7 9.6c-.7 0-1.2-.5-1.2-1.2s.5-1.2 1.2-1.2 1.2.5 1.2 1.2c.1.6-.5 1.2-1.2 1.2zm0-2.2c-.5 0-1 .4-1 .9s.4.9 1 .9c.5 0 1-.4 1-.9 0-.4-.4-.9-1-.9z"/>
		<path fill="#7786BE" d="M184.2 124.9c-.4 0-.8-.3-.8-.8 0-.4.4-.8.8-.8s.8.3.8.8-.3.8-.8.8zm0-1.3c-.3 0-.6.3-.6.6s.3.6.6.6.6-.3.6-.6c.1-.4-.2-.6-.6-.6z"/>
		<path fill="#7786BE" d="M184.2 124.6c-.2 0-.4-.2-.4-.4s.2-.4.4-.4.4.2.4.4c.1.2-.1.4-.4.4zm0-.8c-.2 0-.3.1-.3.3 0 .2.1.3.3.3.2 0 .3-.1.3-.3.1-.1-.1-.3-.3-.3zm-14.5-18c-.7 0-1.2-.5-1.2-1.2s.5-1.2 1.2-1.2 1.2.5 1.2 1.2c0 .6-.6 1.2-1.2 1.2zm0-2.1c-.5 0-1 .4-1 .9s.4.9 1 .9c.5 0 1-.4 1-.9-.1-.5-.5-.9-1-.9z"/>
		<path fill="#7786BE" d="M169.7 105.4c-.4 0-.8-.3-.8-.8 0-.4.4-.8.8-.8s.8.3.8.8c-.1.4-.4.8-.8.8zm0-1.4c-.3 0-.6.3-.6.6s.3.6.6.6.6-.3.6-.6-.3-.6-.6-.6z"/>
		<path fill="#7786BE" d="M169.7 105c-.2 0-.4-.2-.4-.4s.2-.4.4-.4.4.2.4.4-.2.4-.4.4zm0-.7c-.2 0-.3.1-.3.3 0 .2.1.3.3.3.2 0 .3-.1.3-.3 0-.2-.2-.3-.3-.3zm-4.3 7.6c-.7 0-1.2-.5-1.2-1.2s.5-1.2 1.2-1.2 1.2.5 1.2 1.2-.6 1.2-1.2 1.2zm0-2.1c-.5 0-1 .4-1 .9s.4.9 1 .9c.5 0 1-.4 1-.9-.1-.5-.5-.9-1-.9z"/>
		<path fill="#7786BE" d="M165.4 111.5c-.4 0-.8-.3-.8-.8 0-.4.4-.8.8-.8s.8.3.8.8c0 .4-.4.8-.8.8zm0-1.4c-.3 0-.6.3-.6.6s.3.6.6.6.6-.3.6-.6-.3-.6-.6-.6z"/>
		<path fill="#7786BE" d="M165.4 111.1c-.2 0-.4-.2-.4-.4s.2-.4.4-.4.4.2.4.4-.2.4-.4.4zm0-.7c-.2 0-.3.1-.3.3 0 .2.1.3.3.3.2 0 .3-.1.3-.3 0-.2-.1-.3-.3-.3zm51 16.7c-.7 0-1.2-.5-1.2-1.2s.5-1.2 1.2-1.2 1.2.5 1.2 1.2-.6 1.2-1.2 1.2zm0-2.1c-.5 0-1 .4-1 .9s.4.9 1 .9c.5 0 1-.4 1-.9-.1-.5-.5-.9-1-.9z"/>
		<path fill="#7786BE" d="M216.4 126.7c-.4 0-.8-.3-.8-.8 0-.4.4-.8.8-.8s.8.3.8.8c0 .4-.4.8-.8.8zm0-1.4c-.3 0-.6.3-.6.6s.3.6.6.6.6-.3.6-.6-.3-.6-.6-.6z"/>
		<path fill="#7786BE" d="M216.4 126.3c-.2 0-.4-.2-.4-.4s.2-.4.4-.4.4.2.4.4-.2.4-.4.4zm0-.7c-.2 0-.3.1-.3.3 0 .2.1.3.3.3.2 0 .3-.1.3-.3 0-.2-.2-.3-.3-.3z"/>
	</g>

	<g id='cyborg-circle'>
		<path fill="#293A64" d="M232.6 100.7c-.4.4-.9.6-1.4.6-.6 0-1.1-.2-1.4-.6-.4-.4-.6-.9-.6-1.4 0-.6.2-1.1.6-1.4.4-.4.9-.6 1.4-.6.6 0 1.1.2 1.4.6.4.4.6.9.6 1.4 0 .5-.2 1.1-.6 1.4zm-47.7-37.2c-.4.4-.9.6-1.4.6-.6 0-1.1-.2-1.4-.6-.4-.4-.6-.9-.6-1.4 0-.6.2-1.1.6-1.4.4-.4.9-.6 1.4-.6.6 0 1.1.2 1.4.6.4.4.6.9.6 1.4 0 .5-.3 1-.6 1.4zm0 15.7c-.4.4-.9.6-1.4.6-.6 0-1.1-.2-1.4-.6-.4-.4-.6-.9-.6-1.4 0-.6.2-1.1.6-1.4.4-.4.9-.6 1.4-.6.6 0 1.1.2 1.4.6.4.4.6.9.6 1.4 0 .5-.3 1-.6 1.4zm71-12.6c-.4.4-.9.6-1.4.6-.6 0-1.1-.2-1.4-.6-.4-.4-.6-.9-.6-1.4 0-.6.2-1.1.6-1.4.4-.4.9-.6 1.4-.6.6 0 1.1.2 1.4.6.4.4.6.9.6 1.4 0 .5-.3 1-.6 1.4zm0 15.7c-.4.4-.9.6-1.4.6-.6 0-1.1-.2-1.4-.6-.4-.4-.6-.9-.6-1.4 0-.6.2-1.1.6-1.4.4-.4.9-.6 1.4-.6.6 0 1.1.2 1.4.6.4.4.6.9.6 1.4 0 .5-.3 1-.6 1.4zm-26.1 45.3c0-1.2.5-2.4 1.4-3.3.9-.9 2.1-1.4 3.3-1.4 1.2 0 2.4.5 3.3 1.4.9.9 1.4 2.1 1.4 3.3 0 1.2-.5 2.4-1.4 3.3-.9.9-2.1 1.4-3.3 1.4-1.2 0-2.4-.5-3.3-1.4-.9-.9-1.4-2.1-1.4-3.3zm-17.2-6c0-.5.2-1 .6-1.4.4-.4.9-.6 1.4-.6.5 0 1 .2 1.4.6.4.4.6.9.6 1.4 0 .5-.2 1-.6 1.4-.4.4-.9.6-1.4.6-.5 0-1-.2-1.4-.6-.4-.4-.6-.9-.6-1.4zm41.2 76c-.8.8-2 1.4-3.3 1.4-1.3 0-2.5-.5-3.3-1.4-.8-.8-1.4-2-1.4-3.3 0-1.3.5-2.5 1.4-3.3.8-.8 2-1.4 3.3-1.4 1.3 0 2.5.5 3.3 1.4.8.8 1.4 2 1.4 3.3 0 1.3-.5 2.4-1.4 3.3zm7.9 16.5c-.4.4-.9.6-1.4.6-.6 0-1-.2-1.4-.6-.4-.4-.6-.9-.6-1.4 0-.5.2-1 .6-1.4.4-.4.9-.6 1.4-.6.5 0 1 .2 1.4.6.4.4.6.9.6 1.4 0 .5-.2 1-.6 1.4zm-37.4-160c-.8.8-2 1.4-3.3 1.4-1.3 0-2.5-.5-3.3-1.4-.9-.9-1.4-2-1.4-3.3 0-1.3.5-2.5 1.4-3.3.8-.8 2-1.4 3.3-1.4 1.3 0 2.5.5 3.3 1.4.8.8 1.4 2 1.4 3.3-.1 1.3-.6 2.5-1.4 3.3zm7.9 16.5c-.4.4-.9.6-1.4.6-.6 0-1-.2-1.4-.6-.4-.4-.6-.9-.6-1.4 0-.5.2-1 .6-1.4.4-.4.9-.6 1.4-.6.5 0 1 .2 1.4.6.4.4.6.9.6 1.4-.1.5-.3 1-.6 1.4zm44.7 1.6c-.8.8-2 1.4-3.3 1.4-1.3 0-2.5-.5-3.3-1.4-.8-.8-1.4-2-1.4-3.3 0-1.3.5-2.5 1.4-3.3.8-.8 2-1.4 3.3-1.4 1.3 0 2.5.5 3.3 1.4.9.8 1.4 2 1.4 3.3 0 1.2-.5 2.4-1.4 3.3zm-12.3 18.3c-.4.4-.9.6-1.4.6-.5 0-1-.2-1.4-.6-.4-.4-.6-.9-.6-1.4 0-.5.2-1 .6-1.4.4-.4.9-.6 1.4-.6.6 0 1 .2 1.4.6.4.4.6.9.6 1.4 0 .6-.2 1.1-.6 1.4zm-2.3 27.7c-.8.8-2 1.4-3.3 1.4-1.3 0-2.5-.5-3.3-1.4-.8-.8-1.4-2-1.4-3.3 0-1.3.5-2.5 1.4-3.3.8-.8 2-1.4 3.3-1.4 1.3 0 2.5.5 3.3 1.4.8.8 1.4 2 1.4 3.3 0 1.3-.5 2.4-1.4 3.3zm-24.1 30.2c-.4.4-.9.6-1.4.6-.5 0-1-.2-1.4-.6-.4-.4-.6-.9-.6-1.4 0-.5.2-1 .6-1.4.4-.4.9-.6 1.4-.6.6 0 1 .2 1.4.6.4.4.6.9.6 1.4 0 .5-.2 1-.6 1.4zm9.5-28.6c-.4.4-.9.6-1.4.6-.6 0-1-.2-1.4-.6-.4-.4-.6-.9-.6-1.4 0-.6.2-1 .6-1.4.4-.4.9-.6 1.4-.6.5 0 1 .2 1.4.6.4.4.6.9.6 1.4 0 .6-.2 1.1-.6 1.4zm-4.4-31.3c-.4.4-.9.6-1.4.6-.6 0-1-.2-1.4-.6-.4-.4-.6-.9-.6-1.4 0-.6.2-1 .6-1.4.4-.4.9-.6 1.4-.6.5 0 1 .2 1.4.6.4.4.6.9.6 1.4-.1.5-.3 1-.6 1.4zM171.1 128c.5 0 1-.2 1.4-.6.4-.4.6-.9.6-1.4 0-.5-.2-1-.6-1.4-.4-.4-.9-.6-1.4-.6-.5 0-1 .2-1.4.6-.4.4-.6.9-.6 1.4 0 .5.2 1 .6 1.4.4.4.9.6 1.4.6zm-19-25.3c.5 0 1-.2 1.4-.6.4-.4.6-.9.6-1.4 0-.5-.2-1-.6-1.4-.4-.4-.9-.6-1.4-.6-.5 0-1 .2-1.4.6-.4.4-.6.9-.6 1.4 0 .5.2 1 .6 1.4.4.4.9.6 1.4.6zm14.4 27c.5 0 1-.2 1.4-.6.4-.4.6-.9.6-1.4 0-.5-.2-1-.6-1.4-.4-.4-.9-.6-1.4-.6-.5 0-1 .2-1.4.6-.4.4-.6.9-.6 1.4 0 .5.2 1 .6 1.4.4.5.9.7 1.4.6zm-19-25.3c.5 0 1-.2 1.4-.6.4-.4.6-.9.6-1.4 0-.5-.2-1-.6-1.4-.4-.4-.9-.6-1.4-.6-.5 0-1 .2-1.4.6-.4.4-.6.9-.6 1.4 0 .5.2 1 .6 1.4.4.4.9.6 1.4.6zm41.7 41.4c-.4.4-.9.6-1.4.6-.6 0-1-.2-1.4-.6-.4-.4-.6-.9-.6-1.4 0-.5.2-1 .6-1.4.4-.4.9-.6 1.4-.6.5 0 1 .2 1.4.6.4.4.6.9.6 1.4 0 .5-.2 1-.6 1.4zm-4.5-31.3c-.4.4-.9.6-1.4.6-.6 0-1-.2-1.4-.6-.4-.4-.6-.9-.6-1.4 0-.5.2-1 .6-1.4.4-.4.9-.6 1.4-.6.5 0 1 .2 1.4.6.4.4.6.9.6 1.4 0 .5-.2 1-.6 1.4zm-24.5 28.1c.4-.4.9-.6 1.4-.6.6 0 1 .2 1.4.6.4.4.6.9.6 1.4 0 .6-.2 1-.6 1.4-.4.4-.9.6-1.4.6-.5 0-1-.2-1.4-.6-.4-.4-.6-.9-.6-1.4 0-.6.3-1.1.6-1.4zm-24.6-31.3c.4-.4.9-.6 1.4-.6.6 0 1 .2 1.4.6.4.4.6.9.6 1.4 0 .5-.2 1-.6 1.4-.4.4-.9.6-1.4.6-.5 0-1-.2-1.4-.6-.4-.4-.6-.9-.6-1.4 0-.5.3-1 .6-1.4zm157.8 21.5c-.6.6-1.3.9-2.2.9-.9 0-1.6-.3-2.2-.9-.6-.6-.9-1.3-.9-2.2 0-.9.3-1.6.9-2.2.6-.6 1.3-.9 2.2-.9.9 0 1.6.3 2.2.9.6.6.9 1.3.9 2.2 0 .8-.4 1.6-.9 2.2zm10.2 32.4c-.3.3-.8.5-1.3.5s-.9-.2-1.3-.5c-.3-.3-.5-.8-.5-1.3s.2-.9.5-1.3c.3-.3.8-.5 1.3-.5s.9.2 1.3.5c.3.3.5.8.5 1.3.1.5-.1 1-.5 1.3zm-145.7-9.5c0-1.2.5-2.4 1.4-3.3.9-.9 2.1-1.4 3.3-1.4 1.2 0 2.4.5 3.3 1.4.9.9 1.4 2.1 1.4 3.3 0 1.2-.5 2.4-1.4 3.3-.9.9-2.1 1.4-3.3 1.4-1.2 0-2.4-.5-3.3-1.4-.9-.9-1.4-2.1-1.4-3.3zm-17.2-6c0-.5.2-1 .6-1.4.4-.4.9-.6 1.4-.6.5 0 1 .2 1.4.6.4.4.6.9.6 1.4 0 .5-.2 1-.6 1.4-.4.4-.9.6-1.4.6-.5 0-1-.2-1.4-.6-.4-.4-.6-.9-.6-1.4zM140 129c-.8.8-2 1.4-3.3 1.4-1.3 0-2.5-.5-3.3-1.4-.8-.9-1.4-2-1.4-3.3 0-1.3.5-2.5 1.4-3.3.8-.8 2-1.4 3.3-1.4 1.3 0 2.5.5 3.3 1.4.8.8 1.4 2 1.4 3.3 0 1.3-.6 2.4-1.4 3.3zm7.9 16.5c-.4.4-.9.6-1.4.6-.6 0-1-.2-1.4-.6-.4-.4-.6-.9-.6-1.4 0-.5.2-1 .6-1.4.4-.4.9-.6 1.4-.6.5 0 1 .2 1.4.6.4.4.6.9.6 1.4 0 .5-.2 1-.6 1.4zm12.4 37.4c-.6.6-1.5 1-2.4 1-1 0-1.8-.4-2.5-1-.6-.6-1-1.5-1-2.5s.4-1.8 1-2.5c.6-.6 1.5-1 2.5-1s1.8.4 2.4 1c.6.6 1 1.5 1 2.5s-.4 1.8-1 2.5zm-7-16.4c-.5.5-1.2.8-2 .8s-1.5-.3-2-.8-.8-1.2-.8-2 .3-1.5.8-2 1.2-.8 2-.8 1.5.3 2 .8.8 1.2.8 2-.3 1.5-.8 2zm-6.7-76.8c-.6.6-1.4 1-2.3 1-.9 0-1.7-.4-2.3-1-.6-.6-1-1.4-1-2.3 0-.9.4-1.7 1-2.3.6-.6 1.4-1 2.3-1 .9 0 1.7.4 2.3 1 .6.6 1 1.4 1 2.3 0 .9-.4 1.8-1 2.3zm17.7-.6c-.4.4-.9.6-1.4.6-.6 0-1.1-.2-1.4-.6-.4-.4-.6-.9-.6-1.4s.2-1.1.6-1.4c.4-.4.9-.6 1.4-.6.6 0 1.1.2 1.4.6.4.4.6.9.6 1.4s-.2 1-.6 1.4zm19.1-29.6c-.8.8-2 1.4-3.3 1.4-1.3 0-2.5-.5-3.3-1.4-.8-.8-1.4-2-1.4-3.3 0-1.3.5-2.5 1.4-3.3.8-.8 2-1.4 3.3-1.4 1.3 0 2.5.5 3.3 1.4.9.8 1.4 2 1.4 3.3-.1 1.2-.6 2.4-1.4 3.3zm27.7-5.5c-.8.8-2 1.4-3.3 1.4-1.3 0-2.5-.5-3.3-1.4-.8-.8-1.4-2-1.4-3.3 0-1.3.5-2.5 1.4-3.3.8-.8 2-1.4 3.3-1.4 1.3 0 2.5.5 3.3 1.4.8.8 1.4 2 1.4 3.3 0 1.3-.6 2.5-1.4 3.3zm-11.4-.1c-.5.5-1.3.9-2.1.9s-1.6-.3-2.1-.9c-.5-.5-.9-1.3-.9-2.1s.3-1.6.9-2.1c.5-.5 1.3-.9 2.1-.9s1.6.3 2.1.9c.5.5.9 1.3.9 2.1-.1.8-.4 1.6-.9 2.1zm22.2 90.9c-.8.8-2 1.4-3.3 1.4-1.3 0-2.5-.5-3.3-1.4-.9-.8-1.4-2-1.4-3.3 0-1.3.5-2.5 1.4-3.3.8-.8 2-1.4 3.3-1.4 1.3 0 2.5.5 3.3 1.4.8.8 1.4 2 1.4 3.3-.1 1.3-.6 2.4-1.4 3.3zm1.6-55.6c-.9.8-2 1.4-3.3 1.4-1.3 0-2.5-.5-3.3-1.4-.8-.8-1.4-2-1.4-3.3s.5-2.5 1.4-3.3c.8-.8 2-1.4 3.3-1.4 1.3 0 2.5.5 3.3 1.4.8.8 1.4 2 1.4 3.3s-.6 2.4-1.4 3.3zm40.6-25.7c-.5.5-1.3.9-2.1.9s-1.6-.3-2.1-.9c-.5-.5-.9-1.3-.9-2.1s.3-1.6.9-2.1c.5-.5 1.3-.9 2.1-.9s1.6.3 2.1.9c.5.5.9 1.3.9 2.1s-.4 1.6-.9 2.1zm21.6 18.8c-.8.8-2 1.4-3.3 1.4-1.3 0-2.5-.5-3.3-1.4-.8-.8-1.4-2-1.4-3.3 0-1.3.5-2.5 1.4-3.3.8-.8 2-1.4 3.3-1.4 1.3 0 2.5.5 3.3 1.4.8.9 1.4 2 1.4 3.3 0 1.2-.5 2.4-1.4 3.3zm-15 22.9c-.8.8-2 1.4-3.3 1.4-1.3 0-2.5-.5-3.3-1.4-.9-.8-1.4-2-1.4-3.3s.5-2.5 1.4-3.3c.8-.8 2-1.4 3.3-1.4 1.3 0 2.5.5 3.3 1.4.8.8 1.4 2 1.4 3.3s-.6 2.4-1.4 3.3zm14.1-2.3c-.8.8-1.9 1.3-3.1 1.3-1.2 0-2.3-.5-3.1-1.3-.8-.8-1.3-1.9-1.3-3.1 0-1.2.5-2.3 1.3-3.1.8-.8 1.9-1.3 3.1-1.3 1.2 0 2.3.5 3.1 1.3.8.8 1.3 1.9 1.3 3.1-.1 1.2-.6 2.3-1.3 3.1zm4.3 12.5c-.5.5-1.3.8-2.1.8s-1.5-.3-2.1-.8c-.5-.5-.9-1.3-.9-2.1s.3-1.5.9-2.1c.5-.5 1.3-.9 2.1-.9s1.5.3 2.1.9c.5.5.9 1.3.9 2.1-.1.8-.4 1.5-.9 2.1zM275 140.7c-.8.8-2 1.4-3.3 1.4-1.3 0-2.5-.5-3.3-1.4-.9-.8-1.4-2-1.4-3.3 0-1.3.5-2.5 1.4-3.3.8-.8 2-1.4 3.3-1.4 1.3 0 2.5.5 3.3 1.4.9.8 1.4 2 1.4 3.3 0 1.3-.5 2.4-1.4 3.3zm-19.1-30.4c-.6.6-1.5 1-2.4 1-1 0-1.8-.4-2.4-1-.6-.6-1-1.5-1-2.4 0-1 .4-1.8 1-2.4.6-.6 1.5-1 2.4-1 1 0 1.8.4 2.4 1 .6.6 1 1.5 1 2.4 0 .9-.4 1.8-1 2.4zm12.3 40.4c-.6.6-1.5 1-2.4 1-1 0-1.8-.4-2.4-1-.6-.6-1-1.5-1-2.4 0-1 .4-1.8 1-2.4.6-.6 1.5-1 2.4-1 1 0 1.8.4 2.4 1 .6.6 1 1.5 1 2.4 0 1-.3 1.8-1 2.4zm-87.6 42.7c-.8.8-2 1.4-3.3 1.4-1.3 0-2.5-.5-3.3-1.4-.8-.8-1.4-2-1.4-3.3 0-1.3.5-2.5 1.4-3.3.8-.8 2-1.4 3.3-1.4 1.3 0 2.5.5 3.3 1.4.8.8 1.4 2 1.4 3.3-.1 1.3-.6 2.5-1.4 3.3zm7.9 25.6c-.4.4-.9.6-1.4.6-.6 0-1-.2-1.4-.6-.4-.4-.6-.9-.6-1.4 0-.5.2-1 .6-1.4.4-.4.9-.6 1.4-.6.5 0 1 .2 1.4.6.4.4.6.9.6 1.4-.1.6-.3 1.1-.6 1.4zm33.6-4.8c-.4.4-.9.6-1.4.6-.5 0-1-.2-1.4-.6-.4-.4-.6-.9-.6-1.4s.2-1 .6-1.4c.4-.4.9-.6 1.4-.6.5 0 1 .2 1.4.6.4.4.6.9.6 1.4s-.3 1.1-.6 1.4z"/>
		<path fill="#293A64" d="M218.6 212.7c-.4.4-.9.6-1.4.6-.5 0-1-.2-1.4-.6-.4-.4-.6-.9-.6-1.4 0-.5.2-1 .6-1.4.4-.4.9-.6 1.4-.6.5 0 1 .2 1.4.6.4.4.6.9.6 1.4 0 .6-.3 1.1-.6 1.4zm-3.3-10.7c-.4.4-.9.6-1.4.6-.6 0-1-.2-1.4-.6-.4-.4-.6-.9-.6-1.4 0-.5.2-1 .6-1.4.4-.4.9-.6 1.4-.6.5 0 1 .2 1.4.6.4.4.6.9.6 1.4 0 .5-.3 1-.6 1.4zm30 5.6c-.8.8-2 1.3-3.2 1.3-1.3 0-2.4-.5-3.2-1.3-.8-.8-1.3-2-1.3-3.2 0-1.3.5-2.4 1.3-3.2.8-.8 2-1.3 3.2-1.3 1.3 0 2.4.5 3.2 1.3.8.8 1.3 2 1.3 3.2 0 1.3-.5 2.4-1.3 3.2zm-50-120.1c-.4.4-.9.6-1.4.6-.6 0-1-.2-1.4-.6-.4-.4-.6-.9-.6-1.4 0-.5.2-1 .6-1.4.4-.4.9-.6 1.4-.6.5 0 1 .2 1.4.6.4.4.6.9.6 1.4 0 .5-.2 1-.6 1.4zm10.5-5.1c-.4.4-.9.6-1.4.6-.5 0-1-.2-1.4-.6-.4-.4-.6-.9-.6-1.4 0-.5.2-1 .6-1.4.4-.4.9-.6 1.4-.6.5 0 1 .2 1.4.6.4.4.6.9.6 1.4-.1.6-.3 1.1-.6 1.4zm31.9 81.8c.8.8 1.4 2 1.4 3.3 0 1.3-.5 2.5-1.4 3.3-.8.8-2 1.4-3.3 1.4-1.3 0-2.5-.5-3.3-1.4-.8-.8-1.4-2-1.4-3.3 0-1.3.5-2.5 1.4-3.3.8-.9 2-1.4 3.3-1.4 1.3 0 2.5.5 3.3 1.4zm27.5 21.7c.4.4.6.9.6 1.4 0 .6-.2 1-.6 1.4-.4.4-.9.6-1.4.6-.6 0-1-.2-1.4-.6-.4-.4-.6-.9-.6-1.4 0-.5.2-1 .6-1.4.4-.4.9-.6 1.4-.6.5 0 1 .2 1.4.6zm-47.7-86.2c-.4.4-.9.6-1.4.6s-1-.2-1.4-.6c-.4-.4-.6-.9-.6-1.4 0-.6.2-1 .6-1.4.4-.4.9-.6 1.4-.6s1 .2 1.4.6c.4.4.6.9.6 1.4 0 .5-.2 1-.6 1.4zm0 6.5c-.4.4-.9.6-1.4.6-.5 0-1-.2-1.4-.6-.4-.4-.6-.9-.6-1.4 0-.6.2-1 .6-1.4.4-.4.9-.6 1.4-.6.6 0 1.1.2 1.4.6.4.4.6.9.6 1.4 0 .6-.2 1.1-.6 1.4zm13.9 3.7c-.4.4-.9.6-1.4.6-.6 0-1-.2-1.4-.6-.4-.4-.6-.9-.6-1.4 0-.5.2-1 .6-1.4.4-.4.9-.6 1.4-.6.5 0 1 .2 1.4.6.4.4.6.9.6 1.4 0 .6-.2 1.1-.6 1.4zm-.2 6.8c-.4.4-.9.6-1.4.6-.5 0-1-.2-1.4-.6-.4-.4-.6-.9-.6-1.4 0-.6.2-1 .6-1.4.4-.4.9-.6 1.4-.6.6 0 1 .2 1.4.6.4.4.6.9.6 1.4 0 .6-.2 1.1-.6 1.4zm-18.1-48.4c-.4.4-.9.6-1.4.6-.6 0-1-.2-1.4-.6-.4-.4-.6-.9-.6-1.4 0-.6.2-1 .6-1.4.4-.4.9-.6 1.4-.6.5 0 1 .2 1.4.6.4.4.6.9.6 1.4-.1.6-.3 1.1-.6 1.4zM235 56.4c.8.8 2 1.4 3.3 1.4 1.3 0 2.5-.5 3.3-1.4.9-.8 1.4-2 1.4-3.3 0-1.3-.5-2.5-1.4-3.3-.8-.8-2-1.4-3.3-1.4-1.3 0-2.5.5-3.3 1.4-.8.8-1.4 2-1.4 3.3 0 1.3.5 2.4 1.4 3.3zm-1.8 22.1c.4.4.9.6 1.4.6s1-.2 1.4-.6c.4-.4.6-.9.6-1.4 0-.6-.2-1-.6-1.4-.4-.4-.9-.6-1.4-.6s-1 .2-1.4.6c-.4.4-.6.9-.6 1.4 0 .5.2 1 .6 1.4zm-30.9 16.1c-.4.4-.9.6-1.4.6-.5 0-1-.2-1.4-.6-.4-.4-.6-.9-.6-1.4 0-.5.2-1 .6-1.4.4-.4.9-.6 1.4-.6.5 0 1 .2 1.4.6.4.4.6.9.6 1.4-.1.6-.3 1.1-.6 1.4zm-30.2-32.2c-.5.5-1.2.8-2 .8s-1.5-.3-2-.8-.8-1.2-.8-2 .3-1.5.8-2 1.2-.8 2-.8 1.5.3 2 .8.8 1.2.8 2c.1.8-.2 1.5-.8 2zm12.9 43.7c-.4.4-.9.6-1.4.6-.6 0-1-.2-1.4-.6-.4-.4-.6-.9-.6-1.4 0-.5.2-1 .6-1.4.4-.4.9-.6 1.4-.6.5 0 1 .2 1.4.6.4.4.6.9.6 1.4 0 .5-.3 1-.6 1.4zm-41.5-12.5c-.4.4-.9.6-1.4.6-.5 0-1-.2-1.4-.6-.4-.4-.6-.9-.6-1.4 0-.5.2-1 .6-1.4.4-.4.9-.6 1.4-.6.6 0 1 .2 1.4.6.4.4.6.9.6 1.4 0 .5-.3 1-.6 1.4zm27.8 49c-.4.4-.9.6-1.4.6-.6 0-1-.2-1.4-.6-.4-.4-.6-.9-.6-1.4 0-.6.2-1 .6-1.4.4-.4.9-.6 1.4-.6.5 0 1 .2 1.4.6.4.4.6.9.6 1.4 0 .5-.3 1-.6 1.4zM271.9 210c.4-.4.9-.6 1.4-.6.5 0 1 .2 1.4.6.4.4.6.9.6 1.4 0 .6-.2 1-.6 1.4-.4.4-.9.6-1.4.6-.6 0-1-.2-1.4-.6-.4-.4-.6-.9-.6-1.4 0-.5.2-1 .6-1.4zm-26.8-32.1c-.4.4-.9.6-1.4.6s-1-.2-1.4-.6c-.4-.4-.6-.9-.6-1.4 0-.6.2-1 .6-1.4.4-.4.9-.6 1.4-.6s1 .2 1.4.6c.4.4.6.9.6 1.4 0 .5-.3 1-.6 1.4zM192 129.2c-.4.4-.9.6-1.4.6-.6 0-1-.2-1.4-.6-.4-.4-.6-.9-.6-1.4 0-.5.2-1 .6-1.4.4-.4.9-.6 1.4-.6.5 0 1 .2 1.4.6.4.4.6.9.6 1.4 0 .6-.2 1.1-.6 1.4zm34.1 90c-.4.4-.9.6-1.4.6-.6 0-1-.2-1.4-.6-.4-.4-.6-.9-.6-1.4 0-.5.2-1 .6-1.4.4-.4.9-.6 1.4-.6.5 0 1 .2 1.4.6.4.4.6.9.6 1.4 0 .6-.2 1.1-.6 1.4z"/>
		<path fill="#293A64" d="M226.1 219.3c-.4.4-.9.6-1.4.6-.5 0-1-.2-1.4-.6-.4-.4-.6-.9-.6-1.4 0-.5.2-1 .6-1.4.4-.4.9-.6 1.4-.6.5 0 1 .2 1.4.6.4.4.6.9.6 1.4 0 .5-.2 1-.6 1.4zm-15.1 23c-.4.4-.9.6-1.4.6-.6 0-1-.2-1.4-.6-.4-.4-.6-.9-.6-1.4 0-.5.2-1 .6-1.4.4-.4.9-.6 1.4-.6.5 0 1 .2 1.4.6.4.4.6.9.6 1.4 0 .6-.2 1.1-.6 1.4zm41.1-183.9c-.5.5-1.3.9-2.1.9s-1.6-.3-2.1-.9c-.5-.5-.9-1.3-.9-2.1s.3-1.6.9-2.1c.5-.5 1.3-.9 2.1-.9s1.6.3 2.1.9c.5.5.9 1.3.9 2.1s-.3 1.6-.9 2.1zm-77.7 149.7c-.9.7-2.2 1-3.4.9-1.3-.2-2.3-.8-3-1.7-.7-.9-1.1-2-.9-3.2.2-1.2.8-2.2 1.8-2.9.9-.7 2.1-1 3.4-.9 1.3.2 2.3.8 3.1 1.7.7.9 1.1 2 .9 3.2-.3 1.2-.9 2.3-1.9 2.9zm-24.3 50c-.6.4-1.3.6-2.1.5-.8-.1-1.4-.5-1.8-1-.4-.5-.7-1.2-.5-2 .1-.7.5-1.3 1.1-1.7.6-.4 1.3-.6 2.1-.5.8.1 1.4.5 1.8 1 .4.5.7 1.2.5 2-.1.7-.5 1.3-1.1 1.7zM158.6 75c-.8.8-2 1.4-3.3 1.4-1.3 0-2.5-.5-3.3-1.4-.8-.8-1.4-2-1.4-3.3 0-1.3.5-2.5 1.4-3.3.8-.8 2-1.4 3.3-1.4 1.3 0 2.5.5 3.3 1.4.9.8 1.4 2 1.4 3.3 0 1.3-.6 2.5-1.4 3.3zm76.9 104.1c-.8.8-2 1.4-3.3 1.4-1.3 0-2.5-.5-3.3-1.4-.9-.8-1.4-2-1.4-3.3 0-1.3.5-2.5 1.4-3.3.8-.8 2-1.4 3.3-1.4 1.3 0 2.5.5 3.3 1.4.9.8 1.4 2 1.4 3.3 0 1.3-.5 2.5-1.4 3.3zM232.6 85c-.4.4-.9.6-1.4.6-.6 0-1.1-.2-1.4-.6-.4-.4-.6-.9-.6-1.4 0-.6.2-1.1.6-1.4.4-.4.9-.6 1.4-.6.6 0 1.1.2 1.4.6.4.4.6.9.6 1.4 0 .6-.2 1.1-.6 1.4zm2.4-28.6c.8.8 2 1.4 3.3 1.4 1.3 0 2.5-.5 3.3-1.4.9-.8 1.4-2 1.4-3.3 0-1.3-.5-2.5-1.4-3.3-.8-.8-2-1.4-3.3-1.4-1.3 0-2.5.5-3.3 1.4-.8.8-1.4 2-1.4 3.3 0 1.3.5 2.4 1.4 3.3z"/>
	</g>



	<g class="cyborg-beard">
		<path fill="#7786BE" d="M305.1 168.6c-.7 0-1.5 0-2.3-.1-6.2-.6-9.4 2.4-10.9 3.9-3 2.8-6.4 0-5.7-5 .4-2.5.9-5 .6-8.1-.6-6-5.6-10.2-10.1-10.3-8.8-.3-20.5 23.5 1.5 55.9 1.4 2.1 3.8 5.5 2.3 8.5-2.9 5.7-25.7.9-35.9-1.7-5.9-1.5-17.8-6.4-18.6-4-1 2.8 12.4 11.4 14.1 14.4 2.6 4.7-.8 9.3-1.9 13.7-4.4 18 3.3 24.8 3.3 24.7.5-3 1.4-6.4 2.5-9.8 9.2-28.7 33.2-25.9 41.6-27.4 5.7-1 7.6-6.1 7.9-7.7.5-2.7.5-6.7-2-11-2.5-4.4.5-4.2 2-7.3.7-1.4-.7-3.6-.9-3.8-.7-.7.7-.5 2.3-2.4 1.6-2 0-3.9-1.2-5.8-1.3-2.1-3.1-5.5-.9-9.5 1.4-2.8 11.6-3.3 12.3-7.2z"/>
		<path fill="#7786BE" d="M305.1 168.6h-2.3c-6.2-.6-9.3 2.4-10.9 3.9-3 2.8-6.5 0-5.8-4.9.3-2.5.9-5 .6-8.1-.6-6-5.5-10.1-10-10.3-8.8-.3-20.4 23.2 1.7 55.6 1.4 2.1 4 5.7 2.3 8.8-2.9 5.7-25.8 1-36-1.6-5.9-1.5-17.5-6.3-18.4-3.9-1 2.7 12.1 11.1 13.8 14.1 2.6 4.7-.8 9.3-1.9 13.7-4.4 17.8 3.1 24.8 3.2 24.7.5-3 1.4-6.4 2.5-9.8 9.2-28.7 33.2-25.9 41.6-27.4 5.7-1 7.6-6.1 7.9-7.7.5-2.7.5-6.7-2-11-2.5-4.4.5-4.2 2-7.3.7-1.4-.7-3.6-.9-3.8-.7-.7.7-.5 2.3-2.4 1.6-2 0-3.9-1.2-5.8-1.3-2.1-3.1-5.5-.9-9.5 1.5-2.9 11.7-3.4 12.4-7.3z"/>
		<path fill="#7786BE" d="M305.1 168.6c-.7 0-1.5.1-2.4 0-6.2-.5-9.3 2.4-10.8 3.9-3 2.9-6.5.1-5.9-4.8.3-2.5.9-5.1.6-8.2-.6-6-5.4-10-9.8-10.2-8.8-.3-20.2 22.9 1.9 55.3 1.4 2.1 4.1 5.9 2.4 9.1-2.9 5.7-26 1.1-36.2-1.6-5.9-1.5-17.2-6.3-18.1-3.9-.9 2.6 11.9 10.8 13.5 13.9 2.6 4.7-.8 9.4-1.9 13.7-4.3 17.7 3 24.7 3.1 24.7.5-3 1.4-6.4 2.5-9.8 9.2-28.7 33.2-25.9 41.6-27.4 5.7-1 7.6-6.1 7.9-7.7.5-2.7.5-6.7-2-11-2.5-4.4.5-4.2 2-7.3.7-1.4-.7-3.6-.9-3.8-.7-.7.7-.5 2.3-2.4 1.6-2 0-3.9-1.2-5.8-1.3-2.1-3.1-5.5-.9-9.5 1.4-2.8 11.6-3.3 12.3-7.2z"/>
		<path fill="#7786BE" d="M305.1 168.6c-.7 0-1.6.1-2.4.1-6.2-.4-9.2 2.4-10.7 3.9-3 3-6.6.1-6-4.8.3-2.5.9-5.1.6-8.2-.6-6-5.3-10-9.7-10.1-8.8-.3-20 22.6 2 55 1.4 2.1 4.2 6.1 2.5 9.4-2.9 5.7-26.1 1.1-36.3-1.5-5.9-1.5-17-6.2-17.8-3.9-.9 2.6 11.6 10.6 13.3 13.6 2.6 4.7-.8 9.4-1.8 13.8-4.3 17.5 2.9 24.7 2.9 24.7.5-3 1.4-6.4 2.5-9.8 9.2-28.7 33.2-25.9 41.6-27.4 5.7-1 7.6-6.1 7.9-7.7.5-2.7.5-6.7-2-11-2.5-4.4.5-4.2 2-7.3.7-1.4-.7-3.6-.9-3.8-.7-.7.7-.5 2.3-2.4 1.6-2 0-3.9-1.2-5.8-1.3-2.1-3.1-5.5-.9-9.5 1.2-2.9 11.4-3.4 12.1-7.3z"/>
		<path fill="#7786BE" d="M305.1 168.6c-.7 0-1.6.2-2.4.1-6.2-.3-9.2 2.4-10.7 3.9-3.1 3-6.7.2-6.2-4.7.2-2.5.9-5.1.6-8.2-.6-6-5.2-9.9-9.6-10-8.8-.3-19.9 22.3 2.2 54.7 1.4 2.1 4.3 6.3 2.6 9.6-3 5.7-26.2 1.2-36.5-1.4-5.9-1.5-16.7-6.1-17.5-3.8-.9 2.5 11.3 10.3 13 13.3 2.6 4.7-.8 9.4-1.8 13.8-4.2 17.3 2.7 24.7 2.8 24.7.5-2.9 1.4-6.4 2.5-9.8 9.2-28.7 33.2-25.9 41.6-27.4 5.7-1 7.6-6.1 7.9-7.7.5-2.7.5-6.7-2-11-2.5-4.4.5-4.2 2-7.3.7-1.4-.7-3.6-.9-3.8-.7-.7.7-.5 2.3-2.4 1.6-2 0-3.9-1.2-5.8-1.3-2.1-3.1-5.5-.9-9.5 1.3-2.9 11.5-3.4 12.2-7.3z"/>
		<path fill="#7786BE" d="M305.1 168.6c-.7 0-1.6.2-2.5.2-6.2-.3-9.1 2.4-10.6 3.9-3.1 3.1-6.7.2-6.3-4.6.2-2.5.9-5.2.6-8.3-.6-6-5-9.8-9.5-10-8.8-.3-19.7 22 2.4 54.4 1.4 2.1 4.4 6.5 2.6 9.9-3 5.7-26.4 1.2-36.6-1.4-5.9-1.5-16.5-6-17.2-3.8-.9 2.4 11.1 10 12.7 13.1 2.6 4.7-.7 9.5-1.8 13.8-4.1 17.2 2.6 24.7 2.7 24.7.5-2.9 1.4-6.4 2.5-9.8 9.2-28.7 33.2-25.9 41.6-27.4 5.7-1 7.6-6.1 7.9-7.7.5-2.7.5-6.7-2-11-2.5-4.4.5-4.2 2-7.3.7-1.4-.7-3.6-.9-3.8-.7-.7.7-.5 2.3-2.4 1.6-2 0-3.9-1.2-5.8-1.3-2.1-3.1-5.5-.9-9.5 1.3-2.8 11.5-3.3 12.2-7.2z"/>
		<path fill="#7786BE" d="M305.1 168.6c-.7 0-1.7.3-2.5.3-6.2-.2-9 2.3-10.6 3.9-3.1 3.2-6.8.3-6.4-4.5.2-2.5.9-5.2.5-8.3-.6-6-4.9-9.7-9.4-9.9-8.8-.3-19.5 21.7 2.5 54.1 1.4 2.1 4.5 6.7 2.7 10.2-3 5.7-26.5 1.3-36.8-1.3-5.9-1.5-16.2-5.9-17-3.8-.8 2.4 10.8 9.8 12.5 12.8 2.6 4.7-.7 9.5-1.8 13.9-4.1 17 2.5 24.7 2.5 24.7.5-2.9 1.4-6.4 2.5-9.8 9.2-28.7 33.2-25.9 41.6-27.4 5.7-1 7.6-6.1 7.9-7.7.5-2.7.5-6.7-2-11-2.5-4.4.5-4.2 2-7.3.7-1.4-.7-3.6-.9-3.8-.7-.7.7-.5 2.3-2.4 1.6-2 0-3.9-1.2-5.8-1.3-2.1-3.1-5.5-.9-9.5 1.6-3 11.8-3.5 12.5-7.4z"/>
		<path fill="#7786BE" d="M305.1 168.6c-.7 0-1.7.3-2.5.3-6.2-.1-9 2.3-10.5 3.9-3.1 3.2-6.8.4-6.5-4.5.1-2.5.9-5.2.5-8.3-.6-6-4.8-9.6-9.2-9.8-8.8-.3-19.4 21.4 2.7 53.8 1.4 2.1 4.6 6.9 2.8 10.4-3 5.7-26.7 1.4-36.9-1.2-5.9-1.5-16-5.8-16.7-3.8-.8 2.3 10.5 9.5 12.2 12.5 2.6 4.7-.7 9.5-1.7 13.9-4 16.8 2.4 24.7 2.4 24.7.5-2.9 1.4-6.4 2.5-9.8 9.2-28.7 33.2-25.9 41.6-27.4 5.7-1 7.6-6.1 7.9-7.7.5-2.7.5-6.7-2-11-2.5-4.4.5-4.2 2-7.3.7-1.4-.7-3.6-.9-3.8-.7-.7.7-.5 2.3-2.4 1.6-2 0-3.9-1.2-5.8-1.3-2.1-3.1-5.5-.9-9.5 1.2-2.8 11.4-3.3 12.1-7.2z"/>
		<path fill="#7786BE" d="M305.1 168.6c-.7 0-1.7.4-2.6.4-6.2-.1-8.9 2.3-10.4 3.9-3.2 3.3-6.9.4-6.7-4.4.1-2.5.8-5.3.5-8.4-.6-6-4.7-9.6-9.1-9.7-8.8-.3-19.2 21.1 2.9 53.5 1.4 2.1 4.7 7.2 2.8 10.7-3 5.7-26.8 1.4-37.1-1.2-5.9-1.5-15.7-5.7-16.4-3.7-.8 2.3 10.3 9.2 11.9 12.3 2.6 4.7-.7 9.6-1.7 13.9-4 16.7 2.2 24.7 2.3 24.7.5-2.9 1.4-6.4 2.5-9.8 9.2-28.7 33.2-25.9 41.6-27.4 5.7-1 7.6-6.1 7.9-7.7.5-2.7.5-6.7-2-11-2.5-4.4.5-4.2 2-7.3.7-1.4-.7-3.6-.9-3.8-.7-.7.7-.5 2.3-2.4 1.6-2 0-3.9-1.2-5.8-1.3-2.1-3.1-5.5-.9-9.5 1.4-2.9 11.6-3.4 12.3-7.3z"/>
		<path fill="#7786BE" d="M305.1 168.6c-.7 0-1.8.4-2.6.4-6.2 0-8.9 2.3-10.4 3.9-3.2 3.4-6.9.5-6.8-4.3.1-2.5.8-5.3.5-8.4-.6-6-4.6-9.5-9-9.7-8.8-.3-19 20.8 3 53.2 1.4 2.1 4.8 7.4 2.9 11-3 5.6-27 1.5-37.2-1.1-5.9-1.5-15.5-5.6-16.1-3.7-.8 2.2 10 9 11.7 12 2.6 4.7-.7 9.6-1.7 14-3.9 16.5 2.1 24.7 2.2 24.7.5-2.8 1.4-6.4 2.5-9.8 9.2-28.7 33.2-25.9 41.6-27.4 5.7-1 7.6-6.1 7.9-7.7.5-2.7.5-6.7-2-11-2.5-4.4.5-4.2 2-7.3.7-1.4-.7-3.6-.9-3.8-.7-.7.7-.5 2.3-2.4 1.6-2 0-3.9-1.2-5.8-1.3-2.1-3.1-5.5-.9-9.5 1.3-2.9 11.5-3.4 12.2-7.3z"/>
		<path fill="#7786BE" d="M305.1 168.6c-.7 0-1.8.5-2.6.5-6.2.1-8.8 2.3-10.3 3.9-3.2 3.4-7 .5-6.9-4.3 0-2.5.8-5.3.5-8.4-.6-6-4.4-9.4-8.9-9.6-8.8-.3-18.9 20.5 3.2 52.9 1.4 2.1 4.9 7.6 3 11.2-3 5.6-27.1 1.6-37.4-1-5.9-1.5-15.2-5.6-15.9-3.7-.7 2.1 9.7 8.7 11.4 11.7 2.6 4.7-.7 9.6-1.7 14-3.9 16.4 2 24.7 2 24.7.5-2.8 1.4-6.4 2.5-9.8 9.2-28.7 33.2-25.9 41.6-27.4 5.7-1 7.6-6.1 7.9-7.7.5-2.7.5-6.7-2-11-2.5-4.4.5-4.2 2-7.3.7-1.4-.7-3.6-.9-3.8-.7-.7.7-.5 2.3-2.4 1.6-2 0-3.9-1.2-5.8-1.3-2.1-3.1-5.5-.9-9.5 1.4-2.8 11.6-3.3 12.3-7.2z"/>
		<path fill="#7786BE" d="M305.1 168.6c-.7 0-1.9.5-2.7.5-6.2.1-8.8 2.3-10.2 3.9-3.2 3.5-7.1.6-7.1-4.2 0-2.5.8-5.4.5-8.5-.6-6-4.3-9.3-8.8-9.5-8.8-.3-18.7 20.2 3.4 52.6 1.4 2.1 5 7.8 3 11.5-3 5.6-27.3 1.6-37.5-1-5.9-1.5-14.9-5.5-15.6-3.7-.7 2.1 9.5 8.4 11.1 11.5 2.6 4.7-.6 9.7-1.7 14-3.8 16.2 1.8 24.7 1.9 24.7.5-2.8 1.4-6.4 2.5-9.8 9.2-28.7 33.2-25.9 41.6-27.4 5.7-1 7.6-6.1 7.9-7.7.5-2.7.5-6.7-2-11-2.5-4.4.5-4.2 2-7.3.7-1.4-.7-3.6-.9-3.8-.7-.7.7-.5 2.3-2.4 1.6-2 0-3.9-1.2-5.8-1.3-2.1-3.1-5.5-.9-9.5 1.5-2.7 11.7-3.2 12.4-7.1z"/>
		<path fill="#7786BE" d="M305.1 168.6c-.7 0-1.9.6-2.7.6-6.2.2-8.7 2.3-10.2 3.8-3.3 3.6-7.1.6-7.2-4.1 0-2.5.8-5.4.5-8.5-.6-6-4.2-9.3-8.6-9.4-8.8-.3-18.5 20 3.5 52.3 1.4 2.1 5.2 8 3.1 11.8-3 5.6-27.4 1.7-37.7-.9-5.9-1.5-14.7-5.4-15.3-3.6-.7 2 9.2 8.2 10.9 11.2 2.6 4.7-.6 9.7-1.6 14.1-3.8 16 1.7 24.7 1.8 24.7.5-2.8 1.4-6.4 2.5-9.8 9.2-28.7 33.2-25.9 41.6-27.4 5.7-1 7.6-6.1 7.9-7.7.5-2.7.5-6.7-2-11-2.5-4.4.5-4.2 2-7.3.7-1.4-.7-3.6-.9-3.8-.7-.7.7-.5 2.3-2.4 1.6-2 0-3.9-1.2-5.8-1.3-2.1-3.1-5.5-.9-9.5 1.3-2.9 11.5-3.4 12.2-7.3z"/>
		<path fill="#7786BE" d="M305.1 168.6c-.7 0-1.9.6-2.8.7-6.2.3-8.7 2.2-10.1 3.8-3.3 3.7-7.2.7-7.3-4-.1-2.5.8-5.4.5-8.5-.6-6-4.1-9.2-8.5-9.3-8.8-.3-18.4 19.7 3.7 52 1.4 2.1 5.3 8.2 3.2 12.1-3 5.6-27.6 1.8-37.8-.8-5.9-1.5-14.4-5.3-15-3.6-.7 2 8.9 7.9 10.6 10.9 2.6 4.7-.6 9.7-1.6 14.1-3.7 15.9 1.6 24.7 1.6 24.7.5-2.7 1.4-6.4 2.5-9.8 9.2-28.7 33.2-25.9 41.6-27.4 5.7-1 7.6-6.1 7.9-7.7.5-2.7.5-6.7-2-11-2.5-4.4.5-4.2 2-7.3.7-1.4-.7-3.6-.9-3.8-.7-.7.7-.5 2.3-2.4 1.6-2 0-3.9-1.2-5.8-1.3-2.1-3.1-5.5-.9-9.5 1.3-3 11.5-3.5 12.2-7.4z"/>
		<path fill="#7786BE" d="M305.1 168.6c-.7 0-2 .7-2.8.7-6.2.4-8.6 2.2-10.1 3.8-3.3 3.7-7.3.7-7.4-4-.1-2.5.8-5.5.5-8.6-.6-6-3.9-9.1-8.4-9.3-8.8-.3-18.2 19.4 3.9 51.8 1.4 2.1 5.4 8.4 3.2 12.3-3.1 5.6-27.7 1.8-38-.8-5.9-1.5-14.2-5.2-14.7-3.6-.6 1.9 8.7 7.6 10.3 10.7 2.6 4.7-.6 9.8-1.6 14.1-3.7 15.7 1.5 24.7 1.5 24.7.5-2.7 1.4-6.4 2.5-9.8 9.2-28.7 33.2-25.9 41.6-27.4 5.7-1 7.6-6.1 7.9-7.7.5-2.7.5-6.7-2-11-2.5-4.4.5-4.2 2-7.3.7-1.4-.7-3.6-.9-3.8-.7-.7.7-.5 2.3-2.4 1.6-2 0-3.9-1.2-5.8-1.3-2.1-3.1-5.5-.9-9.5 1.4-2.7 11.6-3.2 12.3-7.1z"/>
		<path fill="#7786BE" d="M305.1 168.6c-.7 0-2 .7-2.8.8-6.2.4-8.6 2.2-10 3.8-3.3 3.8-7.3.8-7.6-3.9-.1-2.5.8-5.5.5-8.6-.6-6-3.8-9-8.3-9.2-8.8-.3-18 19.1 4 51.5 1.4 2.1 5.5 8.6 3.3 12.6-3.1 5.6-27.9 1.9-38.1-.7-5.9-1.5-13.9-5.1-14.5-3.5-.6 1.8 8.4 7.4 10.1 10.4 2.6 4.7-.6 9.8-1.6 14.2-3.6 15.5 1.3 24.7 1.4 24.7.5-2.7 1.4-6.4 2.5-9.8 9.2-28.7 33.2-25.9 41.6-27.4 5.7-1 7.6-6.1 7.9-7.7.5-2.7.5-6.7-2-11-2.5-4.4.5-4.2 2-7.3.7-1.4-.7-3.6-.9-3.8-.7-.7.7-.5 2.3-2.4 1.6-2 0-3.9-1.2-5.8-1.3-2.1-3.1-5.5-.9-9.5 1.4-3 11.6-3.5 12.3-7.4z"/>
		<path fill="#7786BE" d="M305.1 168.6c-.7 0-2 .8-2.9.8-6.2.5-8.5 2.2-9.9 3.8-3.4 3.9-7.4.9-7.7-3.8-.2-2.5.8-5.5.4-8.6-.6-6-3.7-9-8.2-9.1-8.8-.3-17.8 18.8 4.2 51.2 1.4 2.1 5.6 8.8 3.4 12.9-3.1 5.6-28 2-38.3-.7-5.9-1.5-13.7-5-14.2-3.5-.6 1.8 8.1 7.1 9.8 10.1 2.6 4.7-.6 9.8-1.6 14.2-3.6 15.4 1.2 24.7 1.3 24.7.5-2.7 1.4-6.4 2.5-9.8 9.2-28.7 33.2-25.9 41.6-27.4 5.7-1 7.6-6.1 7.9-7.7.5-2.7.5-6.7-2-11-2.5-4.4.5-4.2 2-7.3.7-1.4-.7-3.6-.9-3.8-.7-.7.7-.5 2.3-2.4 1.6-2 0-3.9-1.2-5.8-1.3-2.1-3.1-5.5-.9-9.5 1.5-2.9 11.7-3.4 12.4-7.3z"/>
		<path fill="#7786BE" d="M305.1 168.6c-.7 0-2.1.8-2.9.9-6.2.6-8.5 2.2-9.9 3.8-3.4 3.9-7.4.9-7.8-3.8-.2-2.5.8-5.6.4-8.7-.6-6-3.6-8.9-8-9-8.8-.3-17.7 18.5 4.4 50.9 1.4 2.1 5.7 9 3.4 13.1-3.1 5.6-28.2 2-38.4-.6-5.9-1.5-13.4-5-13.9-3.5-.6 1.7 7.9 6.8 9.5 9.9 2.6 4.7-.5 9.9-1.5 14.2-3.5 15.2 1.1 24.7 1.1 24.6.5-2.7 1.4-6.4 2.5-9.8 9.2-28.7 33.2-25.9 41.6-27.4 5.7-1 7.6-6.1 7.9-7.7.5-2.7.5-6.7-2-11-2.5-4.4.5-4.2 2-7.3.7-1.4-.7-3.6-.9-3.8-.7-.7.7-.5 2.3-2.4 1.6-2 0-3.9-1.2-5.8-1.3-2.1-3.1-5.5-.9-9.5 1.4-2.7 11.6-3.2 12.3-7.1z"/>
		<path fill="#7786BE" d="M305.1 168.6c-.7 0-2.1.9-2.9.9-6.2.6-8.4 2.2-9.8 3.8-3.4 4-7.5 1-7.9-3.7-.2-2.5.7-5.6.4-8.7-.6-6-3.5-8.8-7.9-9-8.8-.3-17.5 18.2 4.5 50.6 1.4 2.1 5.8 9.2 3.5 13.4-3.1 5.6-28.3 2.1-38.6-.5-5.9-1.5-13.2-4.9-13.6-3.5-.5 1.6 7.6 6.6 9.3 9.6 2.6 4.7-.5 9.9-1.5 14.3-3.5 15.1.9 24.7 1 24.6.5-2.6 1.4-6.4 2.5-9.8 9.2-28.7 33.2-25.9 41.6-27.4 5.7-1 7.6-6.1 7.9-7.7.5-2.7.5-6.7-2-11-2.5-4.4.5-4.2 2-7.3.7-1.4-.7-3.6-.9-3.8-.7-.7.7-.5 2.3-2.4 1.6-2 0-3.9-1.2-5.8-1.3-2.1-3.1-5.5-.9-9.5 1.3-2.7 11.5-3.2 12.2-7.1z"/>
		<path fill="#7786BE" d="M305.1 168.6c-.7 0-2.1.9-3 1-6.2.7-8.4 2.2-9.7 3.8-3.4 4.1-7.6 1-8.1-3.6-.3-2.5.7-5.6.4-8.7-.6-6-3.3-8.7-7.8-8.9-8.8-.3-17.3 17.9 4.7 50.3 1.4 2.1 5.9 9.4 3.6 13.7-3.1 5.6-28.5 2.2-38.7-.5-5.9-1.5-12.9-4.8-13.3-3.4-.5 1.6 7.3 6.3 9 9.3 2.6 4.7-.5 9.9-1.5 14.3-3.4 14.9.8 24.7.9 24.6.5-2.6 1.4-6.4 2.5-9.8 9.2-28.7 33.2-25.9 41.6-27.4 5.7-1 7.6-6.1 7.9-7.7.5-2.7.5-6.7-2-11-2.5-4.4.5-4.2 2-7.3.7-1.4-.7-3.6-.9-3.8-.7-.7.7-.5 2.3-2.4 1.6-2 0-3.9-1.2-5.8-1.3-2.1-3.1-5.5-.9-9.5 1.3-2.8 11.5-3.3 12.2-7.2z"/>
		<path fill="#7786BE" d="M305.1 168.6c-.7 0-2.2.9-3 1.1-6.2.8-8.3 2.2-9.7 3.8-3.5 4.2-7.6 1.1-8.2-3.5-.3-2.5.7-5.7.4-8.8-.6-6-3.2-8.7-7.7-8.8-8.8-.3-17.2 17.6 4.9 50 1.4 2.1 6 9.6 3.6 14-3.1 5.6-28.6 2.2-38.9-.4-5.9-1.5-12.7-4.7-13.1-3.4-.5 1.5 7.1 6 8.7 9.1 2.6 4.7-.5 10-1.5 14.4-3.4 14.7.7 24.7.7 24.6.5-2.6 1.4-6.4 2.5-9.8 9.2-28.7 33.2-25.9 41.6-27.4 5.7-1 7.6-6.1 7.9-7.7.5-2.7.5-6.7-2-11-2.5-4.4.5-4.2 2-7.3.7-1.4-.7-3.6-.9-3.8-.7-.7.7-.5 2.3-2.4 1.6-2 0-3.9-1.2-5.8-1.3-2.1-3.1-5.5-.9-9.5 1.6-3 11.8-3.5 12.5-7.4z"/>
		<path fill="#7786BE" d="M305.1 168.6c-.7 0-2.2 1-3 1.1-6.2.9-8.3 2.1-9.6 3.8-3.5 4.2-7.7 1.1-8.3-3.5-.3-2.5.7-5.7.4-8.8-.6-6-3.1-8.6-7.5-8.7-8.8-.3-17 17.3 5 49.7 1.4 2.1 6.1 9.9 3.7 14.2-3.1 5.6-28.8 2.3-39-.3-5.9-1.5-12.4-4.6-12.8-3.4-.5 1.5 6.8 5.8 8.5 8.8 2.6 4.7-.5 10-1.5 14.4-3.3 14.6.5 24.7.6 24.6.5-2.6 1.4-6.4 2.5-9.8 9.2-28.7 33.2-25.9 41.6-27.4 5.7-1 7.6-6.1 7.9-7.7.5-2.7.5-6.7-2-11-2.5-4.4.5-4.2 2-7.3.7-1.4-.7-3.6-.9-3.8-.7-.7.7-.5 2.3-2.4 1.6-2 0-3.9-1.2-5.8-1.3-2.1-3.1-5.5-.9-9.5 1.3-2.8 11.5-3.3 12.2-7.2z"/>
		<path fill="#7786BE" d="M305.1 168.6c-.7 0-2.3 1-3.1 1.2-6.2.9-8.2 2.1-9.6 3.8-3.5 4.3-7.8 1.2-8.5-3.4-.4-2.5.7-5.7.4-8.8-.6-6-3-8.5-7.4-8.7-8.8-.3-16.8 17 5.2 49.4 1.4 2.1 6.3 10.1 3.8 14.5-3.1 5.6-28.9 2.4-39.2-.3-5.9-1.5-12.1-4.5-12.5-3.3-.4 1.4 6.5 5.5 8.2 8.5 2.6 4.7-.5 10-1.4 14.4-3.2 14.4.4 24.6.5 24.6.5-2.6 1.4-6.4 2.5-9.8 9.2-28.7 33.2-25.9 41.6-27.4 5.7-1 7.6-6.1 7.9-7.7.5-2.7.5-6.7-2-11-2.5-4.4.5-4.2 2-7.3.7-1.4-.7-3.6-.9-3.8-.7-.7.7-.5 2.3-2.4 1.6-2 0-3.9-1.2-5.8-1.3-2.1-3.1-5.5-.9-9.5 1.4-2.8 11.6-3.3 12.3-7.2z"/>
		<path fill="#7786BE" d="M305.1 168.6c-.7 0-2.3 1.1-3.1 1.2-6.1 1-8.1 2.1-9.5 3.8-3.5 4.4-7.8 1.2-8.6-3.3-.4-2.5.7-5.8.4-8.9-.6-6-2.9-8.4-7.3-8.6-8.8-.3-16.7 16.7 5.4 49.1 1.4 2.1 6.4 10.3 3.8 14.8-3.1 5.6-29.1 2.4-39.3-.2-5.9-1.5-11.9-4.4-12.2-3.3-.4 1.3 6.3 5.2 7.9 8.3 2.6 4.7-.4 10.1-1.4 14.5-3.2 14.2.3 24.6.4 24.6.5-2.5 1.4-6.4 2.5-9.8 9.2-28.7 33.2-25.9 41.6-27.4 5.7-1 7.6-6.1 7.9-7.7.5-2.7.5-6.7-2-11-2.5-4.4.5-4.2 2-7.3.7-1.4-.7-3.6-.9-3.8-.7-.7.7-.5 2.3-2.4 1.6-2 0-3.9-1.2-5.8-1.3-2.1-3.1-5.5-.9-9.5 1.3-2.9 11.5-3.4 12.2-7.3z"/>
		<path fill="#7786BE" d="M305.1 168.6c-.7 0-2.3 1.1-3.1 1.3-6.1 1.1-8.1 2.1-9.4 3.8-3.5 4.4-7.9 1.3-8.7-3.2-.5-2.5.7-5.8.4-8.9-.6-6-2.7-8.4-7.2-8.5-8.8-.3-16.5 16.4 5.5 48.8 1.4 2.1 6.5 10.5 3.9 15-3.1 5.6-29.2 2.5-39.5-.1-5.9-1.5-11.6-4.3-12-3.3-.4 1.3 6 5 7.7 8 2.6 4.7-.4 10.1-1.4 14.5-3.1 14.1.2 24.6.2 24.6.5-2.5 1.4-6.4 2.5-9.8 9.2-28.7 33.2-25.9 41.6-27.4 5.7-1 7.6-6.1 7.9-7.7.5-2.7.5-6.7-2-11-2.5-4.4.5-4.2 2-7.3.7-1.4-.7-3.6-.9-3.8-.7-.7.7-.5 2.3-2.4 1.6-2 0-3.9-1.2-5.8-1.3-2.1-3.1-5.5-.9-9.5 1.4-2.9 11.6-3.4 12.3-7.3z"/>
		<path fill="#7786BE" d="M305.1 168.6c-.7 0-2.4 1.2-3.2 1.3-6.1 1.1-8 2.1-9.4 3.8-3.6 4.5-8 1.4-8.8-3.2-.5-2.5.7-5.8.3-8.9-.6-6-2.6-8.3-7.1-8.4-8.8-.3-16.3 16.1 5.7 48.5 1.4 2.1 6.6 10.7 4 15.3-3.1 5.6-29.4 2.6-39.6-.1-5.9-1.5-11.4-4.3-11.7-3.3-.4 1.2 5.7 4.7 7.4 7.8 2.6 4.7-.4 10.1-1.4 14.5-3.1 13.9 0 24.6.1 24.6.5-2.5 1.4-6.4 2.5-9.8 9.2-28.7 33.2-25.9 41.6-27.4 5.7-1 7.6-6.1 7.9-7.7.5-2.7.5-6.7-2-11-2.5-4.4.5-4.2 2-7.3.7-1.4-.7-3.6-.9-3.8-.7-.7.7-.5 2.3-2.4 1.6-2 0-3.9-1.2-5.8-1.3-2.1-3.1-5.5-.9-9.5 1.5-2.8 11.7-3.3 12.4-7.2z"/>
		<path fill="#7786BE" d="M305.1 168.6c-.7 0-2.4 1.2-3.2 1.4-6.1 1.2-8 2.1-9.3 3.8-3.6 4.6-8 1.4-9-3.1-.5-2.5.7-5.9.3-9-.6-6-2.5-8.2-6.9-8.4-8.8-.3-16.2 15.8 5.9 48.2 1.4 2.1 6.7 10.9 4 15.6-3.1 5.6-29.5 2.6-39.8 0-5.9-1.5-11.1-4.2-11.4-3.2-.3 1.1 5.5 4.5 7.1 7.5 2.6 4.7-.4 10.2-1.3 14.6-3 13.8-.1 24.6 0 24.6.5-2.5 1.4-6.4 2.5-9.8 9.2-28.7 33.2-25.9 41.6-27.4 5.7-1 7.6-6.1 7.9-7.7.5-2.7.5-6.7-2-11-2.5-4.4.5-4.2 2-7.3.7-1.4-.7-3.6-.9-3.8-.7-.7.7-.5 2.3-2.4 1.6-2 0-3.9-1.2-5.8-1.3-2.1-3.1-5.5-.9-9.5 1.4-2.9 11.6-3.4 12.3-7.3z"/>
	</g>
</svg>
