<svg xmlns="http://www.w3.org/2000/svg" id="global-layout" viewBox="0 0 330 100">

	<g id="money">
		<path fill="#7988c2" d="M291.3 31.2s-4.3 4-13.3 4.6c-7.7.5-23.2-3.2-29.6-4.1-6.4-.9-13.6.8-13.6.8v3.3c2.4-.2 5.4-.4 8.7-.1 10.7 1 23.2 4.8 29.3 4.7 9.1-.2 15-4 15-4v19.4c3.1-.9 3.5-2 3.5-2V31.2z"/>
		<path fill="#7988c2" d="M296.3 23.2s-6.2 5.9-14.3 6c-9.1.1-22.6-2.9-29.1-3.8-6.4-.9-13.6.2-13.6.2l.1 3.5c2.4-.2 5.2-.5 8.6-.2 10.7 1 22.4 4.5 29.5 4.4 10.8-.2 15.3-5 15.3-5v19.6c3.1-.9 3.5-2 3.5-2V23.2z"/>
		<g>
			<path fill="#3e4a68" d="M271.3 43.1c-5 .2-19-3.6-29.8-4.7-3.3-.4-6.4-.2-8.8.1-3 .4-4.9.9-4.9.9v27.3s6.8-1.8 15-1c11.2 1.1 25.2 4.8 29.9 4.8 8.2 0 13.3-3.8 13.3-3.8V39.3c.1 0-5.6 3.4-14.7 3.8zm-14.4 21.5c-5.3 0-9.6-4.4-9.6-9.8s4.3-9.8 9.6-9.8 9.6 4.4 9.6 9.8-4.3 9.8-9.6 9.8z"/>
			<g>
				<path fill="#3e4a68" d="M263.5 50.7c0 .8-.4 1.4-1.2 1.4-1.2 0-2.1-2.3-4.2-2.3-.7 0-1.2.3-1.2 1.1 0 2.2 6.8.9 6.8 6.2 0 3-3.2 4.6-4.8 4.8-.5 0-.5.2-.5.8 0 1.1-.1 1.1-1.2 1.1-1 0-1.3.2-1.3-1 0-.4.1-.8-.3-.9-.9-.1-2.6-.5-3.3-1-.8-.6-1.2-2.6-1.2-3.6 0-.5.2-1.1.8-1.1 1.5 0 1.2 3.2 4.7 3.2.5 0 1.6-.2 1.6-1 0-.7-.2-.8-2.6-1.7-2-.7-4.2-2.2-4.2-4.7 0-2.3 1.8-4.1 4-4.6.6-.1.5-.2.5-.8 0-1.2.1-1.1 1.2-1.1 1.1 0 1.3-.2 1.3 1 0 .3-.1.8.3.9.3 0 1.4.3 1.5.3.3 0 .6-.2 1-.2.9 0 2.3 1.8 2.3 3.2z"/>
			</g>
		</g>
	</g>


	<g id="cloud">
		<path fill="#3e4a68" d="M163.2 30.5c-2.8 0-5.4.9-7.6 2.5-2.6-7.6-9-13.1-16.5-13.1-9 0-16.3 7.8-17.5 17.8-1.7-1.1-3.7-1.7-5.8-1.7-6.6 0-12 6.3-12 14s5.4 14 12 14h9.6v-8.6h2.3v-8.9c0-.6.1-1.2.3-1.7.8-2.8 3.3-4.8 6.3-4.8h11.1c3.6 0 6.5 2.9 6.5 6.5v8.9h2.3V64h8.9c8 0 14.4-7.5 14.4-16.8.1-9.2-6.3-16.7-14.3-16.7zm-1.1 6.5c-1.8 0-4.9 2.1-6.5 1.4-2.1-.9-3.3-4.2-5-5.6-9.7-8.8-26.1-2.8-27.9 10.2-1.7-.9-3.5-1.4-5.4-1.4h-.1c-6.1 0-11.2 5.1-11.3 11.2-.1-8.5 8.5-17.2 16.8-11.9 2.1-17.8 26.1-22.5 32.2-4.5 10-7.2 21 3.4 20.8 14-.2-7.3-6.4-13.4-13.6-13.4z"/>
		<path fill="#3e4a68" d="M145.2 46.7h-10.5v8.7h10.5z"/>
		<path fill="#7988c2" d="M150.3 57.1V46.5c0-2.7-2.2-4.9-4.9-4.9h-11.1c-2.7 0-4.9 2.2-4.9 4.9v10.6h-2.3v16.6h25.4V57.1h-2.2zm-12.2 12.2c-.1-.1-.3-.2-.4-.4-1.2-1.8-.4-3.8 1.1-4.4v-3.2c0-.6.5-1.2 1.2-1.2s1.2.5 1.2 1.2v3.2c1 .4 1.7 1.4 1.7 2.6-.1 2.1-2.6 3.7-4.8 2.2zm8.8-12.2H133V46.5c0-.8.6-1.4 1.4-1.4H146c.5 0 .9.4.9.9v11.1z"/>
	</g>


	<g id="site">
		<g>
			<path fill="#7988c2" d="M42 46.9c-.2 1-.5 2.5-.5 3 0 .4.1.8.5.8 1.7 0 4.2-1.7 4.2-5.6 0-6.8-4.1-10.1-10.5-10.1-6.6 0-11.5 5.3-11.5 11.7 0 6.5 4.9 11.7 11.8 11.7 2.7 0 6.5-.2 9.4-2.5l3.6.9c-3.3 4.6-8.5 5.7-13 5.7-9.4 0-16.4-7.1-16.4-15.8 0-8.7 7-15.8 16-15.8 7.5 0 15 4.6 15 13s-6.1 10.7-10.7 10.7c-1.8 0-2.7-.6-2.7-1.9h-.1c-.7 1-2.1 1.9-4 1.9-2.7 0-5.5-2.6-5.5-6.7 0-4.3 2.9-8.4 7.3-8.4 1.9 0 3.4.6 4.4 2.2l.4-1.8h3.4l-1.1 7zm-3.5-.3c0-1.8-1.1-3-2.9-3-2 0-3.5 2-3.5 3.8 0 1.7 1 3 2.7 3 2.2 0 3.7-1.7 3.7-3.8z"/>
		</g>
		<path fill="#3e4a68" d="M36.4 73.4c-3.5 0-6.9-.7-10.2-2.1-3.1-1.3-5.9-3.3-8.3-5.7-2.4-2.4-4.3-5.3-5.6-8.5-1.4-3.3-2.1-6.8-2.1-10.4 0-3.6.7-7.1 2.1-10.4 1.3-3.2 3.2-6 5.6-8.5 2.4-2.4 5.2-4.4 8.3-5.7 3.2-1.4 6.6-2.1 10.2-2.1 3.5 0 6.9.7 10.2 2.1 3.1 1.3 5.9 3.3 8.3 5.7 2.4 2.4 4.3 5.3 5.6 8.5 1.4 3.3 2.1 6.8 2.1 10.4 0 3.6-.7 7.1-2.1 10.4-1.3 3.2-3.2 6-5.6 8.5-2.4 2.4-5.2 4.4-8.3 5.7-3.3 1.4-6.7 2.1-10.2 2.1zm0-49.3c-12.3 0-22.3 10.2-22.3 22.7s10 22.7 22.3 22.7 22.3-10.2 22.3-22.7-10-22.7-22.3-22.7z"/>
	</g>


</svg>
