<svg xmlns="http://www.w3.org/2000/svg" xmlns:xlink="http://www.w3.org/1999/xlink" viewBox="0 0 1100.88 593">
	<defs>
		<style>
			.cls-2 {
			opacity: 0.3;
			mix-blend-mode: multiply;
			}

			.cls-3,
			.cls-4,
			.cls-88 {
			fill: #2a3a63;
			}

			.cls-4,
			.cls-5 {
			fill-rule: evenodd;
			}

			.cls-5,
			.cls-6,
			.cls-86 {
			fill: #7787c0;
			}

			.cls-7 {
			font-size: 27px;
			fill: #191b2b;
			font-family: Roboto;
			}

			.cls-7,
			.cls-84,
			.cls-85,
			.cls-86,
			.cls-87,
			.cls-88 {
			font-weight: 700;
			}



			.cls-44,
			.cls-60 {
			font-size: 19px;
			font-family: Roboto;
			}

			.cls-44,
			.cls-84 {
			fill: #fff;
			}



			.cls-60 {
			fill: #262424;
			}



			.cls-78,
			.cls-79,
			.cls-80,
			.cls-81 {
			fill: none;
			stroke-miterlimit: 10;
			}

			.cls-78 {
			stroke: #3b4c71;
			}

			.cls-79 {
			stroke: #7787c0;
			}

			.cls-80 {
			stroke: #95a4cc;
			}

			.cls-81 {
			stroke: #2a3a63;
			}

			.cls-82,
			.cls-85 {
			fill: #3b4c71;
			}

			.cls-83,
			.cls-87 {
			fill: #95a4cc;
			}

			.cls-84 {
			font-size: 21px;
			}

			.cls-84,
			.cls-85,
			.cls-86,
			.cls-87,
			.cls-88 {
			font-family: Roboto;
			}

			.cls-85,
			.cls-86,
			.cls-87,
			.cls-88 {
			font-size: 25px;
			}
		</style>
	</defs>
	<g i='main-diagramma'>

		<g>
			<path class="cls-4" d="M33.23,12.77V8.64c0-.64,0-.68-.68-.68H28.81c-.59,0-.64,0-.64.63v4.18Z" />
			<path class="cls-4" d="M33.23,22.55V17.79H28.17q0,7.53,0,15.06a1.13,1.13,0,0,0,.16.62H33a.81.81,0,0,0,.2-.68C33.22,29.38,33.23,26,33.23,22.55Z" />
			<path class="cls-4" d="M55.47,15.52a10.14,10.14,0,0,0-.39-2.9A5.82,5.82,0,0,0,52.26,9a8.76,8.76,0,0,0-4.37-1H38.46c-.56,0-.61,0-.61.62v4.19h6.62v0c.81,0,1.61,0,2.42,0a3.43,3.43,0,0,1,3.48,3.5c.09,2.75,0,5.49,0,8.23a4.08,4.08,0,0,1-.87,2.73,3.64,3.64,0,0,1-2.65,1.31c-1.19.1-2.39,0-3.59.06-.3,0-.36-.1-.36-.38,0-2.52,0-5.05,0-7.57V17.79h-5.1V32.85a1.21,1.21,0,0,0,.15.62H48.75c.44-.08.88-.14,1.31-.24a6.49,6.49,0,0,0,4.11-2.64,8.09,8.09,0,0,0,1.3-4.68C55.48,22.44,55.47,19,55.47,15.52Z"/>
			<path class="cls-5" d="M87.35,29A7.7,7.7,0,0,1,86,25.86,34.14,34.14,0,0,1,85.55,21c-.13-2.94-.06-5.81,0-9,0-.27,0-.53,0-.8a18.91,18.91,0,0,0-.13-4,6.21,6.21,0,0,0-1.12-2.74,1.91,1.91,0,0,0-1.51-.78,2.13,2.13,0,0,0-1,.24,2.91,2.91,0,0,0-.94.77,9.79,9.79,0,0,0-1.34,2.07c-1,2.08-1.92,4.27-2.76,6.39-.09.24-.19.47-.28.7-1,2.44-2,4.94-2.9,7.35l-1,2.62a6.88,6.88,0,0,1-.44-1.75C72,20.45,72,18.7,71.92,17v-.54c0-.38,0-.78,0-1.27a.27.27,0,0,0-.27-.27H68.23a.27.27,0,0,0-.28.25c-.1,1.22-.19,2.42-.26,3.57a18.55,18.55,0,0,0,.3,5.39,7,7,0,0,0,1.55,3.24,2.7,2.7,0,0,0,2.78,1,3.26,3.26,0,0,0,1.8-1.17,8.12,8.12,0,0,0,1.16-2c.85-1.88,1.57-3.85,2.26-5.75.1-.28.19-.55.29-.82.21-.58.42-1.16.62-1.73.72-2,1.47-4.1,2.34-6.08l0-.08a6.15,6.15,0,0,1,1-1.68A.3.3,0,0,1,82,8.93c.06,0,.13.07.18.19a1.41,1.41,0,0,1,.1.31,11.05,11.05,0,0,1,.09,2.75c-.07,1.16-.19,2.33-.31,3.47l0,.42c-.12,1.14-.23,2.28-.34,3.4,0,.46-.1.93-.14,1.39a35.84,35.84,0,0,0-.23,4.91,10.36,10.36,0,0,0,.53,3.29A2.51,2.51,0,0,0,84,31h.34a4.49,4.49,0,0,0,2.78-.92C87.66,29.71,87.74,29.53,87.35,29Z"/>
			<path class="cls-5" d="M60.7,14.94H56.58a.26.26,0,0,0-.26.17A85.79,85.79,0,0,0,53,24.79a25.89,25.89,0,0,0-1.12,6,2.66,2.66,0,0,0,1.26,2.54,4.85,4.85,0,0,0,1.22.49,16.88,16.88,0,0,0,2.17.41l.3,0H57a.38.38,0,0,0,.32-.13.5.5,0,0,0,.08-.44,17.25,17.25,0,0,1-.16-2,25.47,25.47,0,0,1,.81-6.38,84.82,84.82,0,0,1,2.9-10,.27.27,0,0,0,0-.25A.28.28,0,0,0,60.7,14.94Z"/>
			<rect class="cls-6" x="57.88" y="8.33" width="4.51" height="4.51" />
			<rect class="cls-6" x="67.5" y="9.15" width="3.12" height="3.12" />
			<rect class="cls-6" x="61.44" width="6.17" height="6.17" />
		</g>
		<g>
			<rect class="cls-3" x="30.23" y="181.37" width="1040.61" height="40.55" rx="19.88" ry="19.88"/>
		</g>

		<text class="cls-7" transform="translate(64.54 29.25)">
			<tspan class="cls-8" x="57.24" y="0">должна стать новым и неотъемлемым атрибутом жизни каждого человка,</tspan>
			<tspan x="189.65" y="32.4">сравнимый по важность с электронной подписью, </tspan>
			<tspan class="cls-16" x="33.52" y="64.8">это персональное хранилище личной информации с уровнем безопасности</tspan>
			<tspan class="cls-38" x="281.11" y="97.2">недоступным ранее обычным людям.</tspan>
		</text>
		<text class="cls-44" transform="translate(251.73 207.23)">
			<tspan class="cls-45">Данные, которые людям и бизнесу необходимо хранить в безопасности:</tspan>
		</text>
		<text class="cls-60" transform="translate(751.68 523.83)">
			<tspan class="cls-61">Фото и видео файлы</tspan>
		</text>
		<text class="cls-60" transform="translate(140.86 341.23)">
			<tspan class="cls-66" x="11.29" y="0">Личная документы</tspan>
		</text>
		<text class="cls-60" transform="translate(790.32 290.35)">
			<tspan class="cls-47" x="0" y="0">Финансовая и банковская</tspan>
			<tspan x="0" y="22.8">информация</tspan>
		</text>
		<text class="cls-60" transform="translate(140.86 555.53)">
			<tspan class="cls-56">Комерческая информация</tspan>
		</text>
		<g>
			<polyline class="cls-78" points="539.02 437.36 306.49 350.62 116.1 350.62" />
			<polyline class="cls-79" points="539.02 437.36 754.63 319.53 1008.41 319.53" />
			<polyline class="cls-80" points="539.02 437.36 716.99 533.53 1008.41 533.53" />
			<polyline class="cls-81" points="539.02 437.36 384.33 566.62 116.1 566.62" />
			<path class="cls-82" d="M537.62,282.72A154.66,154.66,0,0,0,410.67,523.65L539,437.36Z" />
			<path class="cls-6" d="M702.5,403A167.08,167.08,0,0,0,539,270.33l-1.51,0,1.51,167Z" />
			<path class="cls-83" d="M539,437.36,493.41,586.2a155.77,155.77,0,0,0,198-180.87Z" />
			<path class="cls-3" d="M417.23,519.24A147,147,0,0,0,496,577.69l43-140.33Z" />
		</g>
		<text class="cls-84" transform="translate(417.23 397.15)">34,5%</text>
		<text class="cls-84" transform="translate(579.68 537.18)">32,7%</text>
		<text class="cls-84" transform="translate(439.31 537.18)">10,0%</text>
		<text class="cls-84" transform="translate(590.89 369.45)">21,8%</text>
		<text class="cls-85" transform="translate(116.1 341.23)">1.</text>
		<text class="cls-86" transform="translate(762.22 290.35)">3.</text>
		<text class="cls-87" transform="translate(721.55 523.83)">4.</text>
		<text class="cls-88" transform="translate(116.1 555.52)">2.</text>
	</g>
</svg>
