<svg xmlns="http://www.w3.org/2000/svg" viewBox="0 0 932.2 352.09" width='735' height='280'>
    <defs>
        <style>
            .cls-1 {
                fill: none;
                stroke: #7787c0;
                stroke-miterlimit: 10;
                stroke-width: 0.44px;
            }

            .cls-2,
            .cls-3 {
                fill: #2a3a63;
            }

            .cls-3,
            .cls-4 {
                fill-rule: evenodd;
            }

            .cls-4,
            .cls-5 {
                fill: #7787c0;
            }
        </style>
    </defs>
    <title>Ресурс 4</title>
    <g id="Слой_2" data-name="Слой 2">
        <g id="Слой_10" data-name="Слой 10">
            <line class="cls-1" x1="453.85" y1="206.28" x2="453.85" />
            <line class="cls-1" x1="395.34" y1="109.84" x2="395.34" />
            <line class="cls-1" x1="512.36" y1="109.84" x2="512.36" />
            <line class="cls-1" x1="62.26" y1="206.28" x2="62.26" y2="109.84" />
            <line class="cls-1" x1="861.89" y1="206.28" x2="861.89" y2="109.84" />
            <line class="cls-1" x1="512.36" y1="109.84" x2="861.89" y2="109.84" />
            <line class="cls-1" x1="62.26" y1="109.84" x2="395.34" y2="109.84" />
            <path class="cls-2" d="M928.1,328.42V294.69l-27.45-11.93v45.66h-2.48v-72H857.48v72H855V274.67l-40.69,14v39.71h-4.09V337h122v-8.6Zm-92-4.84H829v-6.94h7.12Zm0-9.2H829v-6.94h7.12Zm0-9.72H829v-6.94h7.12Zm0-9.2H829v-6.94h7.12Zm10.62,28.12h-7.12v-6.94h7.12Zm0-9.2h-7.12v-6.94h7.12Zm0-9.72h-7.12v-6.94h7.12Zm0-9.2h-7.12v-6.94h7.12Zm29.12,26.43h-11.6V310.57h11.6Zm0-15h-11.6V295.58h11.6Zm0-15.84h-11.6V279.74h11.6Zm0-15h-11.6V264.74h11.6Zm15.56,45.83h-11.6V310.57h11.6Zm0-15h-11.6V295.58h11.6Zm0-15.84h-11.6V279.74h11.6Zm0-15h-11.6V264.74h11.6Zm21,46.65h-7.11v-6.94h7.11Zm0-9.71h-7.11v-6.95h7.11Zm0-9.2h-7.11v-6.95h7.11ZM923,322.71h-7.11v-6.94H923Zm0-9.71h-7.11v-6.95H923Zm0-9.2h-7.11v-6.95H923Z"
            />
            <path class="cls-3" d="M400.54,289v-8.91c0-1.39-.09-1.49-1.45-1.49H391c-1.27,0-1.38.1-1.38,1.36v9Z" />
            <path class="cls-3" d="M400.54,310.19V299.9H389.61q0,16.28,0,32.55a2.44,2.44,0,0,0,.34,1.34h10.19a1.74,1.74,0,0,0,.41-1.47Z" />
            <path class="cls-3" d="M448.64,295a22.4,22.4,0,0,0-.84-6.26,12.69,12.69,0,0,0-6.09-7.9,19.12,19.12,0,0,0-9.47-2.18c-6.79,0-13.59,0-20.38,0-1.2,0-1.31.12-1.31,1.35v9h14.32v.06c1.73,0,3.47,0,5.21.05a7.44,7.44,0,0,1,7.54,7.58c.18,5.93.05,11.86.07,17.79a8.77,8.77,0,0,1-1.87,5.91,7.91,7.91,0,0,1-5.72,2.83c-2.59.2-5.18,0-7.77.11-.65,0-.78-.2-.78-.81,0-5.45,0-10.91,0-16.37V299.9h-11q0,16.28,0,32.55a2.52,2.52,0,0,0,.33,1.34h23.24c.94-.17,1.89-.31,2.83-.52a14,14,0,0,0,8.88-5.71,17.45,17.45,0,0,0,2.82-10.11C448.66,310,448.64,302.47,448.64,295Z"
            />
            <path class="cls-4" d="M517.56,324.11a16.36,16.36,0,0,1-2.86-6.76,72.17,72.17,0,0,1-1-10.47c-.28-6.36-.12-12.56.1-19.43,0-.57,0-1.14.07-1.72a39.9,39.9,0,0,0-.28-8.58,13.19,13.19,0,0,0-2.43-5.94,4.13,4.13,0,0,0-3.25-1.68,4.58,4.58,0,0,0-2.07.53,6.94,6.94,0,0,0-2.05,1.66,21.89,21.89,0,0,0-2.88,4.48c-2.28,4.49-4.16,9.24-6,13.82l-.59,1.5c-2.1,5.28-4.22,10.68-6.27,15.91-.74,1.87-1.48,3.76-2.22,5.65a14.42,14.42,0,0,1-.94-3.78c-.47-3.66-.57-7.43-.67-11.08l0-1.17c0-.81,0-1.68-.06-2.73a.59.59,0,0,0-.6-.59h-7.3a.6.6,0,0,0-.6.55c-.21,2.63-.41,5.22-.57,7.71a39.84,39.84,0,0,0,.66,11.66,15,15,0,0,0,3.35,7,6.25,6.25,0,0,0,4.63,2.24,5.89,5.89,0,0,0,1.37-.16,7,7,0,0,0,3.89-2.54,18.48,18.48,0,0,0,2.53-4.3c1.84-4.07,3.38-8.32,4.87-12.44.21-.59.42-1.18.64-1.77.45-1.24.9-2.51,1.34-3.74,1.56-4.35,3.17-8.85,5.06-13.15l.07-.16a13.58,13.58,0,0,1,2.06-3.63.67.67,0,0,1,.41-.27c.13,0,.28.16.4.42a2.88,2.88,0,0,1,.2.66,23.92,23.92,0,0,1,.21,6c-.15,2.5-.42,5-.68,7.49l-.1.92c-.25,2.45-.5,4.93-.74,7.34-.1,1-.21,2-.31,3a78.44,78.44,0,0,0-.5,10.62,22.88,22.88,0,0,0,1.15,7.12c1,2.66,2.58,4,4.85,4.17.24,0,.49,0,.73,0a9.75,9.75,0,0,0,6-2C518.23,325.66,518.41,325.28,517.56,324.11Z"
            />
            <path class="cls-4" d="M460,293.73H451a.61.61,0,0,0-.56.37A188.71,188.71,0,0,0,443.36,315a56.71,56.71,0,0,0-2.42,13,5.73,5.73,0,0,0,2.73,5.5,10.6,10.6,0,0,0,2.64,1.07,35.4,35.4,0,0,0,4.69.87l.63.09.33,0a.9.9,0,0,0,.71-.29,1.12,1.12,0,0,0,.17-.95,36.58,36.58,0,0,1-.36-4.34,55.8,55.8,0,0,1,1.75-13.79,184,184,0,0,1,6.28-21.67.6.6,0,0,0-.07-.55A.61.61,0,0,0,460,293.73Z"
            />
            <rect class="cls-5" x="453.85" y="279.44" width="9.76" height="9.76" />
            <rect class="cls-5" x="474.64" y="281.22" width="6.75" height="6.75" />
            <rect class="cls-5" x="461.54" y="261.43" width="13.33" height="13.33" />
            <path class="cls-2" d="M48.47,256.55c-7.3,6.07-21,15.87-38.06,21,.81,15.46,6,42.11,30.19,58.62,1.36-5.49,2.93-9.12,5.21-11.14a26.57,26.57,0,0,1,2.66-2Zm0,95.54h0Zm48.39-80.67.13-1.78-1.74-.37c-25.74-5.5-45.12-24.9-45.32-25.09l-1.46-1.48L47,244.18c-.2.19-19.58,19.59-45.32,25.09l-1.7.4.08,1.74c0,.12,0,.36,0,.71C0,288.3,3.79,326,38.45,346.91c.26-1.52.52-3,.78-4.34-31.11-19.66-35-54.06-35-69.66,22.33-5.28,39.32-19.83,44.29-24.45,5,4.62,22,19.17,44.3,24.45,0,2.09-.09,4.52-.28,7.2a13,13,0,0,1,1.16,1.44,15.77,15.77,0,0,1,2.26,5.26,106.16,106.16,0,0,0,1-14.69Z"
            />
            <path class="cls-4" d="M108.58,327.81c-1.81-1.6-6.44-4.76-20.2-11.82l-3.12,21.14-6.8,9.75-6.92-9.75L68.38,316c-13.59,7-18.32,10.2-20.12,11.79-2.94,2.6-4.69,11-6.31,20.57h72.94C113.41,340.34,111.52,330.41,108.58,327.81ZM78.45,342.72l4.14-6-2.7-10.06,1.89-2.94-3.33-3.19-3.4,3.19,1.9,2.94-2.7,10.06ZM63.38,300.28c.4,1.68,1.55,2.84,2.58,2.63a32.5,32.5,0,0,0,2.72,6.57c1.41,2.08,6.45,5.27,9.61,5.27s8.46-3.19,9.88-5.27A34.49,34.49,0,0,0,91,302.92c1,.17,2.15-1,2.55-2.64s-.08-3.16-1-3.5a19.18,19.18,0,0,0,.19-2.12c.43-4-.11-8.16-2.08-11-3.17-4.63-9.49-5.21-12.49-5.05a7.54,7.54,0,0,1,3-.48c-5.49-.95-7.63.87-10.27,2.71a6.49,6.49,0,0,0-5.11,2.65,5.74,5.74,0,0,1,1.94-1.22,8.35,8.35,0,0,0-3.84,5.31,26.25,26.25,0,0,0,.61,9.24C63.45,297.17,63,298.67,63.38,300.28Z"
            />
        </g>
    </g>
</svg>
