<svg xmlns="http://www.w3.org/2000/svg" viewBox="0 0 59.43 34.29"><defs><style>.cls-1{fill:#2a3a63;}.cls-1,.cls-2{fill-rule:evenodd;}.cls-2,.cls-3{fill:#7787c0;}</style></defs><title>Ресурс 3</title><g id="Слой_2" data-name="Слой 2"><g id="Слой_4" data-name="Слой 4"><path class="cls-1" d="M5.06,12.77V8.64C5.06,8,5,8,4.39,8H.64C.05,8,0,8,0,8.59v4.18Z" transform="translate(0)"/><path class="cls-1" d="M5.06,22.55V17.79H0V32.85a1.13,1.13,0,0,0,.16.62H4.87a.8.8,0,0,0,.19-.68Z" transform="translate(0)"/><path class="cls-1" d="M27.31,15.52a10.51,10.51,0,0,0-.39-2.9A5.86,5.86,0,0,0,24.1,9a8.77,8.77,0,0,0-4.38-1H10.29c-.55,0-.6,0-.6.62v4.19h6.62v0c.81,0,1.61,0,2.41,0a3.44,3.44,0,0,1,3.49,3.5c.08,2.75,0,5.49,0,8.23a4,4,0,0,1-.86,2.73,3.66,3.66,0,0,1-2.65,1.31c-1.2.1-2.4,0-3.59.06-.3,0-.36-.1-.36-.38,0-2.52,0-5.05,0-7.57V17.79H9.69q0,7.53,0,15.06a1.13,1.13,0,0,0,.16.62H20.59c.43-.08.87-.14,1.31-.24A6.46,6.46,0,0,0,26,30.59a8.1,8.1,0,0,0,1.31-4.68C27.32,22.44,27.31,19,27.31,15.52Z" transform="translate(0)"/><path class="cls-2" d="M59.19,29a7.44,7.44,0,0,1-1.33-3.13A34.18,34.18,0,0,1,57.38,21c-.12-2.94-.05-5.81,0-9l0-.8a17.65,17.65,0,0,0-.13-4,6,6,0,0,0-1.12-2.74,1.88,1.88,0,0,0-1.5-.78,2.13,2.13,0,0,0-1,.24,3,3,0,0,0-1,.77,10.13,10.13,0,0,0-1.33,2.07c-1.06,2.08-1.93,4.27-2.77,6.39l-.27.7c-1,2.44-2,4.94-2.9,7.35-.34.87-.68,1.74-1,2.62a6.9,6.9,0,0,1-.43-1.75A49,49,0,0,1,43.76,17l0-.54c0-.38,0-.78,0-1.27a.28.28,0,0,0-.28-.27H40.06a.27.27,0,0,0-.27.25c-.1,1.22-.19,2.42-.27,3.57a18.58,18.58,0,0,0,.31,5.39,6.85,6.85,0,0,0,1.55,3.24,2.89,2.89,0,0,0,2.14,1,2.79,2.79,0,0,0,.63-.08A3.26,3.26,0,0,0,46,27.18a8.5,8.5,0,0,0,1.17-2c.85-1.88,1.56-3.85,2.25-5.75l.3-.82c.21-.58.42-1.16.62-1.73.72-2,1.46-4.1,2.34-6.08l0-.08a6.17,6.17,0,0,1,1-1.68.3.3,0,0,1,.19-.12s.12.07.18.19a1,1,0,0,1,.09.31,11.06,11.06,0,0,1,.1,2.75c-.07,1.16-.19,2.33-.31,3.47l0,.42c-.12,1.14-.23,2.28-.34,3.4,0,.46-.1.93-.14,1.39a35.82,35.82,0,0,0-.24,4.91,10.65,10.65,0,0,0,.53,3.29A2.52,2.52,0,0,0,55.88,31h.33A4.52,4.52,0,0,0,59,30.08C59.5,29.71,59.58,29.53,59.19,29Z" transform="translate(0)"/><path class="cls-2" d="M32.54,14.94H28.41a.28.28,0,0,0-.26.17,90,90,0,0,0-3.29,9.68,25.89,25.89,0,0,0-1.11,6A2.64,2.64,0,0,0,25,33.34a4.71,4.71,0,0,0,1.22.49,16.88,16.88,0,0,0,2.17.41l.29,0h.15a.42.42,0,0,0,.33-.13.5.5,0,0,0,.08-.44,17,17,0,0,1-.17-2,25.94,25.94,0,0,1,.81-6.38,84.89,84.89,0,0,1,2.91-10,.29.29,0,0,0-.26-.37Z" transform="translate(0)"/><rect class="cls-3" x="29.72" y="8.33" width="4.51" height="4.51"/><rect class="cls-3" x="39.33" y="9.15" width="3.12" height="3.12"/><rect class="cls-3" x="33.28" width="6.17" height="6.17"/></g></g></svg>