<svg xmlns="http://www.w3.org/2000/svg" viewBox="0 0 129.18 129.18">
	<g>
		<g>
			<path d="M92.54,36.91A22.24,22.24,0,0,0,70.33,59.12c0,.48,0,1,0,1.41a28.42,28.42,0,0,1,11.41,18A22.21,22.21,0,1,0,92.54,36.91Zm1,31.1v3.12h-3V68.26A12.57,12.57,0,0,1,85.41,67l.91-3.54a10.65,10.65,0,0,0,5,1.34c1.75,0,2.93-.7,2.93-1.88S93.31,61,91,60.23c-3.24-1.08-5.44-2.6-5.44-5.53,0-2.7,1.87-4.79,5.11-5.39V46.43h3V49.1a10.88,10.88,0,0,1,4.42,1l-.91,3.42a9.35,9.35,0,0,0-4.36-1.06c-2,0-2.6.87-2.6,1.72s1.06,1.64,3.66,2.57c3.6,1.28,5,2.94,5,5.69S97,67.44,93.56,68Z" fill="#7b9bd1"/>
			<g>
				<path d="M50.6,113.85A28.36,28.36,0,1,1,79,85.49,28.39,28.39,0,0,1,50.6,113.85Zm0-48.73A20.37,20.37,0,1,0,71,85.49,20.4,20.4,0,0,0,50.6,65.12Z" fill="#fff"/>
				<path d="M48.68,104.68v-4.47a19.8,19.8,0,0,1-8-2l1.41-5.52a16.57,16.57,0,0,0,7.82,2.08c2.73,0,4.57-1.09,4.57-2.92s-1.51-2.92-5-4.1c-5-1.7-8.48-4-8.48-8.62,0-4.19,2.92-7.44,8-8.38V66.25h4.62V70.4A17,17,0,0,1,60.4,72L59,77.27a14.75,14.75,0,0,0-6.78-1.64c-3.06,0-4.05,1.36-4.05,2.68,0,1.51,1.65,2.54,5.7,4,5.6,2,7.82,4.57,7.82,8.86s-2.92,7.77-8.34,8.66v4.85Z" fill="#fff"/>
			</g>
			<g>
				<path d="M35.4,41.86a19.06,19.06,0,1,1,38.12,0v.21a20.78,20.78,0,0,1,7-5.19A26.53,26.53,0,1,0,34.25,59a26.32,26.32,0,0,1,6.84-3.61A19,19,0,0,1,35.4,41.86Z" fill="#7b9bd1"/>
				<path d="M55.67,52.48c4.16-.69,6.4-3.43,6.4-6.65s-1.69-5.28-6-6.8C53,37.91,51.7,37.11,51.7,36s.76-2.06,3.11-2.06A11.28,11.28,0,0,1,60,35.16l1.09-4.08a13,13,0,0,0-5.28-1.2V26.7H52.28v3.44c-3.87.72-6.12,3.21-6.12,6.43,0,3.51,2.64,5.32,6.51,6.62,2.72.9,3.87,1.77,3.87,3.14S55.13,48.58,53,48.58A12.78,12.78,0,0,1,47,47L46,51.22a15.08,15.08,0,0,0,6.14,1.55V54a24.72,24.72,0,0,1,3.58.55Z" fill="#7b9bd1"/>
			</g>
		</g>
		<circle cx="64.59" cy="64.59" r="63.09" fill="none" stroke="#7b9bd1" stroke-miterlimit="10" stroke-width="3"/>
	</g>
</svg>
