<svg xmlns="http://www.w3.org/2000/svg" viewBox="0 0 67.17 28.58"><defs><style>.cls-1{fill:#2a3a63;}.cls-2{fill:#7787c0;}</style></defs><title>Ресурс 2</title><g id="Слой_2" data-name="Слой 2"><g id="Слой_10" data-name="Слой 10"><path class="cls-1" d="M.1,25.5V20.09A10.46,10.46,0,0,0,3.3,22a10.29,10.29,0,0,0,3.48.61,7.93,7.93,0,0,0,1.8-.18,4.39,4.39,0,0,0,1.29-.52,2.29,2.29,0,0,0,.77-.78,1.92,1.92,0,0,0,.25-1,2.11,2.11,0,0,0-.4-1.27,4.63,4.63,0,0,0-1.11-1,10.71,10.71,0,0,0-1.67-.91c-.64-.3-1.33-.6-2.08-.9A10.61,10.61,0,0,1,1.4,13.11,6.26,6.26,0,0,1,0,9,6.51,6.51,0,0,1,.76,5.73,6.44,6.44,0,0,1,2.83,3.49a9.38,9.38,0,0,1,3-1.3,16,16,0,0,1,3.65-.41A21,21,0,0,1,12.88,2a13,13,0,0,1,2.7.7V7.76A8.13,8.13,0,0,0,14.25,7a10.85,10.85,0,0,0-1.48-.53,12,12,0,0,0-1.51-.32,12.3,12.3,0,0,0-1.43-.1,7.45,7.45,0,0,0-1.7.18,4.56,4.56,0,0,0-1.28.5A2.4,2.4,0,0,0,6,7.52a1.84,1.84,0,0,0-.29,1,2,2,0,0,0,.32,1.09,3.92,3.92,0,0,0,.91.91,10.34,10.34,0,0,0,1.44.85c.57.27,1.2.56,1.91.85A22.07,22.07,0,0,1,13,13.52a9.52,9.52,0,0,1,2,1.55,5.8,5.8,0,0,1,1.27,2,6.84,6.84,0,0,1,.44,2.58A7,7,0,0,1,15.87,23a6.21,6.21,0,0,1-2.09,2.23,8.86,8.86,0,0,1-3.07,1.22A17.55,17.55,0,0,1,7,26.86a21.06,21.06,0,0,1-3.8-.34A11.32,11.32,0,0,1,.1,25.5Z"/><path class="cls-1" d="M26.1,26.43H20.63V2.18H26.1Z"/><path class="cls-1" d="M67.17,26.43H52.63V2.18h14V6.63H58.09V12H66v4.43H58.09V22h9.08Z"/><path class="cls-2" d="M47.06,26.43H29.53V23.29L42,6.63H32.42V2.18H49V5.24L36.87,22H47.06Z"/><path class="cls-2" d="M37.85,4.4A4.41,4.41,0,1,1,33.44,0,4.41,4.41,0,0,1,37.85,4.4Z"/><circle class="cls-2" cx="45.12" cy="24.17" r="4.4"/></g></g></svg>