<?xml-stylesheet type="text/css" href="../css/style.min.css"?>
<svg xmlns="http://www.w3.org/2000/svg" xmlns:xlink="http://www.w3.org/1999/xlink" viewBox="1145 108 410 390" width="410" height="310" style='outline: 1px solid red;'>
	<g id='main-group'>
		<path id="XMLID_916_" fill="#2A3B64" d="M1435.6,491H1259c-2,0-4-1-4.2-3.9v-2.6l19.3-35.7c1-2.1,3.2-3.4,5.5-3.4h135.2      c2.5,0,8.1,5,9.2,7.2l16,32.5v1.2C1439.9,489.6,1437.8,491,1435.6,491z"/>
		<path id="XMLID_915_" fill="#B9CDD4" d="M1435.6,487.2H1259c-2,0-5.2-1.7-4-3.8l19.1-38.4c1-2.1,3.2-3.4,5.5-3.4h135.2      c2.5,0,4.8,1.4,6,3.7l18.9,37.8C1440.9,485.4,1437.8,487.2,1435.6,487.2z"/>
		<rect id="XMLID_914_" x="1274" y="346.4" fill="#2A3B64" />
		<rect id="XMLID_911_" x="1279.6" y="351.3" fill="#D97B67" />
		<path id="XMLID_908_" fill="#2A3B64" d="M1372.9,485.6h-52.1c-0.6,0-1-0.5-0.9-1.1l2.2-13.7c0.1-0.7,0.8-1.3,1.5-1.3h46.9      c0.7,0,1.2,0.5,1.3,1.1l2,13.8C1374,485,1373.5,485.6,1372.9,485.6z"/>
		<path id="XMLID_905_" fill="#2A3B64" d="M1287.4,449.8h-5.6c-0.8,0-1.3-0.2-1.2-0.5l0.3-0.8c0.1-0.3,0.8-0.5,1.6-0.5h5.6      c0.8,0,1.3,0.2,1.2,0.5l-0.3,0.8C1288.9,449.5,1288.2,449.8,1287.4,449.8z"/>
		<path id="XMLID_902_" fill="#2A3B64" d="M1296.9,449.8h-5.6c-0.8,0-1.3-0.2-1.2-0.5l0.3-0.8c0.1-0.3,0.8-0.5,1.6-0.5h5.6      c0.8,0,1.3,0.2,1.3,0.5l-0.3,0.8C1298.4,449.5,1297.7,449.8,1296.9,449.8z"/>
		<path id="XMLID_899_" fill="#2A3B64" d="M1306.5,449.8h-5.6c-0.8,0-1.4-0.2-1.3-0.5l0.2-0.8c0.1-0.3,0.8-0.5,1.6-0.5h5.6      c0.8,0,1.4,0.2,1.3,0.5l-0.2,0.8C1308,449.5,1307.3,449.8,1306.5,449.8z"/>
		<path id="XMLID_896_" fill="#2A3B64" d="M1316,449.8h-5.6c-0.8,0-1.4-0.2-1.3-0.5l0.2-0.8c0.1-0.3,0.7-0.5,1.5-0.5h5.6      c0.8,0,1.4,0.2,1.3,0.5l-0.2,0.8C1317.5,449.5,1316.8,449.8,1316,449.8z"/>
		<path id="XMLID_893_" fill="#2A3B64" d="M1325.5,449.8h-5.6c-0.8,0-1.4-0.2-1.3-0.5l0.1-0.8c0-0.3,0.7-0.5,1.5-0.5h5.6      c0.8,0,1.4,0.2,1.3,0.5l-0.1,0.8C1327,449.5,1326.3,449.8,1325.5,449.8z"/>
		<path id="XMLID_890_" fill="#2A3B64" d="M1335,449.8h-5.6c-0.8,0-1.4-0.2-1.4-0.5l0.1-0.8c0-0.3,0.7-0.5,1.5-0.5h5.6      c0.8,0,1.4,0.2,1.4,0.5l-0.1,0.8C1336.5,449.5,1335.8,449.8,1335,449.8z"/>
		<path id="XMLID_887_" fill="#2A3B64" d="M1344.6,449.8h-5.6c-0.8,0-1.4-0.2-1.4-0.5l0-0.8c0-0.3,0.7-0.5,1.4-0.5h5.6      c0.8,0,1.4,0.2,1.4,0.5l0,0.8C1346,449.5,1345.4,449.8,1344.6,449.8z"/>
		<path id="XMLID_884_" fill="#2A3B64" d="M1354.1,449.8h-5.6c-0.8,0-1.4-0.2-1.4-0.5l0-0.8c0-0.3,0.6-0.5,1.4-0.5h5.6      c0.8,0,1.4,0.2,1.4,0.5l0,0.8C1355.5,449.5,1354.9,449.8,1354.1,449.8z"/>
		<path id="XMLID_881_" fill="#2A3B64" d="M1363.6,449.8h-5.6c-0.8,0-1.4-0.2-1.5-0.5l-0.1-0.8c0-0.3,0.6-0.5,1.4-0.5h5.6      c0.8,0,1.4,0.2,1.5,0.5l0.1,0.8C1365,449.5,1364.4,449.8,1363.6,449.8z"/>
		<path id="XMLID_878_" fill="#2A3B64" d="M1373.1,449.8h-5.6c-0.8,0-1.5-0.2-1.5-0.5l-0.1-0.8c0-0.3,0.6-0.5,1.3-0.5h5.6      c0.8,0,1.4,0.2,1.5,0.5l0.1,0.8C1374.5,449.5,1373.9,449.8,1373.1,449.8z"/>
		<path id="XMLID_875_" fill="#2A3B64" d="M1382.7,449.8h-5.6c-0.8,0-1.5-0.2-1.5-0.5l-0.2-0.8c-0.1-0.3,0.5-0.5,1.3-0.5h5.6      c0.8,0,1.5,0.2,1.5,0.5l0.2,0.8C1384,449.5,1383.5,449.8,1382.7,449.8z"/>
		<path id="XMLID_872_" fill="#2A3B64" d="M1392.2,449.8h-5.6c-0.8,0-1.5-0.2-1.6-0.5l-0.2-0.8c-0.1-0.3,0.5-0.5,1.3-0.5h5.6      c0.8,0,1.5,0.2,1.6,0.5l0.2,0.8C1393.6,449.5,1393,449.8,1392.2,449.8z"/>
		<path id="XMLID_869_" fill="#2A3B64" d="M1401.7,449.8h-5.6c-0.8,0-1.5-0.2-1.6-0.5l-0.3-0.8c-0.1-0.3,0.5-0.5,1.3-0.5h5.6      c0.8,0,1.5,0.2,1.6,0.5l0.3,0.8C1403.1,449.5,1402.5,449.8,1401.7,449.8z"/>
		<path id="XMLID_866_" fill="#2A3B64" d="M1411.2,449.8h-5.6c-0.8,0-1.5-0.2-1.6-0.5l-0.3-0.8c-0.1-0.3,0.4-0.5,1.2-0.5h5.6      c0.8,0,1.5,0.2,1.6,0.5l0.3,0.8C1412.6,449.5,1412,449.8,1411.2,449.8z"/>
		<path id="XMLID_863_" fill="#2A3B64" d="M1286.9,452.9h-7.2c-0.2,0-0.3-0.1-0.3-0.1l1.1-2.6c0-0.1,0.2-0.1,0.4-0.1h7.1      c0.2,0,0.3,0.1,0.3,0.1l-0.9,2.6C1287.2,452.9,1287.1,452.9,1286.9,452.9z"/>
		<path id="XMLID_860_" fill="#2A3B64" d="M1300.2,456.4h-7.4c-0.2,0-0.3-0.1-0.3-0.1l0.9-2.7c0-0.1,0.2-0.1,0.4-0.1h7.2      c0.2,0,0.3,0.1,0.3,0.1l-0.7,2.7C1300.6,456.3,1300.4,456.4,1300.2,456.4z"/>
		<path id="XMLID_857_" fill="#2A3B64" d="M1301.4,460h-7.5c-0.2,0-0.3-0.1-0.3-0.1l0.9-2.9c0-0.1,0.2-0.1,0.4-0.1h7.4      c0.2,0,0.3,0.1,0.3,0.1l-0.7,2.9C1301.8,459.9,1301.6,460,1301.4,460z"/>
		<path id="XMLID_854_" fill="#2A3B64" d="M1305.6,463.8h-7.7c-0.2,0-0.3-0.1-0.3-0.1l0.8-3c0-0.1,0.2-0.1,0.4-0.1h7.5      c0.2,0,0.3,0.1,0.3,0.1l-0.7,3C1306,463.7,1305.8,463.8,1305.6,463.8z"/>
		<path id="XMLID_851_" fill="#2A3B64" d="M1281.4,468.1h-7.8c-0.2,0-0.3-0.1-0.3-0.2l1.4-3.5c0-0.1,0.2-0.1,0.4-0.1h7.7      c0.2,0,0.3,0.1,0.3,0.1l-1.3,3.5C1281.8,468.1,1281.6,468.1,1281.4,468.1z"/>
		<path id="XMLID_848_" fill="#2A3B64" d="M1291.9,468.1h-7.8c-0.2,0-0.4-0.1-0.3-0.2l1.2-3.5c0-0.1,0.2-0.1,0.4-0.1h7.7      c0.2,0,0.3,0.1,0.3,0.1l-1.1,3.5C1292.3,468.1,1292.1,468.1,1291.9,468.1z"/>
		<path id="XMLID_845_" fill="#2A3B64" d="M1302,468.1h-7.8c-0.2,0-0.4-0.1-0.3-0.2l1-3.5c0-0.1,0.2-0.1,0.4-0.1h7.7      c0.2,0,0.4,0.1,0.3,0.1l-0.9,3.5C1302.4,468.1,1302.2,468.1,1302,468.1z"/>
		<path id="XMLID_842_" fill="#2A3B64" d="M1314.8,468.1h-10.3c-0.2,0-0.4-0.1-0.4-0.2l0.8-3.5c0-0.1,0.2-0.2,0.5-0.2h10.1      c0.2,0,0.4,0.1,0.4,0.2l-0.6,3.5C1315.2,468.1,1315,468.1,1314.8,468.1z"/>
		<path id="XMLID_839_" fill="#2A3B64" d="M1378.3,468.1H1368c-0.2,0-0.4-0.1-0.5-0.2l-0.4-3.5c0-0.1,0.2-0.2,0.4-0.2h10.1      c0.2,0,0.4,0.1,0.5,0.2l0.6,3.5C1378.7,468.1,1378.6,468.1,1378.3,468.1z"/>
		<path id="XMLID_836_" fill="#2A3B64" d="M1388.8,468.1h-7.7c-0.2,0-0.4-0.1-0.4-0.2l-0.7-3.6c0-0.1,0.1-0.1,0.3-0.1h7.6      c0.2,0,0.4,0.1,0.4,0.1l0.8,3.6C1389.1,468.1,1389,468.1,1388.8,468.1z"/>
		<path id="XMLID_833_" fill="#2A3B64" d="M1365.4,468.1h-47.7c-0.5,0-0.9-0.2-0.8-0.4l0.5-3.1c0-0.2,0.5-0.4,0.9-0.4h46.6      c0.5,0,0.9,0.2,0.9,0.4l0.3,3.1C1366.3,468,1365.9,468.1,1365.4,468.1z"/>
		<path id="XMLID_830_" fill="#2A3B64" d="M1315.6,463.8h-7.7c-0.2,0-0.3-0.1-0.3-0.1l0.7-3c0-0.1,0.2-0.1,0.4-0.1h7.5      c0.2,0,0.3,0.1,0.3,0.1l-0.5,3C1316,463.7,1315.8,463.8,1315.6,463.8z"/>
		<path id="XMLID_827_" fill="#2A3B64" d="M1325.6,463.8h-7.7c-0.2,0-0.3-0.1-0.3-0.1l0.5-3c0-0.1,0.2-0.1,0.4-0.1h7.5      c0.2,0,0.3,0.1,0.3,0.1l-0.3,3C1325.9,463.7,1325.8,463.8,1325.6,463.8z"/>
		<path id="XMLID_824_" fill="#2A3B64" d="M1335.6,463.8h-7.7c-0.2,0-0.3-0.1-0.3-0.1l0.3-3c0-0.1,0.2-0.1,0.4-0.1h7.5      c0.2,0,0.3,0.1,0.3,0.1l-0.2,3C1335.9,463.7,1335.8,463.8,1335.6,463.8z"/>
		<path id="XMLID_821_" fill="#2A3B64" d="M1345.5,463.8h-7.7c-0.2,0-0.3-0.1-0.3-0.1l0.1-3c0-0.1,0.2-0.1,0.3-0.1h7.5      c0.2,0,0.3,0.1,0.3,0.1l0,3C1345.9,463.7,1345.7,463.8,1345.5,463.8z"/>
		<path id="XMLID_818_" fill="#2A3B64" d="M1355.5,463.8h-7.7c-0.2,0-0.3-0.1-0.3-0.1l0-3c0-0.1,0.2-0.1,0.3-0.1h7.5      c0.2,0,0.3,0.1,0.3,0.1l0.2,3C1355.9,463.7,1355.7,463.8,1355.5,463.8z"/>
		<path id="XMLID_815_" fill="#2A3B64" d="M1365.5,463.8h-7.7c-0.2,0-0.4-0.1-0.4-0.1l-0.2-3c0-0.1,0.1-0.1,0.3-0.1h7.5      c0.2,0,0.3,0.1,0.4,0.1l0.3,3C1365.8,463.7,1365.7,463.8,1365.5,463.8z"/>
		<path id="XMLID_812_" fill="#2A3B64" d="M1375.5,463.8h-7.7c-0.2,0-0.4-0.1-0.4-0.1l-0.4-3c0-0.1,0.1-0.1,0.3-0.1h7.5      c0.2,0,0.3,0.1,0.4,0.1l0.5,3C1375.8,463.7,1375.6,463.8,1375.5,463.8z"/>
		<path id="XMLID_809_" fill="#2A3B64" d="M1385.4,463.8h-7.7c-0.2,0-0.4-0.1-0.4-0.1l-0.5-3c0-0.1,0.1-0.1,0.3-0.1h7.5      c0.2,0,0.4,0.1,0.4,0.1l0.7,3C1385.8,463.7,1385.6,463.8,1385.4,463.8z"/>
		<path id="XMLID_806_" fill="#2A3B64" d="M1398,468.2h-6c-0.8,0-1.4-0.3-1.5-0.6l-0.2-0.9c-0.1-0.3,0.5-0.5,1.2-0.5h5.9      c0.8,0,1.4,0.2,1.5,0.5l0.3,0.9C1399.3,468,1398.8,468.2,1398,468.2z"/>
		<path id="XMLID_803_" fill="#2A3B64" d="M1408.3,468.2h-6c-0.8,0-1.5-0.3-1.5-0.6l-0.3-0.9c-0.1-0.3,0.4-0.5,1.2-0.5h5.9      c0.8,0,1.4,0.2,1.6,0.5l0.3,0.9C1409.6,468,1409,468.2,1408.3,468.2z"/>
		<path id="XMLID_800_" fill="#2A3B64" d="M1407.5,466h-5.9c-0.8,0-1.4-0.2-1.5-0.5l-0.3-0.9c-0.1-0.3,0.4-0.5,1.2-0.5h5.8      c0.7,0,1.4,0.2,1.5,0.5l0.3,0.9C1408.8,465.7,1408.3,466,1407.5,466z"/>
		<path id="XMLID_797_" fill="#2A3B64" d="M1418.5,468.2h-6c-0.8,0-1.5-0.3-1.6-0.6l-0.3-0.9c-0.1-0.3,0.4-0.5,1.2-0.5h5.9      c0.8,0,1.5,0.2,1.6,0.5l0.4,0.9C1419.8,468,1419.3,468.2,1418.5,468.2z"/>
		<path id="XMLID_794_" fill="#2A3B64" d="M1311.3,460h-7.5c-0.2,0-0.3-0.1-0.3-0.1l0.7-2.9c0-0.1,0.2-0.1,0.4-0.1h7.4      c0.2,0,0.3,0.1,0.3,0.1l-0.6,2.9C1311.6,459.9,1311.4,460,1311.3,460z"/>
		<path id="XMLID_791_" fill="#2A3B64" d="M1321.1,460h-7.5c-0.2,0-0.3-0.1-0.3-0.1l0.5-2.9c0-0.1,0.2-0.1,0.4-0.1h7.4      c0.2,0,0.3,0.1,0.3,0.1l-0.4,2.9C1321.5,459.9,1321.3,460,1321.1,460z"/>
		<path id="XMLID_788_" fill="#2A3B64" d="M1331,460h-7.5c-0.2,0-0.3-0.1-0.3-0.1l0.4-2.9c0-0.1,0.2-0.1,0.3-0.1h7.4      c0.2,0,0.3,0.1,0.3,0.1l-0.2,2.9C1331.3,459.9,1331.1,460,1331,460z"/>
		<path id="XMLID_785_" fill="#2A3B64" d="M1340.8,460h-7.5c-0.2,0-0.3-0.1-0.3-0.1l0.2-2.9c0-0.1,0.2-0.1,0.3-0.1h7.4      c0.2,0,0.3,0.1,0.3,0.1l-0.1,2.9C1341.1,459.9,1340.9,460,1340.8,460z"/>
		<path id="XMLID_782_" fill="#2A3B64" d="M1350.6,460h-7.5c-0.2,0-0.3-0.1-0.3-0.1l0.1-2.9c0-0.1,0.2-0.1,0.3-0.1h7.4      c0.2,0,0.3,0.1,0.3,0.1l0.1,2.9C1350.9,459.9,1350.8,460,1350.6,460z"/>
		<path id="XMLID_779_" fill="#2A3B64" d="M1360,460h-7.5c-0.2,0-0.3-0.1-0.3-0.1l-0.1-2.9c0-0.1,0.1-0.1,0.3-0.1h7.4      c0.2,0,0.3,0.1,0.3,0.1l0.2,2.9C1360.4,459.9,1360.2,460,1360,460z"/>
		<path id="XMLID_776_" fill="#2A3B64" d="M1369.8,460h-7.5c-0.2,0-0.3-0.1-0.4-0.1l-0.3-2.9c0-0.1,0.1-0.1,0.3-0.1h7.4      c0.2,0,0.3,0.1,0.4,0.1l0.4,2.9C1370.1,459.9,1370,460,1369.8,460z"/>
		<path id="XMLID_773_" fill="#2A3B64" d="M1379.5,460h-7.5c-0.2,0-0.3-0.1-0.4-0.1l-0.4-2.9c0-0.1,0.1-0.1,0.3-0.1h7.4      c0.2,0,0.3,0.1,0.4,0.1l0.6,2.9C1379.9,459.9,1379.7,460,1379.5,460z"/>
		<path id="XMLID_770_" fill="#2A3B64" d="M1389.2,460h-7.5c-0.2,0-0.4-0.1-0.4-0.1l-0.6-2.9c0-0.1,0.1-0.1,0.3-0.1h7.4      c0.2,0,0.3,0.1,0.4,0.1l0.7,2.9C1389.6,459.9,1389.4,460,1389.2,460z"/>
		<path id="XMLID_767_" fill="#2A3B64" d="M1398.9,460h-7.5c-0.2,0-0.4-0.1-0.4-0.1l-0.7-2.9c0-0.1,0.1-0.1,0.3-0.1h7.4      c0.2,0,0.4,0.1,0.4,0.1l0.9,2.9C1399.3,459.9,1399.1,460,1398.9,460z"/>
		<path id="XMLID_764_" fill="#2A3B64" d="M1395.3,463.8h-7.7c-0.2,0-0.4-0.1-0.4-0.1l-0.7-3c0-0.1,0.1-0.1,0.3-0.1h7.5      c0.2,0,0.4,0.1,0.4,0.1l0.8,3C1395.6,463.7,1395.5,463.8,1395.3,463.8z"/>
		<path id="XMLID_761_" fill="#2A3B64" d="M1416.1,460h-14.5c-0.3,0-0.5-0.1-0.5-0.2l-0.9-2.8c0-0.1,0.1-0.2,0.4-0.2h14.2      c0.3,0,0.5,0.1,0.5,0.2l1.1,2.8C1416.6,459.9,1416.4,460,1416.1,460z"/>
		<path id="XMLID_758_" fill="#2A3B64" d="M1417.6,463.8h-19.9c-0.3,0-0.6-0.1-0.6-0.2l-0.8-2.8c0-0.1,0.2-0.2,0.5-0.2h19.5      c0.3,0,0.6,0.1,0.6,0.2l1.2,2.8C1418.1,463.7,1417.9,463.8,1417.6,463.8z"/>
		<path id="XMLID_755_" fill="#2A3B64" d="M1291.6,460H1277c-0.3,0-0.4-0.1-0.4-0.2l1.1-2.8c0-0.1,0.3-0.2,0.5-0.2h14.4      c0.3,0,0.4,0.1,0.4,0.2l-0.9,2.8C1292.1,459.9,1291.9,460,1291.6,460z"/>
		<path id="XMLID_752_" fill="#2A3B64" d="M1295.5,463.8h-20.2c-0.3,0-0.5-0.1-0.5-0.2l1.1-2.8c0-0.1,0.3-0.2,0.6-0.2h19.8      c0.3,0,0.5,0.1,0.5,0.2l-0.8,2.8C1296.1,463.7,1295.8,463.8,1295.5,463.8z"/>
		<path id="XMLID_749_" fill="#2A3B64" d="M1309.8,456.4h-7.4c-0.2,0-0.3-0.1-0.3-0.1l0.7-2.7c0-0.1,0.2-0.1,0.4-0.1h7.2      c0.2,0,0.3,0.1,0.3,0.1l-0.6,2.7C1310.1,456.3,1310,456.4,1309.8,456.4z"/>
		<path id="XMLID_746_" fill="#2A3B64" d="M1319.3,456.4h-7.4c-0.2,0-0.3-0.1-0.3-0.1l0.6-2.7c0-0.1,0.2-0.1,0.4-0.1h7.2      c0.2,0,0.3,0.1,0.3,0.1l-0.4,2.7C1319.7,456.3,1319.5,456.4,1319.3,456.4z"/>
		<path id="XMLID_743_" fill="#2A3B64" d="M1328.9,456.4h-7.4c-0.2,0-0.3-0.1-0.3-0.1l0.4-2.7c0-0.1,0.2-0.1,0.3-0.1h7.2      c0.2,0,0.3,0.1,0.3,0.1l-0.3,2.7C1329.3,456.3,1329.1,456.4,1328.9,456.4z"/>
		<path id="XMLID_740_" fill="#2A3B64" d="M1338.5,456.4h-7.4c-0.2,0-0.3-0.1-0.3-0.1l0.3-2.7c0-0.1,0.2-0.1,0.3-0.1h7.2      c0.2,0,0.3,0.1,0.3,0.1l-0.1,2.7C1338.9,456.3,1338.7,456.4,1338.5,456.4z"/>
		<path id="XMLID_737_" fill="#2A3B64" d="M1348.1,456.4h-7.4c-0.2,0-0.3-0.1-0.3-0.1l0.1-2.7c0-0.1,0.2-0.1,0.3-0.1h7.2      c0.2,0,0.3,0.1,0.3,0.1l0,2.7C1348.4,456.3,1348.2,456.4,1348.1,456.4z"/>
		<path id="XMLID_734_" fill="#2A3B64" d="M1357.4,456.4h-7.4c-0.2,0-0.3-0.1-0.3-0.1l-0.1-2.7c0-0.1,0.1-0.1,0.3-0.1h7.2      c0.2,0,0.3,0.1,0.3,0.1l0.2,2.7C1357.7,456.3,1357.6,456.4,1357.4,456.4z"/>
		<path id="XMLID_731_" fill="#2A3B64" d="M1367.1,456.4h-7.4c-0.2,0-0.3-0.1-0.3-0.1l-0.2-2.7c0-0.1,0.1-0.1,0.3-0.1h7.2      c0.2,0,0.3,0.1,0.3,0.1l0.3,2.7C1367.4,456.3,1367.2,456.4,1367.1,456.4z"/>
		<path id="XMLID_728_" fill="#2A3B64" d="M1376.6,456.4h-7.4c-0.2,0-0.3-0.1-0.3-0.1l-0.4-2.7c0-0.1,0.1-0.1,0.3-0.1h7.2      c0.2,0,0.3,0.1,0.3,0.1l0.5,2.7C1376.9,456.3,1376.8,456.4,1376.6,456.4z"/>
		<path id="XMLID_725_" fill="#2A3B64" d="M1386,456.4h-7.4c-0.2,0-0.3-0.1-0.4-0.1l-0.5-2.7c0-0.1,0.1-0.1,0.3-0.1h7.2      c0.2,0,0.3,0.1,0.4,0.1l0.7,2.7C1386.3,456.3,1386.2,456.4,1386,456.4z"/>
		<path id="XMLID_722_" fill="#2A3B64" d="M1395.8,456.4h-7.4c-0.2,0-0.3-0.1-0.4-0.1l-0.7-2.7c0-0.1,0.1-0.1,0.3-0.1h7.2      c0.2,0,0.3,0.1,0.4,0.1l0.8,2.7C1396.1,456.3,1396,456.4,1395.8,456.4z"/>
		<path id="XMLID_719_" fill="#2A3B64" d="M1405.2,456.4h-7.4c-0.2,0-0.3-0.1-0.4-0.1l-0.8-2.7c0-0.1,0.1-0.1,0.3-0.1h7.2      c0.2,0,0.3,0.1,0.4,0.1l1,2.7C1405.5,456.3,1405.3,456.4,1405.2,456.4z"/>
		<path id="XMLID_716_" fill="#2A3B64" d="M1414.8,456.4h-7.4c-0.2,0-0.4-0.1-0.4-0.1l-1-2.7c0-0.1,0.1-0.1,0.3-0.1h7.2      c0.2,0,0.3,0.1,0.4,0.1l1.1,2.7C1415.1,456.3,1415,456.4,1414.8,456.4z"/>
		<path id="XMLID_713_" fill="#2A3B64" d="M1296.4,452.9h-7.2c-0.2,0-0.3-0.1-0.3-0.1l0.9-2.6c0-0.1,0.2-0.1,0.4-0.1h7.1      c0.2,0,0.3,0.1,0.3,0.1l-0.8,2.6C1296.8,452.9,1296.6,452.9,1296.4,452.9z"/>
		<path id="XMLID_710_" fill="#2A3B64" d="M1305.7,452.9h-7.2c-0.2,0-0.3-0.1-0.3-0.1l0.8-2.6c0-0.1,0.2-0.1,0.4-0.1h7.1      c0.2,0,0.3,0.1,0.3,0.1l-0.6,2.6C1306,452.9,1305.9,452.9,1305.7,452.9z"/>
		<path id="XMLID_707_" fill="#2A3B64" d="M1315.2,452.9h-7.2c-0.2,0-0.3-0.1-0.3-0.1l0.6-2.6c0-0.1,0.2-0.1,0.3-0.1h7.1      c0.2,0,0.3,0.1,0.3,0.1l-0.5,2.6C1315.5,452.9,1315.3,452.9,1315.2,452.9z"/>
		<path id="XMLID_704_" fill="#2A3B64" d="M1324.4,452.9h-7.2c-0.2,0-0.3-0.1-0.3-0.1l0.5-2.6c0-0.1,0.2-0.1,0.3-0.1h7.1      c0.2,0,0.3,0.1,0.3,0.1l-0.3,2.6C1324.7,452.9,1324.6,452.9,1324.4,452.9z"/>
		<path id="XMLID_701_" fill="#2A3B64" d="M1333.9,452.9h-7.2c-0.2,0-0.3-0.1-0.3-0.1l0.3-2.6c0-0.1,0.2-0.1,0.3-0.1h7.1      c0.2,0,0.3,0.1,0.3,0.1l-0.2,2.6C1334.2,452.9,1334.1,452.9,1333.9,452.9z"/>
		<path id="XMLID_698_" fill="#2A3B64" d="M1343.1,452.9h-7.2c-0.2,0-0.3-0.1-0.3-0.1l0.2-2.6c0-0.1,0.2-0.1,0.3-0.1h7.1      c0.2,0,0.3,0.1,0.3,0.1l0,2.6C1343.4,452.9,1343.3,452.9,1343.1,452.9z"/>
		<path id="XMLID_695_" fill="#2A3B64" d="M1352.6,452.9h-7.2c-0.2,0-0.3-0.1-0.3-0.1l0-2.6c0-0.1,0.1-0.1,0.3-0.1h7.1      c0.2,0,0.3,0.1,0.3,0.1l0.1,2.6C1352.9,452.9,1352.8,452.9,1352.6,452.9z"/>
		<path id="XMLID_692_" fill="#2A3B64" d="M1361.8,452.9h-7.2c-0.2,0-0.3-0.1-0.3-0.1l-0.1-2.6c0-0.1,0.1-0.1,0.3-0.1h7.1      c0.2,0,0.3,0.1,0.3,0.1l0.3,2.6C1362.2,452.9,1362,452.9,1361.8,452.9z"/>
		<path id="XMLID_689_" fill="#2A3B64" d="M1371.3,452.9h-7.2c-0.2,0-0.3-0.1-0.3-0.1l-0.3-2.6c0-0.1,0.1-0.1,0.3-0.1h7.1      c0.2,0,0.3,0.1,0.3,0.1l0.4,2.6C1371.6,452.9,1371.5,452.9,1371.3,452.9z"/>
		<path id="XMLID_686_" fill="#2A3B64" d="M1380.8,452.9h-7.2c-0.2,0-0.3-0.1-0.3-0.1l-0.4-2.6c0-0.1,0.1-0.1,0.3-0.1h7.1      c0.2,0,0.3,0.1,0.3,0.1l0.6,2.6C1381.1,452.9,1381,452.9,1380.8,452.9z"/>
		<path id="XMLID_683_" fill="#2A3B64" d="M1390.2,452.9h-7.2c-0.2,0-0.3-0.1-0.4-0.1l-0.6-2.6c0-0.1,0.1-0.1,0.3-0.1h7.1      c0.2,0,0.3,0.1,0.4,0.1l0.7,2.6C1390.5,452.9,1390.4,452.9,1390.2,452.9z"/>
		<path id="XMLID_680_" fill="#2A3B64" d="M1399.2,452.9h-7.2c-0.2,0-0.3-0.1-0.4-0.1l-0.7-2.6c0-0.1,0.1-0.1,0.3-0.1h7.1      c0.2,0,0.3,0.1,0.4,0.1l0.9,2.6C1399.5,452.9,1399.4,452.9,1399.2,452.9z"/>
		<path id="XMLID_677_" fill="#2A3B64" d="M1412.7,452.9h-10.8c-0.5,0-1-0.2-1-0.3l-0.7-2.2c-0.1-0.2,0.3-0.3,0.8-0.3h10.6      c0.5,0,0.9,0.1,1,0.3l0.9,2.2C1413.5,452.8,1413.2,452.9,1412.7,452.9z"/>
		<path id="XMLID_674_" fill="#2A3B64" d="M1289.9,456.4h-11c-0.5,0-0.9-0.2-0.8-0.3l0.9-2.3c0.1-0.2,0.5-0.3,1-0.3h10.8      c0.5,0,0.9,0.2,0.8,0.3l-0.8,2.3C1290.9,456.2,1290.4,456.4,1289.9,456.4z"/>
		<rect id="XMLID_671_" x="1283.8" y="437.8" fill="#2A3B64" width="21.5" height="3.8"/>
		<rect id="XMLID_668_" x="1387.2" y="437.7" fill="#2A3B64" width="21.5" height="3.8"/>

		<path id="XMLID_666_" fill="#FFFFFF" d="M1376.7,415c4.4-6,7-13.4,7-21.5c0-20.1-16.3-36.4-36.4-36.4     c-20.1,0-36.4,16.3-36.4,36.4c0,8,2.6,15.4,7,21.5H1376.7z"/>

		<path id="XMLID_648_" fill="#FFFFFF" stroke="#FFFFFF" stroke-width="1.583" stroke-miterlimit="10" d="M1350.7,409.2        c-0.8-1-1.2-1.8-3.3-1.9c-2.1,0-2.6,0.9-3.3,1.9c-1.2,1.6,0.1,2.7,0.1,4.3c0.1,1.1,1.1,1.2,1.6,1.9c0.4,0.6,1.2,0.7,1.7,0.8        c0.7-0.2,1.2-0.1,1.6-0.8c0.5-0.7,1.7-0.7,1.8-1.9C1350.8,411.9,1351.9,410.8,1350.7,409.2z M1346.3,412.3        c-0.2,0.2-0.2,0.2-1,0.5c-0.7,0.3-1.1-0.7-1.2-1c0-0.3,0.1-1.2,0.6-1.2c0.7,0,0.9-0.2,1.6-0.2c0.7,0,0.8,0.7,0.6,1.2        C1346.8,411.9,1346.4,412.2,1346.3,412.3z M1347.8,413.1c-0.2,0.1-0.3-0.1-0.4-0.1c-0.1,0-0.2,0.2-0.4,0.2        c-0.2-0.1-0.1-0.1-0.1-0.7c0.1-0.4,0.3-0.7,0.4-0.7c0.2,0,0.4,0.3,0.4,0.6C1347.9,412.7,1348,413.1,1347.8,413.1z         M1350.7,411.8c0,0.3-0.5,1.2-1.2,1c-0.8-0.3-0.8-0.3-1-0.5c-0.1-0.1-0.4-0.4-0.5-0.7c-0.2-0.4-0.1-1.2,0.6-1.2        c0.6,0,0.9,0.1,1.6,0.2C1350.7,410.6,1350.8,411.6,1350.7,411.8z"/>
		<path id="XMLID_644_" fill="#FFFFFF" stroke="#FFFFFF" stroke-width="1.583" stroke-miterlimit="10" d="M1343.8,418.9        c2.5-0.9,5-1.8,7.6-2.7c0.3,0.1,0.7,0.2,1,0.3c0.2,0.1,0.6-0.1,0.8-0.4c0.2-0.3,0.3-0.7-0.1-1.1c0-0.5-0.3-0.8-0.7-0.9        c-0.4-0.1-0.7,0-0.9,0.2c-0.2,0.3-0.4,0.6-0.6,0.9c-2.5,0.9-5,1.8-7.6,2.7c-0.3-0.1-0.7-0.2-1-0.3c-0.2-0.1-0.6,0.1-0.8,0.4        c-0.2,0.3-0.3,0.7,0.1,1.1c0,0.5,0.3,0.8,0.7,0.9c0.4,0.1,0.7,0,0.9-0.2C1343.4,419.5,1343.6,419.2,1343.8,418.9z"/>
		<path id="XMLID_640_" fill="#FFFFFF" stroke="#FFFFFF" stroke-width="1.583" stroke-miterlimit="10" d="M1341.4,416.1        c0.2,0.3,0.6,0.5,0.8,0.4c0.3-0.1,0.9-0.2,1.2-0.3c0,0-0.2,0-0.2,0c0.7,0.3,1.5,0.5,2.2,0.8c0,0,0,0,0,0        c0.5-0.2,0.9-0.3,1.4-0.5c0.1,0,0.1-0.1,0-0.1c-1.1-0.4-2.2-0.8-3.3-1.2c0,0,0,0,0,0c-0.2-0.3-0.4-0.6-0.6-0.9        c-0.1-0.2-0.5-0.3-0.9-0.2c-0.4,0.1-0.7,0.4-0.7,0.9c0,0,0,0,0,0C1341.1,415.4,1341.2,415.8,1341.4,416.1z"/>
		<path id="XMLID_636_" fill="#FFFFFF" stroke="#FFFFFF" stroke-width="1.583" stroke-miterlimit="10" d="M1353.2,419.2        C1353.2,419.2,1353.2,419.2,1353.2,419.2c0,0.2,0,0.3-0.1,0.5c-0.1,0.2-0.2,0.3-0.4,0.3c-0.1,0-0.1,0.1-0.2,0.1        c-0.4,0.1-0.7,0-0.9-0.2c-0.2-0.3-0.4-0.6-0.6-0.9c0,0,0,0,0,0c-1.1-0.4-2.2-0.8-3.3-1.2c-0.1,0-0.1-0.1,0-0.1        c0.4-0.2,0.9-0.3,1.4-0.5h0c0.7,0.3,1.5,0.5,2.2,0.8c0,0,0,0,0,0c0.3-0.1,0.7-0.2,1-0.3c0.2-0.1,0.6,0.1,0.8,0.4        C1353.4,418.4,1353.5,418.8,1353.2,419.2z"/>

		<path id="XMLID_631_" fill="#FFFFFF" stroke="#FFFFFF" stroke-width="1.583" stroke-miterlimit="10" d="M1367.3,425.3h-39.7       c-0.2,0-0.4,0.2-0.4,0.5v0.9l1,0.6c0.1,0,0.2,0.1,0.2,0.1h38.2c0.1,0,0.2,0,0.2-0.1l0.9-0.6l0,0v-0.9       C1367.8,425.5,1367.6,425.3,1367.3,425.3z"/>


		<path id="XMLID_618_" fill="#FFFFFF" stroke="#FFFFFF" stroke-width="1.583" stroke-miterlimit="10" d="M1363.9,402.7h-32.7       c-0.6,0-1.2,0.5-1.2,1.2v21h35v-21C1365.1,403.2,1364.5,402.7,1363.9,402.7z M1353.7,417.8c0.4,0.5,0.4,1.2,0,1.7       c0,0.2-0.1,0.4-0.2,0.5c-0.1,0.2-0.3,0.4-0.6,0.6c-0.1,0.1-0.2,0.1-0.3,0.1c-0.2,0-0.3,0.1-0.5,0.1c-0.5,0-0.9-0.2-1.1-0.5       c-0.1-0.2-0.3-0.4-0.4-0.7l0,0c-1-0.4-2-0.7-3.1-1.1c-0.1,0-0.1-0.1-0.2-0.1c-1.1,0.4-2.1,0.8-3.2,1.1       c-0.2,0.2-0.3,0.5-0.5,0.7c-0.2,0.3-0.6,0.5-1.1,0.5c-0.2,0-0.3,0-0.5-0.1c-0.6-0.2-1.1-0.7-1.1-1.2c-0.3-0.5-0.3-1.1,0-1.7       c0.2-0.3,0.4-0.5,0.7-0.6c-0.3-0.1-0.7-0.3-0.9-0.6c-0.4-0.5-0.4-1.2-0.1-1.7c0.1-0.6,0.5-1.1,1.1-1.2c0.2,0,0.3-0.1,0.5-0.1       c0.5,0,0.9,0.2,1.1,0.5c0.1,0.2,0.3,0.5,0.4,0.7c0.1,0,0.1,0,0.2,0.1c-0.3-0.3-0.5-0.7-0.6-1.2l0,0v0c0-0.5-0.1-0.9-0.3-1.4       c-0.3-1-0.7-2,0.3-3.3l0.2-0.2c0.7-0.9,1.4-1.8,3.6-1.9c2.3,0,2.9,0.9,3.6,1.9l0.2,0.2c1,1.3,0.7,2.4,0.5,3.3       c-0.1,0.4-0.2,0.9-0.2,1.3v0l0,0c0,0,0,0.1,0,0.1c0.2-0.1,0.5-0.2,0.8-0.2c0.2,0,0.3,0,0.5,0.1c0.6,0.2,1.1,0.7,1.1,1.2       c0.3,0.5,0.3,1.1,0,1.7c-0.2,0.3-0.6,0.6-0.9,0.7C1353.1,417.2,1353.5,417.4,1353.7,417.8z"/>

		<path id="XMLID_599_" fill="#FFFFFF" stroke="#FFFFFF" stroke-width="1.583" stroke-miterlimit="10" d="M1357.8,379.8h-1.6      c-0.2-1.1-1-1.1-1.6-1.1h-5.7c-0.4,0-0.7,0-0.9,0.2c0,0,0,0,0,0.1h-0.6h-0.5c0,0,0,0,0-0.1c-0.2-0.2-0.6-0.2-0.9-0.2h-5.7      c-0.6,0-1.4,0-1.6,1.1h-1.7v1.6h1.7c0.1,1.1,0.4,2.1,1.9,2.1c5.7,0,6.6-0.9,6.6-3c0-0.2,0-0.3,0-0.4c0,0,0.2-0.1,0.3-0.1      c0.1,0,0.3,0.1,0.3,0.1c0,0.1,0,0.3,0,0.4c0,2.1,0.9,3,6.6,3c1.4,0,1.8-1,1.9-2.1h1.6V379.8z M1340.4,382.9      c-1.2,0-1.3-0.8-1.3-2.5c0-1,0.3-1,1.1-1h5.7c0.1,0,0.4,0,0.5,0.1c0.1,0.1,0.1,0.7,0.1,1.1      C1346.4,382,1346.2,382.9,1340.4,382.9z M1354.3,382.9c-5.7,0-6-0.9-6-2.4c0-0.4,0-1,0.1-1.1c0.1-0.1,0.4-0.1,0.5-0.1h5.7      c0.7,0,1.1,0,1.1,1C1355.6,382.1,1355.5,382.9,1354.3,382.9z"/>
		<path id="XMLID_544_" fill="#FFFFFF" stroke="#FFFFFF" stroke-width="1.583" stroke-miterlimit="10" d="M1376.2,413      c-1.6-8.2-2.4-12.4-7.8-18.7l-9.7-6.1c2.8-3.3,5.7-5.8,5.7-7c0-0.2,0-0.3-0.1-0.5h0c0,0,0,0,0,0c0-0.1,0-0.1-0.1-0.2      c-0.5-1.6-3.3-11.4-7.9-18.4c-0.3-0.5-0.7-1-1.2-1.4c-1.6-1.5-5.8-4-7.9-4h0h0c-2,0-6.2,2.5-7.9,4c-0.5,0.4-0.9,0.9-1.2,1.4      c-4.6,7-7.5,16.8-7.9,18.4c0,0.1,0,0.1-0.1,0.2c0,0,0,0,0,0c0,0,0,0,0,0c0,0.2-0.1,0.3-0.1,0.5c0,1.2,2.9,3.7,5.7,7l-9.7,6.1      c-5.4,6.3-6.2,10.5-7.8,18.7c-0.6,3.1,6.6,7.3,10.8,9.5v-18.7c0-1.1,0.9-2,2-2h32.7c1.1,0,2,0.9,2,2v18.5      C1370.1,420,1376.8,415.9,1376.2,413z M1357.2,379.3c0.1,0,0.2,0.1,0.2,0.2c0,0,0,0.2,0,0.4h-1.1c-0.1-0.4-0.2-0.6-0.4-0.8      C1356.5,379.1,1357,379.2,1357.2,379.3z M1355.7,380.4c0,1.8-0.1,2.5-1.3,2.5c-5.7,0-6-0.9-6-2.4c0-0.4,0-1,0.1-1.1      c0.1-0.1,0.4-0.1,0.5-0.1h5.7C1355.4,379.3,1355.7,379.3,1355.7,380.4z M1347.4,377.9c1.4,0,4.3,0.4,6.6,0.8h-5.1      c-0.4,0-0.7,0-0.9,0.2c0,0,0,0,0,0.1h-0.6h-0.5c0,0,0,0,0-0.1c-0.2-0.2-0.6-0.2-0.9-0.2h-5.2      C1343.1,378.4,1346,377.9,1347.4,377.9z M1340.3,379.3h5.7c0.1,0,0.4,0,0.5,0.1c0.1,0.1,0.1,0.7,0.1,1.1c0,1.5-0.3,2.4-6,2.4      c-1.2,0-1.3-0.8-1.3-2.5C1339.2,379.3,1339.5,379.3,1340.3,379.3z M1337.6,379.3c0.3,0,0.8-0.1,1.5-0.3      c-0.2,0.2-0.3,0.4-0.4,0.8h-1.2c0-0.2,0-0.4,0-0.4C1337.5,379.3,1337.5,379.3,1337.6,379.3z M1349.5,393.8      c-0.9,0.5-3.3,0.5-4.2,0c-2.4-1.5-6.7-8.6-7.8-12.4h1.1c0.1,1.1,0.4,2.1,1.9,2.1c5.7,0,6.6-0.9,6.6-3c0-0.2,0-0.3,0-0.4      c0,0,0.2-0.1,0.3-0.1c0.1,0,0.3,0.1,0.3,0.1c0,0.1,0,0.3,0,0.4c0,2.1,0.9,3,6.6,3c1.4,0,1.8-1,1.9-2.1h1      C1356.2,385.3,1351.9,392.4,1349.5,393.8z"/>


		<path id="XMLID_529_" fill="#2A3B64" d="M1350.7,409.2c-0.8-1-1.2-1.8-3.3-1.9c-2.1,0-2.6,0.9-3.3,1.9        c-1.2,1.6,0.1,2.7,0.1,4.3c0.1,1.1,1.1,1.2,1.6,1.9c0.4,0.6,1.2,0.7,1.7,0.8c0.7-0.2,1.2-0.1,1.6-0.8c0.5-0.7,1.7-0.7,1.8-1.9        C1350.8,411.9,1351.9,410.8,1350.7,409.2z M1346.3,412.3c-0.2,0.2-0.2,0.2-1,0.5c-0.7,0.3-1.1-0.7-1.2-1        c0-0.3,0.1-1.2,0.6-1.2c0.7,0,0.9-0.2,1.6-0.2c0.7,0,0.8,0.7,0.6,1.2C1346.8,411.9,1346.4,412.2,1346.3,412.3z M1347.8,413.1        c-0.2,0.1-0.3-0.1-0.4-0.1c-0.1,0-0.2,0.2-0.4,0.2c-0.2-0.1-0.1-0.1-0.1-0.7c0.1-0.4,0.3-0.7,0.4-0.7c0.2,0,0.4,0.3,0.4,0.6        C1347.9,412.7,1348,413.1,1347.8,413.1z M1350.7,411.8c0,0.3-0.5,1.2-1.2,1c-0.8-0.3-0.8-0.3-1-0.5c-0.1-0.1-0.4-0.4-0.5-0.7        c-0.2-0.4-0.1-1.2,0.6-1.2c0.6,0,0.9,0.1,1.6,0.2C1350.7,410.6,1350.8,411.6,1350.7,411.8z"/>
		<path id="XMLID_519_" fill="#2A3B64" d="M1343.8,418.9c2.5-0.9,5-1.8,7.6-2.7c0.3,0.1,0.7,0.2,1,0.3c0.2,0.1,0.6-0.1,0.8-0.4        c0.2-0.3,0.3-0.7-0.1-1.1c0-0.5-0.3-0.8-0.7-0.9c-0.4-0.1-0.7,0-0.9,0.2c-0.2,0.3-0.4,0.6-0.6,0.9c-2.5,0.9-5,1.8-7.6,2.7        c-0.3-0.1-0.7-0.2-1-0.3c-0.2-0.1-0.6,0.1-0.8,0.4c-0.2,0.3-0.3,0.7,0.1,1.1c0,0.5,0.3,0.8,0.7,0.9c0.4,0.1,0.7,0,0.9-0.2        C1343.4,419.5,1343.6,419.2,1343.8,418.9z"/>
		<path id="XMLID_512_" fill="#2A3B64" d="M1341.4,416.1c0.2,0.3,0.6,0.5,0.8,0.4c0.3-0.1,0.9-0.2,1.2-0.3c0,0-0.2,0-0.2,0        c0.7,0.3,1.5,0.5,2.2,0.8c0,0,0,0,0,0c0.5-0.2,0.9-0.3,1.4-0.5c0.1,0,0.1-0.1,0-0.1c-1.1-0.4-2.2-0.8-3.3-1.2c0,0,0,0,0,0        c-0.2-0.3-0.4-0.6-0.6-0.9c-0.1-0.2-0.5-0.3-0.9-0.2c-0.4,0.1-0.7,0.4-0.7,0.9c0,0,0,0,0,0        C1341.1,415.4,1341.2,415.8,1341.4,416.1z"/>
		<path id="XMLID_509_" fill="#2A3B64" d="M1353.2,419.2C1353.2,419.2,1353.2,419.2,1353.2,419.2c0,0.2,0,0.3-0.1,0.5        c-0.1,0.2-0.2,0.3-0.4,0.3c-0.1,0-0.1,0.1-0.2,0.1c-0.4,0.1-0.7,0-0.9-0.2c-0.2-0.3-0.4-0.6-0.6-0.9c0,0,0,0,0,0        c-1.1-0.4-2.2-0.8-3.3-1.2c-0.1,0-0.1-0.1,0-0.1c0.4-0.2,0.9-0.3,1.4-0.5h0c0.7,0.3,1.5,0.5,2.2,0.8c0,0,0,0,0,0        c0.3-0.1,0.7-0.2,1-0.3c0.2-0.1,0.6,0.1,0.8,0.4C1353.4,418.4,1353.5,418.8,1353.2,419.2z"/>

		<path id="XMLID_502_" fill="#2A3B64" d="M1367.3,425.3h-39.7c-0.2,0-0.4,0.2-0.4,0.5v0.9h0l0.9,0.6c0.1,0,0.2,0.1,0.2,0.1h38.2       c0.1,0,0.2,0,0.2-0.1l0.9-0.6l0,0v-0.9C1367.8,425.5,1367.6,425.3,1367.3,425.3z"/>


		<path id="XMLID_486_" fill="#2A3B64" d="M1363.9,402.7h-32.7c-0.6,0-1.2,0.5-1.2,1.2v21h35v-21       C1365.1,403.2,1364.5,402.7,1363.9,402.7z M1353.7,417.8c0.4,0.5,0.4,1.2,0,1.7c0,0.2-0.1,0.4-0.2,0.5       c-0.1,0.2-0.3,0.4-0.6,0.6c-0.1,0.1-0.2,0.1-0.3,0.1c-0.2,0-0.3,0.1-0.5,0.1c-0.5,0-0.9-0.2-1.1-0.5c-0.1-0.2-0.3-0.4-0.4-0.7       l0,0c-1-0.4-2-0.7-3.1-1.1c-0.1,0-0.1-0.1-0.2-0.1c-1.1,0.4-2.1,0.8-3.2,1.1c-0.2,0.2-0.3,0.5-0.5,0.7       c-0.2,0.3-0.6,0.5-1.1,0.5c-0.2,0-0.3,0-0.5-0.1c-0.6-0.2-1.1-0.7-1.1-1.2c-0.3-0.5-0.3-1.1,0-1.7c0.2-0.3,0.4-0.5,0.7-0.6       c-0.3-0.1-0.7-0.3-0.9-0.6c-0.4-0.5-0.4-1.2-0.1-1.7c0.1-0.6,0.5-1.1,1.1-1.2c0.2,0,0.3-0.1,0.5-0.1c0.5,0,0.9,0.2,1.1,0.5       c0.1,0.2,0.3,0.5,0.4,0.7c0.1,0,0.1,0,0.2,0.1c-0.3-0.3-0.5-0.7-0.6-1.2l0,0v0c0-0.5-0.1-0.9-0.3-1.4c-0.3-1-0.7-2,0.3-3.3       l0.2-0.2c0.7-0.9,1.4-1.8,3.6-1.9c2.3,0,2.9,0.9,3.6,1.9l0.2,0.2c1,1.3,0.7,2.4,0.5,3.3c-0.1,0.4-0.2,0.9-0.2,1.3v0l0,0       c0,0,0,0.1,0,0.1c0.2-0.1,0.5-0.2,0.8-0.2c0.2,0,0.3,0,0.5,0.1c0.6,0.2,1.1,0.7,1.1,1.2c0.3,0.5,0.3,1.1,0,1.7       c-0.2,0.3-0.6,0.6-0.9,0.7C1353.1,417.2,1353.5,417.4,1353.7,417.8z"/>

		<path id="XMLID_475_" fill="#2A3B64" d="M1357.8,379.8h-1.6c-0.2-1.1-1-1.1-1.6-1.1h-5.7c-0.4,0-0.7,0-0.9,0.2c0,0,0,0,0,0.1      h-0.6h-0.5c0,0,0,0,0-0.1c-0.2-0.2-0.6-0.2-0.9-0.2h-5.7c-0.6,0-1.4,0-1.6,1.1h-1.7v1.6h1.7c0.1,1.1,0.4,2.1,1.9,2.1      c5.7,0,6.6-0.9,6.6-3c0-0.2,0-0.3,0-0.4c0,0,0.2-0.1,0.3-0.1c0.1,0,0.3,0.1,0.3,0.1c0,0.1,0,0.3,0,0.4c0,2.1,0.9,3,6.6,3      c1.4,0,1.8-1,1.9-2.1h1.6V379.8z M1340.4,382.9c-1.2,0-1.3-0.8-1.3-2.5c0-1,0.3-1,1.1-1h5.7c0.1,0,0.4,0,0.5,0.1      c0.1,0.1,0.1,0.7,0.1,1.1C1346.4,382,1346.2,382.9,1340.4,382.9z M1354.3,382.9c-5.7,0-6-0.9-6-2.4c0-0.4,0-1,0.1-1.1      c0.1-0.1,0.4-0.1,0.5-0.1h5.7c0.7,0,1.1,0,1.1,1C1355.6,382.1,1355.5,382.9,1354.3,382.9z"/>
		<path id="XMLID_443_" fill="#2A3B64" d="M1376.2,413c-1.6-8.2-2.4-12.4-7.8-18.7l-9.7-6.1c2.8-3.3,5.7-5.8,5.7-7      c0-0.2,0-0.3-0.1-0.5h0c0,0,0,0,0,0c0-0.1,0-0.1-0.1-0.2c-0.5-1.6-3.3-11.4-7.9-18.4c-0.3-0.5-0.7-1-1.2-1.4      c-1.6-1.5-5.8-4-7.9-4h0h0c-2,0-6.2,2.5-7.9,4c-0.5,0.4-0.9,0.9-1.2,1.4c-4.6,7-7.5,16.8-7.9,18.4c0,0.1,0,0.1-0.1,0.2      c0,0,0,0,0,0c0,0,0,0,0,0c0,0.2-0.1,0.3-0.1,0.5c0,1.2,2.9,3.7,5.7,7l-9.7,6.1c-5.4,6.3-6.2,10.5-7.8,18.7      c-0.6,3.1,6.6,7.3,10.8,9.5v-18.7c0-1.1,0.9-2,2-2h32.7c1.1,0,2,0.9,2,2v18.5C1370.1,420,1376.8,415.9,1376.2,413z       M1357.2,379.3c0.1,0,0.2,0.1,0.2,0.2c0,0,0,0.2,0,0.4h-1.1c-0.1-0.4-0.2-0.6-0.4-0.8C1356.5,379.1,1357,379.2,1357.2,379.3z       M1355.7,380.4c0,1.8-0.1,2.5-1.3,2.5c-5.7,0-6-0.9-6-2.4c0-0.4,0-1,0.1-1.1c0.1-0.1,0.4-0.1,0.5-0.1h5.7      C1355.4,379.3,1355.7,379.3,1355.7,380.4z M1347.4,377.9c1.4,0,4.3,0.4,6.6,0.8h-5.1c-0.4,0-0.7,0-0.9,0.2c0,0,0,0,0,0.1h-0.6      h-0.5c0,0,0,0,0-0.1c-0.2-0.2-0.6-0.2-0.9-0.2h-5.2C1343.1,378.4,1346,377.9,1347.4,377.9z M1340.3,379.3h5.7      c0.1,0,0.4,0,0.5,0.1c0.1,0.1,0.1,0.7,0.1,1.1c0,1.5-0.3,2.4-6,2.4c-1.2,0-1.3-0.8-1.3-2.5      C1339.2,379.3,1339.5,379.3,1340.3,379.3z M1337.6,379.3c0.3,0,0.8-0.1,1.5-0.3c-0.2,0.2-0.3,0.4-0.4,0.8h-1.2      c0-0.2,0-0.4,0-0.4C1337.5,379.3,1337.5,379.3,1337.6,379.3z M1349.5,393.8c-0.9,0.5-3.3,0.5-4.2,0c-2.4-1.5-6.7-8.6-7.8-12.4      h1.1c0.1,1.1,0.4,2.1,1.9,2.1c5.7,0,6.6-0.9,6.6-3c0-0.2,0-0.3,0-0.4c0,0,0.2-0.1,0.3-0.1c0.1,0,0.3,0.1,0.3,0.1      c0,0.1,0,0.3,0,0.4c0,2.1,0.9,3,6.6,3c1.4,0,1.8-1,1.9-2.1h1C1356.2,385.3,1351.9,392.4,1349.5,393.8z"/>

		<path id="XMLID_439_" fill="none" stroke="#D97B67" stroke-width="3" d="M1340.2,331.1"/>
		<path id="XMLID_436_" fill="none" stroke="#D97B67" stroke-width="3" d="M1340.2,249.5"/>
		<path id="XMLID_426_" fill="none" stroke="#D97B67" stroke-width="3" d="M1369.9,331.1"/>
<!-- 		<path id="XMLID_420_" fill="none" stroke="#D97B67" stroke-width="3" d="M1429.9,171.6v68.5c0,5.6-2.1,11-5.9,15.1l-42.8,33.9     c-3.8,4.1-5.9,9.5-5.9,15.1"/> -->
		<path id="animate-dot-3" fill="none" stroke="#D97B67" stroke-width="4" d="M1429.9,171.6v68.5c0,5.6-2.1,11-5.9,15.1l-42.8,33.9     c-3.8,4.1-5.9,9.5-5.9,15.1"/>

<!-- 		<path id="XMLID_417_" fill="none" stroke="#D97B67" stroke-width="3" d="M1319.3,304.2c0-5.9-2.3-11.6-6.5-15.8l-30.5-30.9     c-4.2-4.2-6.5-9.9-6.5-15.8V167"/> -->
		<path id="animate-dot-2" fill="none" stroke="#D97B67" stroke-width="4" d="M1319.3,304.2c0-5.9-2.3-11.6-6.5-15.8l-30.5-30.9     c-4.2-4.2-6.5-9.9-6.5-15.8V167"/>

		<path id="XMLID_411_" fill="none" stroke="#D97B67" stroke-width="3" d="M1315.3,331"/>
		<path id="XMLID_408_" fill="none" stroke="#D97B67" stroke-width="3" d="M1291.2,331.1"/>
<!--
		<path id="XMLID_393_" fill="none" stroke="#D97B67" stroke-width="3" d="M1141.4,173.4v49.1c0,10.6,7.4,19.8,17.8,22l114.2,40.5     c10,3.5,17.5,12,17.8,22"/> -->
		<path id="animate-dot-1" fill="none" stroke="#D97B67" stroke-width="4" d="M1141.4,173.4v49.1c0,10.6,7.4,19.8,17.8,22l114.2,40.5     c10,3.5,17.5,12,17.8,22"/>

		<path id="XMLID_390_" fill="none" stroke="#D97B67" stroke-width="3" d="M1403.4,331.2"/>

<!-- 		<path id="XMLID_387_" fill="none" stroke="#D97B67" stroke-width="3" d="M1560.4,168v49.1c0,10.6-7.4,19.8-17.8,22l-121.4,45.9     c-10.4,2.2-17.8,11.3-17.8,22"/> -->
		<path id="animate-dot-4" fill="none" stroke="#D97B67" stroke-width="4" d="M1560.4,168v49.1c0,10.6-7.4,19.8-17.8,22l-121.4,45.9     c-10.4,2.2-17.8,11.3-17.8,22"/>

		<line id="XMLID_384_" fill="none" stroke="#D97B67" stroke-width="3" x1="1347.3" y1="249.5" x2="1347.3" y2="331.1"/>
		<line id="XMLID_381_" fill="none" stroke="#D97B67" stroke-width="3" x1="1375.4" y1="304.3" x2="1375.4" y2="331.1"/>
		<line id="XMLID_366_" fill="none" stroke="#D97B67" stroke-width="3" x1="1319.3" y1="331" x2="1319.3" y2="304.2"/>
		<line id="XMLID_363_" fill="none" stroke="#D97B67" stroke-width="3" x1="1291.2" y1="306.9" x2="1291.2" y2="331.1"/>
		<line id="XMLID_360_" fill="none" stroke="#D97B67" stroke-width="3" x1="1403.4" y1="306.9" x2="1403.4" y2="331.2"/>

		<circle id="XMLID_38_" fill="#FFFFFF" stroke="#D97B67" stroke-width="3" cx="1484.1" cy="272.8" r="47.3"/>

		<ellipse id="XMLID_354_" transform="matrix(0.1602 -0.9871 0.9871 0.1602 885.2601 1539.4055)" fill="#FFFFFF" stroke="#D97B67" stroke-width="3" cx="1347.3" cy="249.5" rx="33.4" ry="33.4"/>


		<circle id="XMLID_37_" fill="#FFFFFF" stroke="#D97B67" stroke-width="3" cx="1430.6" cy="170.3" r="57.7"/>


		<circle id="XMLID_36_" fill="#FFFFFF" stroke="#D97B67" stroke-width="3" cx="1280" cy="161.3" r="47.4"/>


		<ellipse id="XMLID_331_" transform="matrix(0.207 -0.9784 0.9784 0.207 685.0725 1400.0857)" fill="#FFFFFF" stroke="#D97B67" stroke-width="3" cx="1206.2" cy="277.5" rx="48.6" ry="48.6"/>


		<ellipse id="XMLID_12_" transform="matrix(0.2112 -0.9774 0.9774 0.2112 741.7094 1244.8398)" fill="#FFFFFF" stroke="#D97B67" stroke-width="3" cx="1142.1" cy="162.9" rx="49.2" ry="49.2"/>


		<circle id="XMLID_13_" fill="#FFFFFF" stroke="#D97B67" stroke-width="3" cx="1560.3" cy="158.2" r="44.3"/>







	<g id='icon-1-doc'>
		<path id="XMLID_577_" fill="#2A3B64" d="M1145.7,153.5h-19.9c-0.5,0-0.8,0.4-0.8,0.8v2.9c0,0.5,0.4,0.8,0.8,0.8h19.9     c0.5,0,0.8-0.4,0.8-0.8v-2.9C1146.5,153.9,1146.1,153.5,1145.7,153.5z"/>
		<path id="XMLID_575_" fill="#2A3B64" d="M1145.7,161.5h-19.9c-0.5,0-0.8,0.4-0.8,0.8v2.9c0,0.5,0.4,0.8,0.8,0.8h19.9     c0.5,0,0.8-0.4,0.8-0.8v-2.9C1146.5,161.9,1146.1,161.5,1145.7,161.5z"/>
		<path id="XMLID_179_" fill="#2A3B64" d="M1116.1,181v-45.7c0-0.4,0.3-0.8,0.8-0.8h20.8v12.6c0,2.1,1.7,3.8,3.8,3.8h7.9     c0.4,0,0.7-0.3,0.7-0.7v-3.1c0-0.4-0.3-0.7-0.7-0.7h-7.3v-8.9l11.8,11.8c0.1,0.1,0.2,0.3,0.2,0.5v8c1.4-0.8,2.9-1.2,4.4-1.2V150     c0-1.4-0.5-2.7-1.5-3.6l-14.7-14.7c-1-1-2.3-1.5-3.6-1.5h-21.8c-2.8,0-5.1,2.3-5.1,5.1V181c0,2.8,2.3,5.1,5.1,5.1h30.5v-4.4     h-30.5C1116.4,181.8,1116.1,181.4,1116.1,181z"/>
		<path id="XMLID_165_" fill="#D97B67" d="M1171.1,171.8h-14.8c-0.2-0.2-0.4-0.4-0.6-0.6c-2.2-2.8-2.1-6.3,0.3-8.2     c2.4-1.9,5.9-1.2,8.1,1.6c0.2,0.2,0.3,0.5,0.5,0.7l2.4-1.9c0,0-0.1-0.1-0.1-0.1c-3.3-4.2-9-5.3-12.6-2.4c-3.1,2.5-3.7,7.1-1.6,11     c-1.4,0.1-2.6,1.2-2.6,2.7v16.7c0,1.5,1.2,2.7,2.7,2.7h18.3c1.5,0,2.7-1.2,2.7-2.7v-16.7C1173.8,173,1172.6,171.8,1171.1,171.8z      M1164.3,184v3.2c0,1.3-1,2.3-2.3,2.3h-0.1c-1.3,0-2.3-1-2.3-2.3V184c-1.1-0.7-1.8-2-1.8-3.4c0-2.3,1.9-4.1,4.1-4.1     c2.3,0,4.1,1.9,4.1,4.1C1166.1,182,1165.4,183.2,1164.3,184z"/>
	</g>

	<g id='icon-2-cloud'>
		<path id="XMLID_127_" fill="#2A3B64" d="M1279.9,181.4l1-0.7c0.5-0.3,0.7-0.9,0.7-1.4c0-1-0.8-1.7-1.7-1.7s-1.7,0.8-1.7,1.7     c0,0.6,0.3,1.1,0.7,1.4L1279.9,181.4z"/>
		<path id="XMLID_124_" fill="#2A3B64" d="M1303,152.4c-0.8,0-1.7,0.1-2.5,0.2c0.5-1.6,0.7-3.4,0.7-5.2c0-10.6-8.6-19.2-19.2-19.2     c-10.1,0-18.4,7.8-19.1,17.8c-1-0.2-1.9-0.2-2.9-0.2c-10.1,0-18.3,8.2-18.3,18.3c0,10.1,8.2,18.3,18.3,18.3h5.2v-9.4     c0-1.6,0.7-3.1,1.9-4.1c-1.3-4.5-0.1-9.2,3.3-11.9c4.8-3.8,12.1-2.5,16.4,2.9l1.6,2.1l-6.5,5.2l-1.5-2.4     c-0.1-0.2-0.2-0.3-0.3-0.5c-0.7-0.9-1.6-1.5-2.6-1.7c-0.6-0.1-1.4-0.1-2.2,0.5c-0.8,0.6-0.9,1.4-0.9,2c0,0.9,0.3,1.8,0.9,2.6h14     c2.9,0,5.3,2.4,5.3,5.3v9.4h8.5c8.3,0,15-6.7,15-15C1318,159.2,1311.3,152.4,1303,152.4z"/>
		<path id="XMLID_113_" fill="#D97B67" d="M1289.2,170.4h-15.1c-0.2-0.2-0.4-0.4-0.6-0.6c-2.3-2.8-2.2-6.5,0.3-8.4    c2.4-1.9,6-1.2,8.3,1.6c0.2,0.2,0.4,0.5,0.5,0.7l2.4-1.9c0-0.1-0.1-0.1-0.1-0.2c-3.4-4.3-9.2-5.4-12.9-2.5    c-3.2,2.5-3.8,7.3-1.7,11.3c-1.5,0.1-2.6,1.3-2.6,2.8v17.1c0,1.5,1.2,2.8,2.8,2.8h18.8c1.5,0,2.8-1.2,2.8-2.8v-17.1    C1292,171.6,1290.8,170.4,1289.2,170.4z M1282.3,182.8v3.2c0,1.3-1.1,2.4-2.4,2.4h-0.1c-1.3,0-2.4-1.1-2.4-2.4v-3.2    c-1.1-0.8-1.8-2-1.8-3.5c0-2.3,1.9-4.2,4.2-4.2c2.3,0,4.2,1.9,4.2,4.2C1284.1,180.8,1283.4,182.1,1282.3,182.8z"/>
	</g>

	<g id='icon-3-internet'>
		<path id="XMLID_71_" fill="#2A3B64" d="M1443.5,193.9C1443.5,193.9,1443.5,193.9,1443.5,193.9l0-1.1c0,0,0-0.1,0-0.1V183     c0-1.6,0.7-3.1,1.9-4.1c-1-3.5-0.5-7.1,1.4-9.9c0-0.2,0-0.4,0-0.6h0.4c0.4-0.5,0.9-1,1.5-1.5c3.8-3,9.3-2.8,13.5,0.2     c0-0.3,0-0.5,0-0.8c0-0.2,0-0.5,0-0.7h0c0-0.2,0-0.4,0-0.7c0-0.5,0-1-0.1-1.5c0-0.3-0.1-0.6-0.1-0.9c-0.1-0.5-0.1-1-0.2-1.5     c0-0.3-0.1-0.6-0.1-0.9c-0.1-0.5-0.2-1-0.3-1.5c-0.1-0.3-0.1-0.6-0.2-0.9c-0.1-0.5-0.2-0.9-0.3-1.4c-0.1-0.3-0.2-0.6-0.3-1     c-0.1-0.4-0.3-0.8-0.4-1.3c-0.1-0.4-0.3-0.7-0.4-1.1c-0.1-0.4-0.3-0.7-0.4-1.1c-0.2-0.4-0.4-0.9-0.6-1.3     c-0.1-0.3-0.2-0.6-0.4-0.8c-0.3-0.7-0.7-1.4-1.1-2c-0.7-1.2-1.5-2.4-2.3-3.5c-0.4-0.6-0.9-1.2-1.4-1.8c-0.1-0.1-0.2-0.2-0.3-0.4     c-0.4-0.4-0.8-0.9-1.2-1.3c-0.1-0.1-0.3-0.3-0.4-0.4c-0.4-0.4-0.8-0.8-1.2-1.2c-0.1-0.1-0.3-0.3-0.4-0.4     c-0.4-0.4-0.8-0.7-1.3-1.1c-0.2-0.1-0.3-0.2-0.5-0.4c-0.4-0.3-0.9-0.7-1.3-1c-0.2-0.1-0.3-0.2-0.5-0.3c-0.5-0.3-0.9-0.6-1.4-0.9     c-0.2-0.1-0.4-0.2-0.5-0.3c-0.5-0.3-0.9-0.6-1.4-0.9c-0.2-0.1-0.4-0.2-0.6-0.3c-0.5-0.2-0.9-0.5-1.4-0.7c0,0,0,0-0.1,0     c0,0,0,0,0,0c-0.3-0.1-0.6-0.2-0.8-0.4c-0.5-0.2-1.1-0.5-1.6-0.7c-0.2-0.1-0.5-0.2-0.7-0.3c-0.6-0.2-1.2-0.4-1.8-0.6     c0,0,0,0-0.1,0c0,0,0,0,0,0c-0.2-0.1-0.4-0.1-0.6-0.2c-0.7-0.2-1.3-0.4-2-0.5c-0.2,0-0.4-0.1-0.6-0.1c-0.7-0.1-1.4-0.3-2.1-0.4     c-0.3,0-0.6-0.1-0.9-0.1c-0.6-0.1-1.2-0.2-1.8-0.2c-0.9-0.1-1.9-0.1-2.8-0.1c-0.9,0-1.9,0-2.8,0.1c-0.6,0-1.2,0.1-1.8,0.2     c-0.3,0-0.6,0.1-1,0.1c-0.7,0.1-1.4,0.3-2.1,0.4c-0.2,0-0.4,0.1-0.6,0.1c-0.7,0.2-1.3,0.3-2,0.5c-0.2,0.1-0.4,0.1-0.6,0.2     c0,0,0,0,0,0c0,0,0,0-0.1,0c-0.6,0.2-1.2,0.4-1.8,0.6c-0.2,0.1-0.5,0.2-0.7,0.3c-0.6,0.2-1.1,0.5-1.6,0.7     c-0.3,0.1-0.6,0.2-0.8,0.4c0,0,0,0,0,0c0,0,0,0-0.1,0c-0.5,0.2-0.9,0.5-1.4,0.7c-0.2,0.1-0.4,0.2-0.6,0.3c-0.5,0.3-1,0.6-1.4,0.9     c-0.2,0.1-0.3,0.2-0.5,0.3c-0.5,0.3-0.9,0.6-1.4,0.9c-0.2,0.1-0.3,0.2-0.5,0.3c-0.5,0.3-0.9,0.7-1.3,1c-0.1,0.1-0.3,0.2-0.4,0.3     c-0.4,0.4-0.9,0.7-1.3,1.1c-0.1,0.1-0.3,0.2-0.4,0.4c-0.4,0.4-0.8,0.8-1.2,1.2c-0.1,0.1-0.3,0.3-0.4,0.4     c-0.4,0.4-0.8,0.9-1.2,1.3c-0.1,0.1-0.2,0.2-0.3,0.4c-0.5,0.6-0.9,1.2-1.4,1.8c-0.8,1.1-1.6,2.3-2.3,3.5c-0.4,0.7-0.7,1.3-1.1,2     c-0.1,0.3-0.3,0.6-0.4,0.8c-0.2,0.4-0.4,0.8-0.6,1.3c-0.2,0.4-0.3,0.7-0.4,1.1c-0.1,0.4-0.3,0.7-0.4,1.1     c-0.1,0.4-0.3,0.8-0.4,1.3c-0.1,0.3-0.2,0.6-0.3,1c-0.1,0.5-0.2,0.9-0.3,1.4c-0.1,0.3-0.2,0.6-0.2,0.9c-0.1,0.5-0.2,1-0.3,1.5     c0,0.3-0.1,0.6-0.1,0.9c-0.1,0.5-0.1,1-0.2,1.5c0,0.3-0.1,0.6-0.1,0.9c0,0.5-0.1,1-0.1,1.5c0,0.2,0,0.4,0,0.7h0     c0,0.2,0,0.5,0,0.7c0,7.1,2,13.7,5.4,19.3c0.7,1.2,1.5,2.4,2.4,3.5c3.2,4.1,7.2,7.4,11.8,9.9c0.3,0.2,0.7,0.4,1.1,0.5     c0.1,0.1,0.2,0.1,0.3,0.2c0,0,0,0,0.1,0c0,0,0,0,0,0c0.3,0.1,0.6,0.2,0.8,0.4c0.5,0.2,1.1,0.5,1.6,0.7c0.2,0.1,0.5,0.2,0.7,0.3     c0.6,0.2,1.2,0.4,1.8,0.6c0,0,0,0,0.1,0c0,0,0,0,0,0c0.2,0.1,0.4,0.1,0.6,0.2c0.7,0.2,1.3,0.4,2,0.5c0.2,0,0.4,0.1,0.6,0.1     c0.7,0.1,1.4,0.3,2.1,0.4c0.3,0,0.6,0.1,1,0.1c0.6,0.1,1.2,0.2,1.8,0.2c0.9,0.1,1.9,0.1,2.8,0.1c0.9,0,1.9,0,2.8-0.1     c0.6,0,1.2-0.1,1.8-0.2c0.3,0,0.6-0.1,0.9-0.1c0.7-0.1,1.4-0.2,2.1-0.4c0.2,0,0.4-0.1,0.6-0.1c0.7-0.2,1.3-0.3,2-0.5     c0.2-0.1,0.4-0.1,0.6-0.2c0,0,0,0,0,0c0,0,0,0,0.1,0c0.6-0.2,1.2-0.4,1.8-0.6c0.2-0.1,0.5-0.2,0.7-0.3c0.6-0.2,1.1-0.5,1.6-0.7     c0.3-0.1,0.6-0.2,0.8-0.4c0,0,0,0,0,0c0,0,0,0,0.1,0c0.1-0.1,0.2-0.1,0.3-0.2c0.4-0.2,0.7-0.4,1.1-0.6c0.3-0.1,0.5-0.3,0.8-0.4     V193.9z M1393.3,158.5c0.8-3.2,2.1-6.2,3.7-9c1.3,0.5,2.5,0.9,3.8,1.3c0.2,0.1,0.5,0.1,0.7,0.2c1,0.3,2.1,0.6,3.2,0.9     c-0.6,4.1-0.9,8.3-1,12.5h-11.3C1392.5,162.4,1392.8,160.4,1393.3,158.5z M1397.6,184.3c-3-4.6-4.8-10-5.2-15.7h10h1.3     c0.1,4.6,0.5,9.1,1.2,13.5C1402.3,182.7,1399.9,183.4,1397.6,184.3z M1407,193.9c-2.6-1.7-4.9-3.8-6.9-6.1     c1.8-0.6,3.6-1.1,5.4-1.6c0.4,2.2,1,4.4,1.5,6.6V193.9z M1405.3,147.8c-0.4-0.1-0.7-0.2-1.1-0.3c-0.6-0.2-1.2-0.3-1.9-0.5     c-1-0.3-2-0.6-2.9-1c0.6-0.7,1.2-1.4,1.8-2c0.2-0.2,0.4-0.4,0.5-0.5c0.5-0.5,0.9-0.9,1.4-1.4c0.2-0.2,0.5-0.4,0.8-0.6     c0.4-0.4,0.9-0.8,1.3-1.1c0.3-0.2,0.6-0.4,0.9-0.6c0.4-0.3,0.8-0.6,1.3-0.9C1406.6,141.8,1405.9,144.7,1405.3,147.8z      M1423.2,199.3C1423.2,199.3,1423.1,199.3,1423.2,199.3c-0.5,0-1-0.1-1.4-0.1c-0.3,0-0.5-0.1-0.8-0.1c-0.2,0-0.4,0-0.6-0.1     c-0.4-0.1-0.7-0.1-1.1-0.2c-0.1,0-0.2,0-0.3-0.1c-0.4-0.1-0.8-0.2-1.2-0.3c0,0-0.1,0-0.1,0c-0.4-0.1-0.9-0.2-1.3-0.3c0,0,0,0,0,0     c-1.3-0.4-2.6-0.8-3.8-1.3c-1.2-3.8-2.2-7.7-3-11.7c0.3-0.1,0.6-0.1,0.9-0.2c0.8-0.1,1.6-0.3,2.4-0.4c0.3-0.1,0.7-0.1,1-0.1     c0.8-0.1,1.6-0.2,2.3-0.3c0.5-0.1,1-0.1,1.5-0.1c0.7-0.1,1.3-0.1,2-0.2c1.1-0.1,2.3-0.1,3.4-0.2c0,0,0,0,0.1,0V199.3z      M1423.2,179.5C1423.2,179.5,1423.2,179.5,1423.2,179.5c-1.3,0-2.5,0.1-3.6,0.2c-0.6,0-1.2,0.1-1.8,0.2c-0.6,0.1-1.2,0.1-1.8,0.2     c-0.8,0.1-1.5,0.2-2.3,0.3c-0.4,0.1-0.9,0.1-1.3,0.2c-0.8,0.1-1.5,0.3-2.3,0.4c-0.4,0.1-0.8,0.1-1.2,0.2c-0.6-4.1-1-8.3-1.1-12.6     h15.3V179.5z M1423.2,164.4h-15.3c0.1-3.9,0.4-7.8,0.9-11.6c0.4,0.1,0.7,0.1,1.1,0.2c0.8,0.2,1.6,0.3,2.4,0.4     c0.4,0.1,0.8,0.1,1.2,0.2c0.8,0.1,1.6,0.2,2.4,0.3c0.5,0.1,1.1,0.1,1.6,0.1c0.7,0.1,1.3,0.1,2,0.2c1.2,0.1,2.4,0.1,3.6,0.2     c0,0,0,0,0.1,0V164.4z M1423.2,150.3C1423.2,150.3,1423.2,150.3,1423.2,150.3c-1.2,0-2.4-0.1-3.5-0.2c-0.6,0-1.1-0.1-1.7-0.2     c-0.6-0.1-1.2-0.1-1.8-0.2c-0.7-0.1-1.3-0.2-2-0.3c-0.5-0.1-1-0.1-1.4-0.2c-0.7-0.1-1.3-0.2-2-0.4c-0.5-0.1-0.9-0.2-1.4-0.2     c0.8-4.3,1.9-8.6,3.2-12.7c1.6-0.7,3.4-1.2,5.1-1.7c0,0,0,0,0,0c0.4-0.1,0.9-0.2,1.3-0.3c0.1,0,0.1,0,0.2,0     c0.4-0.1,0.8-0.1,1.1-0.2c0.2,0,0.3,0,0.5-0.1c0.3,0,0.6-0.1,0.9-0.1c0.4,0,0.9-0.1,1.3-0.1c0,0,0.1,0,0.1,0V150.3z      M1427.3,133.6C1427.3,133.6,1427.3,133.6,1427.3,133.6c0.5,0,0.9,0.1,1.4,0.1c0.3,0,0.6,0.1,0.9,0.1c0.2,0,0.3,0,0.5,0.1     c0.4,0.1,0.8,0.1,1.2,0.2c0.1,0,0.1,0,0.2,0c0.4,0.1,0.9,0.2,1.3,0.3c0,0,0,0,0,0c1.8,0.4,3.5,1,5.1,1.7     c1.3,4.1,2.4,8.4,3.2,12.7c-0.4,0.1-0.9,0.2-1.3,0.2c-0.7,0.1-1.3,0.3-2,0.4c-0.5,0.1-1,0.1-1.4,0.2c-0.7,0.1-1.3,0.2-2,0.3     c-0.6,0.1-1.2,0.1-1.8,0.2c-0.6,0.1-1.1,0.1-1.7,0.2c-1.2,0.1-2.3,0.1-3.5,0.2c0,0,0,0,0,0V133.6z M1437.9,196.9     c-1.2,0.5-2.5,1-3.8,1.3c0,0,0,0,0,0c-0.4,0.1-0.9,0.2-1.3,0.3c0,0-0.1,0-0.1,0c-0.4,0.1-0.8,0.2-1.3,0.3c-0.1,0-0.2,0-0.3,0     c-0.4,0.1-0.7,0.1-1.1,0.2c-0.2,0-0.4,0-0.6,0.1c-0.3,0-0.5,0.1-0.8,0.1c-0.4,0-0.9,0.1-1.4,0.1c0,0,0,0,0,0v-15.7c0,0,0,0,0,0     c1.1,0,2.3,0.1,3.4,0.2c0.7,0,1.3,0.1,2,0.2c0.5,0,1,0.1,1.5,0.1c0.8,0.1,1.6,0.2,2.4,0.3c0.3,0,0.7,0.1,1,0.1     c0.8,0.1,1.6,0.3,2.4,0.4c0.3,0.1,0.6,0.1,0.9,0.2C1440.1,189.2,1439.1,193.1,1437.9,196.9z M1441.6,181.1     c-0.4-0.1-0.8-0.1-1.2-0.2c-0.8-0.1-1.5-0.3-2.3-0.4c-0.4-0.1-0.9-0.1-1.3-0.2c-0.7-0.1-1.5-0.2-2.2-0.3     c-0.6-0.1-1.2-0.1-1.8-0.2c-0.6-0.1-1.2-0.1-1.8-0.2c-1.2-0.1-2.4-0.1-3.6-0.2c0,0,0,0,0,0v-11h15.3     C1442.6,172.8,1442.2,177,1441.6,181.1z M1427.3,164.4v-10c0,0,0,0,0,0c1.2,0,2.4-0.1,3.6-0.2c0.7,0,1.3-0.1,2-0.2     c0.6-0.1,1.1-0.1,1.7-0.2c0.8-0.1,1.6-0.2,2.4-0.3c0.4-0.1,0.8-0.1,1.2-0.2c0.8-0.1,1.6-0.3,2.4-0.4c0.4-0.1,0.7-0.1,1.1-0.2     c0.5,3.8,0.8,7.7,0.9,11.6H1427.3z M1453.5,149.5c1,1.7,1.8,3.4,2.5,5.2c1.2,3,1.9,6.3,2.1,9.7h-11.3c-0.1-4.2-0.4-8.4-1-12.5     c1.1-0.3,2.1-0.6,3.1-0.9c0.2-0.1,0.5-0.1,0.7-0.2C1451,150.4,1452.2,150,1453.5,149.5z M1444.4,139.7c0.3,0.2,0.6,0.4,0.9,0.6     c0.5,0.3,0.9,0.7,1.3,1.1c0.3,0.2,0.5,0.4,0.8,0.6c0.5,0.4,0.9,0.9,1.4,1.3c0.2,0.2,0.4,0.4,0.6,0.6c0.6,0.7,1.2,1.3,1.8,2     c-1,0.3-1.9,0.7-2.9,1c-0.6,0.2-1.2,0.4-1.9,0.5c-0.4,0.1-0.7,0.2-1.1,0.3c-0.6-3-1.3-6-2.1-9     C1443.5,139.1,1444,139.4,1444.4,139.7z"/>
		<path id="XMLID_21_" fill="#D97B67" d="M1467.5,180.3h-15.1c-0.2-0.2-0.4-0.4-0.6-0.6c-2.3-2.8-2.2-6.5,0.3-8.4    c2.4-1.9,6-1.2,8.3,1.6c0.2,0.2,0.4,0.5,0.5,0.7l2.4-1.9c0-0.1-0.1-0.1-0.1-0.2c-3.4-4.3-9.2-5.4-12.9-2.5    c-3.2,2.5-3.8,7.3-1.7,11.3c-1.5,0.1-2.6,1.3-2.6,2.8v17.1c0,1.5,1.2,2.8,2.8,2.8h18.8c1.5,0,2.8-1.2,2.8-2.8V183    C1470.3,181.5,1469,180.3,1467.5,180.3z M1460.5,192.8v3.2c0,1.3-1.1,2.4-2.4,2.4h-0.1c-1.3,0-2.4-1.1-2.4-2.4v-3.2    c-1.1-0.8-1.8-2-1.8-3.5c0-2.3,1.9-4.2,4.2-4.2c2.3,0,4.2,1.9,4.2,4.2C1462.4,190.7,1461.6,192,1460.5,192.8z"/>
	</g>

	<g id='icon-4-storage'>
		<path id="XMLID_10_" fill="#2A3B64" d="M1545.2,158.6c0,1.8-1.4,3.2-3.2,3.2h-0.3c-1.8,0-3.2-1.4-3.2-3.2h-3      c0,3.4,2.8,6.2,6.2,6.2h0.3c3.4,0,6.2-2.8,6.2-6.2v-14h-3V158.6z"/>
		<path id="XMLID_7_" fill="#2A3B64" d="M1545.9,125.6c-10.2,0-18.4,7.2-18.4,17.4h36.8C1564.3,132.8,1556,125.6,1545.9,125.6z"/>
		<path id="XMLID_583_" fill="#2A3B64" d="M1572.6,159.8h-12.4c-0.3,0-0.5,0.2-0.5,0.5v1.8c0,0.3,0.2,0.5,0.5,0.5h12.4     c0.3,0,0.5-0.2,0.5-0.5v-1.8C1573.2,160,1572.9,159.8,1572.6,159.8z"/>
		<path id="XMLID_581_" fill="#2A3B64" d="M1572.6,164.8h-12.4c-0.3,0-0.5,0.2-0.5,0.5v1.8c0,0.3,0.2,0.5,0.5,0.5h12.4     c0.3,0,0.5-0.2,0.5-0.5v-1.8C1573.2,165,1572.9,164.8,1572.6,164.8z"/>
		<path id="XMLID_279_" fill="#2A3B64" d="M1554.2,177v-28.6c0-0.3,0.2-0.5,0.5-0.5h13v7.9c0,1.3,1.1,2.4,2.4,2.4h4.9     c0.2,0,0.4-0.2,0.4-0.4v-1.9c0-0.2-0.2-0.4-0.4-0.4h-4.6v-5.6l7.4,7.4c0.1,0.1,0.1,0.2,0.1,0.3v5c0.8-0.5,1.8-0.7,2.7-0.8v-4.2     c0-0.9-0.3-1.7-0.9-2.3l-9.2-9.2c-0.6-0.6-1.4-0.9-2.3-0.9h-13.6c-1.8,0-3.2,1.4-3.2,3.2V177c0,1.8,1.4,3.2,3.2,3.2h19.1v-2.7     h-19.1C1554.4,177.5,1554.2,177.3,1554.2,177z"/>
		<path id="XMLID_226_" fill="#D97B67" d="M1588.6,171.2h-9.2c-0.1-0.1-0.2-0.3-0.3-0.4c-1.4-1.7-1.3-3.9,0.2-5.1     c1.5-1.2,3.7-0.8,5.1,1c0.1,0.1,0.2,0.3,0.3,0.4l1.5-1.2c0,0,0-0.1-0.1-0.1c-2.1-2.6-5.6-3.3-7.9-1.5c-1.9,1.6-2.3,4.4-1,6.9     c-0.9,0-1.6,0.8-1.6,1.7v10.5c0,0.9,0.8,1.7,1.7,1.7h11.5c0.9,0,1.7-0.8,1.7-1.7v-10.5C1590.2,172,1589.5,171.2,1588.6,171.2z      M1584.3,178.9v2c0,0.8-0.6,1.4-1.4,1.4h-0.1c-0.8,0-1.4-0.6-1.4-1.4v-2c-0.7-0.5-1.1-1.2-1.1-2.1c0-1.4,1.2-2.6,2.6-2.6     c1.4,0,2.6,1.2,2.6,2.6C1585.4,177.6,1585,178.4,1584.3,178.9z"/>
	</g>

	<g id='icon-5-protect'>
		<path id="XMLID_18_" fill="#2A3B64" d="M1187.5,258c0,5.9,4.8,10.6,10.6,10.6h1.9c5.9,0,10.6-4.8,10.6-10.6l1.1-10     c0.1-1,0.1-2,0-3c-0.9-4.8-5.1-8.4-10.1-8.4h-5.2c-5,0-9.2,3.6-10.1,8.4c-0.2,1-0.1,2,0,3L1187.5,258z"/>
		<path id="XMLID_516_" fill="#D97B67" d="M1226.3,276c-7.3,9.7-14.5,6.4-14.5,6.4v11.2c0,6,3.1,11.7,8.1,14.9l6.4,4.1l6.4-4.1     c5.1-3.3,8.1-8.9,8.1-14.9v-11.2C1240.8,282.4,1233.6,285.7,1226.3,276z"/>
		<polygon id="XMLID_14_" fill="#FFFFFF" points="1214.1,304.7 1219.9,293.6 1228.9,296.1 1235.2,289.7 1229.8,298 1220.8,295.9     1216,307.9    "/>
		<path id="XMLID_3_" fill="#2A3B64" d="M1208,293.6v-11.2l-0.2-6.4l5.5,2.9c0.2,0.1,0.7,0.2,1.6,0.2c1.8,0,4.6-0.8,7.8-4.6      c-1.2-2.1-3.5-3.5-6.2-3.5h-34.8c-4,0-7.3,3.3-7.2,7.3l-1.9,22.9c0,1.7,1,3.2,2.6,3.8l8.3,2.6l0,1.8c5,1.3,10.2,2,15.6,2      c5.4,0,10.6-0.7,15.6-2l0-0.3C1210.4,305.2,1208,299.6,1208,293.6z"/>
	</g>

	<g id='icon-6-phone'>
		<path id="XMLID_563_" fill="#D97B67" d="M1347.2,234.8c-3,0.2-5.4,2.6-5.7,5.5c-0.3,2.9,1.5,5.5,4.1,6.4v2c0,0.1,0.1,0.2,0.2,0.2     h0.6c0.1,0,0.2,0.1,0.2,0.2v1.1c0,0.1-0.1,0.2-0.2,0.2h-0.6c-0.1,0-0.2,0.1-0.2,0.2v1.2c0,0.1,0.1,0.2,0.2,0.2h0.6     c0.1,0,0.2,0.1,0.2,0.2v1.1c0,0.1-0.1,0.2-0.2,0.2h-0.6c-0.1,0-0.2,0.1-0.2,0.2v0.4c0,1.1,0.9,2,2,2c1.1,0,2-0.9,2-2v-7     c2.4-0.8,4.2-3.1,4.2-5.8C1353.7,237.4,1350.7,234.6,1347.2,234.8z M1347.6,240.8c-1,0-1.9-0.8-1.9-1.9c0-1,0.8-1.9,1.9-1.9     c1,0,1.9,0.8,1.9,1.9C1349.5,239.9,1348.6,240.8,1347.6,240.8z"/>
		<path id="XMLID_557_" fill="#2A3B64" d="M1356.8,224.9h-18.6c-2.9,0-5.2,2.3-5.2,5.2v36.5c0,2.9,2.3,5.2,5.2,5.2h18.6     c2.9,0,5.2-2.3,5.2-5.2v-36.5C1362.1,227.3,1359.7,224.9,1356.8,224.9z M1358.9,266.6c0,1.1-0.9,2.1-2.1,2.1h-18.6     c-1.1,0-2.1-0.9-2.1-2.1v-36.5c0-1.1,0.9-2.1,2.1-2.1h18.6c1.1,0,2.1,0.9,2.1,2.1V266.6z"/>
		<path id="XMLID_524_" fill="#2A3B64" d="M1337.4,261.2h20.3v-31.9h-20.3V261.2z M1339,230.9h17.2v28.7H1339V230.9z"/>
		<circle id="XMLID_522_" fill="#2A3B64" cx="1347.6" cy="265" r="2.7"/>
	</g>

	<g id="icon-7-message">
		<path id="XMLID_211_" fill="#2A3B64" d="M1505.2,248.4h-51c-1.1,0-2,0.9-2,2v39.9c0,1.1,0.9,2,2,2h34.4v-4.8h-30.1V256l17.1,14.8     c1.2,1.1,2.6,1.6,4.1,1.6c1.5,0,3-0.5,4.1-1.6l17.1-14.8v8.1c2.2,0.1,4.4,0.8,6.3,2.1v-15.8     C1507.2,249.3,1506.3,248.4,1505.2,248.4z M1480.6,267.1L1480.6,267.1l-0.1,0.1c-0.3,0.3-0.6,0.3-0.8,0.3s-0.5-0.1-0.8-0.3     l-0.1-0.1l-0.1-0.1l-13.9-12h29.7L1480.6,267.1z"/>
		<path id="XMLID_195_" fill="#D97B67" d="M1512.6,279.4h-15.1c-0.2-0.2-0.4-0.4-0.6-0.6c-2.3-2.8-2.2-6.5,0.3-8.4     c2.4-1.9,6-1.2,8.3,1.6c0.2,0.2,0.4,0.5,0.5,0.7l2.4-1.9c0-0.1-0.1-0.1-0.1-0.2c-3.4-4.3-9.2-5.4-12.9-2.5     c-3.2,2.5-3.8,7.3-1.7,11.3c-1.5,0.1-2.6,1.3-2.6,2.8v17.1c0,1.5,1.2,2.8,2.8,2.8h18.8c1.5,0,2.8-1.2,2.8-2.8v-17.1     C1515.4,280.6,1514.2,279.4,1512.6,279.4z M1505.7,291.9v3.2c0,1.3-1.1,2.4-2.4,2.4h-0.1c-1.3,0-2.4-1.1-2.4-2.4v-3.2     c-1.1-0.8-1.8-2-1.8-3.5c0-2.3,1.9-4.2,4.2-4.2c2.3,0,4.2,1.9,4.2,4.2C1507.5,289.8,1506.8,291.1,1505.7,291.9z"/>
	</g>

</g>
</svg>
