<?xml-stylesheet type="text/css" href="../css/style.min.css"?>
<svg xmlns="http://www.w3.org/2000/svg" xmlns:xlink="http://www.w3.org/1999/xlink" viewBox="360 702 410 390" width="410" height="310" style='outline: 1px solid red;'>
	<g xmlns="http://www.w3.org/2000/svg" id="Слой_4">
		<g id="XMLID_185_">
			<g id="XMLID_1086_">

				<ellipse id="XMLID_1283_" transform="matrix(0.7071 -0.7071 0.7071 0.7071 -518.6957 683.9711)" fill="#FFFFFF" stroke="#2A3A63" stroke-width="4.4839" cx="566.3" cy="968.1" rx="89.7" ry="89.7"/>
				<g id="XMLID_1243_">
					<g id="XMLID_1274_">
						<path id="XMLID_109_" fill="#2A3B64" d="M605.4,968.1c0,0,0,1.4,0,4c-0.1,2.6-0.2,6.4-0.8,11.2c-0.3,2.4-0.6,5.1-1.2,7.9       c-0.5,2.9-1.2,6-2.1,9.2c-1.7,6.5-4.3,13.8-8.6,21c-2.2,3.6-4.7,7.2-8,10.4c-1.6,1.6-3.4,3.1-5.5,4.4c-2,1.3-4.2,2.4-6.6,3.2       c-2.4,0.8-5,1.2-7.6,1.1c-1.2,0-2.6-0.1-3.9-0.4c-0.6-0.1-1.3-0.2-1.9-0.4c-0.6-0.2-1.3-0.4-1.9-0.6c-5.1-1.8-9.6-5-13.4-8.9       c-1.9-2-3.6-4.1-5.2-6.3c-1.6-2.2-3-4.6-4.3-7c-2.6-4.9-4.6-10.1-6.3-15.5c-0.8-2.7-1.5-5.4-2.1-8.1c-0.6-2.8-1.1-5.5-1.4-8.3       c-0.8-5.6-1.2-11.3-1.2-16.9c0-1.5,0-2.8,0.1-4.2c0.1-1.4,0.1-2.9,0.2-4.3c0.2-2.8,0.5-5.6,0.9-8.4c0.4-2.8,0.9-5.6,1.4-8.3       c0.6-2.7,1.3-5.5,2.1-8.2c1.6-5.4,3.7-10.6,6.3-15.5c1.3-2.4,2.7-4.8,4.3-7c1.6-2.2,3.3-4.4,5.2-6.3c3.8-3.9,8.3-7.2,13.4-8.9       c2.5-0.9,5.2-1.3,7.8-1.3c0.4,0,0.6,0,1,0l0.9,0.1c0.6,0,1.2,0.1,1.9,0.2c1.3,0.2,2.5,0.5,3.8,0.9c2.4,0.7,4.6,1.9,6.6,3.2       c2,1.3,3.8,2.8,5.5,4.4c3.3,3.2,5.9,6.8,8,10.4c4.3,7.2,6.8,14.5,8.6,21c0.9,3.3,1.5,6.4,2.1,9.2c0.6,2.9,0.9,5.5,1.2,7.9       c0.6,4.8,0.7,8.6,0.8,11.2C605.4,966.7,605.4,968.1,605.4,968.1z M605.4,968.1c0,0,0-1.4-0.1-4c-0.1-2.6-0.3-6.4-0.9-11.2       c-0.6-4.8-1.6-10.6-3.6-17c-2-6.4-4.7-13.6-9.3-20.4c-2.3-3.4-4.9-6.8-8.2-9.7c-1.6-1.5-3.4-2.8-5.4-3.8c-1.9-1.1-4-2-6.2-2.5       c-1.1-0.3-2.2-0.5-3.3-0.6c-0.5-0.1-1.1-0.1-1.7-0.1l-0.9,0l-0.8,0.1c-2.3,0.1-4.5,0.7-6.7,1.5c-4.3,1.8-8.1,4.9-11.4,8.5       c-1.6,1.9-3.1,3.9-4.5,6c-1.3,2.1-2.6,4.4-3.7,6.7c-2.2,4.7-4,9.6-5.4,14.7c-2.7,10.2-4.1,21-4.1,31.8       c-0.1,10.8,1.3,21.6,4,31.8c1.4,5.1,3.2,10,5.4,14.7c1.1,2.3,2.3,4.6,3.7,6.7c1.4,2.1,2.8,4.1,4.5,6c3.3,3.7,7.1,6.8,11.4,8.6       l1.6,0.6c0.5,0.2,1.1,0.3,1.7,0.5c1.1,0.2,2.1,0.4,3.4,0.5c2.2,0.2,4.5-0.1,6.7-0.6c2.2-0.5,4.2-1.5,6.2-2.5       c1.9-1.1,3.7-2.4,5.4-3.9c3.3-2.9,5.9-6.3,8.2-9.7c4.6-6.9,7.3-14,9.3-20.4c2-6.4,2.9-12.3,3.6-17c0.6-4.8,0.8-8.6,0.9-11.2       C605.4,969.5,605.4,968.1,605.4,968.1z"/>
					</g>
					<g id="XMLID_1265_">
						<path id="XMLID_96_" fill="#2A3B64" d="M585.7,933.9c0,0,1.2,0.7,3.4,2c2.2,1.4,5.4,3.4,9.3,6.3c1.9,1.5,4.1,3.1,6.3,5       c2.2,1.9,4.6,4,7,6.4c4.8,4.8,9.8,10.7,13.9,18c2,3.7,3.9,7.7,5,12.1c0.6,2.2,1,4.5,1.1,6.9c0.1,2.4,0,4.9-0.6,7.3       c-0.5,2.5-1.5,4.9-2.8,7.1c-0.6,1-1.4,2.2-2.3,3.2c-0.4,0.5-0.9,1-1.3,1.5c-0.5,0.5-1,0.9-1.5,1.4c-4.1,3.5-9.1,5.8-14.4,7.1       c-2.6,0.6-5.4,1.1-8.1,1.3c-2.7,0.2-5.5,0.3-8.3,0.2c-5.5-0.2-11.1-1-16.5-2.3c-2.7-0.6-5.4-1.4-8.1-2.2       c-2.7-0.9-5.3-1.8-7.9-2.9c-5.2-2.1-10.3-4.6-15.3-7.4c-1.3-0.8-2.4-1.4-3.6-2.2c-1.2-0.8-2.4-1.5-3.6-2.3       c-2.3-1.6-4.6-3.2-6.9-5c-2.2-1.7-4.4-3.6-6.5-5.4c-2.1-1.9-4.1-3.9-6-5.9c-3.8-4.1-7.3-8.5-10.3-13.2       c-1.4-2.4-2.8-4.8-3.9-7.3c-1.1-2.5-2.1-5.1-2.9-7.7c-1.5-5.2-2.1-10.8-1-16.1c0.5-2.6,1.4-5.2,2.7-7.4       c0.2-0.3,0.3-0.5,0.5-0.9l0.5-0.8c0.3-0.5,0.7-1,1.1-1.5c0.8-1.1,1.7-2,2.6-2.8c1.8-1.7,3.9-3.1,6.1-4.2       c2.1-1.1,4.3-1.9,6.6-2.5c4.4-1.3,8.8-1.7,13-1.8c8.4-0.1,16,1.3,22.5,3.1c3.3,0.9,6.3,1.9,9,2.8c2.8,1,5.2,2,7.5,2.9       c4.4,1.9,7.8,3.7,10.1,4.9C584.5,933.2,585.7,933.9,585.7,933.9z M585.7,933.9c0,0-1.2-0.7-3.5-1.9c-2.3-1.2-5.7-2.9-10.1-4.8       c-4.5-1.9-10-3.9-16.6-5.4c-6.5-1.5-14.1-2.7-22.3-2.2c-4.1,0.3-8.3,0.9-12.5,2.3c-2.1,0.7-4.1,1.6-6,2.7       c-1.9,1.1-3.7,2.4-5.3,4.1c-0.8,0.8-1.5,1.7-2.1,2.6c-0.3,0.4-0.6,0.9-0.9,1.5l-0.5,0.8l-0.3,0.7c-1,2-1.7,4.2-2,6.5       c-0.6,4.6,0.2,9.4,1.7,14.1c0.8,2.3,1.8,4.6,3,6.9c1.2,2.2,2.5,4.4,4,6.5c2.9,4.2,6.3,8.3,10,12c7.5,7.5,16.1,14.1,25.5,19.4       c9.3,5.5,19.4,9.7,29.6,12.4c5.1,1.4,10.3,2.2,15.4,2.7c2.6,0.2,5.1,0.3,7.6,0.2c2.5-0.1,5-0.4,7.4-0.8c4.8-1,9.4-2.7,13.1-5.6       l1.3-1.1c0.4-0.4,0.8-0.8,1.2-1.2c0.8-0.8,1.4-1.6,2.1-2.7c1.2-1.9,2.2-3.9,2.8-6.1c0.6-2.2,0.9-4.4,0.9-6.6       c0-2.2-0.2-4.4-0.7-6.6c-0.8-4.3-2.5-8.3-4.3-12c-3.7-7.4-8.5-13.3-13.1-18.2c-4.6-4.9-9.1-8.7-13-11.6c-3.9-2.9-7.1-5-9.2-6.4       C586.9,934.6,585.7,933.9,585.7,933.9z"/>
					</g>
					<g id="XMLID_1256_">
						<path id="XMLID_82_" fill="#2A3B64" d="M546.2,933.9c0,0,1.2-0.7,3.5-2c2.3-1.2,5.7-3,10.1-4.9c2.2-1,4.7-2,7.5-2.9       c2.8-1,5.8-2,9-2.8c6.5-1.7,14.1-3.1,22.5-3.1c4.2,0.1,8.6,0.5,13,1.8c2.2,0.6,4.4,1.4,6.6,2.5c2.1,1.1,4.2,2.4,6.1,4.1       c1.9,1.7,3.5,3.7,4.8,6c0.6,1,1.2,2.3,1.6,3.6c0.2,0.6,0.4,1.3,0.6,1.9c0.2,0.6,0.3,1.3,0.5,1.9c1,5.3,0.5,10.8-1,16       c-0.8,2.6-1.8,5.2-2.9,7.7c-1.2,2.5-2.5,4.9-3.9,7.3c-3,4.7-6.4,9.1-10.2,13.2c-1.9,2.1-3.9,4-6,5.9c-2.1,1.9-4.3,3.7-6.5,5.4       c-4.5,3.5-9.1,6.6-14.1,9.5c-1.2,0.7-2.4,1.3-3.7,2c-1.3,0.6-2.5,1.3-3.8,1.9c-2.5,1.2-5.1,2.4-7.7,3.5c-2.6,1.1-5.3,2-7.9,2.9       c-2.7,0.8-5.4,1.6-8.1,2.2c-5.5,1.3-11,2.1-16.5,2.3c-2.8,0.1-5.5,0-8.3-0.2c-2.7-0.3-5.4-0.7-8.1-1.3       c-5.3-1.3-10.4-3.6-14.4-7.1c-2-1.8-3.7-3.8-5.1-6.1c-0.2-0.3-0.3-0.5-0.5-0.9l-0.4-0.8c-0.3-0.5-0.5-1.1-0.8-1.7       c-0.5-1.2-0.8-2.5-1.1-3.7c-0.6-2.5-0.7-4.9-0.6-7.3c0.1-2.4,0.5-4.7,1.1-6.9c1.1-4.5,3-8.5,5-12.1c4.1-7.3,9.1-13.2,13.9-18       c2.4-2.4,4.7-4.5,7-6.4c2.2-1.9,4.3-3.6,6.3-5c3.9-2.9,7.1-4.9,9.3-6.3C545,934.6,546.2,933.9,546.2,933.9z M546.2,933.9       c0,0-1.2,0.7-3.4,2.1c-2.2,1.4-5.4,3.5-9.2,6.4c-3.8,2.9-8.4,6.7-13,11.6c-4.6,4.9-9.4,10.9-13.1,18.2c-1.8,3.7-3.4,7.7-4.3,12       c-0.4,2.1-0.7,4.3-0.7,6.6c0,2.2,0.3,4.5,0.9,6.6c0.3,1.1,0.7,2.2,1.1,3.1c0.2,0.5,0.5,1,0.8,1.5l0.4,0.8l0.4,0.6       c1.3,1.9,2.8,3.6,4.7,5c3.7,2.9,8.3,4.6,13.1,5.6c2.4,0.5,4.9,0.7,7.4,0.8c2.5,0.1,5.1,0,7.6-0.2c5.1-0.4,10.3-1.3,15.4-2.7       c10.2-2.7,20.2-6.9,29.6-12.4c9.3-5.3,18-11.9,25.5-19.4c3.8-3.7,7.1-7.8,10-12c1.4-2.1,2.8-4.3,4-6.5c1.2-2.2,2.2-4.5,3-6.9       c1.6-4.7,2.4-9.5,1.7-14.1l-0.3-1.7c-0.1-0.6-0.3-1.1-0.4-1.7c-0.3-1.1-0.7-2-1.3-3.2c-1-2-2.3-3.9-3.9-5.5       c-1.5-1.6-3.4-2.9-5.3-4.1c-1.9-1.1-3.9-2-6-2.7c-4.1-1.4-8.4-2-12.5-2.3c-8.2-0.5-15.8,0.7-22.3,2.2       c-6.6,1.5-12.1,3.6-16.6,5.4c-4.5,1.9-7.9,3.6-10.1,4.8C547.4,933.2,546.2,933.9,546.2,933.9z"/>
					</g>

					<ellipse id="XMLID_1253_" transform="matrix(0.735 -0.6781 0.6781 0.735 -506.4769 640.2866)" fill="#2A3B64" cx="565.9" cy="968.1" rx="22.7" ry="22.7"/>
					<circle id="XMLID_1250_" fill="#2A3B64" cx="528.9" cy="941.5" r="8.7"/>
					<circle id="XMLID_1247_" fill="#2A3B64" cx="612.4" cy="920.9" r="8.7"/>
					<circle id="XMLID_1244_" fill="#2A3B64" cx="627.4" cy="1003.6" r="8.7"/>
				</g>
				<g id="XMLID_1211_">

					<ellipse id="XMLID_1242_" transform="matrix(0.9742 -0.2256 0.2256 0.9742 -189.3629 103.1816)" fill="#FFFFFF" stroke="#D97B67" stroke-width="3" cx="356.8" cy="880.1" rx="42.9" ry="42.9"/>
					<g id="XMLID_1212_">
						<g id="XMLID_1229_">
							<g id="XMLID_63_">
								<path id="XMLID_81_" fill="#D97B67" d="M360,862.4l-3.2,11.4l-3.5-11.3c-9.5,1.9-9.2,11.6-9.2,12.1h24.8         C369,874.1,369.8,864.2,360,862.4z"/>
							</g>
							<g id="XMLID_61_">
								<path id="XMLID_62_" fill="#D97B67" d="M356.7,861.1c3.4,0,6.2-3.3,6.2-7.3c0-4.1-2.8-7.3-6.2-7.3c-3.4,0-6.2,3.3-6.2,7.3         C350.5,857.8,353.3,861.1,356.7,861.1z"/>
							</g>
						</g>
						<g id="XMLID_1226_">
							<path id="XMLID_1228_" fill="#2A3B64" d="M358.7,894.3l-2,7.1l-2.2-7.1c-5.9,1.2-5.8,7.3-5.7,7.6h15.5        C364.3,901.6,364.8,895.5,358.7,894.3z"/>
							<path id="XMLID_1227_" fill="#2A3B64" d="M356.7,893.9c2.2,0,4-2.1,4-4.8c0-2.6-1.8-4.8-4-4.8c-2.2,0-4,2.1-4,4.8        C352.6,891.7,354.4,893.9,356.7,893.9z"/>
						</g>
						<g id="XMLID_1223_">
							<path id="XMLID_1225_" fill="#2A3B64" d="M383.9,894.3l-2,7.1l-2.2-7.1c-5.9,1.2-5.8,7.3-5.7,7.6h15.5        C389.6,901.6,390.1,895.5,383.9,894.3z"/>
							<path id="XMLID_1224_" fill="#2A3B64" d="M381.9,893.9c2.2,0,4-2.1,4-4.8c0-2.6-1.8-4.8-4-4.8c-2.2,0-4,2.1-4,4.8        C377.9,891.7,379.7,893.9,381.9,893.9z"/>
						</g>
						<g id="XMLID_1214_">
							<polygon id="XMLID_1222_" fill="#2A3B64" points="331.9,898.3 330.9,895.2 331.7,894.4 332,894.4 332.7,895.2       "/>
							<polygon id="XMLID_1221_" fill="#2A3B64" points="356.8,898.3 355.8,895.2 356.5,894.4 356.9,894.4 357.6,895.2       "/>
							<polygon id="XMLID_1218_" fill="#D97B67" points="356.8,869.2 355.1,863.6 356.4,862.2 357,862.2 358.3,863.6       "/>
							<polygon id="XMLID_1217_" fill="#2A3B64" points="382,898.3 381,895.2 381.7,894.4 382.1,894.4 382.8,895.2       "/>
							<path id="XMLID_1216_" fill="#2A3B64" d="M333.9,894.3l-2,7.1l-2.2-7.1c-5.9,1.2-5.8,7.3-5.7,7.6h15.5        C339.6,901.6,340,895.5,333.9,894.3z"/>
							<path id="XMLID_1215_" fill="#2A3B64" d="M331.9,893.9c2.2,0,4-2.1,4-4.8c0-2.6-1.8-4.8-4-4.8c-2.2,0-4,2.1-4,4.8        C327.9,891.7,329.6,893.9,331.9,893.9z"/>
						</g>
						<polygon id="XMLID_1213_" fill="#2A3B64" points="357.9,877.4 357.9,875.5 355.7,875.5 355.7,877.4 331.5,877.4 331.5,882.7       333.4,882.7 333.4,880.1 355.7,880.1 355.7,882.9 357.9,882.9 357.9,880.1 380.5,880.1 380.5,882.7 382.3,882.7 382.3,877.4            "/>
					</g>
				</g>
				<g id="XMLID_1134_">
					<circle id="XMLID_1210_" fill="#FFFFFF" stroke="#D97B67" stroke-width="3" cx="701.5" cy="768.7" r="60.9"/>
					<g id="XMLID_1135_">
						<g id="XMLID_1167_">
							<g id="XMLID_59_">
								<rect id="XMLID_60_" x="676.2" y="740.8" fill="#D97B67" width="22.4" height="1.6"/>
							</g>
							<g id="XMLID_57_">
								<rect id="XMLID_58_" x="676.2" y="745.7" fill="#D97B67" width="6.2" height="1.6"/>
							</g>
							<g id="XMLID_55_">
								<rect id="XMLID_56_" x="676.2" y="750.6" fill="#D97B67" width="6.2" height="1.6"/>
							</g>
							<g id="XMLID_53_">
								<rect id="XMLID_54_" x="676.2" y="755.5" fill="#D97B67" width="6.2" height="1.6"/>
							</g>
							<g id="XMLID_51_">
								<rect id="XMLID_52_" x="676.2" y="760.4" fill="#D97B67" width="6.2" height="1.6"/>
							</g>
							<g id="XMLID_49_">
								<rect id="XMLID_50_" x="676.2" y="765.2" fill="#D97B67" width="6.2" height="1.6"/>
							</g>
							<g id="XMLID_47_">
								<rect id="XMLID_48_" x="676.2" y="770.1" fill="#D97B67" width="6.2" height="1.6"/>
							</g>
							<g id="XMLID_39_">
								<rect id="XMLID_40_" x="676.2" y="775" fill="#D97B67" width="6.2" height="1.6"/>
							</g>
						</g>
						<path id="XMLID_1164_" fill="#D97B67" d="M669.2,785.6c0-0.3-0.3-0.6-0.6-0.6v-51.1c0.3,0,0.6-0.3,0.6-0.6h36.2       c0,0.3,0.3,0.6,0.6,0.6v8.3h2.4v-8.2c0-1.7-1.4-3.1-3-3.1h-36.2c-1.7,0-3,1.4-3,3.1V785c0,1.7,1.4,3.1,3,3.1h13.6v-2.5H669.2z"/>
						<g id="XMLID_1136_">
							<g id="XMLID_1153_">
								<path id="XMLID_1161_" fill="#D97B67" d="M723.5,799.9c0.1-0.1,0.1-0.3,0.1-0.4v-4l0.7-0.5c0.4-0.3,0.7-0.7,0.9-1.1v-2.2         c-0.6-1.4-2.4-2.2-4.1-1c0,0,0,0-0.1,0.1c-1.4,1.4-1.1,3.4,0.2,4.3l0.7,0.5v4c0,0.2,0.1,0.3,0.1,0.4h1.3         C723.4,799.9,723.5,799.9,723.5,799.9z"/>
								<path id="XMLID_1155_" fill="#2A3B64" d="M709.2,789.4h-0.4h-7.6h-7.5v-1.7h7.5h7.6h0.4v-1.2c0-0.8,0.2-1.5,0.5-2.1h-11.1h-5         v-1.7h5h12.6c-0.4-1.1-0.6-2.2-0.6-3.3h-12h-5v-1.7h5h12c0.1-1.2,0.4-2.3,0.9-3.3h-13.4h-4.5v-1.7h3.6h15.3         c0.4-0.5,0.9-1,1.5-1.5c3.1-2.5,7.5-2.5,11.2-0.5v-0.8V746c0-0.1,0-0.3,0-0.4c-0.2-0.9-0.9-1.5-1.8-1.5h0h-13.4h-2.5h-5H700         h-13.4h0c-0.9,0-1.6,0.7-1.8,1.5c0,0.1,0,0.3,0,0.4v24.1v17.4v2.5v8c0,1.1,0.8,1.9,1.9,1.9h14.6h7.6h0.4V789.4z M693.7,753         h22.6v1.7h-22.6V753z M693.7,758h22.6v1.7h-22.6V758z M693.7,763h22.6v1.7h-22.6V763z M693.7,767.9h22.6v1.7h-22.6V767.9z"/>
								<path id="XMLID_1154_" fill="#2A3B64" d="M725.1,779.4l-0.9-1.4c-0.1-0.2-0.3-0.4-0.4-0.6c-0.9-1.1-2-1.8-3.1-2         c-1.1-0.2-2.1,0-2.9,0.7c-1,0.8-1.3,1.9-1.3,2.7c0,1.2,0.4,2.5,1.3,3.6h7.5L725.1,779.4L725.1,779.4z"/>
							</g>
							<g id="XMLID_514_">
								<path id="XMLID_44_" fill="#D97B67" d="M734.8,783.8h-17.8c-0.2-0.2-0.4-0.4-0.6-0.6c-2.2-2.8-2.2-6.4,0.3-8.4         c2.4-1.9,6-1.2,8.2,1.6c0.2,0.2,0.4,0.5,0.5,0.7l2.4-1.9c-3.4-4.4-9.2-5.6-12.9-2.6c-3.2,2.5-3.8,7.2-1.7,11.2         c-1.5,0.1-2.6,1.3-2.6,2.7v19.8l0,0h24.2V783.8z M725.2,796.2v5.6h-4.8v-5.6c-1.8-1.2-2.6-3.8-0.9-6.3         c0.1-0.2,0.3-0.3,0.4-0.4c3.4-2.3,7,0,7,3.3C727,794.2,726.3,795.5,725.2,796.2z"/>
							</g>
						</g>
					</g>
				</g>
				<g id="XMLID_1123_">

					<ellipse id="XMLID_1133_" transform="matrix(0.9852 -0.1714 0.1714 0.9852 -125.2394 86.4086)" fill="#FFFFFF" stroke="#D97B67" stroke-width="3" cx="437.9" cy="768.7" rx="60.9" ry="60.9"/>
					<g id="XMLID_460_">
						<path id="XMLID_461_" fill="#2A3B64" d="M466.2,759.2c-1,0-2,0.1-3,0.3c0.6-2,0.9-4.1,0.9-6.3c0-12.9-10.5-23.4-23.4-23.4       c-12.4,0-22.5,9.6-23.4,21.7c-1.2-0.2-2.4-0.3-3.6-0.3c-12.4,0-22.4,10-22.4,22.4s10,22.4,22.4,22.4h52.5       c10.1,0,18.3-8.2,18.3-18.3S476.3,759.2,466.2,759.2z M456.4,767c0,6.9-3.5,13.2-9.2,16.9l-7.5,4.9l-7.5-4.9       c-5.8-3.7-9.2-10.1-9.2-16.9v-14.2l2.3,1c0.3,0.1,6.5,2.7,13.3-6.2l1.3-1.7l1.3,1.7c6.8,9.1,13.2,6.2,13.3,6.2l2.3-1V767z"/>
					</g>
				</g>
				<g id="XMLID_1092_">
					<circle id="XMLID_1122_" fill="#FFFFFF" stroke="#D97B67" stroke-width="3" cx="569.7" cy="754.8" r="47.1"/>
					<g id="XMLID_1120_">
						<path id="XMLID_1121_" fill="none" d="M580.2,732h-30.7c-0.4,0-0.7,0.3-0.7,0.8v17.6c0,0.4,0.3,0.8,0.7,0.8h25.8       c0.4-3,2.7-5.4,5.7-5.9v-12.5C580.9,732.3,580.6,732,580.2,732z"/>
					</g>
					<g id="XMLID_1112_">
						<path id="XMLID_1119_" fill="none" d="M549.5,732h30.7c0.4,0,0.7,0.3,0.7,0.8v17.6c0,0.4-0.3,0.8-0.7,0.8h-25.8       c-0.4-3-2.7-5.4-5.7-5.9v-12.5C548.7,732.3,549,732,549.5,732z"/>
						<polygon id="XMLID_1118_" fill="#2A3B64" points="547.7,758.1 547.7,762.4 541.4,762.4 543.4,758.1      "/>
						<g id="XMLID_1113_">
							<g id="XMLID_1115_">
								<path id="XMLID_1117_" fill="#2A3B64" d="M580.2,758.1c0.2,0.9,0.6,1.8,1.2,2.6c0,0,0,0,0.1,0.1h5.8l-1.3-2.7H580.2z"/>
								<path id="XMLID_1116_" fill="#2A3B64" d="M573,765c0-1.6,0.8-2.9,2.1-3.7c-0.4-1.1-0.6-2.2-0.7-3.2h-19.9h-10.8l-6.5,12.9         h19.8h15.5h0.4V765z"/>
							</g>
							<path id="XMLID_1114_" fill="#2A3B64" d="M573,773.1h-0.4h-15.5h-19.5c-0.3,0-0.6,0.5-0.6,1.1v0.1c0,0.6,0.2,1.1,0.6,1.1h19.5        h15.5h0.4V773.1z"/>
						</g>
					</g>
					<g id="XMLID_1109_">
						<path id="XMLID_1111_" fill="#2A3B64" d="M586.5,755.3v-0.6c-0.6-0.5-1.4-0.9-2.1-1c-1.1-0.2-2.1,0-3,0.7       c-0.6,0.5-1,1.1-1.1,1.7h5.5C586.2,756.1,586.5,755.7,586.5,755.3z"/>
						<path id="XMLID_1110_" fill="#2A3B64" d="M576.5,751.2h-1.2h-20.8h-5c-0.4,0-0.7-0.3-0.7-0.8v-5.2h0v-12.5       c0-0.2,0.1-0.4,0.2-0.5c0.1-0.1,0.3-0.2,0.5-0.2h30.7c0.3,0,0.5,0.1,0.6,0.3c0.1,0.1,0.1,0.3,0.1,0.4v12.5h0v3       c1.2-0.3,2.5-0.5,3.9-0.3c0.6,0.1,1.1,0.2,1.7,0.4v-3.2v-17.3c0-0.4-0.3-0.8-0.7-0.8h0h-41.9h0c-0.4,0-0.7,0.3-0.7,0.8v17.3       v6.8v3.3c0,0.4,0.3,0.8,0.7,0.8h0h3.8h6.8h19.9C574.7,754.2,575.4,752.5,576.5,751.2z"/>
					</g>
					<g id="XMLID_435_">
						<path id="XMLID_41_" fill="#D97B67" d="M598.6,762.2h-17.8c-0.2-0.2-0.4-0.4-0.6-0.6c-2.2-2.8-2.2-6.4,0.3-8.4       c2.4-1.9,6-1.2,8.2,1.6c0.2,0.2,0.4,0.5,0.5,0.7l2.4-1.9c-3.4-4.4-9.2-5.6-12.9-2.6c-3.2,2.5-3.8,7.2-1.7,11.2       c-1.5,0.1-2.6,1.3-2.6,2.7v19.8l0,0h24.2V762.2z M588.9,774.6v5.6h-4.8v-5.6c-1.8-1.2-2.6-3.8-0.9-6.3c0.1-0.2,0.3-0.3,0.4-0.4       c3.4-2.3,7,0,7,3.3C590.7,772.6,590,773.9,588.9,774.6z"/>
					</g>
				</g>
				<line id="XMLID_1091_" fill="none" stroke="#D97B67" stroke-width="3" x1="569.7" y1="801.9" x2="569.7" y2="868.5"/>
				<path id="XMLID_1090_" fill="none" stroke="#D97B67" stroke-width="3" d="M663.1,947.9h21.9c8.3,0,15-6.7,15-15V830.7"/>
				<path id="XMLID_1089_" fill="none" stroke="#D97B67" stroke-width="3" d="M469.2,947.9h-21.6c-8.3,0-15-6.7-15-15V830.7"/>
				<path id="XMLID_1088_" fill="none" stroke="#D97B67" stroke-width="3" d="M666.2,977.3h92.5c8.3,0,15-6.7,15-15v-38"/>
				<path id="XMLID_1087_" fill="none" stroke="#D97B67" stroke-width="3" d="M466.9,977.3h-93.1c-8.3,0-15-6.7-15-15v-38"/>
			</g>
			<path id="XMLID_433_" fill="#D97B67" d="M439.6,749.1c-7.3,9.7-14.5,6.4-14.5,6.4v11.2c0,6,3.1,11.7,8.1,14.9l6.4,4.1l6.4-4.1    c5.1-3.3,8.1-8.9,8.1-14.9v-11.2C454.2,755.4,447,758.8,439.6,749.1z"/>
			<polygon id="XMLID_1082_" fill="#FFFFFF" points="427.5,777.7 433.3,766.6 442.3,769.2 448.6,762.7 443.2,771 434.2,768.9    429.3,781   "/>
			<g id="XMLID_1080_">

				<ellipse id="XMLID_1081_" transform="matrix(0.7071 -0.7071 0.7071 0.7071 -396.3552 804.8793)" fill="#FFFFFF" stroke="#D97B67" stroke-width="3" cx="773.4" cy="880.9" rx="43.6" ry="43.6"/>
			</g>
			<g id="XMLID_1012_">
				<path id="XMLID_1015_" fill="#2A3B64" d="M783.1,898.7C783.1,898.7,783.1,898.7,783.1,898.7l0-0.9c0,0,0,0,0-0.1v-7.3     c0-1.2,0.6-2.4,1.5-3.1c-0.8-2.6-0.4-5.4,1.1-7.5c0-0.1,0-0.3,0-0.4h0.3c0.3-0.4,0.7-0.8,1.1-1.1c2.9-2.3,7-2.1,10.2,0.1     c0-0.2,0-0.4,0-0.6c0-0.2,0-0.4,0-0.5h0c0-0.2,0-0.3,0-0.5c0-0.4,0-0.8-0.1-1.2c0-0.2,0-0.4-0.1-0.7c0-0.4-0.1-0.8-0.1-1.1     c0-0.2-0.1-0.4-0.1-0.7c-0.1-0.4-0.1-0.7-0.2-1.1c0-0.2-0.1-0.5-0.2-0.7c-0.1-0.3-0.2-0.7-0.3-1c-0.1-0.2-0.2-0.5-0.2-0.7     c-0.1-0.3-0.2-0.6-0.3-1c-0.1-0.3-0.2-0.5-0.3-0.8c-0.1-0.3-0.2-0.6-0.3-0.8c-0.1-0.3-0.3-0.6-0.4-1c-0.1-0.2-0.2-0.4-0.3-0.6     c-0.3-0.5-0.5-1-0.8-1.5c-0.5-0.9-1.1-1.8-1.7-2.7c-0.3-0.5-0.7-0.9-1.1-1.3c-0.1-0.1-0.2-0.2-0.2-0.3c-0.3-0.3-0.6-0.7-0.9-1     c-0.1-0.1-0.2-0.2-0.3-0.3c-0.3-0.3-0.6-0.6-0.9-0.9c-0.1-0.1-0.2-0.2-0.3-0.3c-0.3-0.3-0.6-0.6-0.9-0.8     c-0.1-0.1-0.2-0.2-0.4-0.3c-0.3-0.3-0.7-0.5-1-0.8c-0.1-0.1-0.3-0.2-0.4-0.3c-0.3-0.2-0.7-0.5-1-0.7c-0.1-0.1-0.3-0.2-0.4-0.2     c-0.4-0.2-0.7-0.4-1.1-0.6c-0.1-0.1-0.3-0.2-0.4-0.2c-0.3-0.2-0.7-0.4-1-0.5c0,0,0,0,0,0c0,0,0,0,0,0c-0.2-0.1-0.4-0.2-0.6-0.3     c-0.4-0.2-0.8-0.4-1.2-0.5c-0.2-0.1-0.4-0.1-0.5-0.2c-0.5-0.2-0.9-0.3-1.4-0.5c0,0,0,0-0.1,0c0,0,0,0,0,0c-0.1,0-0.3-0.1-0.4-0.1     c-0.5-0.1-1-0.3-1.5-0.4c-0.1,0-0.3-0.1-0.4-0.1c-0.5-0.1-1.1-0.2-1.6-0.3c-0.2,0-0.5-0.1-0.7-0.1c-0.5-0.1-0.9-0.1-1.4-0.2     c-0.7-0.1-1.4-0.1-2.1-0.1c-0.7,0-1.4,0-2.1,0.1c-0.5,0-0.9,0.1-1.4,0.2c-0.2,0-0.5,0-0.7,0.1c-0.5,0.1-1.1,0.2-1.6,0.3     c-0.1,0-0.3,0.1-0.4,0.1c-0.5,0.1-1,0.3-1.5,0.4c-0.1,0-0.3,0.1-0.4,0.1c0,0,0,0,0,0c0,0,0,0-0.1,0c-0.5,0.1-0.9,0.3-1.4,0.5     c-0.2,0.1-0.4,0.1-0.5,0.2c-0.4,0.2-0.8,0.4-1.2,0.5c-0.2,0.1-0.4,0.2-0.6,0.3c0,0,0,0,0,0c0,0,0,0,0,0c-0.4,0.2-0.7,0.4-1,0.5     c-0.1,0.1-0.3,0.1-0.4,0.2c-0.4,0.2-0.7,0.4-1.1,0.6c-0.1,0.1-0.3,0.2-0.4,0.2c-0.4,0.2-0.7,0.5-1,0.7c-0.1,0.1-0.2,0.2-0.4,0.3     c-0.3,0.3-0.7,0.5-1,0.8c-0.1,0.1-0.2,0.2-0.3,0.3c-0.3,0.3-0.7,0.6-1,0.9c-0.1,0.1-0.2,0.2-0.3,0.3c-0.3,0.3-0.6,0.6-0.9,0.9     c-0.1,0.1-0.2,0.2-0.3,0.3c-0.3,0.3-0.6,0.7-0.9,1c-0.1,0.1-0.2,0.2-0.2,0.3c-0.4,0.4-0.7,0.9-1.1,1.3c-0.6,0.8-1.2,1.7-1.7,2.7     c-0.3,0.5-0.6,1-0.8,1.5c-0.1,0.2-0.2,0.4-0.3,0.6c-0.1,0.3-0.3,0.6-0.4,1c-0.1,0.3-0.2,0.6-0.3,0.8c-0.1,0.3-0.2,0.5-0.3,0.8     c-0.1,0.3-0.2,0.6-0.3,1c-0.1,0.2-0.2,0.5-0.2,0.7c-0.1,0.3-0.2,0.7-0.3,1c-0.1,0.2-0.1,0.5-0.2,0.7c-0.1,0.4-0.1,0.7-0.2,1.1     c0,0.2-0.1,0.4-0.1,0.7c-0.1,0.4-0.1,0.8-0.1,1.1c0,0.2,0,0.4-0.1,0.7c0,0.4,0,0.8-0.1,1.2c0,0.2,0,0.3,0,0.5h0     c0,0.2,0,0.4,0,0.5c0,5.3,1.5,10.4,4.1,14.6c0.6,0.9,1.2,1.8,1.8,2.6c2.4,3.1,5.4,5.6,8.9,7.5c0.3,0.1,0.5,0.3,0.8,0.4     c0.1,0,0.2,0.1,0.2,0.1c0,0,0,0,0,0c0,0,0,0,0,0c0.2,0.1,0.4,0.2,0.6,0.3c0.4,0.2,0.8,0.4,1.2,0.5c0.2,0.1,0.4,0.1,0.5,0.2     c0.5,0.2,0.9,0.3,1.4,0.5c0,0,0,0,0.1,0c0,0,0,0,0,0c0.1,0,0.3,0.1,0.5,0.1c0.5,0.1,1,0.3,1.5,0.4c0.2,0,0.3,0.1,0.5,0.1     c0.5,0.1,1,0.2,1.6,0.3c0.2,0,0.5,0.1,0.7,0.1c0.5,0.1,0.9,0.1,1.4,0.2c0.7,0.1,1.4,0.1,2.1,0.1c0.7,0,1.4,0,2.1-0.1     c0.5,0,0.9-0.1,1.4-0.2c0.2,0,0.5,0,0.7-0.1c0.5-0.1,1.1-0.2,1.6-0.3c0.2,0,0.3-0.1,0.5-0.1c0.5-0.1,1-0.3,1.5-0.4     c0.2,0,0.3-0.1,0.5-0.1c0,0,0,0,0,0c0,0,0,0,0.1,0c0.5-0.1,0.9-0.3,1.4-0.5c0.2-0.1,0.4-0.1,0.5-0.2c0.4-0.2,0.8-0.4,1.2-0.5     c0.2-0.1,0.4-0.2,0.6-0.3c0,0,0,0,0,0c0,0,0,0,0,0c0.1,0,0.2-0.1,0.2-0.1c0.3-0.1,0.5-0.3,0.8-0.4c0.2-0.1,0.4-0.2,0.6-0.3V898.7     z M745.1,871.9c0.6-2.4,1.6-4.7,2.8-6.8c1,0.3,1.9,0.7,2.9,1c0.2,0.1,0.3,0.1,0.5,0.1c0.8,0.2,1.6,0.5,2.4,0.7     c-0.4,3.1-0.7,6.3-0.8,9.5h-8.5C744.5,874.9,744.8,873.4,745.1,871.9z M748.4,891.5c-2.2-3.5-3.6-7.5-3.9-11.9h7.6h1     c0.1,3.5,0.4,6.9,0.9,10.2C752,890.3,750.2,890.8,748.4,891.5z M755.5,898.7c-2-1.3-3.7-2.9-5.2-4.6c1.3-0.5,2.7-0.9,4.1-1.2     c0.3,1.7,0.7,3.3,1.2,5V898.7z M754.2,863.9c-0.3-0.1-0.6-0.2-0.8-0.2c-0.5-0.1-0.9-0.3-1.4-0.4c-0.7-0.2-1.5-0.5-2.2-0.7     c0.4-0.5,0.9-1.1,1.3-1.5c0.1-0.1,0.3-0.3,0.4-0.4c0.3-0.3,0.7-0.7,1-1c0.2-0.2,0.4-0.3,0.6-0.5c0.3-0.3,0.7-0.6,1-0.8     c0.2-0.2,0.4-0.3,0.7-0.5c0.3-0.2,0.6-0.5,1-0.7C755.2,859.3,754.7,861.6,754.2,863.9z M767.8,902.9     C767.7,902.9,767.7,902.9,767.8,902.9c-0.4,0-0.7-0.1-1.1-0.1c-0.2,0-0.4,0-0.6-0.1c-0.1,0-0.3,0-0.4-0.1c-0.3,0-0.5-0.1-0.8-0.1     c-0.1,0-0.2,0-0.2,0c-0.3-0.1-0.6-0.1-0.9-0.2c0,0,0,0-0.1,0c-0.3-0.1-0.7-0.2-1-0.3c0,0,0,0,0,0c-1-0.3-2-0.6-2.9-1     c-0.9-2.9-1.7-5.8-2.3-8.8c0.2,0,0.5-0.1,0.7-0.1c0.6-0.1,1.2-0.2,1.8-0.3c0.3,0,0.5-0.1,0.8-0.1c0.6-0.1,1.2-0.2,1.8-0.2     c0.4,0,0.7-0.1,1.1-0.1c0.5,0,1-0.1,1.5-0.1c0.9-0.1,1.7-0.1,2.6-0.1c0,0,0,0,0.1,0V902.9z M767.8,887.9     C767.7,887.9,767.7,887.9,767.8,887.9c-1,0-1.9,0.1-2.8,0.1c-0.5,0-0.9,0.1-1.4,0.1c-0.5,0-0.9,0.1-1.4,0.1     c-0.6,0.1-1.1,0.1-1.7,0.2c-0.3,0-0.7,0.1-1,0.1c-0.6,0.1-1.1,0.2-1.7,0.3c-0.3,0.1-0.6,0.1-0.9,0.2c-0.5-3.1-0.7-6.3-0.8-9.5     h11.6V887.9z M767.8,876.4h-11.6c0.1-3,0.3-5.9,0.7-8.8c0.3,0.1,0.5,0.1,0.8,0.1c0.6,0.1,1.2,0.2,1.8,0.3c0.3,0,0.6,0.1,0.9,0.1     c0.6,0.1,1.2,0.2,1.8,0.2c0.4,0,0.8,0.1,1.2,0.1c0.5,0,1,0.1,1.5,0.1c0.9,0.1,1.8,0.1,2.7,0.1c0,0,0,0,0.1,0V876.4z M767.8,865.8     C767.7,865.8,767.7,865.8,767.8,865.8c-0.9,0-1.8-0.1-2.7-0.1c-0.4,0-0.9-0.1-1.3-0.1c-0.5,0-0.9-0.1-1.4-0.1     c-0.5-0.1-1-0.1-1.5-0.2c-0.4-0.1-0.7-0.1-1.1-0.1c-0.5-0.1-1-0.2-1.5-0.3c-0.3-0.1-0.7-0.1-1-0.2c0.6-3.3,1.4-6.5,2.4-9.6     c1.2-0.5,2.5-0.9,3.9-1.3c0,0,0,0,0,0c0.3-0.1,0.6-0.1,1-0.2c0.1,0,0.1,0,0.2,0c0.3-0.1,0.6-0.1,0.9-0.1c0.1,0,0.3,0,0.4,0     c0.2,0,0.4-0.1,0.7-0.1c0.3,0,0.7-0.1,1-0.1c0,0,0,0,0.1,0V865.8z M770.9,853.1C770.9,853.1,770.9,853.1,770.9,853.1     c0.4,0,0.7,0.1,1.1,0.1c0.2,0,0.4,0.1,0.7,0.1c0.1,0,0.3,0,0.4,0c0.3,0,0.6,0.1,0.9,0.1c0.1,0,0.1,0,0.2,0c0.3,0.1,0.7,0.1,1,0.2     c0,0,0,0,0,0c1.3,0.3,2.6,0.7,3.9,1.3c1,3.1,1.8,6.3,2.4,9.6c-0.3,0.1-0.7,0.1-1,0.2c-0.5,0.1-1,0.2-1.5,0.3     c-0.4,0.1-0.7,0.1-1.1,0.1c-0.5,0.1-1,0.1-1.5,0.2c-0.5,0.1-0.9,0.1-1.4,0.1c-0.4,0-0.8,0.1-1.3,0.1c-0.9,0.1-1.8,0.1-2.6,0.1     c0,0,0,0,0,0V853.1z M778.9,901c-0.9,0.4-1.9,0.7-2.9,1l0,0c-0.3,0.1-0.7,0.2-1,0.3c0,0,0,0-0.1,0c-0.3,0.1-0.6,0.1-0.9,0.2     c-0.1,0-0.1,0-0.2,0c-0.3,0-0.5,0.1-0.8,0.1c-0.1,0-0.3,0-0.4,0.1c-0.2,0-0.4,0.1-0.6,0.1c-0.3,0-0.7,0.1-1,0.1c0,0,0,0,0,0V891     c0,0,0,0,0,0c0.9,0,1.7,0.1,2.6,0.1c0.5,0,1,0.1,1.5,0.1c0.4,0,0.7,0.1,1.1,0.1c0.6,0.1,1.2,0.2,1.8,0.2c0.3,0,0.5,0.1,0.8,0.1     c0.6,0.1,1.2,0.2,1.8,0.3c0.2,0,0.5,0.1,0.7,0.1C780.6,895.2,779.8,898.1,778.9,901z M781.7,889.1c-0.3-0.1-0.6-0.1-0.9-0.2     c-0.6-0.1-1.1-0.2-1.7-0.3c-0.3-0.1-0.7-0.1-1-0.1c-0.6-0.1-1.1-0.2-1.7-0.2c-0.5-0.1-0.9-0.1-1.4-0.1c-0.5,0-0.9-0.1-1.4-0.1     c-0.9-0.1-1.8-0.1-2.7-0.1c0,0,0,0,0,0v-8.3h11.6C782.4,882.8,782.1,886,781.7,889.1z M770.9,876.4v-7.6c0,0,0,0,0,0     c0.9,0,1.8-0.1,2.8-0.1c0.5,0,1-0.1,1.5-0.1c0.4,0,0.8-0.1,1.3-0.1c0.6-0.1,1.2-0.2,1.8-0.2c0.3,0,0.6-0.1,0.9-0.1     c0.6-0.1,1.2-0.2,1.9-0.3c0.3-0.1,0.5-0.1,0.8-0.1c0.4,2.9,0.6,5.8,0.7,8.8H770.9z M790.7,865.2c0.8,1.2,1.4,2.6,1.9,3.9     c0.9,2.3,1.4,4.8,1.6,7.3h-8.5c-0.1-3.2-0.3-6.4-0.8-9.5c0.8-0.2,1.6-0.4,2.4-0.7c0.2-0.1,0.4-0.1,0.5-0.1     C788.8,865.8,789.7,865.5,790.7,865.2z M783.8,857.7c0.2,0.2,0.5,0.3,0.7,0.5c0.3,0.3,0.7,0.5,1,0.8c0.2,0.2,0.4,0.3,0.6,0.5     c0.4,0.3,0.7,0.7,1,1c0.1,0.1,0.3,0.3,0.4,0.4c0.5,0.5,0.9,1,1.3,1.5c-0.7,0.3-1.5,0.5-2.2,0.7c-0.5,0.1-0.9,0.3-1.4,0.4     c-0.3,0.1-0.5,0.2-0.8,0.2c-0.4-2.3-0.9-4.6-1.6-6.8C783.2,857.3,783.5,857.5,783.8,857.7z"/>
			</g>
			<path id="XMLID_999_" fill="#D97B67" d="M801.3,888.5h-11.4c-0.2-0.2-0.3-0.3-0.4-0.5c-1.7-2.1-1.6-4.9,0.2-6.4    c1.8-1.5,4.6-0.9,6.3,1.2c0.1,0.2,0.3,0.4,0.4,0.5l1.8-1.5c0,0-0.1-0.1-0.1-0.1c-2.6-3.3-7-4.1-9.8-1.9c-2.4,1.9-2.9,5.5-1.3,8.5    c-1.1,0-2,1-2,2.1v13c0,1.2,0.9,2.1,2.1,2.1h14.2c1.2,0,2.1-0.9,2.1-2.1v-13C803.4,889.4,802.4,888.5,801.3,888.5z M796,897.9v2.5    c0,1-0.8,1.8-1.8,1.8h-0.1c-1,0-1.8-0.8-1.8-1.8v-2.5c-0.8-0.6-1.4-1.5-1.4-2.6c0-1.8,1.4-3.2,3.2-3.2c1.8,0,3.2,1.4,3.2,3.2    C797.4,896.3,796.8,897.3,796,897.9z"/>
			<g id="XMLID_186_">
				<g id="XMLID_368_">
					<path id="XMLID_369_" fill="#2A3B64" d="M784.9,879.4h1c1.2-1.3,2.9-2.1,4.8-2.1h5.9c-0.1-4.9-1.4-9.4-3.7-13.4      c-0.5-0.9-1.1-1.8-1.7-2.6c-2.7-3.7-6.3-6.6-10.4-8.6c-1.2-0.6-2.5-1.1-3.8-1.5c-2.6-0.8-5.3-1.2-8.2-1.2      c-2.9,0-5.6,0.4-8.3,1.2c-1.3,0.4-2.6,0.9-3.9,1.5c-4.1,2-7.7,4.9-10.3,8.6c-0.6,0.8-1.2,1.7-1.7,2.6c-2.4,4.1-3.7,8.8-3.7,13.9      c0,5.3,1.5,10.3,4.1,14.5c0.6,0.9,1.2,1.8,1.8,2.6c2.6,3.4,6,6.1,9.9,8c1.2,0.6,2.5,1.1,3.9,1.5c2.6,0.8,5.4,1.2,8.3,1.2      c2.8,0,5.6-0.4,8.2-1.2c1.3-0.4,2.6-0.9,3.8-1.5c0.6-0.3,1.2-0.6,1.8-1c-0.1-0.3-0.1-0.5-0.1-0.8v-9.6c0-1.2,0.7-2.2,1.7-2.7v-5      c0-1.1,0.3-2.1,0.7-3C784.9,880.4,784.9,879.9,784.9,879.4z M747.5,865.1c1.9,0.7,3.8,1.3,5.8,1.8c-0.4,3.1-0.7,6.2-0.8,9.4H744      C744.2,872.2,745.5,868.4,747.5,865.1z M747.9,891.2c-2.2-3.5-3.6-7.5-3.9-11.9h8.5c0.1,3.5,0.4,6.9,0.9,10.2      C751.5,890,749.6,890.6,747.9,891.2z M749.8,893.8c1.3-0.4,2.7-0.9,4.1-1.2c0.4,2,0.9,4,1.4,6      C753.2,897.3,751.4,895.7,749.8,893.8z M753.7,863.8c-1.5-0.4-3-0.8-4.4-1.3c1.7-2.1,3.7-3.9,6-5.4      C754.7,859.2,754.1,861.5,753.7,863.8z M767.2,902.6c-2.8-0.2-5.5-0.8-8-1.9l0,0c-0.9-2.8-1.7-5.8-2.2-8.8      c3.3-0.7,6.8-1.1,10.3-1.2V902.6z M767.2,887.7c-3.7,0.1-7.3,0.5-10.8,1.2c-0.5-3.1-0.7-6.3-0.8-9.5h11.6V887.7z M767.2,876.3      h-11.6c0.1-3,0.3-5.9,0.7-8.7c3.5,0.7,7.2,1.1,10.9,1.2V876.3z M767.2,865.7c-3.6-0.1-7-0.5-10.4-1.2c0.6-3.2,1.4-6.4,2.4-9.5      l0,0c2.5-1.1,5.2-1.7,8-1.9V865.7z M770.3,853.1c2.8,0.2,5.5,0.8,8,1.8c1,3.1,1.8,6.3,2.4,9.6c-3.4,0.7-6.8,1.1-10.4,1.2V853.1z       M778.2,900.7c-2.5,1-5.2,1.7-8,1.8v-11.8c3.5,0.1,6.9,0.5,10.2,1.2C779.9,894.9,779.1,897.9,778.2,900.7z M781,888.9      c-3.5-0.7-7.1-1.1-10.7-1.2v-8.3h11.5C781.7,882.6,781.5,885.8,781,888.9z M770.3,876.3v-7.5c3.7-0.1,7.3-0.5,10.9-1.2      c0.4,2.9,0.6,5.8,0.7,8.7H770.3z M783.6,863.8c-0.4-2.3-1-4.6-1.6-6.8c2.3,1.5,4.3,3.3,6,5.5      C786.6,862.9,785.2,863.4,783.6,863.8z M790,865.1c2,3.3,3.2,7.1,3.5,11.2h-8.5c-0.1-3.2-0.3-6.3-0.8-9.4      C786.1,866.4,788.1,865.8,790,865.1z"/>
				</g>
			</g>
		</g>
	</g>
</svg>
