<?xml-stylesheet type="text/css" href="../css/style.min.css"?>
<svg xmlns="http://www.w3.org/2000/svg" xmlns:xlink="http://www.w3.org/1999/xlink" viewBox="1080 1277 510 435" width="410" height="310" style='outline: 1px solid red;'>
	<g xmlns="http://www.w3.org/2000/svg" id="Слой_5">
		<g id="XMLID_15_">
			<g id="XMLID_1058_">
				<path id="XMLID_1061_" fill="none" stroke="#2A3A63" stroke-width="3" d="M1271.9,1493.6l-32.6-36.5c-2.7-3-6-5.5-9.7-7.2     l-49.1-22.6"/>
				<path id="XMLID_1060_" fill="none" stroke="#2A3A63" stroke-width="3" d="M1269.8,1381.2l35.6,39.1c3.7,4.1,6.2,9.2,7.2,14.6     l6.5,35.5"/>
				<path id="XMLID_1059_" fill="none" stroke="#2A3A63" stroke-width="3" d="M1246,1531.1l-3-1.1c-7.1-3.5-19.2-2.1-28.4,4l-8.6,6.5     "/>
			</g>
			<g id="XMLID_1054_">
				<path id="XMLID_1057_" fill="none" stroke="#2A3A63" stroke-width="3" d="M1398.2,1493.6l32.6-36.5c2.7-3,6-5.5,9.7-7.2     l49.1-22.6"/>
				<path id="XMLID_1056_" fill="none" stroke="#2A3A63" stroke-width="3" d="M1400.3,1381.2l-35.6,39.1c-3.7,4.1-6.2,9.2-7.2,14.6     l-6.5,35.5"/>
				<path id="XMLID_1055_" fill="none" stroke="#2A3A63" stroke-width="3" d="M1424.2,1531.1l3-1.1c7.1-3.5,19.2-2.1,28.4,4l8.6,6.5"/>
			</g>
			<g id="XMLID_131_">
				<g id="XMLID_1034_">
					<circle id="XMLID_1050_" fill="#FFFFFF" stroke="#2A3A63" stroke-width="4.6811" cx="1118.4" cy="1396.8" r="62.3"/>
					<g id="XMLID_1035_">
						<path id="XMLID_1047_" fill="#2A3B64" d="M1150.4,1371c-3.9,0-7.5,1.3-10.6,3.5c-3.7-10.7-12.6-18.3-23.1-18.3       c-12.6,0-23,10.9-24.6,25c-2.4-1.5-5.2-2.4-8.1-2.4c-9.3,0-16.9,8.8-16.9,19.7c0,10.9,7.6,19.7,16.9,19.7h13.5V1406h3.3v-4.8       v-2.9v-4.8c0-0.8,0.1-1.6,0.4-2.4c1.1-3.9,4.6-6.8,8.8-6.8h0.8h8.2h6.5c5.1,0,9.2,4.1,9.2,9.2v12.6h3.3v12.1h12.5       c11.2,0,20.2-10.6,20.2-23.6C1170.7,1381.5,1161.6,1371,1150.4,1371z M1148.8,1380.2c-2.5,0-6.9,2.9-9.2,2       c-2.9-1.2-4.7-5.8-7-7.9c-13.6-12.4-36.7-4-39.2,14.3c-2.4-1.3-4.9-2-7.6-2c0,0-0.1,0-0.1,0c-8.6,0-15.7,7.1-15.9,15.7       c-0.2-11.9,12-24.2,23.7-16.7c3-25,36.7-31.6,45.3-6.3c14.1-10.1,29.6,4.8,29.2,19.6       C1167.6,1388.7,1158.9,1380.2,1148.8,1380.2z"/>
						<polygon id="XMLID_1046_" fill="#2A3B64" points="1125,1393.9 1118.9,1393.9 1110.3,1393.9 1110.3,1398.3 1110.3,1401.2       1110.3,1406 1120.8,1406 1125,1406      "/>
						<path id="XMLID_336_" fill="#7787C0" d="M1132.3,1408.4v-14.9c0-3.8-3.1-6.8-6.8-6.8h-15.6c-3.8,0-6.8,3.1-6.8,6.8v14.9h-3.3       v23.4h35.8v-23.4H1132.3z M1115,1425.6c-0.2-0.1-0.4-0.3-0.5-0.5c-1.7-2.6-0.6-5.3,1.5-6.2v-4.5c0-0.9,0.7-1.6,1.6-1.6       c0.9,0,1.6,0.7,1.6,1.6v4.5c1.4,0.6,2.4,2,2.4,3.6C1121.6,1425.5,1118.2,1427.7,1115,1425.6z M1127.4,1408.4h-19.5v-14.9       c0-1.1,0.9-2,2-2h16.4c0.7,0,1.2,0.5,1.2,1.2V1408.4z"/>
					</g>
				</g>
				<g id="XMLID_1011_">

					<ellipse id="XMLID_1030_" transform="matrix(0.9732 -0.2298 0.2298 0.9732 -274.0143 318.8752)" fill="#FFFFFF" stroke="#2A3A63" stroke-width="3.8922" cx="1232.3" cy="1336.1" rx="51.8" ry="51.8"/>
					<g id="XMLID_304_">
						<g id="XMLID_1013_">
							<path id="XMLID_1029_" fill="none" d="M1246.7,1307.3h-37c-0.5,0-0.9,0.4-0.9,0.9v21.2c0,0.5,0.4,0.9,0.9,0.9h30        c0.9-3.2,3.8-5.6,7.2-5.6h0.7v-16.6C1247.6,1307.7,1247.2,1307.3,1246.7,1307.3z"/>
							<path id="XMLID_1028_" fill="#2A3B64" d="M1254.3,1335.4v-2.7h-7.1v3.6h6.2C1253.9,1336.3,1254.3,1335.9,1254.3,1335.4z"/>
							<path id="XMLID_1027_" fill="#2A3B64" d="M1239.7,1330.4h-30c-0.5,0-0.9-0.4-0.9-0.9v-21.2c0-0.5,0.4-0.9,0.9-0.9h37        c0.5,0,0.9,0.4,0.9,0.9v16.6h6.7v-22.5c0-0.5-0.4-0.9-0.9-0.9H1203c-0.5,0-0.9,0.4-0.9,0.9v33c0,0.5,0.4,0.9,0.9,0.9h36.4        v-3.9C1239.4,1331.6,1239.5,1331,1239.7,1330.4z"/>
							<polygon id="XMLID_1026_" fill="#2A3B64" points="1239.4,1342.6 1239.4,1338.7 1202.8,1338.7 1195,1354.2 1236.7,1354.2        1236.7,1342.6       "/>
							<polygon id="XMLID_1025_" fill="#2A3B64" points="1254,1338.7 1247.3,1338.7 1247.3,1342.6 1255.8,1342.6       "/>
							<path id="XMLID_305_" fill="#7787C0" d="M1265.2,1344.5v-12.2c0-3.1-2.5-5.6-5.6-5.6h-12.7c-3.1,0-5.6,2.5-5.6,5.6v12.2h-2.7        v19.1h29.2v-19.1H1265.2z M1251.2,1358.6c-0.2-0.1-0.3-0.3-0.4-0.4c-1.4-2.1-0.5-4.3,1.2-5.1v-3.7c0-0.7,0.6-1.3,1.3-1.3        c0.7,0,1.3,0.6,1.3,1.3v3.7c1.1,0.5,1.9,1.7,1.9,3C1256.6,1358.5,1253.8,1360.4,1251.2,1358.6z M1261.3,1344.5h-16v-12.2        c0-0.9,0.7-1.6,1.6-1.6h13.4c0.5,0,1,0.4,1,1V1344.5z"/>
							<path id="XMLID_1014_" fill="#2A3B64" d="M1195.4,1356.7c-0.4,0-0.7,0.6-0.7,1.3v0.1c0,0.7,0.3,1.3,0.7,1.3h41.3v-2.7H1195.4z        "/>
						</g>
					</g>
				</g>
				<g id="XMLID_967_">
					<circle id="XMLID_1007_" fill="#FFFFFF" stroke="#2A3A63" stroke-width="4.6175" cx="1552.6" cy="1396.8" r="61.4"/>
					<g id="XMLID_29_">
						<path id="XMLID_300_" fill="#7787C0" d="M1592.6,1415.2h-0.5v-8.5c0-3.5-2.3-6.4-5.8-6.4h-7.7c-3.5,0-6.4,2.9-6.4,6.4v8.5h-0.5       c-0.9,0-1.7,0.8-1.7,1.7v12.5c0,0.9,0.8,1.7,1.7,1.7h21c0.9,0,1.7-0.8,1.7-1.7v-12.5       C1594.3,1415.9,1593.5,1415.2,1592.6,1415.2z M1582.1,1427.5c-1.5,0-2.7-1.2-2.7-2.7c0-1.1,0.7-2.1,1.6-2.5v-3.1       c0-0.6,0.5-1.1,1.1-1.1s1.1,0.5,1.1,1.1v3.1c0.9,0.4,1.6,1.4,1.6,2.5C1584.8,1426.3,1583.6,1427.5,1582.1,1427.5z        M1588.8,1415.2h-13.3v-8.5c0-1.7,1.4-3.1,3.1-3.1h7.7c1.7,0,2.5,1.4,2.5,3.1V1415.2z"/>
						<path id="XMLID_30_" fill="#2A3B64" d="M1570.9,1396.6h1.3c1.6-1.7,3.8-2.7,6.3-2.7h7.7c-0.1-6.4-1.9-12.4-4.9-17.5       c-0.7-1.2-1.4-2.4-2.3-3.5c-3.5-4.8-8.2-8.7-13.7-11.3c-1.6-0.8-3.3-1.4-5-2c-3.4-1-7-1.6-10.7-1.6c-3.8,0-7.4,0.6-10.8,1.6       c-1.7,0.5-3.4,1.2-5.1,2c-5.4,2.6-10,6.5-13.6,11.3c-0.8,1.1-1.6,2.3-2.3,3.5c-3.1,5.4-4.9,11.6-4.9,18.2c0,7,2,13.5,5.4,19.1       c0.7,1.2,1.5,2.3,2.4,3.4c3.4,4.4,7.9,8,13,10.5c1.6,0.8,3.3,1.5,5.1,2c3.4,1.1,7.1,1.6,10.8,1.6c3.7,0,7.3-0.6,10.7-1.6       c1.7-0.5,3.4-1.2,5-2c0.8-0.4,1.6-0.8,2.4-1.3c-0.1-0.3-0.2-0.7-0.2-1.1v-12.5c0-1.6,0.9-2.9,2.2-3.6v-6.6c0-1.4,0.4-2.8,1-3.9       C1570.8,1397.9,1570.9,1397.2,1570.9,1396.6z M1521.8,1377.8c2.5,0.9,5,1.7,7.6,2.3c-0.6,4.1-0.9,8.2-1,12.4h-11.1       C1517.5,1387.2,1519.2,1382.2,1521.8,1377.8z M1522.3,1412.1c-2.9-4.5-4.8-9.8-5.1-15.5h11.1c0.1,4.5,0.5,9,1.1,13.4       C1527,1410.6,1524.6,1411.3,1522.3,1412.1z M1524.8,1415.5c1.7-0.6,3.5-1.1,5.3-1.6c0.5,2.7,1.1,5.3,1.9,7.9       C1529.3,1420.1,1526.9,1418,1524.8,1415.5z M1530,1376.1c-2-0.5-3.9-1.1-5.8-1.8c2.2-2.8,4.9-5.2,7.8-7.1       C1531.2,1370.2,1530.5,1373.1,1530,1376.1z M1547.6,1427c-3.7-0.2-7.3-1.1-10.5-2.5l0,0c-1.2-3.7-2.2-7.6-2.9-11.5       c4.4-0.9,8.9-1.4,13.5-1.5V1427z M1547.6,1407.5c-4.8,0.1-9.6,0.7-14.2,1.6c-0.6-4.1-1-8.2-1-12.5h15.2V1407.5z M1547.6,1392.5       h-15.2c0.1-3.9,0.4-7.7,0.9-11.5c4.6,0.9,9.4,1.5,14.3,1.6V1392.5z M1547.6,1378.6c-4.7-0.1-9.2-0.7-13.7-1.6       c0.8-4.3,1.8-8.4,3.1-12.5l0,0c3.3-1.4,6.8-2.2,10.5-2.5V1378.6z M1551.7,1362.1c3.7,0.2,7.2,1.1,10.4,2.4       c1.3,4.1,2.4,8.2,3.1,12.5c-4.4,0.9-9,1.4-13.6,1.5V1362.1z M1562.1,1424.6c-3.3,1.4-6.8,2.2-10.4,2.4v-15.5       c4.6,0.1,9.1,0.6,13.4,1.5C1564.3,1417,1563.3,1420.8,1562.1,1424.6z M1565.8,1409c-4.6-0.9-9.3-1.5-14.1-1.6v-10.9h15.1       C1566.7,1400.8,1566.4,1405,1565.8,1409z M1551.7,1392.5v-9.8c4.9-0.1,9.6-0.7,14.2-1.6c0.5,3.8,0.8,7.6,0.9,11.4H1551.7z        M1569.2,1376.1c-0.6-3-1.2-6-2.1-9c3,1.9,5.7,4.4,7.9,7.2C1573.2,1375,1571.2,1375.6,1569.2,1376.1z M1577.5,1377.8       c2.6,4.3,4.2,9.4,4.6,14.7h-11.2c-0.1-4.2-0.4-8.3-1-12.4C1572.5,1379.5,1575,1378.7,1577.5,1377.8z"/>
					</g>
				</g>
				<g id="XMLID_962_">
					<circle id="XMLID_963_" fill="#FFFFFF" stroke="#2A3A63" stroke-width="3.4594" cx="1506.5" cy="1568.1" r="46"/>
				</g>
				<g id="XMLID_940_">
					<path id="XMLID_961_" fill="#2A3B64" d="M1504.3,1539.5c-16,0.1-28.9,13.1-28.9,29.2c0,16.1,13.1,29.2,29.2,29.2      c15.9,0,28.9-12.8,29.2-28.7h-29.4V1539.5z"/>
					<g id="XMLID_941_">
						<path id="XMLID_958_" fill="#7787C0" d="M1527.5,1552.8c-0.9,0-1.4,1.1-1.4,2.5c0,1.4,0.5,2.5,1.4,2.5c0.9,0,1.3-0.9,1.3-2.5       C1528.9,1553.8,1528.5,1552.8,1527.5,1552.8z"/>
						<g id="XMLID_942_">
							<path id="XMLID_955_" fill="#7787C0" d="M1517.7,1547.1c-0.9,0-1.4,1.1-1.4,2.5c0,1.4,0.5,2.5,1.4,2.5c0.9,0,1.3-0.9,1.3-2.5        C1519.1,1548.2,1518.7,1547.1,1517.7,1547.1z"/>
							<path id="XMLID_943_" fill="#7787C0" d="M1509.2,1533.2v31.3h31.2C1539.5,1547.7,1526,1534.2,1509.2,1533.2z M1514,1549.6        c0-2.4,1.5-4.3,3.8-4.3c2.3,0,3.6,1.7,3.6,4c0,2.8-1.8,4.4-3.8,4.4C1515.6,1553.8,1514,1552.2,1514,1549.6z M1517.8,1559.4        l7.8-14.1h1.7l-7.8,14.1H1517.8z M1527.5,1559.4c-2.1,0-3.7-1.5-3.7-4.1c0-2.4,1.5-4.3,3.8-4.3c2.3,0,3.6,1.7,3.6,4        C1531.3,1557.9,1529.5,1559.4,1527.5,1559.4z"/>
						</g>
					</g>
				</g>
				<g id="XMLID_919_">
					<circle id="XMLID_936_" fill="#FFFFFF" stroke="#2A3A63" stroke-width="3.4594" cx="1163.7" cy="1568.1" r="46"/>
					<g id="XMLID_920_">
						<path id="XMLID_934_" fill="#2A3B64" d="M1149.4,1560.5v-17.4c0-1.1,0.9-1.9,1.9-1.9h25.6c1.1,0,1.9,0.9,1.9,1.9v17.5l10.1-6.9       l-5.7-3.5v-7c0-3.6-2.9-6.5-6.4-6.5h-25.6c-3.5,0-6.4,2.9-6.4,6.5v7l-5.7,3.5L1149.4,1560.5z"/>
						<path id="XMLID_930_" fill="#2A3B64" d="M1189.9,1555.9l-26,17.1l-25.6-17.1c-1.8,0-3.3,1.3-3.3,2.8v29.4       c0,1.5,1.5,2.8,3.3,2.8h51.7c1.8,0,3.3-1.3,3.3-2.8v-29.4C1193.2,1557.1,1191.7,1555.9,1189.9,1555.9z M1159.7,1576.2       l-19.2,11.9c-0.6,0.4-1.4,0.2-1.7-0.4c-0.4-0.6-0.2-1.4,0.4-1.8l19.2-11.9c0.6-0.4,1.4-0.2,1.7,0.4       C1160.5,1575,1160.3,1575.8,1159.7,1576.2z M1189.4,1587.7c-0.4,0.6-1.1,0.8-1.7,0.4l-19.2-11.9c-0.6-0.4-0.8-1.2-0.4-1.8       c0.4-0.6,1.1-0.8,1.7-0.4l19.2,11.9C1189.6,1586.3,1189.8,1587.1,1189.4,1587.7z"/>
						<g id="XMLID_921_">
							<path id="XMLID_922_" fill="#7787C0" d="M1169.2,1555.6c-0.1,0.8-0.4,2-0.4,2.4c0,0.3,0.1,0.6,0.4,0.6c1.3,0,3.3-1.3,3.3-4.5        c0-5.4-3.2-8.1-8.4-8.1c-5.3,0-9.2,4.2-9.2,9.4s3.9,9.4,9.4,9.4c2.1,0,5.2-0.2,7.5-2l2.8,0.7c-2.6,3.7-6.8,4.6-10.3,4.6        c-7.5,0-13.1-5.7-13.1-12.6c0-7,5.6-12.6,12.8-12.6c6,0,12,3.7,12,10.4c0,6.7-4.9,8.5-8.6,8.5c-1.5,0-2.2-0.5-2.2-1.5h-0.1        c-0.5,0.8-1.6,1.5-3.2,1.5c-2.2,0-4.4-2-4.4-5.3c0-3.4,2.3-6.7,5.8-6.7c1.5,0,2.7,0.5,3.5,1.7l0.3-1.5h2.7L1169.2,1555.6z         M1166.4,1555.4c0-1.4-0.9-2.4-2.3-2.4c-1.6,0-2.8,1.6-2.8,3.1c0,1.4,0.8,2.4,2.1,2.4        C1165.2,1558.4,1166.4,1557,1166.4,1555.4z"/>
						</g>
					</g>
				</g>
				<g id="XMLID_182_">

					<ellipse id="XMLID_310_" transform="matrix(0.3827 -0.9239 0.9239 0.3827 -345.4214 2153.9714)" fill="#FFFFFF" stroke="#2A3A63" stroke-width="3.8421" cx="1439.1" cy="1335.5" rx="51.1" ry="51.1"/>
					<g id="XMLID_183_">
						<path id="XMLID_308_" fill="#2A3B64" d="M1474.2,1314.8l-7.9,0c0,0-1,0-1.4,0.3c-0.4,0.3-0.7,1.2-0.7,1.2l-12.8,37.3       c0,0-0.5,1.5-1.3,2c-0.8,0.6-2.5,0.5-2.5,0.5l-39.8-7c0,0-2.1,0-2.1,2.3c0,2.3,2.1,2.3,2.1,2.3l8.3,7c-2,0.8-3.4-4.2-3.4-1.9       c0,3,2.4,5.5,5.5,5.5c3,0,5.5,4.5,5.5,1.5c0-2.3-1.4-4.3-3.4-5.1l21.2,0c-2,0.8-3.3,2.8-3.3,5c0,3,2.4,5.5,5.5,5.5       c3,0,5.5-2.5,5.5-5.5c0-2.3-1.4-4.2-3.3-5l5,0c0,0,1.8,0,2.8-0.8c1-0.9,1.4-2.2,1.4-2.2l13-37.6c0,0,0.1-0.5,0.4-0.7       c0.2-0.2,0.7-0.2,0.7-0.2h5.4c0,0,1.7,0,1.7-2.2C1475.9,1314.9,1474.2,1314.8,1474.2,1314.8z"/>
						<g id="XMLID_295_">
							<polygon id="XMLID_307_" fill="#2A3B64" points="1433.4,1324.4 1433.4,1320.1 1424.5,1320.1 1424.5,1321.5 1424.5,1324.4        1430.8,1324.4       "/>
							<path id="XMLID_297_" fill="#2A3B64" d="M1455.3,1320.1h-16.2v4.3h2v16.9h-24.4v-4.6v-2v-1.9v-8.6h2v-2.9v-1.4h-16.2        c-0.2,0-0.3,0.1-0.3,0.2l5.8,24.5c0,0.1,0.1,0.2,0.3,0.2l40,7c0.2,0,0.3-0.1,0.3-0.2l7-31.5        C1455.6,1320.2,1455.5,1320.1,1455.3,1320.1z"/>
						</g>
						<path id="XMLID_1_" fill="#7787C0" d="M1437.7,1325.8v-9c0-2.3-1.8-4.1-4.1-4.1h-9.4c-2.3,0-4.1,1.8-4.1,4.1v9h-2v14.1h21.5       v-14.1H1437.7z M1427.3,1336.2c-0.1-0.1-0.2-0.2-0.3-0.3c-1-1.6-0.4-3.2,0.9-3.8v-2.7c0-0.5,0.4-1,1-1c0.5,0,1,0.4,1,1v2.7       c0.8,0.4,1.4,1.2,1.4,2.2C1431.3,1336.1,1429.3,1337.5,1427.3,1336.2z M1434.8,1325.8H1423v-9c0-0.7,0.5-1.2,1.2-1.2h9.9       c0.4,0,0.7,0.3,0.7,0.7V1325.8z"/>
					</g>
				</g>
				<g id="XMLID_134_">

					<ellipse id="XMLID_156_" transform="matrix(0.7071 -0.7071 0.7071 0.7071 -715.1705 1402.2299)" fill="#FFFFFF" stroke="#2A3A63" stroke-width="6.5755" cx="1335.1" cy="1564.4" rx="87.5" ry="87.5"/>
					<g id="XMLID_135_">
						<path id="XMLID_150_" fill="#2A3B64" d="M1382.8,1555.9c-2,0.9-4.4,1.7-7.2,2.5c2.8,1.4,4.4,3,4.4,4.8c0,6-19.8,10.9-44.3,10.9       c-24.5,0-44.3-4.9-44.3-10.9c0-1.7,1.6-3.3,4.4-4.8c-2.8-0.8-5.2-1.6-7.2-2.5c-4.3,1.9-6.7,4.2-6.6,6.6c0,3.5,0,9,0,12.5       c-1.3,7.6,23.2,13.8,53.7,13.8c31.7,0,56.9-6.8,53.4-14.8c0-3.1,0.1-7.4,0.1-10.6C1390.2,1560.7,1387.7,1558.1,1382.8,1555.9z"/>
						<path id="XMLID_146_" fill="#7787C0" d="M1354.6,1515.8h-2.2v-5.1v-1.8l0-0.5c0-0.2,0-0.4,0-0.6c0-0.4-0.1-0.7-0.1-1.1       c-0.2-1.5-0.8-2.9-1.6-4.2c-1.6-2.5-4.3-4.4-7.3-4.9c-0.7-0.1-1.5-0.2-2.2-0.2h-1.8h-3.7h-3.7h-1.8c-0.7,0-1.5,0-2.2,0.2       c-3,0.5-5.7,2.4-7.3,4.9c-0.8,1.3-1.4,2.7-1.6,4.2c-0.1,0.4-0.1,0.7-0.1,1.1c0,0.2,0,0.4,0,0.6v0.5v1.8v5.1h-2.2v26.3h37.8       V1515.8z M1340.8,1530.2h-2.9v7.3h-4.4v-7.3h-2.9v-10.3h10.3V1530.2z M1348.3,1508.8v1.8v5.1h-25.3v-5.1v-1.8v-0.4l0-0.4       c0-0.2,0-0.5,0.1-0.7c0.2-0.9,0.5-1.8,1-2.6c1-1.6,2.7-2.8,4.6-3.1c0.5-0.1,0.9-0.1,1.4-0.1h1.8h3.7h3.7h1.8c0.6,0,1,0,1.5,0.1       c1.9,0.3,3.6,1.5,4.6,3.1c0.5,0.8,0.9,1.7,1,2.6c0,0.2,0.1,0.5,0.1,0.7l0,0.4V1508.8z"/>
						<path id="XMLID_141_" fill="#2A3B64" d="M1357.1,1521.2v3.5c13.6,1.9,22.8,5.4,22.8,9.6c0,4.3-10.3,8.1-25.2,9.9       c-5.8,0.7-12.3,1.1-19.1,1.1c-6.8,0-13.3-0.4-19.1-1.1c-14.9-1.8-25.2-5.5-25.2-9.9c0-4.1,9.2-7.7,22.8-9.6v-3.5       c-21.5,2.3-35.6,8-31.5,14.3c0.1,2.9,0.1,5.8,0.2,8.7c-6,8.4,20,15.7,52.8,15.7c32.9,0,58.8-7.3,52.8-15.7       c0.1-2.9,0.1-5.8,0.2-8.7C1392.8,1529.2,1378.6,1523.5,1357.1,1521.2z"/>
						<path id="XMLID_138_" fill="#2A3B64" d="M1382.8,1585.4c-2,0.9-4.4,1.8-7.2,2.5c2.8,1.4,4.4,3,4.4,4.8c0,6-19.8,10.9-44.3,10.9       c-24.5,0-44.3-4.9-44.3-10.9c0-1.7,1.6-3.3,4.4-4.8c-2.8-0.8-5.2-1.6-7.2-2.5c-4.3,1.9-6.8,4.2-6.6,6.6c0,3.5,0,9,0,12.5       c-1.3,7.6,23.2,13.8,53.7,13.8c31.1,0,56-6.5,53.5-14.3c0-3.3,0.1-8.2,0.1-11.5C1389.9,1589.9,1387.4,1587.5,1382.8,1585.4z"/>
					</g>
				</g>
				<path id="XMLID_132_" fill="none" stroke="#2A3A63" stroke-width="3" d="M1335.1,1564.4"/>
			</g>
			<path id="XMLID_130_" fill="none" stroke="#2A3A63" stroke-width="3" d="M1163.7,1568.1"/>
			<path id="XMLID_16_" fill="none" stroke="#2A3A63" stroke-width="3" d="M1504.3,1568.1"/>
		</g>
	</g>
</svg>
