<svg version="1.1" xmlns="http://www.w3.org/2000/svg" xmlns:xlink="http://www.w3.org/1999/xlink" viewBox="-120 0 1366 360">

	<g id="par-4">
		<text id="XMLID_29_" transform="matrix(1 0 0 1 658.3848 290.2422)" fill="#101924" font-family="'PT Sans Narrow'" font-size="19px">20% резервный фонд</text>
		<circle id="XMLID_34_" fill="#7B9BD1" cx="624.3" cy="284.7" r="15.1"/>
	</g>

	<g id="par-3">
		<text id="XMLID_28_" transform="matrix(1 0 0 1 658.385 209.6444)">
			<tspan x="0" y="0" fill="#101924" font-family="'PT Sans Narrow'" font-size="19px">5% консультанты, лица,</tspan>
			<tspan x="0" y="19" fill="#101924" font-family="'PT Sans Narrow'" font-size="19px">оказывающие поддержку на раннем этапе,</tspan>
			<tspan x="0" y="38" fill="#101924" font-family="'PT Sans Narrow'" font-size="19px">баунти вознаграждения</tspan>
		</text>
		<circle id="XMLID_33_" fill="#A0BBE3" cx="624.3" cy="222.9" r="15.1"/>
	</g>

	<g id="par-2">
		<text id="XMLID_27_" transform="matrix(1 0 0 1 658.385 166.6468)" fill="#101924" font-family="'PT Sans Narrow'" font-size="19px">15% команда</text>
		<circle id="XMLID_31_" fill="#565C7B" cx="624.3" cy="161.1" r="15.1"/>
	</g>

	<g id="par-1">
		<text id="XMLID_5_" transform="matrix(1 0 0 1 658.3848 104.8489)" fill="#101924" font-family="'PT Sans Narrow'" font-size="19px">60% покупатели токенов</text>
		<circle id="XMLID_30_" fill="#3E4A68" cx="624.3" cy="99.3" r="15.1"/>
	</g>

	<g id="token-chart">
		<g>
			<path fill="#A0BBE3" d="M283.3,133.6c-6.9,11.8-11.7,24.9-14.1,38.8l114.3,22.4L283.3,133.6z"/>
			<path fill="#7B9BD1" d="M383.6,76c-42.8,0-80.1,23.1-100.2,57.6l100.2,61.2V76z"/>
			<path fill="#56637E" d="M269.2,172.4c-1.1,6.4-1.7,12.9-1.7,19.6c0,32.1,13,61.2,34.1,82.2l81.9-79.4L269.2,172.4z"/>
			<path fill="#3E4A68" d="M383.6,76v118.8l-81.9,79.4c21,20.9,49.9,33.8,81.9,33.8c64.1,0,116-51.9,116-116S447.6,76,383.6,76z"/>
		</g>
		<circle id="XMLID_2_" fill="#FFFFFF" cx="383.6" cy="194.8" r="46.8"/>
		<text id="XMLID_13_" transform="matrix(1 0 0 1 321.0684 114.2859)" fill="#FFFFFF" font-family="'PT Sans Narrow'" font-weight="700" font-size="18px">20%</text>
		<text id="XMLID_7_" transform="matrix(1 0 0 1 278.3022 164.1668)" fill="#FFFFFF" font-family="'PT Sans Narrow'" font-weight="700" font-size="18px">5%</text>
		<text id="XMLID_14_" transform="matrix(1 0 0 1 446.139 217.8079)" fill="#FFFFFF" font-family="'PT Sans Narrow'" font-weight="700" font-size="18px">60%</text>
		<text id="XMLID_15_" transform="matrix(1 0 0 1 283.3378 241.5208)" fill="#FFFFFF" font-family="'PT Sans Narrow'" font-weight="700" font-size="18px">15%</text>
	</g>

</svg>
