<svg xmlns="http://www.w3.org/2000/svg" viewBox="-10 0 1060 610">
    <defs>
        <style>
            .cls-1 {
                font-size: 19px;
            }

            .cls-1,
            .cls-51,
            .cls-63 {
                fill: #111924;
            }

            .cls-1,
            .cls-19 {
                font-family: "PT Sans Narrow";
            }


            .cls-19 {
                font-size: 18px;
                fill: #201600;
            }


            .cls-44,
            .cls-45 {
                fill: none;
            }

            .cls-44,
            .cls-46 {
                stroke: #92a1cd;
            }

            .cls-44,
            .cls-45,
            .cls-46,
            .cls-49,
            .cls-50 {
                stroke-miterlimit: 10;
            }

            .cls-44,
            .cls-45,
            .cls-46,
            .cls-49 {
                stroke-width: 3px;
            }

            .cls-45,
            .cls-49 {
                stroke: #3e4a68;
            }

            .cls-46,
            .cls-49 {
                fill: #fff;
            }

            .cls-47 {
                fill: #3e4a68;
            }

            .cls-48,
            .cls-50 {
                fill: #7988c2;
            }

            .cls-50 {
                stroke: #fff;
            }

            .cls-51 {
                font-size: 31px;
            }

            .cls-51,
            .cls-63 {
                font-family: "PT Sans Narrow";
                font-weight: 700;
            }


            .cls-63 {
                font-size: 37px;
            }


        </style>
    </defs>
<g id="main">
    <g id="text-group">
        <g id="_Группа_" data-name="&lt;Группа&gt;">
            <text class="cls-1" transform="translate(794.53 417.91)">
                <tspan x="-70" y="0">Покупая Security токены,</tspan>
                <tspan x="-55" y="22.8">инвестор получает</tspan>
                <tspan x="-70" y="45.6">Utility токены в подарок,</tspan>
                <tspan x="-55" y="68.4">для использования</tspan>
                <tspan x="-70" y="91.2">в виде оплаты преложения</tspan>
            </text>
        </g>
        <text class="cls-19" transform="translate(543.31 542.63)">
            <tspan x="30" y="0">25 000 USD - Юридическая</tspan>
            <tspan x="45" y="21.6">гарантия безопасности</tspan>
            <tspan x="70" y="43.2">ваших файлов</tspan>
        </text>
        <text class="cls-19" transform="translate(396.72 407.83)">
            <tspan class="cls-32" x="25" y="0">Исключает получение</tspan>
            <tspan x="40" y="21.6">данных клиентов</tspan>
            <tspan x="45" y="43.2">спецслужбами</tspan>
        </text>
        <text class="cls-19" transform="translate(232.65 542.63)">
            <tspan class="cls-32" x="20" y="0">Исключает получение</tspan>
            <tspan x="30" y="21.6">данных клиентов</tspan>
            <tspan x="20" y="43.2">создателям сервиса</tspan>
        </text>
        <text class="cls-19" transform="translate(0 407.83)">
            <tspan x="60" y="0">Исключает получение данных</tspan>
            <tspan x="65" y="21.6">государственными органами</tspan>
        </text>
    </g>
    <g id="path-group">
        <polyline id="path-1" class="cls-44" points="279.92 149.03 279.92 200.68 175.8 310.92" />
        <polyline id="path-5" class="cls-44" points="686.59 149.03 686.59 200.68 790.71 310.92" />
        <line id="path-4" class="cls-45" x1="647.87" y1="149.03" x2="647.87" y2="442.14" />
        <line id="path-3" class="cls-45" x1="483.26" y1="149.03" x2="483.26" y2="247.84" />
        <line id="path-2" class="cls-45" x1="318.65" y1="149.03" x2="318.65" y2="442.14" />
    </g>
    <g id="g-s-icon-5">
        <circle id="_Контур_" data-name="&lt;Контур&gt;" class="cls-46" cx="790.71" cy="310.92" r="63.09" />
        <g id="_Группа_2" data-name="&lt;Группа&gt;">
            <g id="_Группа_3" data-name="&lt;Группа&gt;">
                <g id="_Группа_4" data-name="&lt;Группа&gt;">
                    <polygon id="_Контур_2" data-name="&lt;Контур&gt;" class="cls-47" points="789.25 357.2 789.25 319.48 768.88 308.67 769.73 344.93 789.25 357.2" />
                    <polygon id="_Контур_3" data-name="&lt;Контур&gt;" class="cls-47" points="765.96 307.11 752.99 300.23 754.5 335.35 766.92 343.16 765.96 307.11" />
                </g>
                <g id="_Группа_5" data-name="&lt;Группа&gt;">
                    <polygon id="_Контур_4" data-name="&lt;Контур&gt;" class="cls-47" points="792.17 357.2 792.17 319.48 812.54 308.67 811.7 344.93 792.17 357.2" />
                    <polygon id="_Контур_5" data-name="&lt;Контур&gt;" class="cls-47" points="815.47 307.11 828.43 300.23 826.93 335.35 814.5 343.16 815.47 307.11" />
                </g>
                <g id="_Группа_6" data-name="&lt;Группа&gt;">
                    <polygon id="_Контур_6" data-name="&lt;Контур&gt;" class="cls-47" points="790.75 297.03 771.09 305.73 790.71 316.15 811.58 305.07 790.75 297.03" />
                    <polygon id="_Контур_7" data-name="&lt;Контур&gt;" class="cls-47" points="810.61 288.23 794.53 295.35 815 303.26 828.43 296.12 810.61 288.23" />
                    <polygon id="_Контур_8" data-name="&lt;Контур&gt;" class="cls-47" points="786.89 295.54 769.49 288.82 752.99 296.12 767.8 303.99 786.89 295.54" />
                    <polygon id="_Контур_9" data-name="&lt;Контур&gt;" class="cls-47" points="790.67 293.86 807 286.63 790.71 279.42 773.27 287.14 790.67 293.86" />
                </g>
                <path id="_Составной_контур_" data-name="&lt;Составной контур&gt;" class="cls-48" d="M820.4,280.17c-.12-5.86-5.55-9.7-11.11-9.57-5.12.12-10.25,2.93-14,6.17a29.52,29.52,0,0,0-7.06,8.77,78.21,78.21,0,0,0-10.32-14.32c-3.59-4-8.73-7.82-14.43-6.19-5,1.45-7.13,7-6.43,11.79.64,4.37,3.6,8,7,10.58,5.13,3.88,11.43,6.17,17.45,8.26-2.41,1.57-5,3.22-8,3.57h.11A40.64,40.64,0,0,1,763.54,298l-.23.6a32.35,32.35,0,0,0,7.89,3.31,35.25,35.25,0,0,0,8.34.1,37.87,37.87,0,0,0,11.33-4.63c2.19.69,3.37,1.17,4.58,4.13.84,2.05.22,5.32-1.89,7.48l.38.52a10.32,10.32,0,0,0,3.45-14.15,38.21,38.21,0,0,0,12.21-3.16c3.48-1.55,7-3.59,9.18-6.83A8.7,8.7,0,0,0,820.4,280.17Zm-42.31,8.16A78.47,78.47,0,0,1,767,282.81c-3.23-2-6.22-4.85-6.59-8.83a6.69,6.69,0,0,1,2.23-6,7.07,7.07,0,0,1,6.19-.92c4.54,1.23,7.58,5.6,10,9.35a64.86,64.86,0,0,1,7,15.19c-2.56-1.08-5.12-2.16-7.67-3.26C776.47,287.64,779.7,289,778.09,288.33Zm35.48-7.86h0c-.26,1.58-1.55,2.8-2.77,3.75a28.43,28.43,0,0,1-4.52,2.81,38.28,38.28,0,0,1-10.43,3.6c-1.48.28-3,.46-4.45.61a25.74,25.74,0,0,1,8.21-10,19.74,19.74,0,0,1,8.69-3.73c1.85-.22,4.8.22,5.25,2.47C813.56,280.06,813.54,280.46,813.57,280.47Z"
                />
            </g>
        </g>
    </g>
    <g id="g-s-icon-4">
        <circle id="_Контур_10" data-name="&lt;Контур&gt;" class="cls-49" cx="647.05" cy="444.04" r="63.09" />
        <g id="_Группа_7" data-name="&lt;Группа&gt;">
            <g id="_Группа_8" data-name="&lt;Группа&gt;">
                <g id="_Группа_9" data-name="&lt;Группа&gt;">
                    <g id="_Группа_10" data-name="&lt;Группа&gt;">
                        <g id="_Группа_11" data-name="&lt;Группа&gt;">
                            <g id="_Группа_12" data-name="&lt;Группа&gt;">
                                <rect id="_Контур_11" data-name="&lt;Контур&gt;" class="cls-48" x="619.42" y="414.23" width="24.5" height="1.78" />
                            </g>
                            <g id="_Группа_13" data-name="&lt;Группа&gt;">
                                <rect id="_Контур_12" data-name="&lt;Контур&gt;" class="cls-48" x="619.42" y="419.57" width="6.82" height="1.78" />
                            </g>
                            <g id="_Группа_14" data-name="&lt;Группа&gt;">
                                <rect id="_Контур_13" data-name="&lt;Контур&gt;" class="cls-48" x="619.42" y="424.91" width="6.82" height="1.78" />
                            </g>
                            <g id="_Группа_15" data-name="&lt;Группа&gt;">
                                <rect id="_Контур_14" data-name="&lt;Контур&gt;" class="cls-48" x="619.42" y="430.25" width="6.82" height="1.78" />
                            </g>
                            <g id="_Группа_16" data-name="&lt;Группа&gt;">
                                <rect id="_Контур_15" data-name="&lt;Контур&gt;" class="cls-48" x="619.42" y="435.59" width="6.82" height="1.78" />
                            </g>
                            <g id="_Группа_17" data-name="&lt;Группа&gt;">
                                <rect id="_Контур_16" data-name="&lt;Контур&gt;" class="cls-48" x="619.42" y="440.93" width="6.82" height="1.78" />
                            </g>
                            <g id="_Группа_18" data-name="&lt;Группа&gt;">
                                <rect id="_Контур_17" data-name="&lt;Контур&gt;" class="cls-48" x="619.42" y="446.28" width="6.82" height="1.78" />
                            </g>
                            <g id="_Группа_19" data-name="&lt;Группа&gt;">
                                <rect id="_Контур_18" data-name="&lt;Контур&gt;" class="cls-48" x="619.42" y="451.62" width="6.82" height="1.78" />
                            </g>
                        </g>
                        <g id="_Группа_20" data-name="&lt;Группа&gt;">
                            <path id="_Контур_19" data-name="&lt;Контур&gt;" class="cls-48" d="M611.75,463.24a.68.68,0,0,1-.67-.68V406.67a.68.68,0,0,1,.67-.69h39.61a.68.68,0,0,1,.66.69v9h2.66v-9a3.37,3.37,0,0,0-3.32-3.41H611.75a3.37,3.37,0,0,0-3.32,3.41v55.89a3.37,3.37,0,0,0,3.32,3.41h14.91v-2.73Z"
                            />
                        </g>
                    </g>
                </g>
                <g id="_Группа_21" data-name="&lt;Группа&gt;">
                    <path id="_Составной_контур_2" data-name="&lt;Составной контур&gt;" class="cls-47" d="M654.5,466.69H638.26v-1.78H654.5v-1h2.7v-2.53H638.26v-1.78H657.2V456H638.26v-1.78H657.2v-1.06a7.16,7.16,0,0,1,.47-2.5H638.26v-1.78h20.36a7.26,7.26,0,0,1,5.85-3h7.72V420a2,2,0,0,0-2-2H630.59a2,2,0,0,0-2,2v55.89a2,2,0,0,0,2,2H654.5Zm-16.24-39.17h24.51v1.78H638.26Zm0,5.34h24.51v1.78H638.26Zm0,5.35h24.51V440H638.26Zm0,5.34h24.51v1.78H638.26Z"
                    />
                    <rect id="_Контур_20" data-name="&lt;Контур&gt;" class="cls-47" x="664.47" y="453.18" width="7.72" height="10.7" />
                </g>
                <path id="_Составной_контур_3" data-name="&lt;Составной контур&gt;" class="cls-48" d="M683,465.51V453.17a5.63,5.63,0,0,0-5.63-5.63H664.47a5.64,5.64,0,0,0-5.64,5.63v12.34h-2.7v19.31h29.54V465.51Zm-14.22,14.21a1.38,1.38,0,0,1-.45-.45,3.39,3.39,0,0,1,1.25-5.16v-3.74a1.35,1.35,0,0,1,2.7,0v3.74a3.3,3.3,0,0,1,2,3A3.36,3.36,0,0,1,668.75,479.72ZM679,465.51H662.83V453.17a1.64,1.64,0,0,1,1.64-1.63H678a1,1,0,0,1,1,1Z"
                />
            </g>
        </g>
    </g>
    <g id="g-s-icon-3">
        <circle id="_Контур_21" data-name="&lt;Контур&gt;" class="cls-49" cx="483.26" cy="310.92" r="63.09" />
        <g id="_Группа_22" data-name="&lt;Группа&gt;">
            <g id="_Группа_23" data-name="&lt;Группа&gt;">
                <g id="_Группа_24" data-name="&lt;Группа&gt;">
                    <g id="_Группа_25" data-name="&lt;Группа&gt;">
                        <g id="_Группа_26" data-name="&lt;Группа&gt;">
                            <polygon id="_Контур_22" data-name="&lt;Контур&gt;" class="cls-47" points="484.6 309.56 482.46 309.56 479.55 312.63 483.61 327.1 487.36 312.63 484.6 309.56" />
                            <g id="_Группа_27" data-name="&lt;Группа&gt;">
                                <path id="_Контур_23" data-name="&lt;Контур&gt;" class="cls-47" d="M514.38,335.15a26.8,26.8,0,0,0-5-15.68c-3.62-5.15-9.28-8.48-16.84-9.91l-8.87,28.58-9.74-28.46a28.56,28.56,0,0,0-12.68,5.75,23.6,23.6,0,0,0-2.94,2.89,26.53,26.53,0,0,0-6.17,16.26c0,5.31,0,12.4.7,17.59,1.12,7.8,59.77,7.22,60.74,0A135.87,135.87,0,0,0,514.38,335.15Z"
                                />
                            </g>
                        </g>
                    </g>
                </g>
                <path id="_Контур_24" data-name="&lt;Контур&gt;" class="cls-47" d="M500.13,285c-1.18,10.32-7.59,17.67-16.91,17.67s-15.4-6.88-16.91-17.67c0,.63-.08-.19-.08.45,0,11.68,7.61,21.14,17,21.14s17-9.46,17-21.14C500.21,284.79,500.18,285.61,500.13,285Z"
                />
                <g id="_Группа_28" data-name="&lt;Группа&gt;">
                    <path id="_Контур_25" data-name="&lt;Контур&gt;" class="cls-47" d="M503.6,269.39l-12.34-5.22c-.55-.17-15.53-.17-16.08,0l-12.34,5.22a3,3,0,0,0-1.93,2.91v5.81a2.83,2.83,0,0,0,2.59,3h.16c1.43,0,3.47,1.35,3.47,3a2.83,2.83,0,0,0,2.59,3h27.1a2.83,2.83,0,0,0,2.58-3c0-1.67,2-3,3.38-3H503a2.82,2.82,0,0,0,2.58-3V272.3A3,3,0,0,0,503.6,269.39Z"
                    />
                </g>
                <path id="_Составной_контур_4" data-name="&lt;Составной контур&gt;" class="cls-50" d="M483.61,268.37c-2.31,2.67-4.57,2.83-5.8,2.65v4.13a7.2,7.2,0,0,0,3.32,6.08l2.48,1.6,2.48-1.6a7.2,7.2,0,0,0,3.32-6.08V271C488.18,271.2,485.92,271,483.61,268.37Z"
                />
                <path id="_Составной_контур_5" data-name="&lt;Составной контур&gt;" class="cls-48" d="M483.61,268.37c-2.31,2.67-4.57,2.83-5.8,2.65v4.13a7.2,7.2,0,0,0,3.32,6.08l2.48,1.6,2.48-1.6a7.2,7.2,0,0,0,3.32-6.08V271C488.18,271.2,485.92,271,483.61,268.37Z"
                />
            </g>
        </g>
    </g>
    <g id="g-s-icon-2">
        <circle id="_Контур_26" data-name="&lt;Контур&gt;" class="cls-49" cx="319.19" cy="444.04" r="63.09" />
        <g id="_Группа_29" data-name="&lt;Группа&gt;">
            <g id="_Группа_30" data-name="&lt;Группа&gt;">
                <path id="_Контур_27" data-name="&lt;Контур&gt;" class="cls-47" d="M350,405.53H331c0,.2,0,.39,0,.59a13.83,13.83,0,0,1-1.72,6.71h12.36A1.12,1.12,0,0,1,342.8,414v26.27a1.12,1.12,0,0,1-1.11,1.13H296a1.12,1.12,0,0,1-1.11-1.13V414a1.13,1.13,0,0,1,1.11-1.14h12.62a13.83,13.83,0,0,1-1.72-6.71c0-.2,0-.39,0-.59H287.62a1.12,1.12,0,0,0-1.11,1.13v40.88a1.12,1.12,0,0,0,1.11,1.13H350a1.12,1.12,0,0,0,1.11-1.13V406.66A1.12,1.12,0,0,0,350,405.53Z"
                />
                <path id="_Контур_28" data-name="&lt;Контур&gt;" class="cls-48" d="M319,417.23c5.73,0,10.38-5,10.38-11.11S324.68,395,319,395s-10.38,5-10.38,11.11S313.22,417.23,319,417.23Z" />
                <path id="_Контур_29" data-name="&lt;Контур&gt;" class="cls-48" d="M339,435.43c-.2-3.89-.7-8.71-2.93-12.15s-6.55-5.26-10.64-6a10.65,10.65,0,0,1-13,0c-4.08.78-8.47,2.66-10.64,6s-2.73,8.26-2.92,12.15a7.2,7.2,0,0,0-.06,1.68c0,1.13-.31,2.36,1.21,2.61h37.8c1.52-.25,1.22-1.48,1.22-2.61a8.52,8.52,0,0,0-.06-1.68C338.72,429.69,339.06,435.87,339,435.43Z"
                />
                <polygon id="_Контур_30" data-name="&lt;Контур&gt;" class="cls-47" points="287.42 451.64 350.67 451.64 359.86 470.86 277.79 470.86 287.42 451.64" />
                <path id="_Контур_31" data-name="&lt;Контур&gt;" class="cls-47" d="M361,475.55c0-.87-.37-1.58-.82-1.58H278.24c-.45,0-.82.71-.82,1.58v.16c0,.87.37,1.58.82,1.58h81.91c.45,0,.82-.71.82-1.58Z" />
            </g>
        </g>
    </g>
    <g id="g-s-icon-1">
        <circle id="_Контур_32" data-name="&lt;Контур&gt;" class="cls-46" cx="175.8" cy="310.92" r="63.09" />
        <g id="_Группа_31" data-name="&lt;Группа&gt;">
            <g id="_Группа_32" data-name="&lt;Группа&gt;">
                <g id="_Группа_33" data-name="&lt;Группа&gt;">
                    <path id="_Контур_33" data-name="&lt;Контур&gt;" class="cls-48" d="M175.27,261.56l-39.27,27a.81.81,0,0,0,.53,1.48h78.55a.81.81,0,0,0,.53-1.48l-39.27-27A1,1,0,0,0,175.27,261.56Z" />
                    <g id="_Группа_34" data-name="&lt;Группа&gt;">
                        <rect id="_Контур_34" data-name="&lt;Контур&gt;" class="cls-48" x="146.46" y="289.64" width="8.51" height="45.68" />
                        <path id="_Контур_35" data-name="&lt;Контур&gt;" class="cls-48" d="M155.62,296.38h-9.8c-.87,0-1.57-1-1.57-2.25V291.9c0-1.24.7-2.26,1.57-2.26h9.8c.87,0,1.57,1,1.57,2.26v2.23C157.19,295.37,156.49,296.38,155.62,296.38Z"
                        />
                        <path id="_Контур_36" data-name="&lt;Контур&gt;" class="cls-48" d="M155.62,335.33h-9.8c-.87,0-1.57-1-1.57-2.26v-2.23c0-1.24.7-2.25,1.57-2.25h9.8c.87,0,1.57,1,1.57,2.25v2.23C157.19,334.31,156.49,335.33,155.62,335.33Z"
                        />
                    </g>
                    <g id="_Группа_35" data-name="&lt;Группа&gt;">
                        <rect id="_Контур_37" data-name="&lt;Контур&gt;" class="cls-48" x="196.73" y="289.64" width="8.51" height="45.68" />
                        <path id="_Контур_38" data-name="&lt;Контур&gt;" class="cls-48" d="M196.09,296.38h9.8c.87,0,1.57-1,1.57-2.25V291.9c0-1.24-.7-2.26-1.57-2.26h-9.8c-.87,0-1.57,1-1.57,2.26v2.23C194.52,295.37,195.22,296.38,196.09,296.38Z"
                        />
                        <path id="_Контур_39" data-name="&lt;Контур&gt;" class="cls-48" d="M196.09,335.33h9.8c.87,0,1.57-1,1.57-2.26v-2.23c0-1.24-.7-2.25-1.57-2.25h-9.8c-.87,0-1.57,1-1.57,2.25v2.23C194.52,334.31,195.22,335.33,196.09,335.33Z"
                        />
                    </g>
                    <g id="_Группа_36" data-name="&lt;Группа&gt;">
                        <rect id="_Контур_40" data-name="&lt;Контур&gt;" class="cls-48" x="171.6" y="289.64" width="8.51" height="45.68" />
                        <path id="_Контур_41" data-name="&lt;Контур&gt;" class="cls-48" d="M171,296.38h9.8c.87,0,1.58-1,1.58-2.25V291.9c0-1.24-.71-2.26-1.58-2.26H171c-.86,0-1.57,1-1.57,2.26v2.23C169.38,295.37,170.09,296.38,171,296.38Z" />
                        <path id="_Контур_42" data-name="&lt;Контур&gt;" class="cls-48" d="M171,335.33h9.8c.87,0,1.58-1,1.58-2.26v-2.23c0-1.24-.71-2.25-1.58-2.25H171c-.86,0-1.57,1-1.57,2.25v2.23C169.38,334.31,170.09,335.33,171,335.33Z" />
                    </g>
                </g>
                <circle id="_Контур_43" data-name="&lt;Контур&gt;" class="cls-47" cx="175.8" cy="277.64" r="6.47" />
                <path id="_Контур_44" data-name="&lt;Контур&gt;" class="cls-47" d="M215.16,344.67H136.45a.85.85,0,0,1-.81-.9v-7.68a.85.85,0,0,1,.81-.9h78.71a.85.85,0,0,1,.81.9v7.68A.85.85,0,0,1,215.16,344.67Z" />
            </g>
        </g>
    </g>

        <text class="cls-51" transform="translate(256.25 120.47)">
            <tspan x="-20" y="0">Преимущества для пользователей</tspan>
        </text>
    <text class="cls-63" transform="translate(143.14 30.97)">
        <tspan>Гарантированная сохранность документов</tspan>
    </text>
</g>
</svg>
