<svg xmlns="http://www.w3.org/2000/svg" viewBox="0 0 92.51 98.52">
	<defs>
		<style>
			.cls-1 {
			fill: #7988c2;
			}

			.cls-2 {
			fill: #fff;
			}
		</style>
	</defs>

	<g id="main">
		<path id="prof" class="cls-1" d="M70.3,21.59a22.23,22.23,0,0,0-22.21,22.2c0,.48,0,1,0,1.41a28.39,28.39,0,0,1,11.4,18A22.21,22.21,0,1,0,70.3,21.59Zm1,31.1V55.8h-3V52.93a12.74,12.74,0,0,1-5.15-1.3l.91-3.55a10.64,10.64,0,0,0,5,1.34c1.76,0,2.94-.7,2.94-1.88s-1-1.88-3.24-2.63c-3.24-1.09-5.45-2.61-5.45-5.54,0-2.7,1.88-4.79,5.12-5.39V31.1h3v2.67a10.84,10.84,0,0,1,4.42,1L75,38.19a9.35,9.35,0,0,0-4.36-1.06c-2,0-2.61.88-2.61,1.72s1.06,1.64,3.67,2.58c3.6,1.27,5,2.93,5,5.69S74.79,52.11,71.31,52.69Z"/>
		<g id="g-prof-1">
			<path class="cls-2" d="M28.36,98.52A28.36,28.36,0,1,1,56.71,70.16,28.39,28.39,0,0,1,28.36,98.52Zm0-48.73A20.37,20.37,0,1,0,48.73,70.16,20.39,20.39,0,0,0,28.36,49.79Z"/>
		</g>
		<g id="g-prof-2">
			<path id="_Составной_контур_3" class="cls-2" d="M26.43,89.36V84.88a19.63,19.63,0,0,1-8-2l1.41-5.51a16.69,16.69,0,0,0,7.82,2.07c2.73,0,4.57-1.09,4.57-2.92s-1.51-2.92-5-4.1c-5-1.69-8.48-4.05-8.48-8.62,0-4.19,2.92-7.44,8-8.38V50.93h4.62v4.14a17,17,0,0,1,6.87,1.55L36.75,62A14.59,14.59,0,0,0,30,60.3c-3.06,0-4,1.36-4,2.68,0,1.51,1.65,2.55,5.7,4,5.6,2,7.81,4.56,7.81,8.85s-2.92,7.77-8.33,8.66v4.86Z"/>
		</g>
		<g id="g-prof-3">
			<path id="_Контур_" class="cls-1" d="M13.16,26.53a19.06,19.06,0,0,1,38.12,0c0,.07,0,.14,0,.21a20.82,20.82,0,0,1,7-5.19A26.53,26.53,0,1,0,12,43.7a26.32,26.32,0,0,1,6.84-3.61A19,19,0,0,1,13.16,26.53Z" />
			<path id="_Контур_2" class="cls-1" d="M33.43,37.15c4.16-.68,6.4-3.43,6.4-6.65s-1.7-5.28-6-6.8c-3.11-1.12-4.38-1.91-4.38-3.07,0-1,.76-2.06,3.11-2.06a11.29,11.29,0,0,1,5.21,1.26l1.09-4.08a13.22,13.22,0,0,0-5.28-1.2V11.37H30v3.44c-3.87.72-6.11,3.21-6.11,6.43,0,3.51,2.64,5.32,6.51,6.62,2.71.9,3.87,1.77,3.87,3.15s-1.41,2.24-3.51,2.24a12.78,12.78,0,0,1-6-1.59L23.7,35.89a15.18,15.18,0,0,0,6.15,1.55V38.7a24.72,24.72,0,0,1,3.58.55Z"
				/>
			</g>
		</g>
</svg>
