<?xml version="1.0" encoding="utf-8"?><svg xmlns="http://www.w3.org/2000/svg" xmlns:xlink="http://www.w3.org/1999/xlink"><symbol viewBox="0 0 49.68032 55.73601" id="left-opt-1" xmlns="http://www.w3.org/2000/svg"><title>left-opt-1</title><g fill="#92a1cd"><path d="M35.452 11.989h2.879v16.267h-2.879zM31.491 18.004h2.877v10.252h-2.877z"/><path d="M13.572 7.539a20.314 20.314 0 1 1 5.512 30.292 3.731 3.731 0 0 1-.827 2.18L6.664 54.345a3.749 3.749 0 0 1-5.83-4.714l11.593-14.337a3.75 3.75 0 0 1 1.959-1.261 20.32 20.32 0 0 1-.814-26.494zM29.42 35.032a14.91 14.91 0 1 0-14.91-14.91 14.91 14.91 0 0 0 14.91 14.91z"/><path d="M27.541 20.123h2.879v8.134h-2.879zM23.681 18.004h2.876v10.252h-2.876zM19.733 24.192h2.877v4.064h-2.877z"/></g></symbol><symbol viewBox="0 0 53.4043 53.4053" id="left-opt-2" xmlns="http://www.w3.org/2000/svg"><title>left-opt-2</title><g fill="#92a1cd"><path d="M50.858 21.587h-1.51a23.233 23.233 0 0 0-17.59-17.588V2.487a24.702 24.702 0 0 1 19.1 19.1zM49.349 31.701h1.51a24.707 24.707 0 0 1-19.101 19.1v-1.513a23.234 23.234 0 0 0 17.59-17.587zM47.687 23.785h5.718v5.717h-5.718zM43.067 27.517h-8.301l-7.569 15.41-5.002-24.322-5.43 10.573h-6.43a1.613 1.613 0 0 1 0-3.21h4.47L23.505 9.03l4.948 24.058 4.313-8.781h10.302a1.614 1.614 0 0 1 0 3.21zM23.842 47.688h5.719v5.717h-5.719zM23.842 0h5.719v5.717h-5.719zM2.545 31.701h1.513a23.224 23.224 0 0 0 17.588 17.587v1.514a24.707 24.707 0 0 1-19.101-19.1zM4.058 21.587H2.545a24.704 24.704 0 0 1 19.1-19.1V4A23.227 23.227 0 0 0 4.059 21.587zM0 23.785h5.715v5.717H0z"/></g></symbol><symbol viewBox="0 0 59.9414 45.7475" id="left-opt-3" xmlns="http://www.w3.org/2000/svg"><title>left-opt-3</title><g fill="#92a1cd"><path d="M38.897 30.759a7.014 7.014 0 0 1-2.585-.97v15.958h2.585zM40.966 45.748h3.192V30.285a6.295 6.295 0 0 0-2.424.236 7.507 7.507 0 0 1-.768.183zM26.547 45.748h2.584V23.294q-.542-.527-1.12-1.07c-.528-.493-1.014-.942-1.464-1.346zM31.2 45.748h3.041V28.253c-.956-.827-1.95-1.815-3.04-2.907zM53.923 39.308a24.723 24.723 0 0 0-3.04-4.76v11.2h3.04zM55.994 45.748h3.947a8.57 8.57 0 0 1-3.947-3.052zM14.96 32.162a31.839 31.839 0 0 1-3.04 4.071v9.515h3.04zM5.196 42.382A42.717 42.717 0 0 1 0 45.748h5.196zM48.813 32.44a10.275 10.275 0 0 0-2.585-1.618v14.926h2.585zM7.266 45.748H9.85v-7.331a44.106 44.106 0 0 1-2.585 2.331zM17.031 45.748h2.585V21.983c-.716 1.445-1.513 3.393-2.496 5.92-.028.073-.06.143-.089.215zM21.686 45.748h2.79v-26.5c-1.099-.688-1.96-.803-2.79-.206zM58.291 0l-12.62 6.961 3.897 3.006-5.267 7.698-6.167-10.448-8.635 12.533 2.655 2.084 5.77-8.376L44.1 23.92l8.139-11.893 3.819 2.947L58.291 0z"/></g></symbol><symbol viewBox="0 0 56.22371 55.1015" id="left-opt-4" xmlns="http://www.w3.org/2000/svg"><title>left-opt-4</title><g fill="#92a1cd"><path d="M51.389 41.37a27.487 27.487 0 0 1-6.41 7.514 5.024 5.024 0 1 1 6.41-7.515z"/><path d="M44.978 48.884a4.968 4.968 0 0 0 2.505.672 5.023 5.023 0 0 0 3.906-8.187 26.863 26.863 0 0 0 1.721-3.524 8.74 8.74 0 1 1-11.335 13.304 26.554 26.554 0 0 0 3.203-2.265zM53.11 37.845a8.726 8.726 0 0 0-13.385 2.68l-6.633-2.256a7.376 7.376 0 1 0-14.666-1.114 7.298 7.298 0 0 0 .522 2.702l-5.995 3.691a5.764 5.764 0 0 0-7.994-.23A27.396 27.396 0 0 1 0 27.55h27.55V0a27.56 27.56 0 0 1 25.56 37.845z"/><path d="M25.804 32.908a4.243 4.243 0 1 1-4.24 4.247 4.248 4.248 0 0 1 4.24-4.247zM24.026 1.781v22.254H1.781A22.248 22.248 0 0 1 24.026 1.781z"/><path d="M32.27 40.714l6.62 2.26a8.827 8.827 0 0 0-.146 1.56 8.697 8.697 0 0 0 3.031 6.615 27.575 27.575 0 0 1-28.415.021 5.718 5.718 0 0 0 1.25-3.58 5.526 5.526 0 0 0-.308-1.85l6.004-3.686a7.363 7.363 0 0 0 11.964-1.34zM11.309 49.805q.99.732 2.051 1.365a5.77 5.77 0 1 1-8.401-7.853c.467.677.972 1.332 1.503 1.961a3.317 3.317 0 1 0 4.847 4.527z"/><path d="M12.161 47.59a3.284 3.284 0 0 1-.852 2.215 27.452 27.452 0 0 1-4.847-4.527 3.291 3.291 0 0 1 2.372-1.006 3.326 3.326 0 0 1 3.327 3.319z"/></g></symbol><symbol viewBox="0 0 54.2139 53.1006" id="left-opt-5" xmlns="http://www.w3.org/2000/svg"><title>left-opt-5</title><g fill="#92a1cd"><path d="M47.327 30.515a.55.55 0 0 0 .566-.53v-5.91a.55.55 0 0 0-.566-.535h-8.265a.551.551 0 0 0-.57.534v5.91a.55.55 0 0 0 .57.53zm-32.256 0a.55.55 0 0 0 .567-.53v-5.91a.55.55 0 0 0-.567-.535H6.8a.55.55 0 0 0-.563.534v5.91a.549.549 0 0 0 .563.53zm16.02-23.081h-8.269a.55.55 0 0 0-.566.533v5.91a.548.548 0 0 0 .566.534h8.269a.55.55 0 0 0 .562-.534v-5.91a.551.551 0 0 0-.562-.533zm.042 16.106H22.86a.545.545 0 0 0-.563.534v5.91a.545.545 0 0 0 .563.53h8.272a.549.549 0 0 0 .562-.53v-5.91a.55.55 0 0 0-.562-.534zm-4.83-7.935H21.8a.712.712 0 0 1-.712-.715V6.958a.708.708 0 0 1 .712-.712h10.394a.71.71 0 0 1 .708.712v7.932a.714.714 0 0 1-.708.715h-4.51v6.742h4.552a.71.71 0 0 1 .711.715v3.276h4.377v-3.276a.71.71 0 0 1 .709-.715h10.4a.71.71 0 0 1 .712.715v7.931a.71.71 0 0 1-.712.715h-10.4a.71.71 0 0 1-.709-.715v-3.277h-4.377v3.277a.71.71 0 0 1-.711.715H21.839a.712.712 0 0 1-.712-.715v-3.277h-4.238v3.277a.712.712 0 0 1-.711.715h-10.4a.712.712 0 0 1-.712-.715v-7.931a.712.712 0 0 1 .711-.715h10.4a.712.712 0 0 1 .712.715v3.276h4.238v-3.276a.712.712 0 0 1 .712-.715h4.464zM18.963 44.845h16.288v2.679H18.963zM35.827 53.1H18.384c-2.145 0-3.885-1.125-3.885-2.519v-1.964H39.71v1.964c0 1.394-1.74 2.52-3.884 2.52z"/><path d="M29.447 41.946a1.228 1.228 0 1 0 0-2.455h-4.684a1.228 1.228 0 1 0 0 2.455zM0 0h54.214v43.73H0zm52.212 1.788H1.998V37.48h50.212z"/></g></symbol><symbol viewBox="0 0 63.1973 49.188" id="left-opt-7" xmlns="http://www.w3.org/2000/svg"><title>left-opt-7</title><g fill="#92a1cd"><path d="M53.844 42.14H37.009v-6.087a3.181 3.181 0 0 1 1.076-2.23l7.385-1.93 1.485-4.154c-1.485-.595-2.077-3.27-2.077-3.27a63.435 63.435 0 0 1-1.04-9.648c0-4.157 6.237-4.457 6.237-4.457h.06s6.233.3 6.233 4.457a63.458 63.458 0 0 1-1.04 9.648s-.592 2.675-2.077 3.27l1.485 4.154 7.385 1.93a3.181 3.181 0 0 1 1.076 2.23v6.087zM31.791 17.469h-5.146v-3.345a1.75 1.75 0 0 1 .592-1.227l4.064-1.064.815-2.284c-.815-.324-1.142-1.794-1.142-1.794a34.908 34.908 0 0 1-.572-5.305c0-2.288 3.43-2.45 3.43-2.45h.03s3.43.162 3.43 2.45a34.908 34.908 0 0 1-.572 5.305s-.327 1.47-1.142 1.794l.815 2.285 4.064 1.064a1.75 1.75 0 0 1 .591 1.226v3.345h-9.257z"/><path d="M41.502 46.227c0-.784-2.01-1.415-4.493-1.415-2.483 0-4.493.63-4.493 1.415 0 .776 2.01 1.413 4.493 1.413 2.483 0 4.493-.638 4.493-1.413zm-19.86-14.25c1.613 0 2.923-.412 2.923-.92 0-.51-1.31-.922-2.924-.922-1.614 0-2.925.411-2.925.923 0 .508 1.31.92 2.925.92zm14.23-12.004c0-.352-.907-.64-2.025-.64-1.118 0-2.026.288-2.026.64s.908.637 2.026.637c1.118 0 2.026-.286 2.026-.637zm-1.959 1.24a.703.703 0 0 1-.087.103l-8.966 8.13c1.172.37 1.927.948 1.927 1.594 0 .673-.824 1.265-2.09 1.64l10.776 10.65a18.23 18.23 0 0 1 1.536-.063c4.112 0 7.448 1.325 7.448 2.96s-3.336 2.961-7.448 2.961-7.445-1.326-7.445-2.96c0-1.062 1.4-1.99 3.507-2.514L22.296 33.066c-.214.008-.433.017-.655.017-2.84 0-5.146-.913-5.146-2.043s2.306-2.047 5.146-2.047q.392 0 .766.027l9.077-8.23c-.48-.22-.772-.505-.772-.817 0-.689 1.404-1.248 3.135-1.248 1.731 0 3.135.56 3.135 1.248 0 .679-1.368 1.232-3.069 1.24z"/><path d="M21.641 27.757H0v-5.03a2.63 2.63 0 0 1 .89-1.84l6.104-1.596 1.227-3.436c-1.227-.49-1.72-2.7-1.72-2.7a52.535 52.535 0 0 1-.856-7.976c0-3.43 5.151-3.676 5.151-3.676h.049s5.151.247 5.151 3.676a52.564 52.564 0 0 1-.856 7.977s-.49 2.21-1.72 2.699l1.23 3.436 6.102 1.595a2.63 2.63 0 0 1 .89 1.84z"/></g></symbol><symbol viewBox="0 0 66.8242 44.8184" id="left-otp-6" xmlns="http://www.w3.org/2000/svg"><title>left-otp-6</title><path d="M49.82 10.607a16.97 16.97 0 0 0-5.674.974 15.476 15.476 0 0 0-30.353 2.135 15.604 15.604 0 0 0-6.65 28.609v-1.276a2.408 2.408 0 0 1 .817-1.687l5.602-1.464 1.125-3.152c-1.125-.452-1.577-2.478-1.577-2.478a48.096 48.096 0 0 1-.789-7.32c0-3.153 4.73-3.378 4.73-3.378h.046s4.728.225 4.728 3.379a48.149 48.149 0 0 1-.788 7.32s-.45 2.025-1.575 2.477l1.125 3.152 3.152.823-4.488 1.172a3.073 3.073 0 0 0-1.04 2.15v2.775l1.28-.007V42.83a2.91 2.91 0 0 1 .985-2.037l6.757-1.766 1.359-3.803c-1.359-.543-1.9-2.989-1.9-2.989a57.99 57.99 0 0 1-.953-8.83c0-3.804 5.707-4.075 5.707-4.075h.055s5.704.271 5.704 4.075a58.049 58.049 0 0 1-.951 8.83s-.542 2.446-1.901 2.989l1.359 3.803 6.757 1.766a2.91 2.91 0 0 1 .985 2.037v1.809l1.203-.008v-2.617a3.07 3.07 0 0 0-1.04-2.15l-4.487-1.172 3.152-.824 1.126-3.154c-1.126-.45-1.577-2.475-1.577-2.475a48.21 48.21 0 0 1-.787-7.321c0-3.152 4.728-3.377 4.728-3.377h.046s4.729.225 4.729 3.377a48.158 48.158 0 0 1-.788 7.32s-.45 2.027-1.577 2.476l1.127 3.154 5.6 1.463a2.416 2.416 0 0 1 .817 1.69v2.538a17.005 17.005 0 0 0-5.906-32.951z" fill="#92a1cd"/></symbol></svg>