<?xml version="1.0" standalone="no"?>
<!DOCTYPE svg PUBLIC "-//W3C//DTD SVG 20010904//EN"
 "http://www.w3.org/TR/2001/REC-SVG-20010904/DTD/svg10.dtd">
<svg version="1.0" xmlns="http://www.w3.org/2000/svg"
 width="259.000000pt" height="259.000000pt" viewBox="0 0 259.000000 259.000000"
 preserveAspectRatio="xMidYMid meet">
<metadata>
Created by potrace 1.11, written by Peter Selinger 2001-2013
</metadata>
<g transform="translate(0.000000,259.000000) scale(0.100000,-0.100000)"
fill="#000000" stroke="none">
<path d="M395 2523 c-45 -9 -112 -37 -143 -61 -37 -27 -106 -127 -97 -141 3
-5 0 -11 -5 -13 -16 -5 -27 -97 -18 -152 10 -69 59 -163 114 -218 136 -138
307 -130 494 22 24 19 67 19 55 0 -2 -4 5 -17 16 -29 39 -42 205 -298 242
-373 l38 -76 -45 -130 c-46 -133 -66 -180 -88 -204 -7 -7 -42 -53 -78 -103
-35 -49 -67 -92 -70 -95 -12 -8 -34 -55 -32 -63 1 -5 -2 -6 -8 -2 -5 3 -10 3
-10 -2 0 -4 -10 -20 -23 -36 -12 -15 -38 -50 -57 -78 -19 -27 -43 -59 -52 -71
-10 -11 -15 -26 -11 -32 3 -6 3 -8 -2 -4 -10 9 -165 -204 -157 -217 3 -5 2 -7
-3 -3 -10 10 -52 -50 -69 -101 -18 -50 -17 -173 1 -228 l15 -45 38 44 c21 23
36 46 34 50 -3 5 -1 8 4 8 5 0 29 25 53 56 24 31 49 61 54 68 6 6 26 31 45 56
19 25 37 47 40 50 19 16 125 156 122 163 -1 4 2 7 6 7 5 0 48 50 97 110 48 61
91 110 95 110 8 0 34 52 31 63 -1 5 3 6 9 2 5 -3 10 -2 10 3 0 4 8 17 18 28 9
10 28 33 42 50 14 17 40 49 59 72 18 22 33 43 32 46 0 3 11 17 26 32 32 32
105 37 132 7 52 -56 210 -261 215 -280 5 -14 15 -23 27 -23 11 0 18 -4 14 -9
-3 -5 7 -19 21 -30 15 -12 24 -21 20 -21 -5 0 18 -30 49 -64 6 -6 17 -20 25
-32 19 -26 89 -112 113 -136 9 -10 17 -22 17 -28 0 -5 4 -10 8 -10 4 0 15 -12
24 -27 9 -16 36 -49 60 -75 24 -25 43 -48 43 -50 0 -9 109 -138 117 -138 4 0
7 -4 6 -8 -2 -5 14 -28 34 -51 l38 -43 10 27 c6 15 8 30 5 35 -3 5 -1 11 3 14
18 11 14 142 -6 197 -17 48 -151 245 -218 322 -13 15 -22 27 -19 27 6 0 -8 19
-42 56 -12 13 -20 24 -17 24 5 0 -43 68 -56 80 -3 3 -28 37 -55 75 -27 39 -51
72 -54 75 -4 3 -17 22 -31 42 -13 20 -29 34 -35 31 -5 -4 -7 -3 -3 2 8 8 -50
95 -64 95 -4 0 -7 3 -6 8 1 4 -6 23 -16 42 -23 43 -86 228 -86 252 0 20 35 96
69 151 11 19 17 38 13 42 -4 5 -1 5 6 1 11 -6 14 0 11 20 0 4 3 10 8 13 14 10
66 81 59 81 -3 0 5 12 18 27 14 16 25 31 25 36 1 4 9 16 19 26 21 24 31 37 60
79 13 17 28 32 33 32 5 0 23 -13 40 -30 18 -16 35 -27 40 -24 5 3 9 0 9 -6 0
-6 30 -25 68 -43 121 -58 252 -44 341 36 17 15 31 32 31 39 0 6 3 8 6 5 8 -8
53 54 76 103 63 135 30 294 -80 391 -56 49 -127 72 -229 75 -67 2 -95 -3 -162
-26 -45 -15 -88 -33 -95 -40 -8 -6 -52 -73 -97 -148 -116 -192 -270 -426 -317
-480 -13 -15 -31 -37 -39 -50 l-16 -23 -12 28 c-12 29 -14 29 -90 29 -68 -1
-78 -3 -88 -23 -11 -19 -14 -20 -31 -7 -11 8 -17 14 -13 14 7 0 -67 103 -113
158 -10 12 -17 22 -15 22 3 0 -29 51 -69 113 -40 61 -86 134 -102 160 -16 27
-37 61 -46 75 -9 15 -27 46 -39 70 -22 45 -90 99 -108 87 -6 -3 -11 -2 -11 3
0 23 -186 49 -255 35z m195 -133 c103 -52 148 -187 98 -291 -23 -47 -88 -105
-133 -118 -74 -20 -167 2 -223 53 -70 63 -87 186 -38 270 30 52 81 90 146 109
30 9 112 -4 150 -23z m1570 20 c3 -3 22 -14 44 -25 21 -11 50 -35 65 -55 14
-19 28 -37 31 -40 16 -16 21 -118 7 -165 -13 -48 -102 -139 -138 -143 -147
-16 -224 15 -276 113 -23 43 -28 133 -10 177 37 87 122 144 217 143 30 0 57
-2 60 -5z"/>
</g>
</svg>
