<?xml version="1.0" standalone="no"?>
<!DOCTYPE svg PUBLIC "-//W3C//DTD SVG 20010904//EN"
 "http://www.w3.org/TR/2001/REC-SVG-20010904/DTD/svg10.dtd">
<svg version="1.0" xmlns="http://www.w3.org/2000/svg"
 width="259.000000pt" height="259.000000pt" viewBox="0 0 259.000000 259.000000"
 preserveAspectRatio="xMidYMid meet">
<metadata>
Created by potrace 1.11, written by Peter Selinger 2001-2013
</metadata>
<g transform="translate(0.000000,259.000000) scale(0.100000,-0.100000)"
fill="#000000" stroke="none">
<path d="M395 2523 c-46 -9 -112 -37 -143 -61 -37 -27 -106 -127 -97 -141 3
-5 0 -11 -5 -13 -16 -5 -27 -97 -18 -152 17 -115 111 -242 216 -292 76 -36
169 -32 262 12 63 31 144 87 135 96 -2 2 5 4 16 5 11 1 26 -9 36 -25 10 -15
21 -29 24 -32 19 -14 200 -297 233 -363 49 -100 56 -189 18 -245 -41 -61 -116
-167 -122 -172 -3 -3 -34 -45 -70 -95 -35 -49 -67 -92 -70 -95 -12 -8 -34 -55
-32 -63 1 -5 -2 -6 -8 -2 -5 3 -10 3 -10 -2 0 -4 -10 -20 -23 -36 -12 -15 -38
-50 -57 -78 -19 -27 -43 -59 -52 -71 -10 -11 -15 -26 -11 -32 3 -6 3 -8 -2 -4
-4 4 -26 -18 -48 -50 -23 -31 -43 -59 -46 -62 -12 -10 -70 -97 -68 -101 1 -2
0 -3 -2 -2 -8 5 -52 -67 -65 -106 -18 -50 -17 -173 1 -228 l15 -45 38 44 c21
23 36 46 34 50 -3 5 -1 8 4 8 5 0 29 25 53 56 24 31 49 61 54 68 6 6 26 31 45
56 19 25 37 47 40 50 19 16 125 156 122 163 -1 4 2 7 7 7 4 0 30 28 57 63 26
34 51 64 54 67 3 3 21 25 40 50 19 25 40 51 48 58 7 8 25 30 40 50 15 21 29
39 32 42 3 3 16 19 30 36 14 17 40 49 59 72 18 22 32 42 31 44 -1 1 18 25 43
53 25 27 43 53 41 57 -3 4 -1 8 5 8 8 0 26 -20 74 -80 7 -8 50 -62 97 -120 46
-58 89 -111 95 -118 5 -7 22 -26 37 -42 14 -16 24 -31 21 -33 -2 -3 8 -14 23
-26 15 -11 24 -21 20 -21 -5 0 18 -30 49 -64 6 -6 17 -20 25 -32 19 -26 89
-112 113 -136 9 -10 17 -22 17 -27 0 -5 3 -11 8 -13 4 -1 58 -67 121 -145 63
-79 118 -143 122 -143 5 0 8 -4 7 -8 -2 -5 14 -28 34 -51 25 -28 39 -39 42
-30 2 8 8 28 14 44 5 17 10 60 11 96 3 82 -22 157 -76 230 -22 30 -66 90 -98
134 -32 44 -65 86 -73 93 -9 6 -13 12 -9 12 8 0 -3 16 -40 56 -12 13 -20 24
-17 24 5 0 -43 68 -56 80 -3 3 -28 37 -55 75 -27 39 -51 72 -54 75 -4 3 -17
22 -31 42 -13 20 -28 34 -32 32 -5 -3 -7 -1 -6 4 3 8 -105 168 -123 182 -3 3
-17 22 -31 43 -23 34 -26 48 -24 110 3 72 20 121 75 210 11 19 17 38 13 42 -4
5 -1 5 6 1 11 -6 14 0 11 20 0 4 3 10 8 13 5 3 24 29 43 56 19 28 43 60 54 73
11 12 16 22 13 22 -4 0 1 9 11 19 18 20 20 23 65 83 l27 37 25 -23 c41 -38 97
-74 156 -100 105 -46 243 -25 322 49 15 14 27 31 27 37 0 6 3 8 6 5 8 -8 53
54 76 103 47 100 43 208 -12 305 -58 105 -153 157 -291 161 -73 2 -99 -2 -168
-26 -45 -15 -88 -33 -95 -40 -8 -6 -52 -73 -97 -148 -46 -75 -102 -166 -125
-202 -67 -102 -168 -251 -179 -263 -59 -68 -93 -115 -88 -121 3 -3 -1 -6 -10
-6 -9 0 -17 -4 -17 -8 0 -4 -13 -16 -30 -25 l-29 -18 -72 73 c-40 40 -72 75
-71 78 1 3 -13 25 -32 50 -18 25 -50 71 -71 103 -21 31 -42 57 -46 57 -5 0 -8
3 -7 8 2 4 -33 64 -77 135 -112 179 -111 177 -136 225 -37 73 -143 123 -274
127 -44 1 -89 0 -100 -2z m195 -133 c103 -52 148 -187 98 -291 -22 -47 -88
-105 -132 -118 -151 -41 -290 62 -289 216 0 105 64 184 173 216 30 9 112 -4
150 -23z m1570 20 c3 -3 22 -14 44 -25 21 -11 50 -35 65 -55 14 -19 28 -37 31
-40 17 -16 21 -118 7 -165 -26 -90 -142 -165 -236 -152 -114 15 -189 93 -198
207 -11 129 92 236 227 235 30 0 57 -2 60 -5z"/>
</g>
</svg>
