<svg>
  <symbol xmlns="http://www.w3.org/2000/svg" id="1" viewBox="0 0 54.58 57.63">
    <g id="aСлой_2" data-name="Слой 2">
      <g id="aСлой_1-2" data-name="Слой 1">
        <g id="a_1" data-name="1">
          <path d="M7.77 7.75h17.31v1.26H7.77zm0 3.78h4.82v1.26H7.77zm0 3.77h4.82v1.26H7.77zm0 3.77h4.82v1.26H7.77zm0 3.78h4.82v1.26H7.77zm0 3.77h4.82v1.26H7.77zm0 3.78h4.82v1.26H7.77zm0 3.77h4.82v1.26H7.77z" class="acls-1"/>
          <path d="M2.35 42.38a.47.47 0 0 1-.47-.48V2.41a.47.47 0 0 1 .47-.48h28a.47.47 0 0 1 .47.48v6.38h1.88V2.41A2.38 2.38 0 0 0 30.33 0h-28A2.38 2.38 0 0 0 0 2.41V41.9a2.38 2.38 0 0 0 2.35 2.41h10.53v-1.93z" class="acls-1"/>
          <path d="M32.55 44.82H21.08v-1.26h11.47v-.73h1.91v-1.78H21.08v-1.26h13.38v-2.52H21.08V36h13.38v-.74a5.15 5.15 0 0 1 .33-1.77H21.08v-1.25h14.39a5.12 5.12 0 0 1 4.13-2.11h5.46V11.8a1.42 1.42 0 0 0-1.41-1.44h-28a1.42 1.42 0 0 0-1.41 1.44v39.49a1.43 1.43 0 0 0 1.41 1.45h16.9zM21.08 17.15H38.4v1.25H21.08zm0 3.77H38.4v1.26H21.08zm0 3.77H38.4V26H21.08zm0 3.78H38.4v1.26H21.08z" class="acls-2"/>
          <path d="M39.6 35.27h5.46v7.56H39.6z" class="acls-2"/>
          <path id="a_Составной_контур_" d="M52.67 44v-8.73a4 4 0 0 0-4-4H39.6a4 4 0 0 0-4 4V44h-1.89v13.63h20.87V44zM42.62 54a1.39 1.39 0 0 1-.32-.32 2.41 2.41 0 0 1 .89-3.65v-2.61a1 1 0 0 1 1.91 0v2.64a2.34 2.34 0 0 1 1.38 2.13A2.38 2.38 0 0 1 42.62 54zm7.23-10H38.44v-8.73a1.15 1.15 0 0 1 1.16-1.15h9.54a.7.7 0 0 1 .71.7z" class="acls-1" data-name="&lt;Составной контур&gt;"/>
        </g>
      </g>
    </g>
  </symbol>
  <symbol xmlns="http://www.w3.org/2000/svg" id="2" viewBox="0 0 62.03 49.93">
    <g id="bСлой_2" data-name="Слой 2">
      <g id="bСлой_1-2" data-name="Слой 1">
        <g id="b_2" data-name="2">
          <path fill="#3e4a68" d="M51.27 13.34H1.68A1.74 1.74 0 0 0 0 15.13v33a1.74 1.74 0 0 0 1.68 1.8h49.59a1.74 1.74 0 0 0 1.73-1.8v-33a1.74 1.74 0 0 0-1.73-1.79zM1.76 19.81H51v8.89H1.76zm49.29 16.44H1.5v-1.2h49.55zm0-2H1.5v-1.18h49.55zm0-2H1.5v-1.16h49.55z"/>
          <path fill="#7988c2" d="M58.78 0H10.93a3.28 3.28 0 0 0-3.25 3.31v7.57h3.25V3.31h47.85v32h-3.94v3.31h3.94A3.29 3.29 0 0 0 62 35.26V3.31A3.28 3.28 0 0 0 58.78 0z"/>
        </g>
      </g>
    </g>
  </symbol>
  <symbol xmlns="http://www.w3.org/2000/svg" id="3" viewBox="0 0 43.11 54.41">
    <g id="cСлой_2" data-name="Слой 2">
      <g id="cСлой_1-2" data-name="Слой 1">
        <path id="c_3" fill="#3e4a68" d="M39.17 26.23v-18A8.22 8.22 0 0 0 31 0H12.16a8.22 8.22 0 0 0-8.22 8.22v18H0v28.19h43.11V26.23zM18.41 47a2.4 2.4 0 0 1-.66-.65 5 5 0 0 1 1.84-7.54v-5.49a2 2 0 0 1 3.94 0v5.46a4.83 4.83 0 0 1 2.84 4.39c0 3.67-4.09 6.38-7.96 3.83zm14.93-20.77H9.78v-18a2.38 2.38 0 0 1 2.38-2.38h19.72a1.46 1.46 0 0 1 1.46 1.45z" data-name="3"/>
      </g>
    </g>
  </symbol>
  <symbol xmlns="http://www.w3.org/2000/svg" id="4" viewBox="0 0 48.41 56.96">
    <g id="dСлой_2" data-name="Слой 2">
      <g id="dСлой_1-2" data-name="Слой 1">
        <g id="d_4" data-name="4">
          <path d="M33.89 37.78h-.69l-.96 1.01 1.33 4.72 1.22-4.72-.9-1.01z" class="dcls-1"/>
          <path d="M43.62 49.56c-.25-3.55-1-7-1.64-7.93a8.25 8.25 0 0 0-5.5-3.23l-2.89 9.33-3.18-9.29a9.24 9.24 0 0 0-4.14 1.87 7.18 7.18 0 0 0-1 .95c-.81 1-1.66 4.36-2 8.11a26.94 26.94 0 0 0 .23 5.75c.37 2.54 19.52 2.36 19.83 0a28.48 28.48 0 0 0 .29-5.56zm-4.74-18.3a5.44 5.44 0 1 1-5.44-5.44 5.45 5.45 0 0 1 5.44 5.44zm-24.5-19.3h-.7l-.95 1 1.33 4.73 1.22-4.73-.9-1z" class="dcls-1"/>
          <path d="M24.1 23.73c-.25-3.55-1-6.95-1.63-7.92A8.3 8.3 0 0 0 17 12.57l-2.89 9.34-3.19-9.3a9.37 9.37 0 0 0-4.13 1.88 7.76 7.76 0 0 0-1 .94c-.81.95-1.66 4.36-2 8.12A26.88 26.88 0 0 0 4 29.29c.37 2.55 19.52 2.36 19.83 0a28.41 28.41 0 0 0 .27-5.56zM19.37 5.44A5.44 5.44 0 1 1 13.93 0a5.44 5.44 0 0 1 5.44 5.44z" class="dcls-1"/>
          <path fill="#7988c2" d="M46.48 32A19.15 19.15 0 0 0 28 14v3.83A15.34 15.34 0 0 1 42.64 32h-1.89l3.83 4.26L48.41 32zM1.93 38.57a19.15 19.15 0 0 0 18.5 18v-3.85A15.35 15.35 0 0 1 5.76 38.57h1.9l-3.83-4.26L0 38.57z"/>
        </g>
      </g>
    </g>
  </symbol>
  <symbol xmlns="http://www.w3.org/2000/svg" id="5" viewBox="0 0 48.8 57.12">
    <g id="eСлой_2" data-name="Слой 2">
      <g id="eСлой_1-2" data-name="Слой 1">
        <g id="e_5" data-name="5">
          <path d="M8.41 8.4h18.75v1.36H8.41zm0 4.09h5.22v1.36H8.41zm0 4.08h5.22v1.36H8.41zm0 4.09h5.22v1.36H8.41zm0 4.09h5.22v1.36H8.41zm0 4.09h5.22v1.36H8.41zm0 4.08h5.22v1.36H8.41zm0 4.09h5.22v1.36H8.41z" class="ecls-1"/>
          <path d="M2.54 45.91a.52.52 0 0 1-.54-.53V2.61a.51.51 0 0 1 .51-.52h30.35a.51.51 0 0 1 .5.52v6.91h2V2.61A2.58 2.58 0 0 0 32.86 0H2.54A2.58 2.58 0 0 0 0 2.61v42.77A2.58 2.58 0 0 0 2.54 48H14v-2.09z" class="ecls-1"/>
          <path fill="#3e4a68" d="M47.28 11.22H17a1.54 1.54 0 0 0-1.52 1.56v42.78A1.54 1.54 0 0 0 17 57.12h27.52l4.28-4.59V12.78a1.54 1.54 0 0 0-1.52-1.56zm-5.69 37.33H22.84v-1.37h18.75zm0-4.09H22.84V43.1h18.75zm0-4.09H22.84V39h18.75zm0-4.09H22.84v-1.36h18.75zm0-4.08H22.84v-1.37h18.75zm0-4.09H22.84v-1.36h18.75zm0-4.09H22.84v-1.36h18.75zm0-4.09H22.84v-1.36h18.75zm2.09 36.15v-3.93a.62.62 0 0 1 .61-.63H48z"/>
        </g>
      </g>
    </g>
  </symbol>
  <symbol xmlns="http://www.w3.org/2000/svg" id="6" viewBox="0 0 41.62 59.47">
    <g id="fСлой_2" data-name="Слой 2">
      <g id="fСлой_1-2" data-name="Слой 1">
        <g id="f_6" data-name="6">
          <path d="M33.9 46.81v2.84h-8.74v-2.83l-.82.84v11.81l5.19-5.51 5.2 5.51V47.66l-.83-.85zM17 42.54l2-2h-2.8v-3.21H7.4V36h8.8v-2.76H7.4v-1.36h8.8v-.23H19l-2-2 .45-.45H7.4v-1.41h11.41l2.67-2.72H7.4v-1.36h17.77V22.5h8.19V1.57A1.54 1.54 0 0 0 31.84 0H1.53A1.55 1.55 0 0 0 0 1.57v42.77a1.55 1.55 0 0 0 1.53 1.57h18.8zM7.4 7.35h18.75v1.37H7.4zm0 4.09h18.75v1.37H7.4zm0 4.09h18.75v1.36H7.4zm0 4.09h18.75V21H7.4z" class="fcls-1"/>
          <path fill="#7988c2" d="M41.62 39.25V32.9H39.2a10.48 10.48 0 0 0-.63-1.55l1.71-1.74-4.4-4.5-1.71 1.74a10.18 10.18 0 0 0-1.52-.64v-2.46h-6.23v2.46a9.75 9.75 0 0 0-1.52.64l-1.71-1.74-4.4 4.5 1.7 1.74a11.69 11.69 0 0 0-.63 1.55h-2.41v6.35h2.41a11.17 11.17 0 0 0 .63 1.55l-1.7 1.74 4.4 4.5 1.71-1.74a9.75 9.75 0 0 0 1.52.64v2.46h6.23v-2.46a10.18 10.18 0 0 0 1.52-.64l1.71 1.7 4.4-4.5-1.71-1.7a10.06 10.06 0 0 0 .63-1.55zm-12.09 4.61a7.78 7.78 0 1 1 7.63-7.78 7.7 7.7 0 0 1-7.63 7.78z"/>
          <path d="M35 36.08a5.49 5.49 0 1 1-5.49-5.6 5.54 5.54 0 0 1 5.49 5.6z" class="fcls-1"/>
        </g>
      </g>
    </g>
  </symbol>
  <symbol xmlns="http://www.w3.org/2000/svg" id="7" viewBox="0 0 52.48 47.34">
    <g id="gСлой_2" data-name="Слой 2">
      <g id="gСлой_1-2" data-name="Слой 1">
        <g id="g_7" data-name="7">
          <path fill="#3e4a68" d="M50.27 0H2.21A2.34 2.34 0 0 0 0 2.27v32.59a2.29 2.29 0 0 0 2.21 2.27h48.06a2.44 2.44 0 0 0 2.21-2.27V2.27A2.2 2.2 0 0 0 50.27 0zm-7.99 45.72c0 1.68-.71 1.62-1.59 1.62H11.8c-.88 0-1.6-.05-1.6-1.62v-.65c0-1.57.72-1.63 1.6-1.63h28.89c.88 0 1.59 0 1.59 1.63zm-21.66-7.23h11.24v3.6H20.62z"/>
          <path d="M29.76 24.06a2.76 2.76 0 1 0 2.76 2.76 2.76 2.76 0 0 0-2.76-2.76zm0 3.78a1 1 0 1 1 1-1 1 1 0 0 1-1 1zM8.34 24.06a2.76 2.76 0 1 0 2.76 2.76 2.77 2.77 0 0 0-2.76-2.76zm0 3.78a1 1 0 1 1 1-1 1 1 0 0 1-1 1zm11.44-16.29a2.76 2.76 0 1 0 2.75 2.76 2.76 2.76 0 0 0-2.75-2.76zm0 3.78a1 1 0 1 1 1-1 1 1 0 0 1-1 1zM45.93 5.17a2.76 2.76 0 1 0 2.76 2.76 2.76 2.76 0 0 0-2.76-2.76zm0 3.78a1 1 0 1 1 1-1 1 1 0 0 1-1 1.05z" class="gcls-2"/>
          <path d="M7.18 19.83h13.56v1.85H7.18z" class="gcls-2" transform="rotate(-47.01 13.967 20.757)"/>
          <path d="M24.01 14.57h1.85v12.08h-1.85z" class="gcls-2" transform="rotate(-40.44 24.938 20.61)"/>
          <path d="M26.87 16.7h21.66v1.85H26.87z" class="gcls-2" transform="rotate(-49.91 37.705 17.624)"/>
        </g>
      </g>
    </g>
  </symbol>
  <symbol xmlns="http://www.w3.org/2000/svg" id="8" viewBox="0 0 41.37 55.08">
    <g id="hСлой_2" data-name="Слой 2">
      <g id="hСлой_1-2" data-name="Слой 1">
        <g id="h_8" data-name="8">
          <path fill="#3e4a68" d="M35.47 10.84q-2.56 4.7-4.66 14.29-1.74 7.86-1.6 9.53a1.52 1.52 0 0 0 0 .66 1.62 1.62 0 0 1 .07.6c-.16 1-.46 1.6-.9 1.67a9.79 9.79 0 0 1-3.33-1.17c-1.93-.82-3-1.43-3.1-1.83 0 0-.06-.73-.1-2.06A42.71 42.71 0 0 1 20 23.6q-1 2.4-1.85 4.79a14.87 14.87 0 0 0-.8 5.17 2.12 2.12 0 0 0 0 .8 2 2 0 0 1 0 .83c-.2 1-.51 1.5-.93 1.63a1.54 1.54 0 0 1-.53.07 10.27 10.27 0 0 1-3.47-.7c-1.58-.56-2.47-1.22-2.7-2a14.13 14.13 0 0 0-.06-1.73 67.88 67.88 0 0 1-2.1-10.33 81.45 81.45 0 0 1-.44-10.76 5.47 5.47 0 0 1-.16-2c.29-1 .69-1.43 1.2-1.4A7.49 7.49 0 0 1 11 9c1.27.66 2 1.2 2 1.6 0 .13 0 .76-.11 1.9s-.13 2-.13 2.83a70.12 70.12 0 0 0 1 9.26L18.38 10a5.93 5.93 0 0 1 .4-1.21 1.56 1.56 0 0 1 1-.59 8.73 8.73 0 0 1 2.67 1c1.53.75 2.31 1.26 2.33 1.56 0 .15 0 .9-.07 2.23-.06 1.57-.1 3-.1 4.13a45.18 45.18 0 0 0 .53 7.43c.61-3.07 1.38-6.23 2.34-9.5a50.86 50.86 0 0 1 1.7-5.3c.24-1.1.83-1.59 1.76-1.46a9.38 9.38 0 0 1 2.47.77c1.17.58 1.86 1.16 2.06 1.78z"/>
          <path fill="#7988c2" d="M20.69 0a20.69 20.69 0 0 0-8.64 39.49l8.64 15.59 10.22-16.41A20.69 20.69 0 0 0 20.69 0zm0 36.88a16.2 16.2 0 1 1 16.19-16.2 16.2 16.2 0 0 1-16.19 16.2z"/>
        </g>
      </g>
    </g>
  </symbol>
  <symbol xmlns="http://www.w3.org/2000/svg" id="9" viewBox="0 0 41.87 52.04">
    <g id="iСлой_2" data-name="Слой 2">
      <g id="iСлой_1-2" data-name="Слой 1">
        <g id="i_9" data-name="9">
          <path d="M29.11 10c0 5.12-5.29 9.28-8.17 9.28s-8.18-4.19-8.18-9.28c0-8.12 3.66-10 8.18-10s8.17 1.85 8.17 10zm6.82 15.75c-2.91-3.56-6.56-5.2-11.52-5.64L21 29l-3.53-8.81a17.46 17.46 0 0 0-11.21 5.5C1.89 30.43-1.38 45.54.58 48.45s7.81-.35 9.51-1.93a55.06 55.06 0 0 0 0 5.52h21.82a51.87 51.87 0 0 0-.11-5.52c1.75 2 7.57 5.26 9.53 2 1.77-2.92-.98-17.35-5.4-22.77zm-5.11 9.13a2.83 2.83 0 0 0-3.15 1c-1.35 1.89-.45 5.59 2 8.28a10.51 10.51 0 0 0 1.1 1l-9.49 3.93-9.55-4a11.25 11.25 0 0 0 1.07-1c2.45-2.68 3.35-6.39 2-8.28a2.82 2.82 0 0 0-3.08-1v-7.66l9.55 4 9.54-4z" class="icls-1"/>
          <path d="M22.91 20.39c-.55-.05-1.12-.07-1.73-.07a16.81 16.81 0 0 0-2.18.13l2 5z" class="icls-1"/>
        </g>
      </g>
    </g>
  </symbol>
</svg>
