<?xml version="1.0" standalone="no"?>
<!DOCTYPE svg PUBLIC "-//W3C//DTD SVG 20010904//EN"
 "http://www.w3.org/TR/2001/REC-SVG-20010904/DTD/svg10.dtd">
<svg version="1.0" xmlns="http://www.w3.org/2000/svg"
 width="700.000000pt" height="700.000000pt" viewBox="0 0 700.000000 700.000000"
 preserveAspectRatio="xMidYMid meet">
<metadata>
Created by potrace 1.11, written by Peter Selinger 2001-2013
</metadata>
<g transform="translate(0.000000,700.000000) scale(0.100000,-0.100000)"
fill="#000000" stroke="none">
<path d="M3009 5976 c-2 -2 -39 -6 -82 -9 -43 -4 -81 -8 -85 -11 -4 -2 -27 -7
-52 -10 -62 -8 -79 -12 -136 -29 -27 -8 -53 -15 -59 -16 -5 -1 -26 -6 -45 -11
-19 -5 -91 -11 -160 -14 -69 -2 -132 -7 -140 -10 -8 -2 -33 -7 -55 -10 -22 -3
-53 -9 -68 -15 -15 -6 -27 -8 -27 -6 0 6 -172 -54 -185 -65 -5 -4 -21 -11 -35
-15 -14 -4 -59 -28 -100 -53 -304 -183 -517 -467 -600 -798 -19 -75 -57 -190
-90 -269 -9 -23 -22 -58 -119 -320 -209 -568 -262 -712 -270 -731 -9 -20 -4
-22 87 -44 209 -48 340 -78 377 -85 41 -8 81 -16 125 -26 25 -6 56 -13 70 -15
14 -2 45 -9 70 -14 25 -5 72 -14 105 -20 33 -5 71 -12 85 -15 65 -13 139 -25
180 -30 44 -5 166 -23 205 -30 15 -3 54 -73 157 -282 455 -926 1022 -2057
1025 -2048 3 6 266 532 586 1169 458 913 586 1160 602 1163 11 1 40 5 64 8 77
10 245 35 261 40 8 2 31 7 50 10 19 3 46 8 60 10 60 10 95 17 185 35 28 6 59
12 70 14 11 2 31 7 45 10 14 3 37 8 53 11 103 19 509 114 515 120 3 3 -99 284
-188 520 -34 90 -177 478 -215 580 -20 55 -40 109 -45 120 -4 11 -13 38 -18
60 -70 282 -178 481 -358 658 -186 183 -446 320 -669 352 -22 3 -47 8 -55 11
-8 3 -71 8 -140 10 -69 3 -138 9 -155 14 -72 22 -186 49 -255 60 -41 6 -86 14
-100 17 -30 6 -464 15 -471 9z"/>
</g>
</svg>
