<svg xmlns="http://www.w3.org/2000/svg" id="global-layout" viewBox="0 0 330 100">
	<g id="cloud">
		<path fill="#3e4a68" d="M163.2 30.5c-2.8 0-5.4.9-7.6 2.5-2.6-7.6-9-13.1-16.5-13.1-9 0-16.3 7.8-17.5 17.8-1.7-1.1-3.7-1.7-5.8-1.7-6.6 0-12 6.3-12 14s5.4 14 12 14h9.6v-8.6h2.3v-8.9c0-.6.1-1.2.3-1.7.8-2.8 3.3-4.8 6.3-4.8h11.1c3.6 0 6.5 2.9 6.5 6.5v8.9h2.3V64h8.9c8 0 14.4-7.5 14.4-16.8.1-9.2-6.3-16.7-14.3-16.7zm-1.1 6.5c-1.8 0-4.9 2.1-6.5 1.4-2.1-.9-3.3-4.2-5-5.6-9.7-8.8-26.1-2.8-27.9 10.2-1.7-.9-3.5-1.4-5.4-1.4h-.1c-6.1 0-11.2 5.1-11.3 11.2-.1-8.5 8.5-17.2 16.8-11.9 2.1-17.8 26.1-22.5 32.2-4.5 10-7.2 21 3.4 20.8 14-.2-7.3-6.4-13.4-13.6-13.4z"/>
		<path fill="#3e4a68" d="M145.2 46.7h-10.5v8.7h10.5z"/>
		<path fill="#7988c2" d="M150.3 57.1V46.5c0-2.7-2.2-4.9-4.9-4.9h-11.1c-2.7 0-4.9 2.2-4.9 4.9v10.6h-2.3v16.6h25.4V57.1h-2.2zm-12.2 12.2c-.1-.1-.3-.2-.4-.4-1.2-1.8-.4-3.8 1.1-4.4v-3.2c0-.6.5-1.2 1.2-1.2s1.2.5 1.2 1.2v3.2c1 .4 1.7 1.4 1.7 2.6-.1 2.1-2.6 3.7-4.8 2.2zm8.8-12.2H133V46.5c0-.8.6-1.4 1.4-1.4H146c.5 0 .9.4.9.9v11.1z"/>
	</g>
</svg>