<svg xmlns="http://www.w3.org/2000/svg" id="global-layout" viewBox="0 0 330 100">
	<g id="money">
		<path fill="#7988c2" d="M291.3 31.2s-4.3 4-13.3 4.6c-7.7.5-23.2-3.2-29.6-4.1-6.4-.9-13.6.8-13.6.8v3.3c2.4-.2 5.4-.4 8.7-.1 10.7 1 23.2 4.8 29.3 4.7 9.1-.2 15-4 15-4v19.4c3.1-.9 3.5-2 3.5-2V31.2z"/>
		<path fill="#7988c2" d="M296.3 23.2s-6.2 5.9-14.3 6c-9.1.1-22.6-2.9-29.1-3.8-6.4-.9-13.6.2-13.6.2l.1 3.5c2.4-.2 5.2-.5 8.6-.2 10.7 1 22.4 4.5 29.5 4.4 10.8-.2 15.3-5 15.3-5v19.6c3.1-.9 3.5-2 3.5-2V23.2z"/>
		<g>
			<path fill="#3e4a68" d="M271.3 43.1c-5 .2-19-3.6-29.8-4.7-3.3-.4-6.4-.2-8.8.1-3 .4-4.9.9-4.9.9v27.3s6.8-1.8 15-1c11.2 1.1 25.2 4.8 29.9 4.8 8.2 0 13.3-3.8 13.3-3.8V39.3c.1 0-5.6 3.4-14.7 3.8zm-14.4 21.5c-5.3 0-9.6-4.4-9.6-9.8s4.3-9.8 9.6-9.8 9.6 4.4 9.6 9.8-4.3 9.8-9.6 9.8z"/>
			<g>
				<path fill="#3e4a68" d="M263.5 50.7c0 .8-.4 1.4-1.2 1.4-1.2 0-2.1-2.3-4.2-2.3-.7 0-1.2.3-1.2 1.1 0 2.2 6.8.9 6.8 6.2 0 3-3.2 4.6-4.8 4.8-.5 0-.5.2-.5.8 0 1.1-.1 1.1-1.2 1.1-1 0-1.3.2-1.3-1 0-.4.1-.8-.3-.9-.9-.1-2.6-.5-3.3-1-.8-.6-1.2-2.6-1.2-3.6 0-.5.2-1.1.8-1.1 1.5 0 1.2 3.2 4.7 3.2.5 0 1.6-.2 1.6-1 0-.7-.2-.8-2.6-1.7-2-.7-4.2-2.2-4.2-4.7 0-2.3 1.8-4.1 4-4.6.6-.1.5-.2.5-.8 0-1.2.1-1.1 1.2-1.1 1.1 0 1.3-.2 1.3 1 0 .3-.1.8.3.9.3 0 1.4.3 1.5.3.3 0 .6-.2 1-.2.9 0 2.3 1.8 2.3 3.2z"/>
			</g>
		</g>
	</g>
</svg>