<?xml version="1.0" encoding="utf-8"?><svg xmlns="http://www.w3.org/2000/svg" xmlns:xlink="http://www.w3.org/1999/xlink"><symbol viewBox="0 0 24 24" id="icon-arrow-left" xmlns="http://www.w3.org/2000/svg"><path d="M20 11H7.83l5.59-5.59L12 4l-8 8 8 8 1.41-1.41L7.83 13H20v-2z"/></symbol><symbol viewBox="0 0 24 24" id="icon-arrow-right" xmlns="http://www.w3.org/2000/svg"><path d="M20 11H7.83l5.59-5.59L12 4l-8 8 8 8 1.41-1.41L7.83 13H20v-2z"/></symbol><symbol viewBox="0 0 16 16" id="icon-calendar" xmlns="http://www.w3.org/2000/svg"><g fill="#444"><path d="M15 2h-2V0h-3v2H6V0H3v2H1a1 1 0 0 0-1 1v12a1 1 0 0 0 1 1h14a1 1 0 0 0 1-1V3a1 1 0 0 0-1-1zm-1 12H2V5h12v9z"/><path data-color="color-2" d="M4 7h2v2H4zM7 7h2v2H7zM4 10h2v2H4zM7 10h2v2H7zM10 7h2v2h-2zM10 10h2v2h-2z"/></g></symbol><symbol viewBox="0 0 16 16" id="icon-time" xmlns="http://www.w3.org/2000/svg"><g fill="#444"><path d="M8 0C3.6 0 0 3.6 0 8s3.6 8 8 8 8-3.6 8-8-3.6-8-8-8zm0 14c-3.3 0-6-2.7-6-6s2.7-6 6-6 6 2.7 6 6-2.7 6-6 6z"/><path data-color="color-2" d="M9 4H7v5h5V7H9z"/></g></symbol><symbol viewBox="0 0 16 16" id="icon-views" xmlns="http://www.w3.org/2000/svg"><g fill="#444"><path d="M9 10.836c0-.604-.265-1.179-.738-1.554C7.539 8.708 6.285 8 4.5 8S1.461 8.708.738 9.282c-.473.375-.738.95-.738 1.554V12h9v-1.164z"/><circle cx="4.5" cy="4.5" r="2.5"/><circle data-color="color-2" cx="11.5" cy="4.5" r="2.5"/><path data-color="color-2" d="M15.262 9.282C14.539 8.708 13.285 8 11.5 8c-.561 0-1.063.075-1.519.189A3.954 3.954 0 0 1 11 10.836V12h5v-1.164c0-.604-.265-1.179-.738-1.554z"/></g></symbol></svg>