<?xml version="1.0" encoding="utf-8"?><svg xmlns="http://www.w3.org/2000/svg" xmlns:xlink="http://www.w3.org/1999/xlink"><symbol viewBox="0 0 34.28422 34.28825" id="bt" xmlns="http://www.w3.org/2000/svg"><defs><style>.aa{fill:#7b9bd1}.ab{fill:#fff}</style></defs><title>bt</title><path class="aa" d="M33.772 21.292z"/><path class="ab" d="M24.701 14.702c.341-2.281-1.396-3.508-3.77-4.326l.77-3.09-1.882-.469-.75 3.009a77.723 77.723 0 0 0-1.507-.355l.756-3.028-1.88-.47-.771 3.09c-.41-.093-.811-.185-1.201-.282l.002-.01-2.594-.648-.5 2.01s1.395.32 1.366.34a1 1 0 0 1 .876 1.093l-.877 3.52a1.557 1.557 0 0 1 .195.063l-.198-.05-1.23 4.933a.685.685 0 0 1-.863.446c.019.028-1.367-.341-1.367-.341l-.934 2.154 2.449.61c.455.114.901.234 1.34.346l-.778 3.126 1.879.469.771-3.092c.513.139 1.011.268 1.498.389l-.768 3.078 1.881.468.779-3.12c3.207.608 5.62.363 6.634-2.538.818-2.336-.04-3.683-1.728-4.562a3.002 3.002 0 0 0 2.402-2.763zm-4.298 6.027c-.582 2.335-4.514 1.073-5.79.756l1.033-4.14c1.275.317 5.364.947 4.758 3.384zm.581-6.06c-.53 2.124-3.803 1.044-4.866.78l.937-3.756c1.062.265 4.482.759 3.93 2.975z"/></symbol><symbol viewBox="0 0 34.28422 34.28422" id="fb" xmlns="http://www.w3.org/2000/svg"><defs><style>.ba{fill:#7b9bd1}.bb{fill:#fff}</style></defs><title>fb</title><circle class="ba" cx="17.142" cy="17.142" r="17.142"/><path class="bb" d="M22.716 5.262h-3.798c-2.253 0-4.76.947-4.76 4.214.012 1.138 0 2.229 0 3.455h-2.607v4.148h2.688v11.943h4.939v-12.02h3.26l.295-4.083h-3.64s.008-1.815 0-2.342c0-1.29 1.343-1.217 1.424-1.217.64 0 1.882.002 2.2 0V5.262z"/></symbol><symbol viewBox="0 0 34.28422 34.28483" id="gh" xmlns="http://www.w3.org/2000/svg"><defs><style>.ca{fill:#fff}.cb{fill:#7b9bd1}</style></defs><title>gh</title><path class="ca" d="M17.142 0A17.142 17.142 0 1 1 0 17.142 17.143 17.143 0 0 1 17.142 0z"/><path class="cb" d="M17.142 0a17.144 17.144 0 0 0-5.42 33.408c.858.16 1.172-.371 1.172-.824 0-.409-.016-1.76-.023-3.192C8.1 30.43 7.096 27.37 7.096 27.37a4.538 4.538 0 0 0-1.904-2.509c-1.555-1.064.117-1.042.117-1.042a3.603 3.603 0 0 1 2.628 1.767 3.65 3.65 0 0 0 4.989 1.425 3.65 3.65 0 0 1 1.088-2.292c-3.807-.434-7.81-1.904-7.81-8.472a6.634 6.634 0 0 1 1.766-4.601 6.16 6.16 0 0 1 .166-4.537s1.44-.46 4.716 1.757a16.262 16.262 0 0 1 8.585 0c3.272-2.218 4.709-1.757 4.709-1.757a6.152 6.152 0 0 1 .168 4.537 6.621 6.621 0 0 1 1.764 4.6c0 6.585-4.01 8.035-7.827 8.459a4.098 4.098 0 0 1 1.163 3.174c0 2.294-.02 4.14-.02 4.705 0 .456.308.99 1.177.822A17.145 17.145 0 0 0 17.142 0"/><path class="cb" d="M6.42 24.42c-.037.085-.171.11-.293.052-.125-.056-.195-.172-.154-.258.037-.087.17-.112.295-.053.124.056.195.173.152.258m.844.753c-.082.076-.242.04-.35-.08a.262.262 0 0 1-.05-.356c.084-.075.239-.04.351.08.112.12.134.28.048.356m.58.962c-.106.073-.278.005-.384-.147-.105-.153-.105-.336.002-.409.107-.073.276-.007.384.144.104.155.104.338-.003.413m.978 1.114c-.094.104-.294.076-.44-.065a.33.33 0 0 1-.098-.438c.095-.104.297-.075.444.065.15.138.195.336.094.438m1.265.377c-.042.134-.234.195-.429.138-.193-.059-.32-.216-.281-.352.04-.135.234-.198.43-.137.193.058.32.214.28.35m1.439.16c.005.142-.16.259-.364.262-.205.004-.37-.11-.373-.25 0-.142.161-.258.366-.262.204-.004.37.11.37.25m1.414-.054c.025.138-.117.28-.32.317-.198.037-.383-.048-.408-.185-.025-.142.12-.283.318-.32.203-.035.384.048.41.188"/></symbol><symbol viewBox="0 0 34.28422 34.28825" id="me" xmlns="http://www.w3.org/2000/svg"><defs><style>.da{fill:#fff}.db{fill:#7b9bd1}</style></defs><title>me</title><path class="da" d="M33.772 21.292z"/><path class="db" d="M17.142.002a17.142 17.142 0 1 0 17.142 17.142A17.138 17.138 0 0 0 17.142.002zM28.73 24.17h.995v2.936h-9.018V24.17h1.888V11.167h-.093l-4.407 15.939h-3.413l-4.35-15.939h-.11V24.17h1.887v2.936h-7.55V24.17h.967a1.058 1.058 0 0 0 .92-.808v-12.37a1.127 1.127 0 0 0-.92-.873h-.967V7.183H14l3.1 11.534h.086l3.128-11.534h9.412v2.936h-.995a1.13 1.13 0 0 0-.892.874v12.37a1.056 1.056 0 0 0 .892.807z"/></symbol><symbol viewBox="0 0 34.28422 34.28422" id="ms" xmlns="http://www.w3.org/2000/svg"><defs><style>.ea{fill:#7b9bd1}.eb{fill:#fff}</style></defs><title>ms</title><path class="ea" d="M34.284 17.142A17.142 17.142 0 1 1 17.142 0a17.137 17.137 0 0 1 17.142 17.142z"/><path class="eb" d="M5.423 8.538a1.632 1.632 0 0 0-.61.114l3.839 3.951 3.88 4.022.071.085.114.114.113.113.227.24 3.328 3.414a3.257 3.257 0 0 0 .342.246 1.294 1.294 0 0 0 .517.162 1.23 1.23 0 0 0 .569-.135 2.184 2.184 0 0 0 .342-.273l3.852-3.98 3.895-4.007 3.753-3.867a1.648 1.648 0 0 0-.793-.198H5.423zm-1.176.482a2.233 2.233 0 0 0-.665 1.629V23.62a2.288 2.288 0 0 0 .453 1.388l.538-.51 4.008-3.895 3.555-3.441-.071-.085L8.17 13.07 4.276 9.048zm25.918.128l-3.796 3.922-3.88 4.008-.071.071 3.696 3.583 4.008 3.895.24.226a2.33 2.33 0 0 0 .34-1.232V10.65a2.276 2.276 0 0 0-.537-1.501zM12.589 17.63l-3.54 3.442-4.023 3.895-.51.496a1.668 1.668 0 0 0 .907.283h23.439a1.685 1.685 0 0 0 1.062-.397l-.255-.255-4.022-3.894-3.696-3.57-3.328 3.428a3.854 3.854 0 0 1-.477.333 2.135 2.135 0 0 1-.905.237 2.176 2.176 0 0 1-.9-.265 1.766 1.766 0 0 1-.38-.277l-3.372-3.456z"/></symbol><symbol viewBox="0 0 34.28422 34.28483" id="rd" xmlns="http://www.w3.org/2000/svg"><defs><style>.fa,.fb{fill:#7b9bd1}.fb,.fc{stroke:#fff}.fb{stroke-width:.75118px}.fc{fill:none;stroke-width:.75px}.fd{fill:#fff}</style></defs><title>rd</title><path class="fa" d="M17.142 0A17.142 17.142 0 1 1 0 17.142 17.143 17.143 0 0 1 17.142 0z"/><path class="fb" d="M9.692 15.973a2.62 2.62 0 0 1-2.559 2.676 2.679 2.679 0 0 1 0-5.352 2.62 2.62 0 0 1 2.559 2.676zm19.233.06a2.561 2.561 0 1 1-2.558-2.676 2.619 2.619 0 0 1 2.558 2.677z"/><path class="fc" d="M23.72 8.799c-1.933-.794-3.904-1.735-5.381-.707-1.712.788-1.632 3.37-1.501 6"/><path class="fb" d="M27.367 19.87c0 4.118-4.727 7.457-10.558 7.457-5.832 0-10.558-3.339-10.558-7.456 0-4.117 4.726-7.455 10.558-7.455 5.831 0 10.558 3.338 10.558 7.455zM27.16 9.195a2.256 2.256 0 1 1-4.499 0 2.256 2.256 0 1 1 4.5 0z"/><path class="fd" d="M13.942 18.37a1.508 1.508 0 1 1-1.508-1.543 1.526 1.526 0 0 1 1.508 1.544zm7.844-.131a1.507 1.507 0 1 1-1.507-1.544 1.526 1.526 0 0 1 1.507 1.544z"/><path class="fc" d="M12.339 22.474c3.347 2.366 5.872 1.433 8.293.088"/></symbol><symbol viewBox="0 0 34.28422 34.28422" id="tg" xmlns="http://www.w3.org/2000/svg"><defs><style>.ga{fill:#7b9bd1}.gb{fill:#b3bfdc}.gc{fill:#8899c3}.gd{fill:#fbfdff}</style></defs><title>tg</title><path class="ga" d="M34.284 17.142A17.142 17.142 0 1 1 17.142 0a17.137 17.137 0 0 1 17.142 17.142z"/><path class="gb" d="M14 24.999c-.558 0-.457-.214-.658-.743l-1.629-5.371 10.115-6.314 1.185.314-.985 2.686z"/><path class="gc" d="M14 24.999a1.116 1.116 0 0 0 .857-.429c.37-.356 5.143-5 5.143-5l-2.93-.713-2.713 1.713L14 24.856z"/><path class="gd" d="M14.286 20.628l6.913 5.1c.786.428 1.357.214 1.557-.73l2.815-13.256c.286-1.157-.444-1.671-1.2-1.328l-16.514 6.37c-1.129.458-1.114 1.087-.2 1.358L11.9 19.47l9.813-6.186c.457-.286.886-.128.543.186z"/></symbol><symbol viewBox="0 0 34.28422 34.28422" id="tw" xmlns="http://www.w3.org/2000/svg"><defs><style>.ha{fill:#7b9bd1}.hb{fill:#fff}</style></defs><title>tw</title><circle class="ha" cx="17.142" cy="17.142" r="17.142"/><path class="hb" d="M28.134 10.323a9.002 9.002 0 0 1-2.59.71 4.528 4.528 0 0 0 1.983-2.494 9.003 9.003 0 0 1-2.865 1.094 4.512 4.512 0 0 0-7.8 3.086 4.56 4.56 0 0 0 .116 1.028 12.802 12.802 0 0 1-9.295-4.711 4.514 4.514 0 0 0 1.395 6.02 4.486 4.486 0 0 1-2.043-.564v.057a4.513 4.513 0 0 0 3.617 4.422 4.497 4.497 0 0 1-1.188.158 4.554 4.554 0 0 1-.848-.08 4.517 4.517 0 0 0 4.212 3.133 9.09 9.09 0 0 1-6.677 1.866 12.824 12.824 0 0 0 19.743-10.804q0-.293-.013-.583a9.194 9.194 0 0 0 2.253-2.338z"/></symbol><symbol viewBox="0 0 34.28422 34.28483" id="yt" xmlns="http://www.w3.org/2000/svg"><defs><style>.ia{fill:#7b9bd1}.ib{fill:#fff}</style></defs><title>yt</title><path class="ia" d="M17.142 0A17.142 17.142 0 1 1 0 17.142 17.143 17.143 0 0 1 17.142 0z"/><path class="ia" d="M20.92 16.91c-2.085-1.114-4.082-2.138-6.122-3.208V20.1c2.147-1.167 4.41-2.236 6.13-3.19z"/><path class="ib" d="M15.19 25.108a46.11 46.11 0 0 1-6.719-.34 2.951 2.951 0 0 1-1.54-.8 3.247 3.247 0 0 1-.732-1.409 9.224 9.224 0 0 1-.311-2.067 49.027 49.027 0 0 1 0-6.7c.14-1.24.207-2.708 1.131-3.565a3.037 3.037 0 0 1 1.515-.766 83.601 83.601 0 0 1 8.617-.303 83.768 83.768 0 0 1 8.617.303 2.967 2.967 0 0 1 1.773 1.05 8.833 8.833 0 0 1 .944 4.27c.035.614.035 4.107 0 4.722a10.804 10.804 0 0 1-.544 3.51 2.584 2.584 0 0 1-.624.999 2.988 2.988 0 0 1-1.585.81c-3.748.283-6.93.344-10.542.286zm5.74-8.198c-2.086-1.114-4.083-2.147-6.123-3.217v6.398c2.147-1.167 4.411-2.236 6.131-3.19l-.009.01z"/></symbol></svg>