<svg xmlns="http://www.w3.org/2000/svg" style="display: none;"><symbol id="favorite" viewBox="0 -5 455 455"><title>favorite</title><path d="M326.632,10.346c-38.733,0-74.991,17.537-99.132,46.92c-24.141-29.384-60.398-46.92-99.132-46.92 C57.586,10.346,0,67.931,0,138.714c0,55.426,33.05,119.535,98.23,190.546c50.161,54.647,104.728,96.959,120.257,108.626l9.01,6.769 l9.01-6.768c15.529-11.667,70.098-53.978,120.26-108.625C421.949,258.251,455,194.141,455,138.714 C455,67.931,397.414,10.346,326.632,10.346z M334.666,308.974c-41.259,44.948-85.648,81.283-107.169,98.029 c-21.52-16.746-65.907-53.082-107.166-98.03C61.236,244.592,30,185.717,30,138.714c0-54.24,44.128-98.368,98.368-98.368 c35.694,0,68.652,19.454,86.013,50.771l13.119,23.666l13.119-23.666c17.36-31.316,50.318-50.771,86.013-50.771 c54.24,0,98.368,44.127,98.368,98.368C425,185.719,393.763,244.594,334.666,308.974z"/></symbol><symbol id="gp" viewBox="0 0 96.828 96.827"><title>google-plus-logo</title><path d="M62.617,0H39.525c-10.29,0-17.413,2.256-23.824,7.552c-5.042,4.35-8.051,10.672-8.051,16.912 c0,9.614,7.33,19.831,20.913,19.831c1.306,0,2.752-0.134,4.028-0.253l-0.188,0.457c-0.546,1.308-1.063,2.542-1.063,4.468 c0,3.75,1.809,6.063,3.558,8.298l0.22,0.283l-0.391,0.027c-5.609,0.384-16.049,1.1-23.675,5.787 c-9.007,5.355-9.707,13.145-9.707,15.404c0,8.988,8.376,18.06,27.09,18.06c21.76,0,33.146-12.005,33.146-23.863 c0.002-8.771-5.141-13.101-10.6-17.698l-4.605-3.582c-1.423-1.179-3.195-2.646-3.195-5.364c0-2.672,1.772-4.436,3.336-5.992 l0.163-0.165c4.973-3.917,10.609-8.358,10.609-17.964c0-9.658-6.035-14.649-8.937-17.048h7.663c0.094,0,0.188-0.026,0.266-0.077 l6.601-4.15c0.188-0.119,0.276-0.348,0.214-0.562C63.037,0.147,62.839,0,62.617,0z M34.614,91.535 c-13.264,0-22.176-6.195-22.176-15.416c0-6.021,3.645-10.396,10.824-12.997c5.749-1.935,13.17-2.031,13.244-2.031 c1.257,0,1.889,0,2.893,0.126c9.281,6.605,13.743,10.073,13.743,16.678C53.141,86.309,46.041,91.535,34.614,91.535z M34.489,40.756c-11.132,0-15.752-14.633-15.752-22.468c0-3.984,0.906-7.042,2.77-9.351c2.023-2.531,5.487-4.166,8.825-4.166 c10.221,0,15.873,13.738,15.873,23.233c0,1.498,0,6.055-3.148,9.22C40.94,39.337,37.497,40.756,34.489,40.756z"/><path d="M94.982,45.223H82.814V33.098c0-0.276-0.225-0.5-0.5-0.5H77.08c-0.276,0-0.5,0.224-0.5,0.5v12.125H64.473 c-0.276,0-0.5,0.224-0.5,0.5v5.304c0,0.275,0.224,0.5,0.5,0.5H76.58V63.73c0,0.275,0.224,0.5,0.5,0.5h5.234 c0.275,0,0.5-0.225,0.5-0.5V51.525h12.168c0.276,0,0.5-0.223,0.5-0.5v-5.302C95.482,45.446,95.259,45.223,94.982,45.223z"/></symbol><symbol id="li" viewBox="0 0 430.117 430.117"><title>linkedin-logo</title><path d="M430.117,261.543V420.56h-92.188V272.193c0-37.271-13.334-62.707-46.703-62.707 c-25.473,0-40.632,17.142-47.301,33.724c-2.432,5.928-3.058,14.179-3.058,22.477V420.56h-92.219c0,0,1.242-251.285,0-277.32h92.21 v39.309c-0.187,0.294-0.43,0.611-0.606,0.896h0.606v-0.896c12.251-18.869,34.13-45.824,83.102-45.824 C384.633,136.724,430.117,176.361,430.117,261.543z M52.183,9.558C20.635,9.558,0,30.251,0,57.463 c0,26.619,20.038,47.94,50.959,47.94h0.616c32.159,0,52.159-21.317,52.159-47.94C103.128,30.251,83.734,9.558,52.183,9.558z M5.477,420.56h92.184v-277.32H5.477V420.56z"/></symbol><symbol id="tw" viewBox="0 0 612 612"><title>twitter-logo-silhouette</title><path d="M612,116.258c-22.525,9.981-46.694,16.75-72.088,19.772c25.929-15.527,45.777-40.155,55.184-69.411 c-24.322,14.379-51.169,24.82-79.775,30.48c-22.907-24.437-55.49-39.658-91.63-39.658c-69.334,0-125.551,56.217-125.551,125.513 c0,9.828,1.109,19.427,3.251,28.606C197.065,206.32,104.556,156.337,42.641,80.386c-10.823,18.51-16.98,40.078-16.98,63.101 c0,43.559,22.181,81.993,55.835,104.479c-20.575-0.688-39.926-6.348-56.867-15.756v1.568c0,60.806,43.291,111.554,100.693,123.104 c-10.517,2.83-21.607,4.398-33.08,4.398c-8.107,0-15.947-0.803-23.634-2.333c15.985,49.907,62.336,86.199,117.253,87.194 c-42.947,33.654-97.099,53.655-155.916,53.655c-10.134,0-20.116-0.612-29.944-1.721c55.567,35.681,121.536,56.485,192.438,56.485 c230.948,0,357.188-191.291,357.188-357.188l-0.421-16.253C573.872,163.526,595.211,141.422,612,116.258z"/></symbol><symbol id="fb" viewBox="0 0 96.124 96.123"><title>facebook-logo</title><path d="M72.089,0.02L59.624,0C45.62,0,36.57,9.285,36.57,23.656v10.907H24.037c-1.083,0-1.96,0.878-1.96,1.961v15.803 c0,1.083,0.878,1.96,1.96,1.96h12.533v39.876c0,1.083,0.877,1.96,1.96,1.96h16.352c1.083,0,1.96-0.878,1.96-1.96V54.287h14.654 c1.083,0,1.96-0.877,1.96-1.96l0.006-15.803c0-0.52-0.207-1.018-0.574-1.386c-0.367-0.368-0.867-0.575-1.387-0.575H56.842v-9.246 c0-4.444,1.059-6.7,6.848-6.7l8.397-0.003c1.082,0,1.959-0.878,1.959-1.96V1.98C74.046,0.899,73.17,0.022,72.089,0.02z"/></symbol><symbol id="arrow" viewBox="0 0 411.6 411.6"><title>arrow</title><path d="M19.6,197.8H8c-4.4,0-8,3.6-8,8c0,4.4,3.6,8,8,8h11.6c4.4,0,8-3.6,8-8C27.6,201.4,24,197.8,19.6,197.8z"/><path d="M409.2,200.2l-156-156c-3.2-3.2-8-3.2-11.2,0c-3.2,3.2-3.2,8,0,11.2l142.4,142.4H55.6c-4.4,0-8,3.6-8,8c0,4.4,3.6,8,8,8 h328.8L242,356.2c-3.2,3.2-3.2,8,0,11.2c1.6,1.6,3.6,2.4,5.6,2.4s4-0.8,5.6-2.4l156-156C412.4,208.2,412.4,203.4,409.2,200.2z"/></symbol></svg>

