<svg xmlns="http://www.w3.org/2000/svg" viewBox="0 0 63.1973 49.188">
  <title>left-opt-7</title>
  <g>
    <path d="M53.8437,42.1397H37.0088V36.0533a3.181,3.181,0,0,1,1.0762-2.2305l7.3847-1.9297,1.4849-4.1538c-1.4849-.5952-2.0767-3.27-2.0767-3.27a63.43523,63.43523,0,0,1-1.04-9.6485c0-4.1567,6.2368-4.457,6.2368-4.457h.0601s6.23341.3003,6.23341,4.457a63.458,63.458,0,0,1-1.03961,9.6485s-.5923,2.6748-2.0771,3.27l1.4848,4.1538,7.3848,1.9297a3.181,3.181,0,0,1,1.0762,2.2305v6.0864Z" fill="#92a1cd"/>
    <path d="M31.791,17.4688H26.6455V14.1236a1.7506,1.7506,0,0,1,.5918-1.2261l4.064-1.064.8144-2.2846c-.8144-.3242-1.1421-1.794-1.1421-1.794a34.90752,34.90752,0,0,1-.5713-5.3051C30.4023.1622,33.832,0,33.832,0h.0298s3.4297.1622,3.4297,2.4498a34.90811,34.90811,0,0,1-.57129,5.3051s-.32761,1.4698-1.14211,1.794l.8145,2.2846,4.0639,1.064a1.7506,1.7506,0,0,1,.5918,1.2261v3.3452H31.791Z" fill="#92a1cd"/>
    <path d="M41.5024,46.2271c0-.7842-2.0107-1.4155-4.4936-1.4155-2.4824,0-4.4932.6313-4.4932,1.4155,0,.7754,2.0108,1.4126,4.4932,1.4126C39.4917,47.6397,41.5024,47.0025,41.5024,46.2271ZM21.6411,31.9776c1.6138,0,2.9243-.4121,2.9243-.9199,0-.5113-1.3105-.9229-2.9243-.9229-1.6142,0-2.9248.4116-2.9248.9229C18.7163,31.5655,20.0269,31.9776,21.6411,31.9776ZM35.8726,19.9727c0-.3516-.9078-.6401-2.02539-.6401-1.11821,0-2.02591.2885-2.02591.6401s.9077.6372,2.02591.6372C34.9648,20.6099,35.8726,20.3243,35.8726,19.9727Zm-1.9595,1.2412a.7025.7025,0,0,1-.0874.1025l-8.9658,8.1304c1.17231.3696,1.9267.9468,1.9267,1.5928,0,.6733-.8237,1.2656-2.0888,1.6411L35.4731,43.3296c.4956-.042,1.0098-.063,1.5357-.063,4.1118,0,7.4482,1.3257,7.4482,2.9605,0,1.6352-3.3364,2.9609-7.4482,2.9609s-7.4448-1.3257-7.4448-2.9609c0-1.061,1.4004-1.9898,3.5073-2.5127L22.2964,33.0655c-.2139.0088-.4331.018-.6553.018-2.8403,0-5.146-.9135-5.146-2.0439s2.3057-2.0469,5.146-2.0469q.3918,0,.76611.0269l9.07719-8.2295c-.481-.2193-.7725-.5049-.7725-.8174,0-.6885,1.4038-1.2476,3.13531-1.2476,1.73089,0,3.13469.5591,3.13469,1.2476C36.9819,20.6519,35.6143,21.2051,33.9131,21.2139Z" fill="#92a1cd"/>
    <path d="M21.6411,27.7574H0V22.7261a2.62932,2.62932,0,0,1,.8896-1.8398l6.1045-1.5957L8.2207,15.855c-1.2266-.4897-1.7192-2.6992-1.7192-2.6992a52.53454,52.53454,0,0,1-.857-7.977c0-3.4292,5.1519-3.6758,5.1519-3.6758h.0483s5.1514.2466,5.1514,3.6758a52.5639,52.5639,0,0,1-.8565,7.977s-.4897,2.2095-1.7192,2.6992l1.2295,3.4356,6.1016,1.5957a2.62932,2.62932,0,0,1,.8896,1.8398Z" fill="#92a1cd"/>
  </g>
</svg>
