<svg xmlns="http://www.w3.org/2000/svg" viewBox="0 0 54.2139 53.1006">
  <title>left-opt-5</title>
  <g>
    <path d="M47.3267,30.5147a.54953.54953,0,0,0,.5659-.5303V24.0743a.55016.55016,0,0,0-.5659-.5342H39.0616a.55108.55108,0,0,0-.5694.5342v5.9101a.55046.55046,0,0,0,.5694.5303Zm-32.2554,0a.54991.54991,0,0,0,.5664-.5303V24.0743a.55054.55054,0,0,0-.5664-.5342H6.7998a.54933.54933,0,0,0-.5629.5342v5.9101a.54868.54868,0,0,0,.5629.5303ZM31.0909,7.4336H22.8223a.55018.55018,0,0,0-.5664.5332V13.877a.54841.54841,0,0,0,.5664.5342h8.2686a.54929.54929,0,0,0,.5625-.5342V7.9668A.55109.55109,0,0,0,31.0909,7.4336Zm.042,16.1065h-8.272a.54527.54527,0,0,0-.5625.5342v5.9101a.5446.5446,0,0,0,.5625.5303h8.272a.54864.54864,0,0,0,.5625-.5303V24.0743A.54929.54929,0,0,0,31.1329,23.5401Zm-4.8301-7.9356h-4.503a.71192.71192,0,0,1-.7114-.7148V6.9581a.70766.70766,0,0,1,.7114-.712H32.1939a.7095.7095,0,0,1,.7085.712v7.9316a.71383.71383,0,0,1-.7085.7148H27.6841v6.7422h4.5518a.70981.70981,0,0,1,.7114.7149v3.2763h4.377V23.0616a.70919.70919,0,0,1,.7085-.7149H48.4331a.70983.70983,0,0,1,.7115.7149v7.9316a.70989.70989,0,0,1-.7115.7149H38.0328a.70926.70926,0,0,1-.7085-.7149V27.7159h-4.377v3.2773a.70987.70987,0,0,1-.7114.7149H21.8389a.71213.71213,0,0,1-.7119-.7149V27.7159H16.8892v3.2773a.7117.7117,0,0,1-.7114.7149H5.7774a.712.712,0,0,1-.7114-.7149V23.0616a.712.712,0,0,1,.7114-.7149H16.1778a.71164.71164,0,0,1,.7114.7149v3.2763H21.127V23.0616a.71206.71206,0,0,1,.7119-.7149h4.4639Z" fill="#92a1cd"/>
    <rect x="18.9629" y="44.8448" width="16.2876" height="2.6787" fill="#92a1cd"/>
    <path d="M35.8267,53.1006H18.3838c-2.1445,0-3.8852-1.1259-3.8852-2.5195V48.6172H39.7115v1.9639C39.7115,51.9747,37.9712,53.1006,35.8267,53.1006Z" fill="#92a1cd"/>
    <path d="M29.4473,41.9463a1.2275,1.2275,0,1,0,0-2.455H24.7632a1.2275,1.2275,0,1,0,0,2.455ZM0,0H54.2139V43.7295H0ZM52.2115,1.7881H1.9991V37.4795H52.2115Z" fill="#92a1cd"/>
  </g>
</svg>
