<svg xmlns="http://www.w3.org/2000/svg" viewBox="0 0 56.22371 55.1015">
  <title>left-opt-4</title>
  <g>
    <path d="M51.38871,41.3691a27.4869,27.4869,0,0,1-6.41021,7.5147,5.0235,5.0235,0,1,1,6.41021-7.5147Z" fill="#92a1cd"/>
    <path d="M44.9785,48.8838a4.96847,4.96847,0,0,0,2.5049.6723,5.02271,5.02271,0,0,0,3.90531-8.187,26.86257,26.86257,0,0,0,1.72169-3.5244,8.73923,8.73923,0,1,1-11.335,13.3042A26.55374,26.55374,0,0,0,44.9785,48.8838Z" fill="#92a1cd"/>
    <path d="M53.1104,37.8447a8.72626,8.72626,0,0,0-13.3858,2.6807l-6.6328-2.2569a7.37576,7.37576,0,1,0-14.666-1.1133,7.298,7.298,0,0,0,.5225,2.7022l-5.9951,3.6909a5.76361,5.76361,0,0,0-7.9942-.2309A27.39625,27.39625,0,0,1,0,27.5507H27.5508V0A27.55939,27.55939,0,0,1,53.1104,37.8447Z" fill="#92a1cd"/>
    <path d="M25.80371,32.9077a4.2434,4.2434,0,1,1-4.23921,4.2475A4.2478,4.2478,0,0,1,25.80371,32.9077Z" fill="#92a1cd"/>
    <path d="M24.0264,1.7812V24.0351H1.7813A22.24791,22.24791,0,0,1,24.0264,1.7812Z" fill="#92a1cd"/>
    <path d="M32.2696,40.7138l6.62011,2.2608a8.82732,8.82732,0,0,0-.14551,1.5586,8.69674,8.69674,0,0,0,3.0312,6.6157,27.57483,27.57483,0,0,1-28.415.0215,5.71764,5.71764,0,0,0,1.25-3.5796,5.52636,5.52636,0,0,0-.3086-1.8501l6.00391-3.6865A7.36267,7.36267,0,0,0,32.2696,40.7138Z" fill="#92a1cd"/>
    <path d="M11.3086,49.8047q.9903.7323,2.0518,1.3657a5.76916,5.76916,0,1,1-8.4014-7.853c.4668.6762.97171,1.3315,1.5029,1.9609a3.31656,3.31656,0,1,0,4.8467,4.5264Z" fill="#92a1cd"/>
    <path d="M12.1612,47.5908a3.2841,3.2841,0,0,1-.8526,2.2139,27.45213,27.45213,0,0,1-4.8467-4.5264A3.29124,3.29124,0,0,1,8.834,44.2719,3.32629,3.32629,0,0,1,12.1612,47.5908Z" fill="#92a1cd"/>
  </g>
</svg>
