<svg xmlns="http://www.w3.org/2000/svg" viewBox="0 0 49.68032 55.73601">
  <title>left-opt-1</title>
  <g>
    <rect x="35.45153" y="11.98876" width="2.8789" height="16.2675" fill="#92a1cd"/>
    <rect x="31.49053" y="18.00436" width="2.8765" height="10.2519" fill="#92a1cd"/>
    <path d="M13.57213,7.53856a20.31382,20.31382,0,1,1,5.5117,30.2929,3.73143,3.73143,0,0,1-.8272,2.1797l-11.5927,14.334a3.7487,3.7487,0,0,1-5.8301-4.7139l11.5933-14.3369a3.75,3.75,0,0,1,1.9589-1.2617A20.31986,20.31986,0,0,1,13.57213,7.53856Zm15.8481,27.4931a14.90915,14.90915,0,1,0-14.9096-14.9091A14.90957,14.90957,0,0,0,29.42023,35.03166Z" fill="#92a1cd"/>
    <rect x="27.54083" y="20.12256" width="2.8789" height="8.1337" fill="#92a1cd"/>
    <rect x="23.68053" y="18.00436" width="2.8764" height="10.2519" fill="#92a1cd"/>
    <rect x="19.73323" y="24.19186" width="2.8765" height="4.0644" fill="#92a1cd"/>
  </g>
</svg>
