<svg xmlns="http://www.w3.org/2000/svg" viewBox="0 0 59.9414 45.7475">
  <title>left-opt-3</title>
  <g>
    <g>
      <path d="M38.8965,30.7588a7.014,7.014,0,0,1-2.5845-.9693v15.958h2.5845Z" fill="#92a1cd"/>
      <path d="M40.9658,45.7475h3.1924V30.2851a6.29533,6.29533,0,0,0-2.4238.2359,7.507,7.507,0,0,1-.7686.1831Z" fill="#92a1cd"/>
      <path d="M26.5469,45.7475h2.5845V23.2939q-.54285-.52665-1.11969-1.0698c-.52881-.4932-1.01461-.9424-1.46481-1.3457Z" fill="#92a1cd"/>
      <path d="M31.20071,45.7475H34.2412V28.2529c-.956-.8267-1.9502-1.8149-3.04049-2.9067Z" fill="#92a1cd"/>
      <path d="M53.9234,39.3081a24.72345,24.72345,0,0,0-3.0401-4.7608V45.7475h3.0401Z" fill="#92a1cd"/>
      <path d="M55.99371,45.7475H59.9414a8.57086,8.57086,0,0,1-3.94769-3.0512Z" fill="#92a1cd"/>
      <path d="M14.9605,32.1616a31.8386,31.8386,0,0,1-3.0406,4.0718v9.5141h3.0406Z" fill="#92a1cd"/>
      <path d="M5.1958,42.3818A42.71748,42.71748,0,0,1,0,45.7475H5.1958Z" fill="#92a1cd"/>
      <path d="M48.8135,32.4399a10.2752,10.2752,0,0,0-2.5855-1.6177V45.7475h2.5855Z" fill="#92a1cd"/>
      <path d="M7.2656,45.7475H9.8511v-7.331c-.8657.8467-1.7368,1.624-2.5855,2.332Z" fill="#92a1cd"/>
      <path d="M17.0313,45.7475h2.5849V21.9829c-.7158,1.4453-1.5136,3.3926-2.4966,5.9209-.0278.0723-.06.1421-.0883.2143Z" fill="#92a1cd"/>
      <path d="M21.6856,45.7475h2.791V19.2485c-1.0996-.6885-1.96-.8037-2.791-.2065Z" fill="#92a1cd"/>
    </g>
    <polygon points="58.291 0 45.671 6.961 49.568 9.967 44.301 17.665 38.134 7.217 29.499 19.75 32.154 21.834 37.924 13.458 44.1 23.92 52.239 12.027 56.058 14.974 58.291 0" fill="#92a1cd"/>
  </g>
</svg>
