<svg xmlns="http://www.w3.org/2000/svg" viewBox="0 0 66.8242 44.8184">
  <title>left-otp-6</title>
  <path d="M49.8203,10.6069a16.97035,16.97035,0,0,0-5.6748.9737,15.47558,15.47558,0,0,0-30.3526,2.1352A15.60379,15.60379,0,0,0,7.1426,42.3247V41.0493a2.40763,2.40763,0,0,1,.8173-1.6875l5.6016-1.4643,1.125-3.1519c-1.125-.4516-1.5762-2.4775-1.5762-2.4775a48.09634,48.09634,0,0,1-.789-7.3194c0-3.1533,4.73042-3.3789,4.73042-3.3789h.045s4.72848.2256,4.72848,3.3789a48.14892,48.14892,0,0,1-.7881,7.3194s-.4502,2.0259-1.5752,2.4775l1.125,3.1519,3.1523.8237L19.251,39.8926a3.0729,3.0729,0,0,0-1.0391,2.1504v2.7754q.61965-.003,1.2793-.0069V42.8291a2.91041,2.91041,0,0,1,.9844-2.0366l6.7578-1.7661,1.3584-3.8037c-1.3584-.543-1.9004-2.9883-1.9004-2.9883a57.99047,57.99047,0,0,1-.9522-8.8301c0-3.8042,5.7071-4.0752,5.7071-4.0752h.0547s5.7041.271,5.7041,4.0752a58.04882,58.04882,0,0,1-.9512,8.8301s-.542,2.4453-1.9014,2.9883l1.3594,3.8037,6.75682,1.7661a2.90961,2.90961,0,0,1,.98538,2.0366v1.8086c.4092-.0019.80762-.0049,1.2031-.0078V42.0132a3.06929,3.06929,0,0,0-1.04-2.1499l-4.4873-1.1724,3.1523-.8237,1.126-3.1538c-1.126-.4497-1.5772-2.4756-1.5772-2.4756a48.21063,48.21063,0,0,1-.7871-7.3208c0-3.1519,4.7285-3.377,4.7285-3.377h.0459s4.7285.2251,4.7285,3.377a48.15791,48.15791,0,0,1-.788,7.3208s-.4502,2.0259-1.5772,2.4756l1.127,3.1538,5.6006,1.4624a2.416,2.416,0,0,1,.8173,1.6895v2.539a17.00514,17.00514,0,0,0-5.9062-32.9512Z" fill="#92a1cd"/>
</svg>
