<svg xmlns="http://www.w3.org/2000/svg" viewBox="0 0 53.4043 53.4053">
  <title>left-opt-2</title>
  <g>
    <path d="M50.8584,21.5869H49.3487A23.2334,23.2334,0,0,0,31.7579,3.999V2.4873A24.70163,24.70163,0,0,1,50.8584,21.5869Z" fill="#92a1cd"/>
    <path d="M49.3487,31.7012h1.5097A24.70666,24.70666,0,0,1,31.7579,50.8017V49.2881A23.23362,23.23362,0,0,0,49.3487,31.7012Z" fill="#92a1cd"/>
    <rect x="47.68662" y="23.7851" width="5.71768" height="5.7168" fill="#92a1cd"/>
    <path d="M43.0674,27.5166H34.7657L27.1973,42.9267,22.1954,18.6055,16.7647,29.1777H10.335a1.6125,1.6125,0,0,1,0-3.209h4.4707L23.504,9.0293l4.9482,24.0576,4.3125-8.7812H43.0674a1.61353,1.61353,0,0,1,0,3.2109Z" fill="#92a1cd"/>
    <rect x="23.8418" y="47.6885" width="5.71882" height="5.7168" fill="#92a1cd"/>
    <rect x="23.8418" width="5.71882" height="5.7168" fill="#92a1cd"/>
    <path d="M2.545,31.7012H4.0577A23.22421,23.22421,0,0,0,21.64562,49.2881v1.5136A24.70664,24.70664,0,0,1,2.545,31.7012Z" fill="#92a1cd"/>
    <path d="M4.0577,21.5869H2.545A24.70434,24.70434,0,0,1,21.64562,2.4873V3.999A23.22686,23.22686,0,0,0,4.0577,21.5869Z" fill="#92a1cd"/>
    <rect y="23.7851" width="5.7149" height="5.7168" fill="#92a1cd"/>
  </g>
</svg>
